/* XPM */
static char *c_ammo61742566004[] = {
/* columns rows colors chars-per-pixel */
"33 32 9 1 ",
"  c black",
". c #cd7f32",
"X c #804A00",
"o c #FB6B1D",
"O c #7F708A",
"+ c #9BABB2",
"@ c #C7DCD0",
"# c white",
"$ c None",
/* pixels */
"$$$$$$$$$$$$$$$$$$$$$$$$$$$$$$$$$",
"$$$$$$$$$$$$$$$$$$$$$$$$$$$$$$$$$",
"$$$$$$$$$$$$$$$$$$$$$$$$$$$$$$$$$",
"$$$$$$X$$$$$$$$$X$$$$$$$$$X$$$$$$",
"$$$$$X X$$$$$$$X X$$$$$$$X X$$$$$",
"$$$$X o X$$$$$X o X$$$$$X o X$$$$",
"$$$X .o. X$$$X .o. X$$$X .o. X$$$",
"$$$X .o. X$$$X .o. X$$$X .o. X$$$",
"$$$X .o. X$$$X .o. X$$$X .o. #$$$",
"$$X .Xoo. X$X .Xoo. X$X .Xoo###$$",
"$$X .Xoo. X$X .Xoo. X$X .Xo####$$",
"$$$X     X$$$X     X$$$X  ####$$$",
"$$$X O@+ X$$$X O@+ X$$$X #####$$$",
"$$$X O@+ X$$$X O@+ X$$$X######$$$",
"$$$X O@+ X$$$X O@+ X$$$#######$$$",
"$$$X O@+ X$$$X O@+ X$$$#######$$$",
"$$$X O@+ X$$$X O@+ X$$$#######$$$",
"$$$X O@+ X$$$X O@+ X$$$#######$$$",
"$$$X O@+ X$$$X O@+ #$$$#######$$$",
"$$$X O@+ X$$$X O@+##$$$#######$$$",
"$$$X O@+ X$$$X O@###$$$#######$$$",
"$$$X O@+ X$$$X O####$$$#######$$$",
"$$$X O@+ X$$$X #####$$$#######$$$",
"$$X . @ . X$X #######$#########$$",
"$$X . @ . X$X########$#########$$",
"$X .XX .XX X###################X$",
"$X .XX .XX ################### X$",
"$X .X X XX###################X X$",
"$X . X$X #######$#########$# X X$",
"$$X X$$$###$###$$$###$###$$$X X$$",
"$$$X$$$$$#$$$#$$$$$#$$$#$$$$$X$$$",
"$$$$$$$$$$$$$$$$$$$$$$$$$$$$$$$$$"
};
