/* XPM */
static char *c_ammo11742566004[] = {
/* columns rows colors chars-per-pixel */
"33 32 8 1 ",
"  c black",
". c #AE2334",
"X c #E83B3B",
"o c #FB6B1D",
"O c #7F708A",
"+ c #9BABB2",
"@ c #C7DCD0",
"# c None",
/* pixels */
"#################################",
"#################################",
"#################################",
"######X#########X#########X######",
"#####X X#######X X#######X X#####",
"####X o X#####X o X#####X o X####",
"###X .o. X###X .o. X###X .o. X###",
"###X .o. X###X .o. X###X .o. X###",
"###X .o. X###X .o. X###X .o. X###",
"##X .Xoo. X#X .Xoo. X#X .Xoo. X##",
"##X .Xoo. X#X .Xoo. X#X .Xoo. X##",
"###X     X###X     X###X     X###",
"###X O@+ X###X O@+ X###X O@+ X###",
"###X O@+ X###X O@+ X###X O@+ X###",
"###X O@+ X###X O@+ X###X O@+ X###",
"###X O@+ X###X O@+ X###X O@+ X###",
"###X O@+ X###X O@+ X###X O@+ X###",
"###X O@+ X###X O@+ X###X O@+ X###",
"###X O@+ X###X O@+ X###X O@+ X###",
"###X O@+ X###X O@+ X###X O@+ X###",
"###X O@+ X###X O@+ X###X O@+ X###",
"###X O@+ X###X O@+ X###X O@+ X###",
"###X O@+ X###X O@+ X###X O@+ X###",
"##X . @ . X#X . @ . X#X . @ . X##",
"##X . @ . X#X . @ . X#X . @ . X##",
"#X .XX .XX X .XX .XX X .XX .XX X#",
"#X .XX .XX X .XX .XX X .XX .XX X#",
"#X .X X XX X .X X XX X .X X XX X#",
"#X . X#X X X . X#X X X . X#X X X#",
"##X X###X X#X X###X X#X X###X X##",
"###X#####X###X#####X###X#####X###",
"#################################"
};
