/* XPM */
static char *h10_removebg_preview1742491788[] = {
/* columns rows colors chars-per-pixel */
"50 50 229 2 ",
"   c #010300",
".  c #0C0101",
"X  c #010B01",
"o  c #140000",
"O  c #1B0000",
"+  c #1E070B",
"@  c #0A1608",
"#  c #101203",
"$  c #1D1A17",
"%  c #1A0410",
"&  c #210000",
"*  c #2B0000",
"=  c #27070C",
"-  c #350003",
";  c #36000B",
":  c #3A010B",
">  c #350909",
",  c #2C0311",
"<  c #240E10",
"1  c #360213",
"2  c #251415",
"3  c #3E151E",
"4  c #381419",
"5  c #341623",
"6  c #382327",
"7  c #31312F",
"8  c #3D3331",
"9  c #4B0003",
"0  c #48030A",
"q  c #5C0301",
"w  c #540205",
"e  c #480516",
"r  c #431717",
"t  c #59111D",
"y  c #681115",
"u  c #59271C",
"i  c #461824",
"p  c #581F30",
"a  c #541F25",
"s  c #67182B",
"d  c #781B26",
"f  c #6D1832",
"g  c #781A33",
"h  c #422529",
"j  c #53252E",
"k  c #4C302F",
"l  c #4C2432",
"z  c #4A2C34",
"x  c #422E39",
"c  c #592936",
"v  c #4A3539",
"b  c #573638",
"n  c #563129",
"m  c #682128",
"M  c #7C2829",
"N  c #6D2B3C",
"B  c #642638",
"V  c #722A3C",
"C  c #75253B",
"Z  c #374335",
"A  c #52453A",
"S  c #42453D",
"D  c #4A3E43",
"F  c #573E44",
"G  c #7A2C45",
"H  c #3E4C44",
"J  c #574947",
"K  c #565449",
"L  c #5D5755",
"P  c #4C4C42",
"I  c #664E52",
"U  c #6A5355",
"Y  c #645C59",
"T  c #645856",
"R  c #6E4B52",
"E  c #4B6B4E",
"W  c #486849",
"Q  c #49714F",
"!  c #4D6953",
"~  c #556755",
"^  c #516B53",
"/  c #586959",
"(  c #547258",
")  c #63655C",
"_  c #646B5D",
"`  c #6C675E",
"'  c #77645C",
"]  c #61725F",
"[  c #6D5B63",
"{  c #5F6565",
"}  c #6C6460",
"|  c #646D61",
" . c #6C6D65",
".. c #736D68",
"X. c #766967",
"o. c #657364",
"O. c #6B7365",
"+. c #637964",
"@. c #6C766C",
"#. c #697C6A",
"$. c #73746B",
"%. c #707A6C",
"&. c #767269",
"*. c #7B7775",
"=. c #8E131A",
"-. c #891A2A",
";. c #9D1B27",
":. c #90283F",
">. c #8D2C36",
",. c #BA373E",
"<. c #B02C34",
"1. c #C2373A",
"2. c #EE2E3D",
"3. c #EB333C",
"4. c #F4353D",
"5. c #FB363D",
"6. c #F5393E",
"7. c #F93A3D",
"8. c #FA3336",
"9. c #842E43",
"0. c #862C44",
"q. c #922841",
"w. c #8A3349",
"e. c #9E3349",
"r. c #863953",
"t. c #983B52",
"y. c #A8354A",
"u. c #BC3949",
"i. c #B43D5A",
"p. c #B93956",
"a. c #AF3E64",
"s. c #DF2D45",
"d. c #DA3C49",
"f. c #CA3C54",
"g. c #C73858",
"h. c #DB3E56",
"j. c #DA3D58",
"k. c #E73644",
"l. c #ED3C46",
"z. c #ED364B",
"x. c #E33C4C",
"c. c #ED3B4C",
"v. c #E93442",
"b. c #F43543",
"n. c #FB3741",
"m. c #F53A42",
"M. c #FA3942",
"N. c #F33A4B",
"B. c #FB3C4A",
"V. c #FD354B",
"C. c #E23D56",
"Z. c #EC3B53",
"A. c #E4345B",
"S. c #EB3B5A",
"D. c #E63754",
"F. c #F23554",
"G. c #F33C53",
"H. c #FB3B53",
"J. c #F3355A",
"K. c #F53858",
"L. c #CE3E66",
"P. c #D53D61",
"I. c #DA3E63",
"U. c #D33B66",
"Y. c #E53C61",
"T. c #9D4659",
"R. c #B7464B",
"E. c #AB425A",
"W. c #A54457",
"Q. c #B1435A",
"!. c #B94B59",
"~. c #9A4B6A",
"^. c #AC4064",
"/. c #BA4463",
"(. c #B9426C",
"). c #807A77",
"_. c #C7425C",
"`. c #DB4254",
"'. c #D4425B",
"]. c #DB415B",
"[. c #D54658",
"{. c #D7505A",
"}. c #CC454B",
"|. c #EE4147",
" X c #EF4A4E",
".X c #E6454C",
"XX c #F3424A",
"oX c #FC424C",
"OX c #FA4546",
"+X c #E44352",
"@X c #EC4353",
"#X c #E94457",
"$X c #F44452",
"%X c #FA4355",
"&X c #FD4C54",
"*X c #F6445A",
"=X c #F74A5C",
"-X c #E7525C",
";X c #F4545D",
":X c #FA525D",
">X c #CB4262",
",X c #C54866",
"<X c #D44665",
"1X c #D35368",
"2X c #C34D70",
"3X c #C25067",
"4X c #E34561",
"5X c #F54962",
"6X c #EB5667",
"7X c #F15964",
"8X c #FD5D6A",
"9X c #F85D71",
"0X c #FE666E",
"qX c #F46467",
"wX c #FF6D7A",
"eX c #F96472",
"rX c #FF747E",
"tX c #FF7073",
"yX c #EB646A",
"uX c #FF7A83",
"iX c #FB7285",
"pX c #FF8287",
"aX c #FF828A",
"sX c #FF8C87",
"dX c #FF8691",
"fX c #FF8E96",
"gX c #FF98A2",
"hX c #FFA4A8",
"jX c None",
/* pixels */
"jXjXjXjXjXjXjXjXjXjXjXjXjXjXjXjXjXjXjXjXjXjXjXjXjXjXjXjXjXjXjXjXjXjXjXjXjXjXjXjXjXjXjXjXjXjXjXjXjXjX",
"jXjXjXjXjXjXjXjXjXjXjXjXjXjXjXjXjXjXjXjXjXjXjXjXjXjXjXjXjXjXjXjXjXjXjXjXjXjXjXjXjXjXjXjXjXjXjXjXjXjX",
"jXjXjXjXjXjXjXjXjXjXjXjXjXjXjXjXjXjXjXjXjXjXjXjXjXjXjXjXjXjXjXjXjXjXjXjXjXjXjXjXjXjXjXjXjXjXjXjXjXjX",
"jXjXjXjXjXjXjXjXjXjXjXjXjXjXjXjXjXjXjXjXjXjXjXjXjXjXjXjXjXjXjXjXjXjXjXjXjXjXjXjXjXjXjXjXjXjXjXjXjXjX",
"jXjXjXjXjXjXjXjXjXjXjXjXjXjXjXjX_ @ X X H @.jXjXjX..S   X X       X   @ | jXjXjXjXjXjXjXjXjXjXjXjXjX",
"jXjXjXjXjXjXjXjXjXjXjXjXjXjXjX..X.2 . . D X.jXjXjXX.F . o o O O & o o < } $.jXjXjXjXjXjXjXjXjXjXjXjX",
"jXjXjXjXjXjXjXjXjXjXjXjXjXjX .J r G G G l 6 [ x % 4 p G 9.q.q.q.q.>.w.V i v | +.jXjXjXjXjXjXjXjXjXjX",
"jXjXjXjXjXjXjXjXjXjXjXjXjX@.U c e y.>X,Xf i R c , e M 3X_.<XI.I.].].'.y.0 c Y | o.jXjXjXjXjXjXjXjXjX",
"jXjXjXjXjXjXjXjXjXjXjXjX#.` : y g.j.J.C.}.w.- m i.p.'.h.C.G.F.F.K.F.Z.].!.s < Y %.^ jXjXjXjXjXjXjXjX",
"jXjXjXjXjXjXjXjXjXjXjX#.P 6 s y.].Z.H.x.>.y d y.'.C.#X-X=X=X%X%Xb.V.V.N.[.e.B h 7 / jXjXjXjXjXjXjXjX",
"jXjXjXjXjXjXjXjXjXjXjX) k 0 Q.g.`.#X X`.q w u.x.G.Z.-XeXqXqXqX.X|.oXn.v.x.[.T., . @.+.W jXjXjXjXjXjX",
"jXjXjXjXjXjXjXjXjXjXX + j W.1X6X+X0XtX{.y q x.N.XX;XeXaXuXsXsXqX Xm.7.6.N.C.i.; 5 *.o.( jXjXjXjXjXjX",
"jXjXjXjXjXjXjXjXjXjXJ O m !.iX9X-XfXdX[.;.=.z.G.-XpXaXuXuXuXuXtX0X XOX7.n.z.f.g D D 8 ( jXjXjXjXjXjX",
"jXjXjXjXjXjXjXjXjXo.U * -.1XiXuXyXhXgXeX-Xx.N.%X0XhXdX6XeX6X7XuXuX:XOX4.5.B.<X/.B o X W jXjXjXjXjXjX",
"jXjXjXjXjXjXjXjXjX$ r 9.p.4XeXtXuXuX0Xk..X.Xx.:X;XrX8Xc.@X.X@X9X9X$XOX7.5.M.S.>XG O X ! jXjXjXjXjXjX",
"jXjXjXjXjXjXjXjXjX. ; W.<X+X5X0XrX7X%Xm.|.|.k.$X:X XoXB.m.N.G.*X:Xk.6.M.n.b.S.P.C O   ! jXjXjXjXjXjX",
"jXjXjXjXjXjXjXjX~ . ; E.'.Z.B.oX&XoXm.m.m.m.m.m.m.m.M.n.n.m.N.M.m.7.7.7.7.V.J.I.C o   ^ jXjXjXjXjXjX",
"jXjXjXjXjXjXjXjX~ . ; E.].N.M.M.oXOX7.M.m.n.M.M.M.M.n.n.n.n.n.M.5.7.7.6.M.N.J.P.V .   ^ jXjXjXjXjXjX",
"jXjXjXjXjXjXjXjX~ . ; E.h.c.m.7.m.7.m.M.M.m.M.M.M.M.n.n.n.n.n.n.7.7.7.7.N.G.J.P.V .   ^ jXjXjXjXjXjX",
"jXjXjXjXjXjXjXjX^ . ; E.h.N.b.7.7.M.m.M.M.5.n.M.m.n.M.7.n.n.n.n.M.m.b.6.N.N.S.>XV .   ^ jXjXjXjXjXjX",
"jXjXjXjXjXjXjXjXE   ; i.h.N.m.7.m.M.M.n.M.n.M.n.M.5.n.M.M.5.n.M.M.V.m.b.m.c.S.>XV .   / jXjXjXjXjXjX",
"jXjXjXjXjXjXjXjXQ   ; i.C.N.m.7.M.m.n.n.5.M.M.n.M.M.M.M.M.M.n.n.V.M.M.7.m.N.S.>XV o   / jXjXjXjXjXjX",
"jXjXjXjXjXjXjXjXE   : i.C.N.M.7.7.M.M.n.m.M.M.M.M.n.M.n.n.M.M.M.n.V.M.5.m.N.S._.V o   / jXjXjXjXjXjX",
"jXjXjXjXjXjXjXjXQ   : p.C.B.M.5.5.M.M.M.5.M.M.M.M.M.n.M.M.M.n.M.M.M.5.5.n.B.S.>XV o . ! jXjXjXjXjXjX",
"jXjXjXjXjXjXjXjXjX  : i.C.N.b.n.M.5.M.n.M.n.7.n.M.M.M.M.n.M.M.m.6.m.8.5.M.B.Z._.G o   / jXjXjXjXjXjX",
"jXjXjXjXjXjXjXjXjX. ; W.h.N.n.5.n.m.n.M.n.M.n.M.M.n.M.n.M.5.5.m.m.OX8.5.n.b.Z.,XB o   ( jXjXjXjXjXjX",
"jXjXjXjXjXjXjXjXjX# 3 9.f.G.B.6.n.n.n.M.M.M.n.M.M.5.M.M.M.n.m.6.6.7.5.n.V.c.'.e.B < X Q jXjXjXjXjXjX",
"jXjXjXjXjXjXjXjXjXO.T - -.x.3.m.M.n.n.7.M.n.M.M.M.M.M.M.M.M.M.M.7.7.B.b.v.S.g.0 5 ..o.jXjXjXjXjXjXjX",
"jXjXjXjXjXjXjXjXjXjXK O y {. Xl.M.n.n.n.M.n.7.n.n.n.n.6.m.M.M.m.m.b.m.c.#X<Xt.; =  .+.jXjXjXjXjXjXjX",
"jXjXjXjXjXjXjXjXjXjX  + j R.d.OXm.n.n.n.M.M.n.M.n.m.5.5.5.m.7.m.M.b.%X#Xf.Q.r.5 $ jXjXjXjXjXjXjXjXjX",
"jXjXjXjXjXjXjXjXjXjXjXT n w 1.XXM.n.n.n.n.n.M.M.n.n.m.M.m.m.n.m.V.H.s.h.2Xf , L jXjXjXjXjXjXjXjXjXjX",
"jXjXjXjXjXjXjXjXjXjXjXjXA u =.<.x.m.M.M.n.n.n.m.5.m.M.OXoXB.M.b.F.C.].p.g p v { jXjXjXjXjXjXjXjXjXjX",
"jXjXjXjXjXjXjXjXjXjXjXjX$.' > y }.3.XXm.%XM.4.m.M.4.m.OX&X&XoXz.A.<Xa.w.- k ..jXjXjXjXjXjXjXjXjXjXjX",
"jXjXjXjXjXjXjXjXjXjXjXjXjX%.T b w 1..Xl.2.n.M.M.OXM.oX&X$Xc.z.D.<X(.f i I ` jXjXjXjXjXjXjXjXjXjXjXjX",
"jXjXjXjXjXjXjXjXjXjXjXjXjX] $.A r M <.+XN.B.8.5.8.B.m.&XK.S.Y.Y.a.0.f 5 } jXjXjXjXjXjXjXjXjXjXjXjXjX",
"jXjXjXjXjXjXjXjXjXjXjXjXjXjX] ` X.4 w R.#Xb.M.5.7.4.B.N.K.Y.U.a.t.* b ).jXjXjXjXjXjXjXjXjXjXjXjXjXjX",
"jXjXjXjXjXjXjXjXjXjXjXjXjXjXjX%.| L b 0 <..Xm.n.m.3.H.K.A.I.2Xf i R Y jXjXjXjXjXjXjXjXjXjXjXjXjXjXjX",
"jXjXjXjXjXjXjXjXjXjXjXjXjXjXjXjXjX%.K > M u.d.c.k.N.K.Y.I.p.w.i 6 Y jXjXjXjXjXjXjXjXjXjXjXjXjXjXjXjX",
"jXjXjXjXjXjXjXjXjXjXjXjXjXjXjXjXjXjX` ' r 9 _.[.4XA.Y.g.,X0.& I X.%.jXjXjXjXjXjXjXjXjXjXjXjXjXjXjXjX",
"jXjXjXjXjXjXjXjXjXjXjXjXjXjXjXjXjXjXjXO.A b t e.U.U.U./.f p D T %.jXjXjXjXjXjXjXjXjXjXjXjXjXjXjXjXjX",
"jXjXjXjXjXjXjXjXjXjXjXjXjXjXjXjXjXjXjXjX$.T , B a.a.^.w.3 6 *.jXjXjXjXjXjXjXjXjXjXjXjXjXjXjXjXjXjXjX",
"jXjXjXjXjXjXjXjXjXjXjXjXjXjXjXjXjXjXjXjXjX .[ l 1 ~.G = J  .] jXjXjXjXjXjXjXjXjXjXjXjXjXjXjXjXjXjXjX",
"jXjXjXjXjXjXjXjXjXjXjXjXjXjXjXjXjXjXjXjXjXjX).J z l l z T jXjXjXjXjXjXjXjXjXjXjXjXjXjXjXjXjXjXjXjXjX",
"jXjXjXjXjXjXjXjXjXjXjXjXjXjXjXjXjXjXjXjXjXjXjXjX} 2 8 ..jXjXjXjXjXjXjXjXjXjXjXjXjXjXjXjXjXjXjXjXjXjX",
"jXjXjXjXjXjXjXjXjXjXjXjXjXjXjXjXjXjXjXjXjXjXjXjX| K ~ } jXjXjXjXjXjXjXjXjXjXjXjXjXjXjXjXjXjXjXjXjXjX",
"jXjXjXjXjXjXjXjXjXjXjXjXjXjXjXjXjXjXjXjXjXjXjXjXjXO.jXjXjXjXjXjXjXjXjXjXjXjXjXjXjXjXjXjXjXjXjXjXjXjX",
"jXjXjXjXjXjXjXjXjXjXjXjXjXjXjXjXjXjXjXjXjXjXjXjXjXjXjXjXjXjXjXjXjXjXjXjXjXjXjXjXjXjXjXjXjXjXjXjXjXjX",
"jXjXjXjXjXjXjXjXjXjXjXjXjXjXjXjXjXjXjXjXjXjXjXjXjXjXjXjXjXjXjXjXjXjXjXjXjXjXjXjXjXjXjXjXjXjXjXjXjXjX",
"jXjXjXjXjXjXjXjXjXjXjXjXjXjXjXjXjXjXjXjXjXjXjXjXjXjXjXjXjXjXjXjXjXjXjXjXjXjXjXjXjXjXjXjXjXjXjXjXjXjX",
"jXjXjXjXjXjXjXjXjXjXjXjXjXjXjXjXjXjXjXjXjXjXjXjXjXjXjXjXjXjXjXjXjXjXjXjXjXjXjXjXjXjXjXjXjXjXjXjXjXjX"
};
