/* XPM */
static char *h11_removebg_preview1742491788[] = {
/* columns rows colors chars-per-pixel */
"50 50 223 2 ",
"   c #010300",
".  c #0C0100",
"X  c #030A00",
"o  c #140000",
"O  c #1A0002",
"+  c #160901",
"@  c #161A16",
"#  c #250003",
"$  c #2C0005",
"%  c #23000A",
"&  c #2C000C",
"*  c #20090F",
"=  c #320001",
"-  c #3A0002",
";  c #34000D",
":  c #280214",
">  c #3A0913",
",  c #3D0C1A",
"<  c #3B0714",
"1  c #39161A",
"2  c #251A12",
"3  c #1A2718",
"4  c #0F2614",
"5  c #252619",
"6  c #212918",
"7  c #282418",
"8  c #3A1B23",
"9  c #381625",
"0  c #1D2F23",
"q  c #232F21",
"w  c #3E2228",
"e  c #39352F",
"r  c #3D3A38",
"t  c #213127",
"y  c #430005",
"u  c #460006",
"i  c #5B0003",
"p  c #420415",
"a  c #490918",
"s  c #560918",
"d  c #451F1C",
"f  c #70101E",
"g  c #560521",
"h  c #4C1D25",
"j  c #461924",
"k  c #561D2E",
"l  c #661928",
"z  c #76152A",
"x  c #791F32",
"c  c #671837",
"v  c #48252C",
"b  c #4A2734",
"n  c #592635",
"m  c #4B3334",
"M  c #4B3C3A",
"N  c #593738",
"B  c #512B2D",
"V  c #68252D",
"C  c #6A2436",
"Z  c #7B2939",
"A  c #772B38",
"S  c #69323B",
"D  c #354535",
"F  c #44463F",
"G  c #4A453F",
"H  c #4C3942",
"J  c #7B2C43",
"K  c #712242",
"L  c #643044",
"P  c gray26",
"I  c #594646",
"U  c #4A5948",
"Y  c #59554E",
"T  c #5E4B54",
"R  c #5B5654",
"E  c #64454C",
"W  c #634B4A",
"Q  c #674647",
"!  c #60514E",
"~  c #624C52",
"^  c #695A59",
"/  c #665859",
"(  c #4A644C",
")  c #506C4E",
"_  c #4A6B54",
"`  c #536453",
"'  c #536B52",
"]  c #586859",
"[  c #56725A",
"{  c #6C635D",
"}  c #65685C",
"|  c #6C5A62",
" . c #5B6B60",
".. c #656B64",
"X. c #6B6A63",
"o. c #6A6867",
"O. c #776968",
"+. c #627463",
"@. c #6B7466",
"#. c #6A7964",
"$. c #6B746B",
"%. c #6B7B6B",
"&. c #73746C",
"*. c #737869",
"=. c #6E7972",
"-. c #B0171C",
";. c #8B1A26",
":. c #941C2A",
">. c #88273B",
",. c #922C31",
"<. c #A6323E",
"1. c #B62127",
"2. c #CB2E39",
"3. c #FA2E3C",
"4. c #F52D38",
"5. c #EC333B",
"6. c #F4353C",
"7. c #FC353D",
"8. c #F53A3E",
"9. c #FB3A3D",
"0. c #FB3335",
"q. c #862B45",
"w. c #962A45",
"e. c #953649",
"r. c #983756",
"t. c #843A47",
"y. c #A2334C",
"u. c #AA3946",
"i. c #A93755",
"p. c #B63B54",
"a. c #B83958",
"s. c #B3314B",
"d. c #BF3D62",
"f. c #A43B64",
"g. c #D53B4A",
"h. c #D73749",
"j. c #C93C55",
"k. c #C7395A",
"l. c #DC3D55",
"z. c #DC3E5C",
"x. c #D63956",
"c. c #EE3645",
"v. c #EF3B45",
"b. c #EB334B",
"n. c #E53C4C",
"m. c #EC3C4C",
"M. c #E13541",
"N. c #F43344",
"B. c #FB3642",
"V. c #F53A43",
"C. c #FA3942",
"Z. c #F5354A",
"A. c #FE354A",
"S. c #F33A4C",
"D. c #FD3A4B",
"F. c #E43C53",
"G. c #ED3B53",
"H. c #E43C5C",
"J. c #EB3D59",
"K. c #E63654",
"L. c #F13B51",
"P. c #F93C52",
"I. c #F43757",
"U. c #F62F42",
"Y. c #CE3E61",
"T. c #D13E63",
"R. c #DE3E64",
"E. c #E43C62",
"W. c #A84255",
"Q. c #B5485B",
"!. c #B6425C",
"~. c #B7454F",
"^. c #8C4662",
"/. c #B74566",
"(. c #BA4E72",
"). c #AE4566",
"_. c #807271",
"`. c #C3435D",
"'. c #C84659",
"]. c #D44554",
"[. c #D5415B",
"{. c #DD445C",
"}. c #D8515F",
"|. c #E3434C",
" X c #F44347",
".X c #FD4044",
"XX c #F4424D",
"oX c #FD434B",
"OX c #F94B4D",
"+X c #E4415B",
"@X c #E64956",
"#X c #F54351",
"$X c #FC4251",
"%X c #FC4A54",
"&X c #FC4C5A",
"*X c #F74559",
"=X c #FE525C",
"-X c #FA5958",
";X c #F5645F",
":X c #C34262",
">X c #CD4469",
",X c #D54464",
"<X c #D94263",
"1X c #D74A67",
"2X c #E54664",
"3X c #E7566A",
"4X c #FF5C69",
"5X c #F75965",
"6X c #FA546B",
"7X c #FD6369",
"8X c #EF6572",
"9X c #FD6774",
"0X c #FF7A74",
"qX c #FD7278",
"wX c #F7706D",
"eX c #66826B",
"rX c #FF6C81",
"tX c #FC7B82",
"yX c #FF7886",
"uX c #FF8587",
"iX c #FF9CA6",
"pX c #FFA4AF",
"aX c None",
/* pixels */
"aXaXaXaXaXaXaXaXaXaXaXaXaXaXaXaXaXaXaXaXaXaXaXaXaXaXaXaXaXaXaXaXaXaXaXaXaXaXaXaXaXaXaXaXaXaXaXaXaXaX",
"aXaXaXaXaXaXaXaXaXaXaXaXaXaXaXaXaXaXaXaXaXaXaXaXaXaXaXaXaXaXaXaXaXaXaXaXaXaXaXaXaXaXaXaXaXaXaXaXaXaX",
"aXaXaXaXaXaXaXaXaXaXaXaXaXaXaXaXaXaXaXaXaXaXaXaXaXaXaXaXaXaXaXaXaXaXaXaXaXaXaXaXaXaXaXaXaXaXaXaXaXaX",
"aXaXaXaXaXaXaXaXaXaXaXaXaXaXaXaXaXaXaXaXaXaXaXaXaXaXaXaXaXaXaXaXaXaXaXaXaXaXaXaXaXaXaXaXaXaXaXaXaXaX",
"aXaXaXaXaXaXaXaXaXaXaXaXaXaX#.D X X     P @.aXaXaXaXaX .@             @  .aXaXaXaXaXaXaXaXaXaXaXaXaX",
"aXaXaXaXaXaXaXaXaXaXaXaXaX#.*.G . . O * I O.aXaXaXaXaX/ : O O O # = O * ^ $.aXaXaXaXaXaXaXaXaXaXaXaX",
"aXaXaXaXaXaXaXaXaXaXaXaXaX{ 1 k t.e.w.q.k w ^ &.=.=.H 9 J r.q.y.w.>.e.A 1 H &.+.aXaXaXaXaXaXaXaXaXaX",
"aXaXaXaXaXaXaXaXaXaXaX+.R Q a Z '.[.[.>Xz a ~ / $.R m g i.Y.,XT.{.<X>Xi.s n W X.[ aXaXaXaXaXaXaXaXaX",
"aXaXaXaXaXaXaXaXaXaXaX=.B $ e.'.n.c.P.G.x.y.; H | : l `.l.F.n.n.m.F.+X[.:Xz & ^ $.` aXaXaXaXaXaXaXaX",
"aXaXaXaXaXaXaXaXaXaX*.7 v >.'.+XoXA.U.A.G.j.J B k C s.H.L.XX%X=X%XS.S.G.z.s.x h m &.+.[ aXaXaXaXaXaX",
"aXaXaXaXaXaXaXaXaXaXP O V !.2XJ.c.N.A.B.S.@Xt.V a u.{.b.#XOX7X5X-X XV.P.G.z.s.s h / ..%.( aXaXaXaXaX",
"aXaXaXaXaXaXaXaXaXaXW = l 1X2X*Xn.5X5Xc.XX2.i ;.u.}.G.S.=X9XuXuX0X-XOXD.Z.G.2Xa.A # I $.eXaXaXaXaXaX",
"aXaXaXaXaXaXaXaXaXe N l s.3XrX9X3XrXqX5Xn.5.-.1.|.m.Z.&X8XtXyXyX7XOXv.V.D.Z.K.z.w.C m r 4 [ aXaXaXaX",
"aXaXaXaXaXaXaXaX%.. = W.3X4XqXqX8XpXiX5XXXS.m. Xc.C.$X4XtXtX3X5X=XV. X8.4.D.L.J.1XW., . 0 _ aXaXaXaX",
"aXaXaXaXaXaXaX+.@.v y `.z.n.7XwXuXwX4Xm.S.D.6.V.C..XXX&X7X4X|.OXZ.Z.oX8.6.C.A.S.x./.< . 0 _ aXaXaXaX",
"aXaXaXaXaXaXaXU P v z j.F.G.@X;X0X-X%XS.6.A.B.9.7.V.oX%X&XXXV.S.A.A.C.8..X9.7.P.+Xa.a . 3 [ aXaXaXaX",
"aXaXaXaXaXaXaX  o A '.|.m.C..X X-XOXV.V.C.C.C.C.C.C.V.V.C.C.V.B.B.B.B.A.7.9.A.S.z.!.> . 5 ] aXaXaXaX",
"aXaXaXaXaXaXaX  + A ].m.C.C.C.C.oXC.6.V.C.V.B.C.C.C.B.B.B.B.B.B.B.B.B.B.9.B.B.S.z.!.>   7 ` aXaXaXaX",
"aXaXaXaXaXaXaXX o Z ].m.N.C.B.B.C.6.C.C.C.B.C.C.B.B.V.C.B.B.7.B.B.B.B.A.9.C.C.S.H./.< . 5 ' aXaXaXaX",
"aXaXaXaXaXaXaXX o Z l.G.S.B.7.A.B.V.C.C.C.6.7.C.C.C.7.C.B.C.B.C.V.C.B.B.6.V.V.L.H.a.p . 5 ' aXaXaXaX",
"aXaXaXaXaXaXaXX o Z {.I.m.S.B.B.C.C.C.C.C.C.B.C.C.C.B.C.9.V.B.C.V.V.C.B.9.8.V.G.E.Y.p . 5 ' aXaXaXaX",
"aXaXaXaXaXaXaXX o Z z.I.S.V.C.C.C.C.B.6.B.C.C.B.C.7.V.C.C.B.B.8.V.v.D.B.7.8.C.I.R.d.p . 6 ) aXaXaXaX",
"aXaXaXaXaXaXaX  o A z.I.S.V.8.8.V.C.C.B.6.C.C.C.C.B.B.B.B.C.B.V.V.8.A.7.7.7.B.G.R.d., . 3 ) aXaXaXaX",
"aXaXaXaXaXaXaX  o A >XJ.S..X8.8.9.C.C.C.C.C.C.C.8.C.9.C.C.B.9.V.V.9.7.B.7.B.A.G.,X).< . 6 ' aXaXaXaX",
"aXaXaXaXaXaXaXX + S p.F.D.B.0..X9.C.C.C.C.B.C.C.B.B.C.C.B.V.B.C.8.8..X0.B.B.Z.J.:Xr.9   q ' aXaXaXaX",
"aXaXaXaXaXaXaXU } d i g.P.3..X0.7.C.B.C.C.V.7.C.C.6.C.6.C.7.C.8.6.9.4.A.A.U.P.l.w.; ~ ..#.` aXaXaXaX",
"aXaXaXaXaXaXaXaX#.2 u '.G.A.0.0.9.B.V.7.C.7.C.B.B.7.V.B.C.C.C.6.9..XD.D.Z.b.H.`.K % H =.3 ' aXaXaXaX",
"aXaXaXaXaXaXaXaXaX. = u.+Xm.C.7.7.B.B.C.C.C.C.B.C.C.B.C.C.C.V.C.0.C.N.b.*XH.j.Q.S .   [ aXaXaXaXaXaX",
"aXaXaXaXaXaXaXaXaX` Q u ;.]. X8.C.B.B.C.C.B.C.9.C.C.C.9.9.6.V.C.C.C.L.J.x.k.).s w Y U aXaXaXaXaXaXaX",
"aXaXaXaXaXaXaXaXaXaXO.h V <.]. XV.B.B.B.C.C.C.B.B.C.C.C.6.C.V.C.V.5.J.2X:Xr.J j r =.aXaXaXaXaXaXaXaX",
"aXaXaXaXaXaXaXaXaXaX^ _.v - u.g.v.B.B.9.C.7.C.C.C.6.C.C.C.C.C.V.C.L.l.Y./.C : | =.aXaXaXaXaXaXaXaXaX",
"aXaXaXaXaXaXaXaXaXaXaX&.} G s :.|.V.V.B.B.7.V.C.V.C.C.C.oXoXC.V.m.l.T.d.g n T o.aXaXaXaXaXaXaXaXaXaX",
"aXaXaXaXaXaXaXaXaXaXaXaX$.{ 1 V <.].6.7.7.9.5..XV.8.C.C.oX%XV.F.<X:Xi.J a M &.aXaXaXaXaXaXaXaXaXaXaX",
"aXaXaXaXaXaXaXaXaXaXaXaXaX@.{ N - <.@XV.7.9.8.C. X8.C.7.6.V.XXg.d.(.l & O.&.aXaXaXaXaXaXaXaXaXaXaXaX",
"aXaXaXaXaXaXaXaXaXaXaXaXaXaX*.! N l ;.g.oX6.C.0.0.6.9.6.P.G.K.1Xi.l n L { aXaXaXaXaXaXaXaXaXaXaXaXaX",
"aXaXaXaXaXaXaXaXaXaXaXaXaXaXaXaX*.1 s ~.h.D.7.7.C.9.V.c.I.H.T.i.J ; E _.aXaXaXaXaXaXaXaXaXaXaXaXaXaX",
"aXaXaXaXaXaXaXaXaXaXaXaXaXaXaXaX%.} I = u.+XZ.C.6.V.A.*XK.Y.(.g , | { aXaXaXaXaXaXaXaXaXaXaXaXaXaXaX",
"aXaXaXaXaXaXaXaXaXaXaXaXaXaXaXaXaX+.] B z :.h.c.m.#Xb.x.T.i.c n H &.aXaXaXaXaXaXaXaXaXaXaXaXaXaXaXaX",
"aXaXaXaXaXaXaXaXaXaXaXaXaXaXaXaXaXaX.._.1 y Q.'.F.H.E.T.d.J : Y *.aXaXaXaXaXaXaXaXaXaXaXaXaXaXaXaXaX",
"aXaXaXaXaXaXaXaXaXaXaXaXaXaXaXaXaXaXaXo.o.E - >.>XY.>X/.g j ^ } aXaXaXaXaXaXaXaXaXaXaXaXaXaXaXaXaXaX",
"aXaXaXaXaXaXaXaXaXaXaXaXaXaXaXaXaXaXaXaXaX/ b n q.f.f.K v e #.aXaXaXaXaXaXaXaXaXaXaXaXaXaXaXaXaXaXaX",
"aXaXaXaXaXaXaXaXaXaXaXaXaXaXaXaXaXaXaXaXaXaXO.v & ^.K : R aXaXaXaXaXaXaXaXaXaXaXaXaXaXaXaXaXaXaXaXaX",
"aXaXaXaXaXaXaXaXaXaXaXaXaXaXaXaXaXaXaXaXaXaX*.! E 9 H T O.aXaXaXaXaXaXaXaXaXaXaXaXaXaXaXaXaXaXaXaXaX",
"aXaXaXaXaXaXaXaXaXaXaXaXaXaXaXaXaXaXaXaXaXaXaXaX| 5 r &.aXaXaXaXaXaXaXaXaXaXaXaXaXaXaXaXaXaXaXaXaXaX",
"aXaXaXaXaXaXaXaXaXaXaXaXaXaXaXaXaXaXaXaXaXaXaXaX%.@.} aXaXaXaXaXaXaXaXaXaXaXaXaXaXaXaXaXaXaXaXaXaXaX",
"aXaXaXaXaXaXaXaXaXaXaXaXaXaXaXaXaXaXaXaXaXaXaXaXaX%.aXaXaXaXaXaXaXaXaXaXaXaXaXaXaXaXaXaXaXaXaXaXaXaX",
"aXaXaXaXaXaXaXaXaXaXaXaXaXaXaXaXaXaXaXaXaXaXaXaXaXaXaXaXaXaXaXaXaXaXaXaXaXaXaXaXaXaXaXaXaXaXaXaXaXaX",
"aXaXaXaXaXaXaXaXaXaXaXaXaXaXaXaXaXaXaXaXaXaXaXaXaXaXaXaXaXaXaXaXaXaXaXaXaXaXaXaXaXaXaXaXaXaXaXaXaXaX",
"aXaXaXaXaXaXaXaXaXaXaXaXaXaXaXaXaXaXaXaXaXaXaXaXaXaXaXaXaXaXaXaXaXaXaXaXaXaXaXaXaXaXaXaXaXaXaXaXaXaX",
"aXaXaXaXaXaXaXaXaXaXaXaXaXaXaXaXaXaXaXaXaXaXaXaXaXaXaXaXaXaXaXaXaXaXaXaXaXaXaXaXaXaXaXaXaXaXaXaXaXaX"
};
