/* XPM */
static char *h12_removebg_preview1742491788[] = {
/* columns rows colors chars-per-pixel */
"50 50 225 2 ",
"   c #010300",
".  c #090303",
"X  c #000D00",
"o  c #140001",
"O  c #1B0002",
"+  c #150B0C",
"@  c #121D0D",
"#  c #181B15",
"$  c #0A1C0E",
"%  c #210001",
"&  c #2B0000",
"*  c #23000B",
"=  c #2B000A",
"-  c #360001",
";  c #3D0000",
":  c #36010D",
">  c #360210",
",  c #3C0516",
"<  c #3D0A17",
"1  c #3F031A",
"2  c #3C0B1D",
"3  c #251412",
"4  c #37181E",
"5  c #3B1816",
"6  c #280E17",
"7  c #32241B",
"8  c #3C1A23",
"9  c #3D2628",
"0  c #3E3D38",
"q  c #460505",
"w  c #450619",
"e  c #550718",
"r  c #40121D",
"t  c #59161A",
"y  c #580107",
"u  c #710000",
"i  c #63151A",
"p  c #790D1A",
"a  c #570B23",
"s  c #471B28",
"d  c #5B1F39",
"f  c #76152B",
"g  c #621A34",
"h  c #6B1B36",
"j  c #6E1A32",
"k  c #46282D",
"l  c #5F2429",
"z  c #482633",
"x  c #572834",
"c  c #423334",
"v  c #4E3A3C",
"b  c #4A3538",
"n  c #5B3A3F",
"m  c #523738",
"M  c #493127",
"N  c #76272C",
"B  c #632436",
"V  c #6A293B",
"C  c #782839",
"Z  c #673131",
"A  c #394538",
"S  c #434438",
"D  c #5B443C",
"F  c #60413C",
"G  c #593A41",
"H  c #7D2A45",
"J  c #783349",
"K  c #5C4748",
"L  c #5C5553",
"P  c #535748",
"I  c #69494E",
"U  c #65554F",
"Y  c #624A53",
"T  c #635454",
"R  c #6C5A59",
"E  c #66595B",
"W  c #755B5B",
"Q  c #526250",
"!  c #63625D",
"~  c #6A645E",
"^  c #64685B",
"/  c #615C62",
"(  c #725F63",
")  c #6B6464",
"_  c #636C64",
"`  c #6C6D64",
"'  c #6B6A69",
"]  c #746C6A",
"[  c #756A63",
"{  c #6C7464",
"}  c #647A63",
"|  c #66726A",
" . c #6C756A",
".. c #6D7A6C",
"X. c #6A7564",
"o. c #74736B",
"O. c #74796B",
"+. c #7B766D",
"@. c #7B6B72",
"#. c #6D7971",
"$. c #787673",
"%. c #A8091A",
"&. c #961A25",
"*. c #831A3B",
"=. c #852736",
"-. c #922734",
";. c #982D34",
":. c #AA353E",
">. c #A3242D",
",. c #C01525",
"<. c #ED373A",
"1. c #F4353C",
"2. c #FB343C",
"3. c #F43B3C",
"4. c #FB3A3C",
"5. c #F73636",
"6. c #F72F3C",
"7. c #F8403E",
"8. c #832441",
"9. c #882A48",
"0. c #912B43",
"q. c #932D4C",
"w. c #9B2D4C",
"e. c #8E304B",
"r. c #89364A",
"t. c #9B344C",
"y. c #96374F",
"u. c #883955",
"i. c #96345A",
"p. c #AA3749",
"a. c #B23C47",
"s. c #A73858",
"d. c #B63B59",
"f. c #B72E42",
"g. c #C6394C",
"h. c #D93949",
"j. c #C43C5C",
"k. c #CC3D5C",
"l. c #CA3C54",
"z. c #DC3B54",
"x. c #D43C5C",
"c. c #DA3958",
"v. c #ED3444",
"b. c #EC3A45",
"n. c #EB344E",
"m. c #EC3A4C",
"M. c #E23C49",
"N. c #F53543",
"B. c #FC3643",
"V. c #F43B42",
"C. c #FA3842",
"Z. c #F4354D",
"A. c #FC364A",
"S. c #F33B4A",
"D. c #FC3A4B",
"F. c #EB3553",
"G. c #E33C56",
"H. c #EB3C55",
"J. c #E1365A",
"K. c #E43D5B",
"L. c #ED3B5A",
"P. c #E63456",
"I. c #F43C53",
"U. c #FA3A52",
"Y. c #F53A57",
"T. c #F62F44",
"R. c #CB3D65",
"E. c #C33F67",
"W. c #D23A61",
"Q. c #DC3E63",
"!. c #D53968",
"~. c #E63B65",
"^. c #9F435C",
"/. c #AF4245",
"(. c #BE425A",
"). c #B1405C",
"_. c #B74044",
"`. c #AB4962",
"'. c #BA4464",
"]. c #B9486A",
"[. c #CF424A",
"{. c #D9414C",
"}. c #C14156",
"|. c #CA425C",
" X c #DF4156",
".X c #D3415D",
"XX c #D94459",
"oX c #E8424B",
"OX c #FD4245",
"+X c #F5434E",
"@X c #FB414B",
"#X c #F64849",
"$X c #E54355",
"%X c #ED4454",
"&X c #E4435C",
"*X c #EA445A",
"=X c #E84B5A",
"-X c #F24251",
";X c #F5445A",
":X c #FA435C",
">X c #F94859",
",X c #FE5252",
"<X c #F5535B",
"1X c #FA555D",
"2X c #ED5456",
"3X c #C54262",
"4X c #C94265",
"5X c #DB4263",
"6X c #D64867",
"7X c #D04E74",
"8X c #EC4B61",
"9X c #F04F61",
"0X c #F85567",
"qX c #FF5F74",
"wX c #FD6366",
"eX c #FE6A7A",
"rX c #FA6573",
"tX c #FD727C",
"yX c #FF7475",
"uX c #FF7B88",
"iX c #FF8389",
"pX c #F98091",
"aX c #FF97A4",
"sX c #FFA0AB",
"dX c None",
/* pixels */
"dXdXdXdXdXdXdXdXdXdXdXdXdXdXdXdXdXdXdXdXdXdXdXdXdXdXdXdXdXdXdXdXdXdXdXdXdXdXdXdXdXdXdXdXdXdXdXdXdXdX",
"dXdXdXdXdXdXdXdXdXdXdXdXdXdXdXdXdXdXdXdXdXdXdXdXdXdXdXdXdXdXdXdXdXdXdXdXdXdXdXdXdXdXdXdXdXdXdXdXdXdX",
"dXdXdXdXdXdXdXdXdXdXdXdXdXdXdXdXdXdXdXdXdXdXdXdXdXdXdXdXdXdXdXdXdXdXdXdXdXdXdXdXdXdXdXdXdXdXdXdXdXdX",
"dXdXdXdXdXdXdXdXdXdXdXdXdXdXdXdXdXdXdXdXdXdXdXdXdXdXdXdXdXdXdXdXdXdXdXdXdXdXdXdXdXdXdXdXdXdXdXdXdXdX",
"dXdXdXdXdXdXdXdXdXdXdXdXdX_ #             $ ^ dXdXdXdXA X.A               A #.dXdXdXdXdXdXdXdXdXdXdX",
"dXdXdXdXdXdXdXdXdXdXdXO.#.E 6 O O O O O o 3 R ) ..#..._ ' K O O % O * O o c ' #.dXdXdXdXdXdXdXdXdXdX",
"dXdXdXdXdXdXdXdXdXdX .@.G 8 C e.q.w.w.0.t.C s 0  .#.' ] s B 8.w.w.-.0.e.u.x 8 / | dXdXdXdXdXdXdXdXdX",
"dXdXdXdXdXdXdXdXdXdX! Y z e (.|.5Xl.5XQ.x.d.e x T E ) K w f 6XW..XXX6X4X'.8.1 Y / | dXdXdXdXdXdXdXdX",
"dXdXdXdXdXdXdXdXdXo./ * j }.&Xm.-Xm.S.I.Y.z.}.i - W M & /.|..X&X$Xm.F.L.c.E.i.1 9 ] ..dXdXdXdXdXdXdX",
"dXdXdXdXdXdXdXdX+.m z V p.z.S.D.1.S.C.S.D.v.$Xa.N t l C g.8X0X=X+XD.A.U.F.Q.E.9.d k T X.dXdXdXdXdXdX",
"dXdXdXdXdXdXdXdXL s a d.x.;XV.1.OX4.<.3.V.v.%Xg.;.y p 6X=X=X<XwX,XC.C.D.Z.L.Q.E.9.1 Z ` { dXdXdXdXdX",
"dXdXdXdXdXdXdX# O V ).6X8X1Xb.OX,X<.<.OXC.S.b.%.u p.[.&X=XrXiXwX,X3.C.B.A.Y.P.Q.).`.w 4 ` } dXdXdXdX",
"dXdXdXdXdXdXdXm O C k.K.qXuX<X<XyX2X#XOX2.S.V.,.%.h.L.0XeXrXyX1X#X3.3.4.C.D.Z.L.Q.d.H x c A dXdXdXdX",
"dXdXdXdXdXA ) I ; -.8X0XrXuXtXtXiXrX@XN.C.V.+X+XU.-X:X0XuXuX<X+XV.3.V.V.N.4.B.D.L.!.'.u.o   dXdXdXdX",
"dXdXdXdXdXdX. < t.l.M.-X;XtXsXaXqX9XD.N.C.5.<.7.N.N.-XoX0X0Xb.+XA.C.C.C.4.5.4.A.Z.c.7X9.O . dXdXdXdX",
"dXdXdXdXdXdX. w }.*Xm.V.+X=XaXpX8XS.D.N.4.3.7.3.C.V.V.oX@X+X@X1.D.C.1.C.4.5.4.2.Z.L.R.e.O . dXdXdXdX",
"dXdXdXdXdXdX. 1 j.L.B.4.3.oX9X0XS.V.A.N.C.4.C.C.4.V.V.V.V.B.V.C.4.2.A.B.B.4.3.3.V.m.W.q.O   dXdXdXdX",
"dXdXdXdXdXdX. 1 j.L.B.5.3.V.U.Z.N.B.C.C.N.4.C.C.B.N.C.2.B.C.C.C.4.4.B.A.A.A.7.3.V.H..Xq.O   dXdXdXdX",
"dXdXdXdXdXdX  2 j.L.N.4.3.3.D.U.B.4.C.C.C.C.B.C.C.C.C.C.4.B.C.4.3.C.B.A.B.C.3.3.D.F.x.e.o   dXdXdXdX",
"dXdXdXdXdXdX  , j.L.V.4.3.1.A.D.B.C.C.C.B.C.4.C.4.B.C.C.B.C.N.V.4.V.N.A.N.N.3.V.A.Y.5Xe.o   dXdXdXdX",
"dXdXdXdXdXdXX 2 j.L.S.3.4.5.4.C.B.B.C.C.C.C.C.C.C.C.C.N.C.4.N.C.3.3.B.B.B.V.3.V.N.L.R.9.O   dXdXdXdX",
"dXdXdXdXdXdX. , 3XL.m.1.4.4.D.C.C.V.C.2.V.C.C.N.N.C.C.4.C.C.C.C.b.V.B.D.B.V.3.V.I.J.R.e.o   dXdXdXdX",
"dXdXdXdXdXdX+ > d.XX+X3.5.5.4.1.C.C.C.C.N.C.C.4.4.C.C.C.C.C.C.V.V.V.B.B.4.B.N.S.H.c.3Xu.O   dXdXdXdX",
"dXdXdXdXdXS 9 x f f.m.B.4.4.4.2.C.C.C.C.4.B.C.C.C.C.C.C.C.C.C.4.V.V.2.B.2.B.B.S.z.4X*.d G A dXdXdXdX",
"dXdXdXdXdXS ] I & ;.$XB.N.4.2.4.4.C.C.4.C.N.C.C.C.B.C.N.4.C.C.B.4.1.@X1.B.D.T.H.!.'.w 2 @. .dXdXdXdX",
"dXdXdXdXdXdXdX3 % N XX-XB.C.2.2.B.C.B.C.C.4.C.C.N.4.C.C.C.C.B.4.D.C.6.2.A.N.D.G.4X^.2 o ) dXdXdXdXdX",
"dXdXdXdXdXdXdX@ 7 Z -.{.Z.A.B.2.B.C.C.C.C.C.C.B.C.C.C.C.C.C.C.B.2.B.D.S.V.m.G..Xs.B b b dXdXdXdXdXdX",
"dXdXdXdXdXdXdX} O.5 q :.z.A.B.A.B.4.N.4.B.C.4.C.C.C.4.B.C.N.4.C.4.C.N.v.H.&Xl.'.C O L $.dXdXdXdXdXdX",
"dXdXdXdXdXdXdXdX{ U F t &.=X+Xv.C.C.C.C.C.4.B.C.C.C.4.C.C.4.N.C.D.N.U.;Xx.j.`.e s ) ) dXdXdXdXdXdXdX",
"dXdXdXdXdXdXdXdXdXdX! r N >.[.-XV.N.C.C.C.C.N.C.N.C.B.C.C.C.C.B.V.v.F.&X}.y.J s b ] dXdXdXdXdXdXdXdX",
"dXdXdXdXdXdXdXdXdXdX+.[ M - :.{.V.C.C.B.C.C.C.C.4.C.B.C.N.C.C.B.U.:XP.x.].B * / @.dXdXdXdXdXdXdXdXdX",
"dXdXdXdXdXdXdXdXdXdXdX{ P D i &.{.V.V.C.C.N.C.C.C.C.4.B.C.C.V.S.n.G.x.d.e x Y ) dXdXdXdXdXdXdXdXdXdX",
"dXdXdXdXdXdXdXdXdXdXdXQ O.~ 5 i :.{.b.B.D.6.S.V.V.D.4.C.B.1.D.m.Q.R.s.H 2 v o.O.dXdXdXdXdXdXdXdXdXdX",
"dXdXdXdXdXdXdXdXdXdXdXdXdX{ +.m q :.$Xb.B.A.1.D.1.@X2.2.C.D.I.G.E.].h > W ` dXdXdXdXdXdXdXdXdXdXdXdX",
"dXdXdXdXdXdXdXdXdXdXdXdXdXdX^ R n t &.=XN.C.D.2.C.1.4.D.S.n.c.6Xs.g x G ] dXdXdXdXdXdXdXdXdXdXdXdXdX",
"dXdXdXdXdXdXdXdXdXdXdXdXdXdXQ { ] 5 e _.h.3.B.2.C.C.V.3.H.c.j.d.H 1 G @.dXdXdXdXdXdXdXdXdXdXdXdXdXdX",
"dXdXdXdXdXdXdXdXdXdXdXdXdXdXdXdX` ] D ; >.#X1.4.4.V.Z.Y.J.6X].e r W ~ dXdXdXdXdXdXdXdXdXdXdXdXdXdXdX",
"dXdXdXdXdXdXdXdXdXdXdXdXdXdXdXdXdX .P k C &.h.oX@XS.F.J.W.s.g x b ` dXdXdXdXdXdXdXdXdXdXdXdXdXdXdXdX",
"dXdXdXdXdXdXdXdXdXdXdXdXdXdXdXdXdXdX{ @.8 q /.[.h.*X~.!.E.8.* U +.dXdXdXdXdXdXdXdXdXdXdXdXdXdXdXdXdX",
"dXdXdXdXdXdXdXdXdXdXdXdXdXdXdXdXdXdXdXO.^ F ; -..X.XR.].a s R ! X.dXdXdXdXdXdXdXdXdXdXdXdXdXdXdXdXdX",
"dXdXdXdXdXdXdXdXdXdXdXdXdXdXdXdXdXdXdXdXdXT k l 8.].i.H z b +.dXdXdXdXdXdXdXdXdXdXdXdXdXdXdXdXdXdXdX",
"dXdXdXdXdXdXdXdXdXdXdXdXdXdXdXdXdXdXdXdXdXO.] k : u.J = T o.dXdXdXdXdXdXdXdXdXdXdXdXdXdXdXdXdXdXdXdX",
"dXdXdXdXdXdXdXdXdXdXdXdXdXdXdXdXdXdXdXdXdXdX+.Y I 4 k K ) dXdXdXdXdXdXdXdXdXdXdXdXdXdXdXdXdXdXdXdXdX",
"dXdXdXdXdXdXdXdXdXdXdXdXdXdXdXdXdXdXdXdXdXdXdXdX^ # S $.dXdXdXdXdXdXdXdXdXdXdXdXdXdXdXdXdXdXdXdXdXdX",
"dXdXdXdXdXdXdXdXdXdXdXdXdXdXdXdXdXdXdXdXdXdXdXdXX.{ O.X.dXdXdXdXdXdXdXdXdXdXdXdXdXdXdXdXdXdXdXdXdXdX",
"dXdXdXdXdXdXdXdXdXdXdXdXdXdXdXdXdXdXdXdXdXdXdXdXdX} dXdXdXdXdXdXdXdXdXdXdXdXdXdXdXdXdXdXdXdXdXdXdXdX",
"dXdXdXdXdXdXdXdXdXdXdXdXdXdXdXdXdXdXdXdXdXdXdXdXdXdXdXdXdXdXdXdXdXdXdXdXdXdXdXdXdXdXdXdXdXdXdXdXdXdX",
"dXdXdXdXdXdXdXdXdXdXdXdXdXdXdXdXdXdXdXdXdXdXdXdXdXdXdXdXdXdXdXdXdXdXdXdXdXdXdXdXdXdXdXdXdXdXdXdXdXdX",
"dXdXdXdXdXdXdXdXdXdXdXdXdXdXdXdXdXdXdXdXdXdXdXdXdXdXdXdXdXdXdXdXdXdXdXdXdXdXdXdXdXdXdXdXdXdXdXdXdXdX",
"dXdXdXdXdXdXdXdXdXdXdXdXdXdXdXdXdXdXdXdXdXdXdXdXdXdXdXdXdXdXdXdXdXdXdXdXdXdXdXdXdXdXdXdXdXdXdXdXdXdX"
};
