/* XPM */
static char *h2_removebg_preview1742491788[] = {
/* columns rows colors chars-per-pixel */
"50 50 234 2 ",
"   c #010400",
".  c #0C0001",
"X  c #030B03",
"o  c #090C06",
"O  c #140002",
"+  c #1B0003",
"@  c #140209",
"#  c #1A040C",
"$  c #031304",
"%  c #071609",
"&  c #061011",
"*  c #1A1415",
"=  c #260002",
"-  c #290102",
";  c #2D000A",
":  c #27050F",
">  c #390000",
",  c #34010D",
"<  c #3C000F",
"1  c #330003",
"2  c #3B0414",
"3  c #3C0C1A",
"4  c #391617",
"5  c #2A1115",
"6  c #1D2316",
"7  c #39231C",
"8  c #28241B",
"9  c #3B1622",
"0  c #311C21",
"q  c #340821",
"w  c #372426",
"e  c #3D3736",
"r  c #460001",
"t  c #46040B",
"y  c #560408",
"u  c #430215",
"i  c #440A1B",
"p  c #4E0715",
"a  c #590819",
"s  c #5B181A",
"d  c #680000",
"f  c #64141C",
"g  c #610416",
"h  c #480621",
"j  c #540821",
"k  c #471D29",
"l  c #481826",
"z  c #5A1B3A",
"x  c #66172B",
"c  c #76182B",
"v  c #671C33",
"b  c #721D34",
"n  c #4D242B",
"m  c #492C2A",
"M  c #56262B",
"N  c #582936",
"B  c #4E3A3C",
"V  c #463738",
"C  c #593B3B",
"Z  c #4C3135",
"A  c #682928",
"S  c #762025",
"D  c #74252B",
"F  c #63302F",
"G  c #78283A",
"H  c #612D37",
"J  c #3D4B3C",
"K  c #5D423C",
"L  c #41493E",
"P  c #553843",
"I  c #6E2341",
"U  c #7B2C42",
"Y  c #613C43",
"T  c #574848",
"R  c #5B5249",
"E  c #5B4D53",
"W  c #5A5C55",
"Q  c #4C4D48",
"!  c #65484B",
"~  c #604D53",
"^  c #635554",
"/  c #685B58",
"(  c #73595A",
")  c #5B635A",
"_  c #5E6858",
"`  c #6C635B",
"'  c #67625B",
"]  c #66785F",
"[  c #685862",
"{  c #5C7560",
"}  c #6C6463",
"|  c #646B66",
" . c #6C6B64",
".. c #686E69",
"X. c #736565",
"o. c #786B68",
"O. c #6C7465",
"+. c #69746B",
"@. c #677867",
"#. c #72746C",
"$. c #737A6E",
"%. c #75766A",
"&. c #6A6F72",
"*. c #746C72",
"=. c #747371",
"-. c #7A7C71",
";. c #821A24",
":. c #961C26",
">. c #A50E21",
",. c #98252D",
"<. c #92293A",
"1. c #8C2C3A",
"2. c #AA363D",
"3. c #B23B3F",
"4. c #C2293A",
"5. c #D9383E",
"6. c #FD2E3E",
"7. c #EE343B",
"8. c #ED3A3E",
"9. c #F3363C",
"0. c #FB353D",
"q. c #F53A3C",
"w. c #FB393D",
"e. c #E92E37",
"r. c #811F48",
"t. c #842945",
"y. c #962B48",
"u. c #883344",
"i. c #803147",
"p. c #933246",
"a. c #8C2A53",
"s. c #912B56",
"d. c #883258",
"f. c #9B3B57",
"g. c #B32D44",
"h. c #A83D49",
"j. c #A83556",
"k. c #B43853",
"l. c #BC344C",
"z. c #B63F67",
"x. c #C93C4E",
"c. c #D73A4D",
"v. c #C33E5D",
"b. c #C73D57",
"n. c #DD3454",
"m. c #D53C5C",
"M. c #D73A59",
"N. c #C22A41",
"B. c #ED3343",
"V. c #ED3B44",
"C. c #ED344C",
"Z. c #E53B4E",
"A. c #EC3C4D",
"S. c #E63847",
"D. c #F53542",
"F. c #FB3741",
"G. c #F53A43",
"H. c #FA3942",
"J. c #FC354A",
"K. c #F43B4A",
"L. c #FC3B4A",
"P. c #F7354D",
"I. c #E43755",
"U. c #E33A54",
"Y. c #EB3C54",
"T. c #E43D5B",
"R. c #E93659",
"E. c #F33C51",
"W. c #FC3C52",
"Q. c #F43A59",
"!. c #F33455",
"~. c #CC3A61",
"^. c #C63D69",
"/. c #D83A64",
"(. c #E63C64",
"). c #93435D",
"_. c #AC435C",
"`. c #B9435A",
"'. c #B54046",
"]. c #B44464",
"[. c #BA4768",
"{. c #BC4572",
"}. c #B14C6D",
"|. c #DC4249",
" X c #C4415D",
".X c #CC425B",
"XX c #C74953",
"oX c #DB4654",
"OX c #DB425C",
"+X c #D54458",
"@X c #C64049",
"#X c #E6444C",
"$X c #FB4246",
"%X c #F5434C",
"&X c #FC424B",
"*X c #FB494D",
"=X c #E64252",
"-X c #E5415B",
";X c #ED455D",
":X c #EB4956",
">X c #F54353",
",X c #FC4452",
"<X c #FD4C50",
"1X c #F74159",
"2X c #FB4D5B",
"3X c #F7485C",
"4X c #F95258",
"5X c #C44261",
"6X c #CB416B",
"7X c #C94767",
"8X c #D34162",
"9X c #D74365",
"0X c #CE4272",
"qX c #E44362",
"wX c #FA4C61",
"eX c #F65B63",
"rX c #FB5D65",
"tX c #FC5767",
"yX c #FC5971",
"uX c #F05E71",
"iX c #E55966",
"pX c #ED6068",
"aX c #FC6167",
"sX c #FC6472",
"dX c #F76A79",
"fX c #FC777C",
"gX c #FB7579",
"hX c #FC7886",
"jX c #FF939F",
"kX c #F7868D",
"lX c #FFA7AF",
"zX c #FFB3BE",
"xX c #FFABB6",
"cX c None",
/* pixels */
"cXcXcXcXcXcXcXcXcXcXcXcXcXcXcXcXcXcXcXcXcXcXcXcXcXcXcXcXcXcXcXcXcXcXcXcXcXcXcXcXcXcXcXcXcXcXcXcXcXcX",
"cXcXcXcXcXcXcXcXcXcXcXcXcXcXcXcXcXcXcXcXcXcXcXcXcXcXcXcXcXcXcXcXcXcXcXcXcXcXcXcXcXcXcXcXcXcXcXcXcXcX",
"cXcXcXcXcXcXcXcXcXcXcXcXcXcXcXcXcXcXcXcXcXcXcXcXcXcXcXcXcXcXcXcXcXcXcXcXcXcXcXcXcXcXcXcXcXcXcXcXcXcX",
"cXcXcXcXcXcXcXcXcXcXcXcXcXcXcXcXcXcXcXcXcXcXcXcXcXcXcXcXcXcXcXcXcXcXcXcXcXcXcXcXcXcXcXcXcXcXcXcXcXcX",
"cXcXcXcXcXcXcXcXcXcXcXcXcXcX{ J X X   $   $ _ cXcXcXcXcX@.L o   X   Q =.cXcXcXcXcXcXcXcXcXcXcXcXcXcX",
"cXcXcXcXcXcXcXcXcXcXcXcX& | $.V + + O + + 5 } cXcXcXcXO.=.T O + O O P o.X.* o $.cXcXcXcXcXcXcXcXcXcX",
"cXcXcXcXcXcXcXcXcXcXcX&.e O - A 1.1.p.p.t.G 9 * cX) +.} 7 m u.y.y.u.N : #   . ) | cXcXcXcXcXcXcXcXcX",
"cXcXcXcXcXcXcXcXcXcX..E N t y ;.XX9X.X+X+Xk.a ; 0 X./ ! 3 c 7XM.+Xb.c p 2 3 9 T ) ] cXcXcXcXcXcXcXcX",
"cXcXcXcXcXcXcXcXcX@. .= c `.@XoXU.>XA.A.A.;Xx.;.1 ( K + 1.+X-XU.=Xc.OX X`.].)., w ..#.cXcXcXcXcXcXcX",
"cXcXcXcXcXcXcXcX+.e n G g.OX:XwX2X2X>XG.9.D.K.3.S s M G  XT.A.rXaXA.>XI.T./.z.t.n m ^ ' cXcXcXcXcXcX",
"cXcXcXcXcXcXcX ./ n g b.;X3X:XpXsXtX2X*Xq.9.$X8.XXy f '.OXR.wXsXaXq.L.P.Q.R./.^.y.2 P X.$.cXcXcXcXcX",
"cXcXcXcXcXcX=.E 1 G l.T.3X4XpXgXhXdXeX4X$Xw.q.%X|.@X:.d N.tXhX4X*X9.H.F.W.!.(.(.^.f.l O $ cXcXcXcXcX",
"cXcXcXcXcX% e N b k.;XE.,XrXfXhXxXjXdXiX*Xq.8.8.%XU.3.>.iXsXsX>X8.q.H.0.J.J.Q.I.~.].3 @ +.cXcXcXcXcX",
"cXcXcXcXcX% . 2 _.M.K.J.&XaXkXxXzXjXhXeX%Xq.8.q.B.J.D.Z.fXgXS.&XV.H.w.0.J.D.W.R.~.[.j 9 [ ) cXcXcXcX",
"cXcXcXcXcXX O i 5XoXB.q.<XrXpXhXjXhXsXeX>XK.H.H.F.H.&X%X#X<X7.9.K.K.0.w.w.w.K.A.(.^.j.I # o cXcXcXcX",
"cXcXcXcXcX% . u `.-XK.w.*X:XyXdXhXpX4X2X&XH.w.F.0.J.w.q.w.9.w.w.F.H.L.0.w.w.D.E.R./.0Xs.@ X cXcXcXcX",
"cXcXcXcXcX% O u v.T.G.w.q.%XwXyXeX4X&X%XK.9.H.F.F.F.F.H.w.q.w.w.w.F.G.H.F.F.F.J.I.m.^.s.#   cXcXcXcX",
"cXcXcXcXcXX . u v.T.H.w.w.G.E.Q.2X<X&XG.G.G.G.w.F.F.F.F.H.H.H.w.w.w.H.J.H.H.F.H.Z.OX0Xs.# X cXcXcXcX",
"cXcXcXcXcX% . i  XI.D.w.q.q.P.,X,X$XG.G.G.H.H.F.F.F.F.0.F.F.G.w.w.F.G.H.J.F.F.K.Y.M.^.s.+ X cXcXcXcX",
"cXcXcXcXcX$   2  XR.G.w.w.q.J.W.H.G.V.G.G.H.H.H.F.F.F.H.F.w.G.F.F.F.P.K.G.G.G.G.U./.0Xs.+   cXcXcXcX",
"cXcXcXcXcX%   3  XR.K.q.w.w.w.H.K.G.G.G.H.H.F.H.F.F.w.G.H.H.q.F.H.F.H.K.q.G.q.K.U.9X^.s.: & cXcXcXcX",
"cXcXcXcXcX%   3 5XY.A.q.w.w.w.H.G.G.H.G.H.H.F.H.F.F.F.F.F.H.G.H.F.J.H.H.H.H.H.K.T.m.z.d.@   cXcXcXcX",
"cXcXcXcXcXX @ , k.T.>XG.q.q.w.9.w.G.H.H.F.F.F.F.F.F.F.F.w.H.H.w.F.H.F.F.F.0.J.C.qX6X{.d.#   cXcXcXcX",
"cXcXcXcXcX$ e N c g.A.H.w.q.w.w.H.F.w.F.F.F.F.F.F.F.F.F.F.F.F.G.H.F.F.0.F.F.H.E.M.5XU z P J cXcXcXcX",
"cXcXcXcXcXcX=.! - <.:XD.H.H.0.0.F.F.F.w.F.F.H.F.F.F.H.H.F.D.H.G.G.q.L.0.0.F.J.Y./.z.h q *.@.cXcXcXcX",
"cXcXcXcXcXcXcXO + D oXK.K.F.F.6.F.F.F.H.F.F.F.F.w.F.F.H.H.w.H.q.9.H.0.6.J.J.C.-X~.}.q @ *.cXcXcXcXcX",
"cXcXcXcXcXcXcX6 7 F ,.c.K.J.F.F.F.w.w.F.F.F.F.w.F.F.H.F.H.H.H.H.G.$XJ.L.J.C.-X.Xj.v Z V o cXcXcXcXcX",
"cXcXcXcXcXcXcX@.%.7 > h.U.P.D.J.F.F.F.F.F.F.F.H.H.H.F.G.H.H.F.G.9.G.D.P.Q.n.8X_.U - E &.cXcXcXcXcXcX",
"cXcXcXcXcXcXcXcXcX' K y :.;XA.V.H.H.H.H.F.w.F.F.F.F.H.H.H.H.H.J.L.K.1XU.+X X_.j l ( ..cXcXcXcXcXcXcX",
"cXcXcXcXcXcXcXcXcXcX' 4 c ,.oX#XK.w.H.H.H.w.D.H.H.H.H.H.H.H.H.H.J.B.E.-X5Xf.I l Z cXcXcXcXcXcXcXcXcX",
"cXcXcXcXcXcXcXcXcXcX%.o.m r 3.oXG.q.9.w.F.H.H.9.G.H.H.F.F.F.H.J.W.W.n..X].v q [ =.cXcXcXcXcXcXcXcXcX",
"cXcXcXcXcXcXcXcXcXcXcX$.R K y ,.|.V.K.H.&X&XL.q.G.F.F.F.G.G.F.P.C.I.9Xj.a N T | cXcXcXcXcXcXcXcXcXcX",
"cXcXcXcXcXcXcXcXcXcXcXcX$.` 4 f 2.|.#X%X&X&X&XD.q.H.F.F.q.q.G.E./.5Xj.i.i B $.cXcXcXcXcXcXcXcXcXcXcX",
"cXcXcXcXcXcXcXcXcXcXcXcXcX%. .K > 2.:XS.G.L.7.$XH.H.w.w.9.K.1Xc.5X}.v - ( #.cXcXcXcXcXcXcXcXcXcXcXcX",
"cXcXcXcXcXcXcXcXcXcXcXcXcXcX%.R T s :.|.G.w.H.F.q.7.w.9.&XE.n.9Xj.x v Y o.cXcXcXcXcXcXcXcXcXcXcXcXcX",
"cXcXcXcXcXcXcXcXcXcXcXcXcXcXcX#.).4 f 3.|.8.H.w.$X9.K.V.A.M.8Xj.U , ! o.cXcXcXcXcXcXcXcXcXcXcXcXcXcX",
"cXcXcXcXcXcXcXcXcXcXcXcXcXcXcXcX .X.K > ,.#X9.w.q.9.P.1Xn.8X[.a 3 ^ ` cXcXcXcXcXcXcXcXcXcXcXcXcXcXcX",
"cXcXcXcXcXcXcXcXcXcXcXcXcXcXcXcXcXO.W Z A :.5.K.H.K.R.n.6Xj.x N B  .cXcXcXcXcXcXcXcXcXcXcXcXcXcXcXcX",
"cXcXcXcXcXcXcXcXcXcXcXcXcXcXcXcXcXcXcXO.4 t '.|.S.Q.(.9X[.I - T %.cXcXcXcXcXcXcXcXcXcXcXcXcXcXcXcXcX",
"cXcXcXcXcXcXcXcXcXcXcXcXcXcXcXcXcXcXcX@.' ! r :.qX(.~.z.j k } ' cXcXcXcXcXcXcXcXcXcXcXcXcXcXcXcXcXcX",
"cXcXcXcXcXcXcXcXcXcXcXcXcXcXcXcXcXcXcXcXcX^ n x y.[.j.U n V #.cXcXcXcXcXcXcXcXcXcXcXcXcXcXcXcXcXcXcX",
"cXcXcXcXcXcXcXcXcXcXcXcXcXcXcXcXcXcXcXcXcXcXX.n u f.v , T cXcXcXcXcXcXcXcXcXcXcXcXcXcXcXcXcXcXcXcXcX",
"cXcXcXcXcXcXcXcXcXcXcXcXcXcXcXcXcXcXcXcXcXcX$.^ ! 3 w ^  .cXcXcXcXcXcXcXcXcXcXcXcXcXcXcXcXcXcXcXcXcX",
"cXcXcXcXcXcXcXcXcXcXcXcXcXcXcXcXcXcXcXcXcXcXcXcX' 8 e +.cXcXcXcXcXcXcXcXcXcXcXcXcXcXcXcXcXcXcXcXcXcX",
"cXcXcXcXcXcXcXcXcXcXcXcXcXcXcXcXcXcXcXcXcXcXcXcXO.O.O.cXcXcXcXcXcXcXcXcXcXcXcXcXcXcXcXcXcXcXcXcXcXcX",
"cXcXcXcXcXcXcXcXcXcXcXcXcXcXcXcXcXcXcXcXcXcXcXcXcX] cXcXcXcXcXcXcXcXcXcXcXcXcXcXcXcXcXcXcXcXcXcXcXcX",
"cXcXcXcXcXcXcXcXcXcXcXcXcXcXcXcXcXcXcXcXcXcXcXcXcXcXcXcXcXcXcXcXcXcXcXcXcXcXcXcXcXcXcXcXcXcXcXcXcXcX",
"cXcXcXcXcXcXcXcXcXcXcXcXcXcXcXcXcXcXcXcXcXcXcXcXcXcXcXcXcXcXcXcXcXcXcXcXcXcXcXcXcXcXcXcXcXcXcXcXcXcX",
"cXcXcXcXcXcXcXcXcXcXcXcXcXcXcXcXcXcXcXcXcXcXcXcXcXcXcXcXcXcXcXcXcXcXcXcXcXcXcXcXcXcXcXcXcXcXcXcXcXcX",
"cXcXcXcXcXcXcXcXcXcXcXcXcXcXcXcXcXcXcXcXcXcXcXcXcXcXcXcXcXcXcXcXcXcXcXcXcXcXcXcXcXcXcXcXcXcXcXcXcXcX"
};
