/* XPM */
static char *h3_removebg_preview1742491788[] = {
/* columns rows colors chars-per-pixel */
"50 50 231 2 ",
"   c #020201",
".  c #0B0003",
"X  c #000A02",
"o  c #030408",
"O  c #150002",
"+  c #1C0001",
"@  c #160506",
"#  c #230004",
"$  c #2C030F",
"%  c #250807",
"&  c #340000",
"*  c #32000B",
"=  c #3D040C",
"-  c #3B0505",
";  c #3D100D",
":  c #360C1D",
">  c #3B0B1B",
",  c #3A0617",
"<  c #36181A",
"1  c #1C2A1B",
"2  c #172516",
"3  c #3A211D",
"4  c #391520",
"5  c #1D2B21",
"6  c #242822",
"7  c #2A2A24",
"8  c #3B2828",
"9  c #243223",
"0  c #2A3C2C",
"q  c #3B3B37",
"w  c #323530",
"e  c #430001",
"r  c #450507",
"t  c #5A0607",
"y  c #510B1A",
"u  c #461B1A",
"i  c #5B1014",
"p  c #610004",
"a  c #70181A",
"s  c #44231C",
"d  c #570925",
"f  c #481B28",
"g  c #57152B",
"h  c #641A25",
"j  c #681C3A",
"k  c #791D34",
"l  c #44272E",
"z  c #452524",
"x  c #5E262F",
"c  c #4C2A37",
"v  c #582C37",
"b  c #443134",
"n  c #4B373A",
"m  c #583738",
"M  c #47322D",
"N  c #6D2928",
"B  c #78252E",
"V  c #692938",
"C  c #7C293B",
"Z  c #792939",
"A  c #643538",
"S  c #5F2B41",
"D  c #4E3441",
"F  c #573E42",
"G  c #6D2E41",
"H  c #7B2A44",
"J  c #732944",
"K  c #474646",
"L  c #59484B",
"P  c #5B534B",
"I  c #52584E",
"U  c #5E5252",
"Y  c #594852",
"T  c #624C4C",
"R  c #654646",
"E  c #674E58",
"W  c #645B55",
"Q  c #6B5B5A",
"!  c #655658",
"~  c #725F59",
"^  c #496B5B",
"/  c #486D54",
"(  c #536B54",
")  c #526A59",
"_  c #5A6958",
"`  c #516A56",
"'  c #66675D",
"]  c #73645F",
"[  c #5B7265",
"{  c #6A6461",
"}  c #6A6B64",
"|  c #6A6A67",
" . c #736F6A",
".. c #776D68",
"X. c #637562",
"o. c #6B7465",
"O. c #6B756B",
"+. c #6E7A6D",
"@. c #667868",
"#. c #72746B",
"$. c #7A756D",
"%. c #77796E",
"&. c #717567",
"*. c #697571",
"=. c #797771",
"-. c #90121D",
";. c #8D151E",
":. c #911B23",
">. c #891D32",
",. c #8A1D23",
"<. c #87222D",
"1. c #9A242A",
"2. c #85253C",
"3. c #933739",
"4. c #AB3336",
"5. c #B63839",
"6. c #D8393D",
"7. c #FA2E38",
"8. c #ED363A",
"9. c #F5353D",
"0. c #FD353E",
"q. c #F5393E",
"w. c #FB393D",
"e. c #F73336",
"r. c #B9423A",
"t. c #8B2B43",
"y. c #8E2845",
"u. c #982D4B",
"i. c #893249",
"p. c #9B304E",
"a. c #96394B",
"s. c #8A3B57",
"d. c #9C3355",
"f. c #AA3C47",
"g. c #B83D47",
"h. c #A4365A",
"j. c #A83A59",
"k. c #BA3E53",
"l. c #BC3F5C",
"z. c #B53E66",
"x. c #D83D49",
"c. c #C93B58",
"v. c #DF3553",
"b. c #D43B5A",
"n. c #DB3D5D",
"m. c #D83B55",
"M. c #CC3943",
"N. c #F62F44",
"B. c #EC3D45",
"V. c #EB354C",
"C. c #ED3B4C",
"Z. c #E83747",
"A. c #F53643",
"S. c #FB3642",
"D. c #F53A42",
"F. c #FA3942",
"G. c #F3364D",
"H. c #FC3549",
"J. c #F43A4A",
"K. c #FB3A4B",
"L. c #E43552",
"P. c #E23C54",
"I. c #ED3A52",
"U. c #E13B5A",
"Y. c #EA3D58",
"T. c #E63559",
"R. c #F33554",
"E. c #F23C52",
"W. c #F3385A",
"Q. c #FF3B59",
"!. c #CC3B67",
"~. c #C83D67",
"^. c #D43C63",
"/. c #DB3A64",
"(. c #E73B63",
"). c #B14046",
"_. c #B04650",
"`. c #A5444D",
"'. c #A84765",
"]. c #B64264",
"[. c #BA4365",
"{. c #B24369",
"}. c #BA5075",
"|. c #DA424A",
" X c #C8455C",
".X c #D24653",
"XX c #D5445D",
"oX c #DC4556",
"OX c #CA554E",
"+X c #ED4149",
"@X c #E34248",
"#X c #F24145",
"$X c #FA4147",
"%X c #F4424B",
"&X c #FC424B",
"*X c #FC4C4D",
"=X c #E94656",
"-X c #F34751",
";X c #FD4455",
":X c #F54A51",
">X c #FB4C53",
",X c #F94F59",
"<X c #FE5356",
"1X c #FC555C",
"2X c #F75D5E",
"3X c #F9555E",
"4X c #C14365",
"5X c #CA4865",
"6X c #C84268",
"7X c #D44363",
"8X c #DA4261",
"9X c #D9436E",
"0X c #D74C73",
"qX c #F45C63",
"wX c #FE5867",
"eX c #EB5B6D",
"rX c #FA696C",
"tX c #FF6779",
"yX c #FF7274",
"uX c #FC757C",
"iX c #EC6D76",
"pX c #FF5C88",
"aX c #FF6283",
"sX c #F97A85",
"dX c #FF8693",
"fX c #FD8A93",
"gX c #F89099",
"hX c #FF9CA8",
"jX c #FFAFBA",
"kX c #FFB0BF",
"lX c None",
/* pixels */
"lXlXlXlXlXlXlXlXlXlXlXlXlXlXlXlXlXlXlXlXlXlXlXlXlXlXlXlXlXlXlXlXlXlXlXlXlXlXlXlXlXlXlXlXlXlXlXlXlXlX",
"lXlXlXlXlXlXlXlXlXlXlXlXlXlXlXlXlXlXlXlXlXlXlXlXlXlXlXlXlXlXlXlXlXlXlXlXlXlXlXlXlXlXlXlXlXlXlXlXlXlX",
"lXlXlXlXlXlXlXlXlXlXlXlXlXlXlXlXlXlXlXlXlXlXlXlXlXlXlXlXlXlXlXlXlXlXlXlXlXlXlXlXlXlXlXlXlXlXlXlXlXlX",
"lXlXlXlXlXlXlXlXlXlXlXlXlXlXlXlXlXlXlXlXlXlXlXlXlXlXlXlXlXlXlXlXlXlXlXlXlXlXlXlXlXlXlXlXlXlXlXlXlXlX",
"lXlXlXlXlXlXlXlXlXlXlXlXlXlXX.9 X     o X     w X.lXlXlXlXlXlXlXlXlXlXlXlXlXlXlXlXlXlXlXlXlXlXlXlXlX",
"lXlXlXlXlXlXlXlXlXlXlXlXlX+.o.L @ @ @ @ O + # m $.o.) lXlX1 7 2 1 2 9 5 2 0 lXlXlXlXlXlXlXlXlXlXlXlX",
"lXlXlXlXlXlXlXlXlXlXlXlX#.Q < f u.u.i.t.u.p.y.h 4 W #.5 o.K . @         o q =.lXlXlXlXlXlXlXlXlXlXlX",
"lXlXlXlXlXlXlXlXlXlXlXo.Q G r B 7Xb.XXXXXXb.8X>.y R P O.U n > ; ; ; = > : D Y #.lXlXlXlXlXlXlXlXlXlX",
"lXlXlXlXlXlXlXlXlXlX@.| v & f.m.B.B.B.+XB.I.I.oX).e u ] ; g {.z.k.k._.[.'.j $ ! +.lXlXlXlXlXlXlXlXlX",
"lXlXlXlXlXlXlXlXlXo.} 8 V 2.c.-XD.e.q.q.B.D.D.J.x.1.N u N i.!.pXaXT.(.(.!.h.J l 6 lXlXlXlXlXlXlXlXlX",
"lXlXlXlXlXlXlXo.' W L = B  X=XC.+X>X*X+X#X#X8.J.B.=X1.t 3.f.eXaXtXR.W.(./.~.'.# O +.[ lXlXlXlXlXlXlX",
"lXlXlXlXlXlXlXX.%.s r a. Xm.L.;XqXuXyXqX2X1X+XJ.H.A.|.5.p a dXwXR.G.Q.R.(.^.j.= < $.o._ lXlXlXlXlXlX",
"lXlXlXlXlXlX/ 0 8 V >. XP.=X>X2XsXhXhXsXsXtX,XJ.H.H.J.6.r.OXqX-XB.D.K.V.W.n.l.C v b q _ lXlXlXlXlXlX",
"lXlXlXlXlXlX/ X O Z 5XU.V.A.<XrXdXkXjXgXsXsXwX;XS.H.K.#XyXrX@X+X#Xq.H.H.R.Y.^.].J O 8 *.[ lXlXlXlXlX",
"lXlXlXlXlXlX/   # B XXY.K.D.<X2XiXfXfXiXrXwX%XJ.H.9.q.D.:X+X%Xq.w.9.S.H.G.L.n.4XH @ ! *.@.lXlXlXlXlX",
"lXlXlXlXlXlX)   + t.XXV.J.9.*X:XqXuXuXeX3X-XD.F.q.F.D.F.D.D.D.9.w.w.0.S.K.V.n.~.d.d D K 5 ) lXlXlXlX",
"lXlXlXlXlXlX)   + C .XB.q.F.F.$X1X1X1X<X%XD.D.D.F.D.F.F.F.D.F.F.0.0.w.F.H.K.T.n.~.'.:   6 ) lXlXlXlX",
"lXlXlXlXlXlX)   + Z .XB.q.S.F.K.#X$X&X&X$XF.w.F.w.F.S.S.F.w.F.F.S.0.w.q.F.K.R.U./.].>   6 ) lXlXlXlX",
"lXlXlXlXlXlX^   O C .XC.D.S.H.H.D.q.q.q.D.F.F.D.F.F.F.9.S.F.F.S.S.0.q.D.A.K.I.U./.z.> . 6 ) lXlXlXlX",
"lXlXlXlXlXlX^ X O C oXE.J.F.H.H.D.D.q.D.D.F.D.w.F.F.F.F.F.F.S.F.F.F.D.q.D.J.Y.U./.z.> . 6 ( lXlXlXlX",
"lXlXlXlXlXlX^ X O 2.XXE.J.D.H.H.F.D.9.D.9.F.F.F.S.S.9.F.9.F.F.F.F.F.D.D.D.J.I.U./.].y o 6 ) lXlXlXlX",
"lXlXlXlXlXlXlXo O C n.R.J.J.D.A.F.D.F.F.9.F.F.S.F.S.S.F.S.S.9.F.F.D.D.q.F.J.C.U.^.].> . 6 ) lXlXlXlX",
"lXlXlXlXlXlXlX  O Z XXR.J.J.D.q.D.F.F.F.F.S.S.S.S.w.F.F.w.F.S.S.F.D.w.9.0.F.I.U.!.{.: . 6 ( lXlXlXlX",
"lXlXlXlXlXlXlXX O Z XXI.D.F.#Xq.F.F.F.F.S.S.S.w.S.S.F.F.F.S.S.S.F.F.S.0.S.K.R.U.6X{.: o 6 ( lXlXlXlX",
"lXlXlXlXlXlXlX  . A k.P.H.0.w.w.w.S.S.S.F.S.F.9.F.F.S.S.S.F.w.F.F.w.F.0.H.H.I.b.[.s.: o 5 / lXlXlXlX",
"lXlXlXlXlXlXlX_ ' z p x.K.0.w.e.S.S.S.S.S.S.S.F.S.F.9.F.S.F.F.w.w.F.e.7.K.J.T.9Xy., Y | 5 _ lXlXlXlX",
"lXlXlXlXlXlXlXlXlX% - M.C.F.0.0.w.S.w.9.S.S.F.F.F.F.F.F.F.F.S.F.9.F.F.K.G.L.n._.H # K *.[ lXlXlXlXlX",
"lXlXlXlXlXlXlXlXlXlX& _.=XZ.F.0.w.S.S.F.F.S.F.F.w.F.F.F.F.w.S.F.9.F.S.G.Y.b.5X'.G O   [ lXlXlXlXlXlX",
"lXlXlXlXlXlXlXlXlXlXR e ,.oX+Xq.S.F.F.F.F.D.F.F.D.F.S.S.F.S.0.F.D.D.;XY.7X}.h.d f { @.lXlXlXlXlXlXlX",
"lXlXlXlXlXlXlXlXlXlX] u N 3.M.B.F.F.F.F.F.F.q.F.w.F.S.9.S.S.F.F.K.Z.I.n.~.d.J g b lXlXlXlXlXlXlXlXlX",
"lXlXlXlXlXlXlXlXlXlX .$.z & ).=XJ.D.S.F.F.F.D.q.D.F.F.F.S.F.S.F.K.J.L.7X{.j > E lXlXlXlXlXlXlXlXlXlX",
"lXlXlXlXlXlXlXlXlXlXlXlXP R i :.@XD.D.K.&X&XD.D.D.F.F.0.S.F.F.H.V.m.8Xj.d S F | lXlXlXlXlXlXlXlXlXlX",
"lXlXlXlXlXlXlXlXlXlXlXlX&.Q s h 4.|.B.J.;X;X-XB.D.q.S.S.w.A.K.R./.!.h.i.> m &.+.lXlXlXlXlXlXlXlXlXlX",
"lXlXlXlXlXlXlXlXlXlXlXlXlX%...m e 4.=XB.J.J.1X:X8.S.w.w.F.K.-Xm.~.}.d $ Q } lXlXlXlXlXlXlXlXlXlXlXlX",
"lXlXlXlXlXlXlXlXlXlXlXlXlXlX%.P m a -.=XB.K.>XF.$X8.w.e.K.V.b.0Xh.d g L  .lXlXlXlXlXlXlXlXlXlXlXlXlX",
"lXlXlXlXlXlXlXlXlXlXlXlXlXlXlXlX..u i g.x.F.9.F.w.e.$XF.R.U.!.d.J , R ..+.lXlXlXlXlXlXlXlXlXlXlXlXlX",
"lXlXlXlXlXlXlXlXlXlXlXlXlXlXlXlX&.Q L & 1.=XD.q.q.w.A.R.v.!.}.g > Q ' lXlXlXlXlXlXlXlXlXlXlXlXlXlXlX",
"lXlXlXlXlXlXlXlXlXlXlXlXlXlXlXlXlXo.I M B ;.|.B.#X&XR.T.9Xh.h c n } lXlXlXlXlXlXlXlXlXlXlXlXlXlXlXlX",
"lXlXlXlXlXlXlXlXlXlXlXlXlXlXlXlXlXlXlX .3 ; f.|.P.V.(.9Xz.J $ L %.1 lXlXlXlXlXlXlXlXlXlXlXlXlXlXlXlX",
"lXlXlXlXlXlXlXlXlXlXlXlXlXlXlXlXlXlXlX@.' T e >.XXXX!.z.d f ! _ X.lXlXlXlXlXlXlXlXlXlXlXlXlXlXlXlXlX",
"lXlXlXlXlXlXlXlXlXlXlXlXlXlXlXlXlXlXlXlXlXW M N y.z.d.H f b %.lXlXlXlXlXlXlXlXlXlXlXlXlXlXlXlXlXlXlX",
"lXlXlXlXlXlXlXlXlXlXlXlXlXlXlXlXlXlXlXlXlXlX' l * s.J , T lXlXlXlXlXlXlXlXlXlXlXlXlXlXlXlXlXlXlXlXlX",
"lXlXlXlXlXlXlXlXlXlXlXlXlXlXlXlXlXlXlXlXlXlX=.! T : l T | lXlXlXlXlXlXlXlXlXlXlXlXlXlXlXlXlXlXlXlXlX",
"lXlXlXlXlXlXlXlXlXlXlXlXlXlXlXlXlXlXlXlXlXlXlX$.W 7 q O.lXlXlXlXlXlXlXlXlXlXlXlXlXlXlXlXlXlXlXlXlXlX",
"lXlXlXlXlXlXlXlXlXlXlXlXlXlXlXlXlXlXlXlXlXlXlXlX&.&.O.lXlXlXlXlXlXlXlXlXlXlXlXlXlXlXlXlXlXlXlXlXlXlX",
"lXlXlXlXlXlXlXlXlXlXlXlXlXlXlXlXlXlXlXlXlXlXlXlXlXX.lXlXlXlXlXlXlXlXlXlXlXlXlXlXlXlXlXlXlXlXlXlXlXlX",
"lXlXlXlXlXlXlXlXlXlXlXlXlXlXlXlXlXlXlXlXlXlXlXlXlXlXlXlXlXlXlXlXlXlXlXlXlXlXlXlXlXlXlXlXlXlXlXlXlXlX",
"lXlXlXlXlXlXlXlXlXlXlXlXlXlXlXlXlXlXlXlXlXlXlXlXlXlXlXlXlXlXlXlXlXlXlXlXlXlXlXlXlXlXlXlXlXlXlXlXlXlX",
"lXlXlXlXlXlXlXlXlXlXlXlXlXlXlXlXlXlXlXlXlXlXlXlXlXlXlXlXlXlXlXlXlXlXlXlXlXlXlXlXlXlXlXlXlXlXlXlXlXlX",
"lXlXlXlXlXlXlXlXlXlXlXlXlXlXlXlXlXlXlXlXlXlXlXlXlXlXlXlXlXlXlXlXlXlXlXlXlXlXlXlXlXlXlXlXlXlXlXlXlXlX"
};
