/* XPM */
static char *h5_removebg_preview1742491788[] = {
/* columns rows colors chars-per-pixel */
"50 50 216 2 ",
"   c #020300",
".  c #0B0101",
"X  c #000904",
"o  c #080A00",
"O  c #150001",
"+  c #1A0001",
"@  c #130009",
"#  c #180D09",
"$  c #161810",
"%  c #2F0102",
"&  c #23000C",
"*  c #2D000B",
"=  c #210006",
"-  c #32010D",
";  c #370003",
":  c #2F0716",
">  c #330011",
",  c #3B0A16",
"<  c #39161A",
"1  c #211F20",
"2  c #371922",
"3  c #382427",
"4  c #333731",
"5  c #430000",
"6  c #46010C",
"7  c #530108",
"8  c #430115",
"9  c #53071A",
"0  c #43191D",
"q  c #600F0C",
"w  c #62111C",
"e  c #661A1C",
"r  c #480622",
"t  c #580921",
"y  c #4D1F2C",
"u  c #5E1528",
"i  c #67122D",
"p  c #781628",
"a  c #671A34",
"s  c #751731",
"d  c #771732",
"f  c #47272C",
"g  c #57242D",
"h  c #4E2332",
"j  c #482835",
"k  c #582837",
"l  c #493536",
"z  c #5A3B3A",
"x  c #6A2334",
"c  c #632537",
"v  c #77243A",
"b  c #68242F",
"n  c #3E493C",
"m  c #4A403E",
"M  c #7C1E42",
"N  c #5F3A41",
"B  c #6A2342",
"V  c #7D2E46",
"C  c #683C44",
"Z  c #594748",
"A  c #4D534B",
"S  c #435145",
"D  c #5D4752",
"F  c #5F5655",
"G  c #585B55",
"H  c #4E5349",
"J  c #61574E",
"K  c #64545A",
"L  c #6F545A",
"P  c #675759",
"I  c #6D4E53",
"U  c #4A6B4E",
"Y  c #516A4E",
"T  c #486D51",
"R  c #466F50",
"E  c #526652",
"W  c #586757",
"Q  c #477051",
"!  c #66615B",
"~  c #70615A",
"^  c #685963",
"/  c #775F63",
"(  c #6D6B64",
")  c #676865",
"_  c #726C69",
"`  c #766965",
"'  c #667166",
"]  c #6E7265",
"[  c #6B746B",
"{  c #67776A",
"}  c #73756D",
"|  c #73776A",
" . c #747674",
".. c #8D111C",
"X. c #931717",
"o. c #AA0E19",
"O. c #811C3C",
"+. c #962637",
"@. c #8A2336",
"#. c #AB2833",
"$. c #AB363A",
"%. c #D02C35",
"&. c #C2363F",
"*. c #D2303D",
"=. c #EF2F3A",
"-. c #F2343D",
";. c #F8363F",
":. c #F43B3E",
">. c #F8393E",
",. c #E63C3F",
"<. c #962B44",
"1. c #963349",
"2. c #983246",
"3. c #893A57",
"4. c #9B3955",
"5. c #872742",
"6. c #A9384A",
"7. c #BC3F43",
"8. c #A63857",
"9. c #BA395F",
"0. c #BB3D54",
"q. c #AE3F60",
"w. c #BB3D64",
"e. c #D5354F",
"r. c #D93D4C",
"t. c #D9354E",
"y. c #CB3C58",
"u. c #DD375D",
"i. c #D33B5B",
"p. c #DC3A5B",
"a. c #D93955",
"s. c #C9374E",
"d. c #ED3B44",
"f. c #E43D4C",
"g. c #EB3C4C",
"h. c #E9364B",
"j. c #F43645",
"k. c #FB3642",
"l. c #F43A43",
"z. c #FA3841",
"x. c #F4364D",
"c. c #FB354B",
"v. c #F43B4A",
"b. c #FC3A4B",
"n. c #E53A54",
"m. c #ED3B52",
"M. c #E0365C",
"N. c #ED3C59",
"B. c #E53859",
"V. c #F33651",
"C. c #F33B54",
"Z. c #F53A58",
"A. c #FE3E53",
"S. c #C53E65",
"D. c #C63F6A",
"F. c #CA3D67",
"G. c #DE3661",
"H. c #D33E64",
"J. c #D93861",
"K. c #E13C61",
"L. c #BE424D",
"P. c #B24D5F",
"I. c #A3465B",
"U. c #9B4466",
"Y. c #A24366",
"T. c #AF4A66",
"R. c #A84865",
"E. c #BF4C62",
"W. c #B94667",
"Q. c #A25066",
"!. c #BC4C73",
"~. c #BD577E",
"^. c #816F6F",
"/. c #DF454E",
"(. c #CF435E",
"). c #CA4057",
"_. c #D5445D",
"`. c #D74457",
"'. c #EE424B",
"]. c #E44549",
"[. c #F3424D",
"{. c #FD434C",
"}. c #FD4A4E",
"|. c #E54252",
" X c #EC4558",
".X c #F44455",
"XX c #FB4450",
"oX c #FD4951",
"OX c #FC4F5A",
"+X c #F44859",
"@X c #F35259",
"#X c #FB535C",
"$X c #C64463",
"%X c #CB4463",
"&X c #CE416A",
"*X c #C94767",
"=X c #D34262",
"-X c #D94669",
";X c #E14162",
":X c #F24F60",
">X c #F65262",
",X c #FC5A66",
"<X c #F85B66",
"1X c #F36365",
"2X c #FF6D74",
"3X c #F96679",
"4X c #F76474",
"5X c #FF767E",
"6X c #FB7C87",
"7X c #FF8693",
"8X c #FF8993",
"9X c #FF8C9B",
"0X c #FF9192",
"qX c #FFA09F",
"wX c #FF9BA3",
"eX c None",
/* pixels */
"eXeXeXeXeXeXeXeXeXeXeXeXeXeXeXeXeXeXeXeXeXeXeXeXeXeXeXeXeXeXeXeXeXeXeXeXeXeXeXeXeXeXeXeXeXeXeXeXeXeX",
"eXeXeXeXeXeXeXeXeXeXeXeXeXeXeXeXeXeXeXeXeXeXeXeXeXeXeXeXeXeXeXeXeXeXeXeXeXeXeXeXeXeXeXeXeXeXeXeXeXeX",
"eXeXeXeXeXeXeXeXeXeXeXeXeXeXeXeXeXeXeXeXeXeXeXeXeXeXeXeXeXeXeXeXeXeXeXeXeXeXeXeXeXeXeXeXeXeXeXeXeXeX",
"eXeXeXeXeXeXeXeXeXeXeXeXeXeXeXeXeXeXeXeXeXeXeXeXeXeXeXeXeXeXeXeXeXeXeXeXeXeXeXeXeXeXeXeXeXeXeXeXeXeX",
"eXeXeXeXeXeXeXeXeXeXeXeXeXeXeXeX' $           X     4 ( eXeXeXeXeXeXeXeXeXeXeXeXeXeXeXeXeXeXeXeXeXeX",
"eXeXeXeXeXeXeXeXeXeXeXeXeXeXeX) _ 2 O O + O O O = = f ` _ A H A A n S eXeXeXeXeXeXeXeXeXeXeXeXeXeXeX",
"eXeXeXeXeXeXeXeXeXeXeXeXeXeX) Z < c 3.4.<.<.1.1.+.2.b 0 ~ Z . . . O l _ eXeXeXeXeXeXeXeXeXeXeXeXeXeX",
"eXeXeXeXeXeXeXeXeXeXeXeXeX_ K z 9 6.y.J.-X=X=X_.-Xi.<.6 C N : , , , z P _ eXeXeXeXeXeXeXeXeXeXeXeXeX",
"eXeXeXeXeXeXeXeXeXeXeXeXeX` - w L.r.g.C.C.n.|.n.C.n.`.y.7 9 Q.Q.T.I.u * / ) eXeXeXeXeXeXeXeXeXeXeXeX",
"eXeXeXeXeXeXeXeXeXeXeXeXeX< x 6.|.l.l.l.[..X].m.x.x.m.a.+.p p 6.*X$X2.x y Z [ eXeXeXeXeXeXeXeXeXeXeX",
"eXeXeXeXeXeXeXeXeXeXeXeX# - 1.=Xf.-.}.'.1X2X/.'.{.x.b.g.`.+.; +.i.;X*X8.8 l K W eXeXeXeXeXeXeXeXeXeX",
"eXeXeXeXeXeXeXeXeXeXeX_ f % 0.t.'.[.#X@X0XqX1X@XOXv.l.h.|.#.7 #. Xn.a.$X4.c O   eXeXeXeXeXeXeXeXeXeX",
"eXeXeXeXeXeXeXeXeXeXeXl h v s.N.@X2X6X6XwXwX6X5X2X@X[.l.'.%.o.%.C.x.n.H.W.i + ^ [ eXeXeXeXeXeXeXeXeX",
"eXeXeXeXeXeXeXeXeXeXX . b $Xn.+X<X6X7X7X9X8X7X8X5X#X}.{.[.:.[.l.z.c.V.i.%XO.8 L G eXeXeXeXeXeXeXeXeX",
"eXeXeXeXeXeXeXeXeXeXX . a (.f.C..X<X<X4X3X3X3X<X,X{.l.:.:.z.{.l.k.b.V.B.H.w.V 2 $ eXeXeXeXeXeXeXeXeX",
"eXeXeXeXeXeXeXeXeXeXX @ s )..Xj.d..XOX:X+X+X>X#X{.z.z.>.;.b.=.z.;.k.C.N.J.w.R.* . eXeXeXeXeXeXeXeXeX",
"eXeXeXeXeXeXeXeXeXeX  O s (.g.l.l.l.l.l.l.x.l.l.z.z.z.z.z.z.z.z.;.k.c.Z.K.F.Y.> . E eXeXeXeXeXeXeXeX",
"eXeXeXeXeXeXeXeXeXT   O s (.f.:.z.z.z.z.>.z.z.k.z.z.z.z.z.z.z.k.k.k.c.Z.G.F.U.> . E eXeXeXeXeXeXeXeX",
"eXeXeXeXeXeXeXeXeXT X + s (.].l.l.z.z.z.z.z.k.k.z.z.z.z.z.z.z.z.z.z.x.Z.G.D.U.> . T eXeXeXeXeXeXeXeX",
"eXeXeXeXeXeXeXeXeXQ   O s (.f.>.z.z.z.z.z.z.z.>.z.z.z.z.z.z.z.>.:.z.l.m.G.D.Y.> . W eXeXeXeXeXeXeXeX",
"eXeXeXeXeXeXeXeXeXQ   O d (.f.>.z.z.z.z.z.z.z.z.z.z.z.z.z.z.;.z.:.:.l.C.G.$XY.>   T eXeXeXeXeXeXeXeX",
"eXeXeXeXeXeXeXeXeXQ   + d _.g.l.l.z.k.>.z.z.z.z.z.k.;.z.z.z.z.>.:.l.d.m.u.F.Y.> . Y eXeXeXeXeXeXeXeX",
"eXeXeXeXeXeXeXeXeXQ   + d H.g.j.>.z.z.z.k.z.z.z.z.z.z.z.z.z.z.z.>.:.z.C.u.F.Y.> . Y eXeXeXeXeXeXeXeX",
"eXeXeXeXeXeXeXeXeXeX  + d H.g.z.k.k.z.z.>.k.z.z.>.z.z.z.z.z.z.>.>.z.j.C.M.F.Y.> . Y eXeXeXeXeXeXeXeX",
"eXeXeXeXeXeXeXeXeXeX  + s %Xx.;.k.z.z.>.z.z.k.z.k.k.z.z.z.k.k.z.k.k.c.x.M.F.Y.> . Y eXeXeXeXeXeXeXeX",
"eXeXeXeXeXeXeXeXeXeX  O v y..Xb.z.z.z.z.z.z.k.z.z.z.z.z.z.>.z.k.k.k.c.Z.K.F.U.: . W eXeXeXeXeXeXeXeX",
"eXeXeXeXeXeXeXeXeXeXX + a P.m.-.z.z.>.z.k.z.z.>.z.z.z.k.z.z.z.>.;.k.b.m.J.*XU.& . eXeXeXeXeXeXeXeXeX",
"eXeXeXeXeXeXeXeXeXeXX O k T.r.{.z.z.z.z.z.z.z.z.z.z.>.k.z.k.k.k.c.c.Z.n.H.!.3.: o eXeXeXeXeXeXeXeXeX",
"eXeXeXeXeXeXeXeXeXeXeXP h 7 &.].l.z.k.k.z.;.z.k.z.z.z.z.z.z.z.z.k.v.C.B.S.M , D E eXeXeXeXeXeXeXeXeX",
"eXeXeXeXeXeXeXeXeXeXeXeX3 % 7.].l.z.z.z.z.z.z.z.>.z.z.z.z.z.z.z.b.C.t.y.W.a & ^ eXeXeXeXeXeXeXeXeXeX",
"eXeXeXeXeXeXeXeXeXeXeXeX. % $.].l.z.z.z.k.k.z.z.k.z.k.z.z.z.z.z.x.n.n.%XT.B @   eXeXeXeXeXeXeXeXeXeX",
"eXeXeXeXeXeXeXeXeXeXeXeXeXm q X.].d.l.z.{.{.z.l.z.z.k.k.z.l.z.v. Xa.(.8.t h K eXeXeXeXeXeXeXeXeXeXeX",
"eXeXeXeXeXeXeXeXeXeXeXeXeX~ < e $.].d.-.{.OXv.[.j.b.k.;.z.-.l.m.-X9.T.v , l } eXeXeXeXeXeXeXeXeXeXeX",
"eXeXeXeXeXeXeXeXeXeXeXeXeX| ( z 7 $.].g.z.l.,X.Xd.b.k.k.z.v..Xe.9.~.t > / } eXeXeXeXeXeXeXeXeXeXeXeX",
"eXeXeXeXeXeXeXeXeXeXeXeXeXeX] J z e ..r..Xv..XXXoX{.{.;.A.V.e.-X8.i c C ` eXeXeXeXeXeXeXeXeXeXeXeXeX",
"eXeXeXeXeXeXeXeXeXeXeXeXeXeXE ] ~ 0 w 6.e.+Xd.oX#X}.}.j.m.M.F.T.V - I } eXeXeXeXeXeXeXeXeXeXeXeXeXeX",
"eXeXeXeXeXeXeXeXeXeXeXeXeXeXeXeX] ~ Z ; +.s.f.d.,.d.v.C.a.H.!.r , L ( eXeXeXeXeXeXeXeXeXeXeXeXeXeXeX",
"eXeXeXeXeXeXeXeXeXeXeXeXeXeXeXeXeX} J 3 x +._.f.@X.Xm.a.-X8.a k N ] eXeXeXeXeXeXeXeXeXeXeXeXeXeXeXeX",
"eXeXeXeXeXeXeXeXeXeXeXeXeXeXeXeXeXeX'  .3 , 2.y.t.B.G.y.W.B = A ' eXeXeXeXeXeXeXeXeXeXeXeXeXeXeXeXeX",
"eXeXeXeXeXeXeXeXeXeXeXeXeXeXeXeXeXeXeXW G Z 6 @._.i.*XW.9 y L ! eXeXeXeXeXeXeXeXeXeXeXeXeXeXeXeXeXeX",
"eXeXeXeXeXeXeXeXeXeXeXeXeXeXeXeXeXeXeXeXeXF f g 5.W.q.M k l ] eXeXeXeXeXeXeXeXeXeXeXeXeXeXeXeXeXeXeX",
"eXeXeXeXeXeXeXeXeXeXeXeXeXeXeXeXeXeXeXeXeXeX( l > 3.B : D eXeXeXeXeXeXeXeXeXeXeXeXeXeXeXeXeXeXeXeXeX",
"eXeXeXeXeXeXeXeXeXeXeXeXeXeXeXeXeXeXeXeXeXeX| J D 2 j ^ _ eXeXeXeXeXeXeXeXeXeXeXeXeXeXeXeXeXeXeXeXeX",
"eXeXeXeXeXeXeXeXeXeXeXeXeXeXeXeXeXeXeXeXeXeXeXeX! 1 4  .eXeXeXeXeXeXeXeXeXeXeXeXeXeXeXeXeXeXeXeXeXeX",
"eXeXeXeXeXeXeXeXeXeXeXeXeXeXeXeXeXeXeXeXeXeXeXeX{ { [ eXeXeXeXeXeXeXeXeXeXeXeXeXeXeXeXeXeXeXeXeXeXeX",
"eXeXeXeXeXeXeXeXeXeXeXeXeXeXeXeXeXeXeXeXeXeXeXeXeX{ eXeXeXeXeXeXeXeXeXeXeXeXeXeXeXeXeXeXeXeXeXeXeXeX",
"eXeXeXeXeXeXeXeXeXeXeXeXeXeXeXeXeXeXeXeXeXeXeXeXeXeXeXeXeXeXeXeXeXeXeXeXeXeXeXeXeXeXeXeXeXeXeXeXeXeX",
"eXeXeXeXeXeXeXeXeXeXeXeXeXeXeXeXeXeXeXeXeXeXeXeXeXeXeXeXeXeXeXeXeXeXeXeXeXeXeXeXeXeXeXeXeXeXeXeXeXeX",
"eXeXeXeXeXeXeXeXeXeXeXeXeXeXeXeXeXeXeXeXeXeXeXeXeXeXeXeXeXeXeXeXeXeXeXeXeXeXeXeXeXeXeXeXeXeXeXeXeXeX",
"eXeXeXeXeXeXeXeXeXeXeXeXeXeXeXeXeXeXeXeXeXeXeXeXeXeXeXeXeXeXeXeXeXeXeXeXeXeXeXeXeXeXeXeXeXeXeXeXeXeX"
};
