/* XPM */
static char *h7_removebg_preview1742491788[] = {
/* columns rows colors chars-per-pixel */
"50 50 216 2 ",
"   c #010501",
".  c #0C0003",
"X  c #030C01",
"o  c #080B02",
"O  c #08070C",
"+  c #130001",
"@  c #1A0000",
"#  c #180A06",
"$  c #041102",
"%  c #191713",
"&  c #260000",
"*  c #2A0203",
"=  c #2D0109",
"-  c #250009",
";  c #330001",
":  c #37040A",
">  c #3D180F",
",  c #270B14",
"<  c #350510",
"1  c #390819",
"2  c #251213",
"3  c #29211E",
"4  c #3D1C23",
"5  c #361820",
"6  c #2E2425",
"7  c #3A2327",
"8  c #213029",
"9  c #3E302F",
"0  c #392C35",
"q  c #460007",
"w  c #5E0D09",
"e  c #440318",
"r  c #590619",
"t  c #65121A",
"y  c #4E0822",
"u  c #540621",
"i  c #481926",
"p  c #5B1728",
"a  c #451E30",
"s  c #6A0C25",
"d  c #67142A",
"f  c #6F172D",
"g  c #70192C",
"h  c #6F1D33",
"j  c #7A1E3F",
"k  c #751B38",
"l  c #59232E",
"z  c #482B32",
"x  c #542731",
"c  c #592937",
"v  c #4B353C",
"b  c #433333",
"n  c #52353A",
"m  c #77302E",
"M  c #6D2136",
"N  c #622138",
"B  c #6A2A3A",
"V  c #7B2136",
"C  c #77223D",
"Z  c #7A203B",
"A  c #7A2B3B",
"S  c #643138",
"D  c #7C1E41",
"F  c #463D42",
"G  c #543D41",
"H  c #593E43",
"J  c #773045",
"K  c #6B2642",
"L  c #4C4746",
"P  c #59474A",
"I  c #5F4F50",
"U  c #5C5A58",
"Y  c #704C4C",
"T  c #645858",
"R  c #6B5152",
"E  c #4A694E",
"W  c #4B6C54",
"Q  c #486B53",
"!  c #536953",
"~  c #5C675A",
"^  c #58695A",
"/  c #497054",
"(  c #467054",
")  c #5F725F",
"_  c #68635B",
"`  c #70615A",
"'  c #6F5860",
"]  c #715E60",
"[  c #676D64",
"{  c #6D6B64",
"}  c #696865",
"|  c #726C66",
" . c #726B6B",
".. c #786769",
"X. c #627365",
"o. c #667369",
"O. c #6C736B",
"+. c #6C7467",
"@. c #74746D",
"#. c #7B706F",
"$. c #707264",
"%. c #6D7170",
"&. c #757671",
"*. c #757872",
"=. c #931E27",
"-. c #A61E2A",
";. c #92292E",
":. c #892E3F",
">. c #932436",
",. c #B13A3E",
"<. c #EB383B",
"1. c #F4353B",
"2. c #FC353E",
"3. c #F33A3E",
"4. c #F9393E",
"5. c #F13237",
"6. c #842846",
"7. c #893448",
"8. c #923549",
"9. c #873050",
"0. c #9E3A5C",
"q. c #A72E4D",
"w. c #A9384D",
"e. c #A93957",
"r. c #B33C53",
"t. c #BD3E59",
"y. c #C83649",
"u. c #DE3E4F",
"i. c #D43949",
"p. c #C93E5A",
"a. c #DB3F5B",
"s. c #D83A55",
"d. c #E33E4E",
"f. c #EB3B4C",
"g. c #EB3746",
"h. c #F53645",
"j. c #FC3643",
"k. c #F53B43",
"l. c #FA3943",
"z. c #F5364B",
"x. c #FA364A",
"c. c #F53B4C",
"v. c #FB3B4B",
"b. c #E53C52",
"n. c #EC3B53",
"m. c #E43F59",
"M. c #EA3C5C",
"N. c #E83758",
"B. c #F33C52",
"V. c #F93B52",
"C. c #F13E59",
"Z. c #F33655",
"A. c #C73E67",
"S. c #D13D64",
"D. c #DC3A61",
"F. c #E33E68",
"G. c #8E445F",
"H. c #9F4058",
"J. c #AF474E",
"K. c #BF485C",
"L. c #A5465E",
"P. c #AE4B61",
"I. c #BB4463",
"U. c #B74B64",
"Y. c #B94766",
"T. c #C4424E",
"R. c #C2455C",
"E. c #CE435D",
"W. c #C6485D",
"Q. c #D54153",
"!. c #DC4553",
"~. c #D6435B",
"^. c #E2404F",
"/. c #EE404A",
"(. c #F54245",
"). c #F3434A",
"_. c #FA434D",
"`. c #FA4C4F",
"'. c #EE534F",
"]. c #E24052",
"[. c #ED4252",
"{. c #E9415B",
"}. c #FC4452",
"|. c #FF4D54",
" X c #FD4658",
".X c #F64858",
"XX c #F55259",
"oX c #FF525B",
"OX c #FB5252",
"+X c #EB5652",
"@X c #C24262",
"#X c #CD4263",
"$X c #C64769",
"%X c #D44362",
"&X c #D54A67",
"*X c #E14265",
"=X c #FF4361",
"-X c #FD5A6D",
";X c #FA5A67",
":X c #E65F66",
">X c #FF646C",
",X c #F56869",
"<X c #ED736E",
"1X c #FF6C73",
"2X c #EE7375",
"3X c #EA7B72",
"4X c #FF717A",
"5X c #67806A",
"6X c #70806F",
"7X c #FF7D85",
"8X c #FC8E8E",
"9X c #FF848A",
"0X c #FF9D9C",
"qX c #FFA7A3",
"wX c #FFB9B2",
"eX c None",
/* pixels */
"eXeXeXeXeXeXeXeXeXeXeXeXeXeXeXeXeXeXeXeXeXeXeXeXeXeXeXeXeXeXeXeXeXeXeXeXeXeXeXeXeXeXeXeXeXeXeXeXeXeX",
"eXeXeXeXeXeXeXeXeXeXeXeXeXeXeXeXeXeXeXeXeXeXeXeXeXeXeXeXeXeXeXeXeXeXeXeXeXeXeXeXeXeXeXeXeXeXeXeXeXeX",
"eXeXeXeXeXeXeXeXeXeXeXeXeXeXeXeXeXeXeXeX~   o o X X X X X ^ eXeXeXeXeXeXeXeXeXeXeXeXeXeXeXeXeXeXeXeX",
"eXeXeXeXeXeXeXeXeXeXeXeXeXeXeXeXeXeXeXeX#., + @ + + + . . R #.eXeXeXeXeXeXeXeXeXeXeXeXeXeXeXeXeXeXeX",
"eXeXeXeXeXeXeXeXeXeXeXeXeXeXeXeXeXeX+.L b l M h f C f d M c z &.eXeXeXeXeXeXeXeXeXeXeXeXeXeXeXeXeXeX",
"eXeXeXeXeXeXeXeXeXeXeXeXeXeXeXeXeX{ _ n ; 8.$X#X%Xp.E.&XK.r < ] [ o.eXeXeXeXeXeXeXeXeXeXeXeXeXeXeXeX",
"eXeXeXeXeXeXeXeXeXeXeXeXeXeXeXeX| ] < p J.E.b.n.d.n.Z.N.%Xt.:.= P { &.eXeXeXeXeXeXeXeXeXeXeXeXeXeXeX",
"eXeXeXeXeXeXeXeXeXeXeXeXeXeXeX+.I x p >.s.b.c.h.h.v.x.V.C.Q.w.r x P  .eXeXeXeXeXeXeXeXeXeXeXeXeXeXeX",
"eXeXeXeXeXeXeXeXeXeXeXeXeXeXeX| 4 : r.a.C.c./.g.<.(.l.k.f.^.!.R.r < T @.eXeXeXeXeXeXeXeXeXeXeXeXeXeX",
"eXeXeXeXeXeXeXeXeXeXeXeXeXeXeX7 S 6.%XN.Z. X'.+X'.OX|._.).f./.!.r.B 7 % ~ eXeXeXeXeXeXeXeXeXeXeXeXeX",
"eXeXeXeXeXeXeXeXeXeXeXeXeXeX2 & :.R.M.Z.C.;X2X3X<X,X>XoX).k.<./.p.w.* # *.X.eXeXeXeXeXeXeXeXeXeXeXeX",
"eXeXeXeXeXeXeXeXeXeXeXeXeX| P ; ;.Q.M.=X-X7X0XwXqX8X9X1X|.(.1.k.b.r.: z %.o.eXeXeXeXeXeXeXeXeXeXeXeX",
"eXeXeXeXeXeXeXeXeXeXeXeXeX7 c k y.d.n.V. X>X9XqX8X3X4X;X}._.2.l.B.y.j c 0 8 eXeXeXeXeXeXeXeXeXeXeXeX",
"eXeXeXeXeXeXeXeXeXeXeXeX$ + i P.i.g.c.h.c.XX1X7X2X:X;X.Xc.l.2.2.z.m.@XN O   Q eXeXeXeXeXeXeXeXeXeXeX",
"eXeXeXeXeXeXeXeXeXeXeXeXo + e U.].h.v.l.2.k.).[.[.[.n.c.c.l.2.l.h.B.$XD . O W eXeXeXeXeXeXeXeXeXeXeX",
"eXeXeXeXeXeXeXeXeXeXeXeXX @ y I.!.k.2.l.2.l.3.k.h.v.x.v.c.l.l.j.j.f.%XD O O W eXeXeXeXeXeXeXeXeXeXeX",
"eXeXeXeXeXeXeXeXeXeXeXeX$ + u I.^.k.h.l.2.2.2.4.l.l.l.h.k.k.3.l.l.Z.S.D .   W eXeXeXeXeXeXeXeXeXeXeX",
"eXeXeXeXeXeXeXeXeXeXeXeX$ + u @Xb.k.k.l.j.2.2.4.3.l.2.h./.3.l.2.h.n.S.D .   W eXeXeXeXeXeXeXeXeXeXeX",
"eXeXeXeXeXeXeXeXeXeXeX( X . u @Xb.h.h.l.2.2.j.3.l.l.j.j.l.4.2.j.l.b.#XD +   ( eXeXeXeXeXeXeXeXeXeXeX",
"eXeXeXeXeXeXeXeXeXeXeX( X + u @Xb.l.l.l.j.j.4.3.k.l.j.j.j.j.j.2.l.n.%Xj + O / eXeXeXeXeXeXeXeXeXeXeX",
"eXeXeXeXeXeXeXeXeXeXeX/ X + u @Xb.l.k.k.l.j.l.h.h.l.x.j.j.2.l.2.l.n.S.j +   / eXeXeXeXeXeXeXeXeXeXeX",
"eXeXeXeXeXeXeXeXeXeXeXW o + u @X].k.k.k.l.2.l.k.l.j.x.j.j.j.4.l.l.n.#XC +   W eXeXeXeXeXeXeXeXeXeXeX",
"eXeXeXeXeXeXeXeXeXeXeX! o + u I.^.k.k.3.4.4.l.l.l.x.j.j.l.3.3.3.h.n.#Xj +   W eXeXeXeXeXeXeXeXeXeXeX",
"eXeXeXeXeXeXeXeXeXeXeXW o + y K.^.k.k.k.k.k.l.j.l.l.l.l.k.3.3.(.x.n.#XC +   eXeXeXeXeXeXeXeXeXeXeXeX",
"eXeXeXeXeXeXeXeXeXeXeX! X + e U.d.k.k.(.3.4.l.1.j.l.h.k.k.3.3.3.x.{.@Xh +   eXeXeXeXeXeXeXeXeXeXeXeX",
"eXeXeXeXeXeXeXeXeXeXeXeX$ . i P.u.l.2.2.3.4.l.l.l.l.l.k.l.4.4.l.Z.a.I.A + o eXeXeXeXeXeXeXeXeXeXeXeX",
"eXeXeXeXeXeXeXeXeXeXeXeXX 3 i 7.y.j.l.j.4.4.5.4.2.l.l.k.l.j.l.j.d.p.8.S 2 eXeXeXeXeXeXeXeXeXeXeXeXeX",
"eXeXeXeXeXeXeXeXeXeXeXE ) *.P ; -.c.j.j.l.4.3.3.j.j.k.h.l.x.j.x.m.q.e i | eXeXeXeXeXeXeXeXeXeXeXeXeX",
"eXeXeXeXeXeXeXeXeXeXeXeX5X+.9 * ;.!.c.j.j.h.l.3.l.l.l.x.x.v.j.n.~.H.* # eXeXeXeXeXeXeXeXeXeXeXeXeXeX",
"eXeXeXeXeXeXeXeXeXeXeXeXeX! % * m ,.n.v.l.l.(.<.l.l.x.v.v.B.c.m.r.J 5 % eXeXeXeXeXeXeXeXeXeXeXeXeXeX",
"eXeXeXeXeXeXeXeXeXeXeXeXeX! @.` > w i.x.h.|.`.(.l.j.v.}. X[.b.E.s < T eXeXeXeXeXeXeXeXeXeXeXeXeXeXeX",
"eXeXeXeXeXeXeXeXeXeXeXeXeXE 6X$.# * T.n.g.|.).|.l.l.v. X X{.Q.K.p + } eXeXeXeXeXeXeXeXeXeXeXeXeXeXeX",
"eXeXeXeXeXeXeXeXeXeXeXeXeXeXeX! # : J.Q.(.h.).oX).(.oX_.Z.a.A.L.i # eXeXeXeXeXeXeXeXeXeXeXeXeXeXeXeX",
"eXeXeXeXeXeXeXeXeXeXeXeXeXeXeXeXT Y q ;.u.c.c.).`.OX(._.Z.s.w.e n U eXeXeXeXeXeXeXeXeXeXeXeXeXeXeXeX",
"eXeXeXeXeXeXeXeXeXeXeXeXeXeXeXeXeX` & t ~.M.V.z.}.oXf.n.s.&X6.= b [ eXeXeXeXeXeXeXeXeXeXeXeXeXeXeXeX",
"eXeXeXeXeXeXeXeXeXeXeXeXeXeXeXeXeX. + l J.D.b.Z.B.g.M.%XS.$XJ + eXeXeXeXeXeXeXeXeXeXeXeXeXeXeXeXeXeX",
"eXeXeXeXeXeXeXeXeXeXeXeXeXeXeXeXeXeXL v d q.%Xs.N.M.F.A.Y.s a P eXeXeXeXeXeXeXeXeXeXeXeXeXeXeXeXeXeX",
"eXeXeXeXeXeXeXeXeXeXeXeXeXeXeXeXeXeX*.F 1 9.w.@XD.F.S.0.9.N 4 %.eXeXeXeXeXeXeXeXeXeXeXeXeXeXeXeXeXeX",
"eXeXeXeXeXeXeXeXeXeXeXeXeXeXeXeXeXeXO. .' 1 e Y.A.A.Y.D - P U %.eXeXeXeXeXeXeXeXeXeXeXeXeXeXeXeXeXeX",
"eXeXeXeXeXeXeXeXeXeXeXeXeXeXeXeXeXeXeXeX .G K p 0.e.D N F ' %.eXeXeXeXeXeXeXeXeXeXeXeXeXeXeXeXeXeXeX",
"eXeXeXeXeXeXeXeXeXeXeXeXeXeXeXeXeXeXeXeXeX#.L , K G.= z ..eXeXeXeXeXeXeXeXeXeXeXeXeXeXeXeXeXeXeXeXeX",
"eXeXeXeXeXeXeXeXeXeXeXeXeXeXeXeXeXeXeXeXeX@.o.T a 1 I _ $.eXeXeXeXeXeXeXeXeXeXeXeXeXeXeXeXeXeXeXeXeX",
"eXeXeXeXeXeXeXeXeXeXeXeXeXeXeXeXeXeXeXeXeXeXeX%.F 6 _ eXeXeXeXeXeXeXeXeXeXeXeXeXeXeXeXeXeXeXeXeXeXeX",
"eXeXeXeXeXeXeXeXeXeXeXeXeXeXeXeXeXeXeXeXeXeXeXeXo.o.eXeXeXeXeXeXeXeXeXeXeXeXeXeXeXeXeXeXeXeXeXeXeXeX",
"eXeXeXeXeXeXeXeXeXeXeXeXeXeXeXeXeXeXeXeXeXeXeXeXeXX.eXeXeXeXeXeXeXeXeXeXeXeXeXeXeXeXeXeXeXeXeXeXeXeX",
"eXeXeXeXeXeXeXeXeXeXeXeXeXeXeXeXeXeXeXeXeXeXeXeXeXeXeXeXeXeXeXeXeXeXeXeXeXeXeXeXeXeXeXeXeXeXeXeXeXeX",
"eXeXeXeXeXeXeXeXeXeXeXeXeXeXeXeXeXeXeXeXeXeXeXeXeXeXeXeXeXeXeXeXeXeXeXeXeXeXeXeXeXeXeXeXeXeXeXeXeXeX",
"eXeXeXeXeXeXeXeXeXeXeXeXeXeXeXeXeXeXeXeXeXeXeXeXeXeXeXeXeXeXeXeXeXeXeXeXeXeXeXeXeXeXeXeXeXeXeXeXeXeX",
"eXeXeXeXeXeXeXeXeXeXeXeXeXeXeXeXeXeXeXeXeXeXeXeXeXeXeXeXeXeXeXeXeXeXeXeXeXeXeXeXeXeXeXeXeXeXeXeXeXeX",
"eXeXeXeXeXeXeXeXeXeXeXeXeXeXeXeXeXeXeXeXeXeXeXeXeXeXeXeXeXeXeXeXeXeXeXeXeXeXeXeXeXeXeXeXeXeXeXeXeXeX"
};
