/* XPM */
static char *h8_removebg_preview1742491788[] = {
/* columns rows colors chars-per-pixel */
"50 50 208 2 ",
"   c #000500",
".  c #0E0102",
"X  c #000A00",
"o  c #0E0A00",
"O  c #140001",
"+  c #1B0001",
"@  c #1D0A10",
"#  c #1C1213",
"$  c #2C0000",
"%  c #240309",
"&  c #260408",
"*  c #310000",
"=  c #3B000B",
"-  c #33060B",
";  c #2D0110",
":  c #280812",
">  c #3D0B17",
",  c #221E18",
"<  c #3E171A",
"1  c #341127",
"2  c #3A262C",
"3  c #3B312F",
"4  c #3D2137",
"5  c #2F3931",
"6  c #373636",
"7  c #292929",
"8  c #470207",
"9  c #4B0A16",
"0  c #530612",
"q  c #40171B",
"w  c #700704",
"e  c #67081A",
"r  c #40211F",
"t  c #5B0822",
"y  c #561826",
"u  c #601C29",
"i  c #78192B",
"p  c #6A1B39",
"a  c #741D3B",
"s  c #791A3C",
"d  c #781738",
"f  c #630922",
"g  c #45292A",
"h  c #562329",
"j  c #49312F",
"k  c #432431",
"l  c #422D33",
"z  c #5C293D",
"x  c #562638",
"c  c #4C3838",
"v  c #593B3D",
"b  c #60242E",
"n  c #6E213C",
"m  c #632736",
"M  c #7B2332",
"N  c #793439",
"B  c #613836",
"V  c #394536",
"C  c #4A4439",
"Z  c #55453D",
"A  c #6F1F42",
"S  c #523343",
"D  c #732940",
"F  c #732D4A",
"G  c #594549",
"H  c #574D55",
"J  c #575752",
"K  c #5F5553",
"L  c #585953",
"P  c #624546",
"I  c #6B534F",
"U  c #6D4E5E",
"Y  c #6C5F5C",
"T  c #665755",
"R  c #735D5F",
"E  c #4B6D52",
"W  c #476F50",
"Q  c #526456",
"!  c #586B5A",
"~  c #467150",
"^  c #63635C",
"/  c #69645F",
"(  c #63705F",
")  c #5F6362",
"_  c #6A6A64",
"`  c #726B64",
"'  c #756D6C",
"]  c #7A6B64",
"[  c #6D726B",
"{  c #6A7668",
"}  c #73756B",
"|  c #737A6D",
" . c #7C756D",
".. c #716A71",
"X. c #6C7471",
"o. c #767774",
"O. c #91131E",
"+. c #851B27",
"@. c #9D1720",
"#. c #902924",
"$. c #822E3E",
"%. c #952231",
"&. c #B32D32",
"*. c #C72230",
"=. c #F32F3C",
"-. c #EE393E",
";. c #EC353A",
":. c #F5353D",
">. c #FA353F",
",. c #F43A3E",
"<. c #FB383B",
"1. c #801D4B",
"2. c #842C46",
"3. c #8A2E49",
"4. c #9B2648",
"5. c #942B49",
"6. c #922D47",
"7. c #87374A",
"8. c #9F394E",
"9. c #9A3F51",
"0. c #AC3647",
"q. c #B63C59",
"w. c #AA3851",
"e. c #8A3D67",
"r. c #AA3C6E",
"t. c #D83E48",
"y. c #CA3956",
"u. c #DA3D5B",
"i. c #D93A56",
"p. c #FD2F44",
"a. c #EE3C43",
"s. c #E43B4B",
"d. c #ED3C4C",
"f. c #EB3548",
"g. c #F43643",
"h. c #FB3741",
"j. c #F63A42",
"k. c #FA3942",
"l. c #FC364B",
"z. c #F33A4D",
"x. c #FB3C4B",
"c. c #E43C51",
"v. c #EC3B53",
"b. c #ED3A5A",
"n. c #E63958",
"m. c #F43A53",
"M. c #F83B54",
"N. c #E52F46",
"B. c #C63C6D",
"V. c #CE3D64",
"C. c #D13E65",
"Z. c #D93E62",
"A. c #DD3461",
"S. c #D53E73",
"D. c #E23B61",
"F. c #804C58",
"G. c #9D4156",
"H. c #91535E",
"J. c #A4404A",
"K. c #BB445A",
"L. c #BA4666",
"P. c #C74044",
"I. c #C84555",
"U. c #DD4253",
"Y. c #D54658",
"T. c #D5464C",
"R. c #EE4145",
"E. c #E3434F",
"W. c #EC424E",
"Q. c #F44145",
"!. c #F5424C",
"~. c #FC444A",
"^. c #FE464A",
"/. c #E24158",
"(. c #E84555",
"). c #F44453",
"_. c #FF4252",
"`. c #FF4C53",
"'. c #F2415D",
"]. c #FD4A5B",
"[. c #F34C57",
"{. c #EF515E",
"}. c #F8575C",
"|. c #C34363",
" X c #CB4264",
".X c #C5466A",
"XX c #D14563",
"oX c #DB4368",
"OX c #DD4870",
"+X c #EE5460",
"@X c #F25A65",
"#X c #FC5A62",
"$X c #FB596E",
"%X c #E86875",
"&X c #FB6974",
"*X c #FF757A",
"=X c #ED7A7D",
"-X c #798072",
";X c #D57987",
":X c #F97B82",
">X c #FA7681",
",X c #FF8185",
"<X c #FF8593",
"1X c #FF9196",
"2X c #FF939B",
"3X c #FFB2B5",
"4X c #DBE6D6",
"5X c None",
/* pixels */
"5X5X5X5X5X5X5X5X5X5X5X5X5X5X5X5X5X5X5X5X5X5X5X5X5X5X5X5X5X5X5X5X5X5X5X5X5X5X5X5X5X5X5X5X5X5X5X5X5X5X",
"5X5X5X5X5X5X5X5X5X5X5X5X5X5X5X5X5X5X5X5X5X5X5X5X5X5X5X5X5X5X5X5X5X5X5X5X5X5X5X5X5X5X5X5X5X5X5X5X5X5X",
"5X5X5X5X5X5X5X5X5X5X5X5X5X5X5X5X5X5X5X5X5X5X5X5X5X5X5X5X5X5X5X5X5X5X5X5X5X5X5X5X5X5X5X5X5X5X5X5X5X5X",
"5X5X5X5X5X5X5X5X5X5X5X5X5X5X5X5X5X5X5X5X5X5X5X5X5X5X5X5X5X5X5X5X5X5X5X5X5X5X5X5X5X5X5X5X5X5X5X5X5X5X",
"5X5X5X5X5X5X5X5X5X5X5X5X5X5X5X5X5X5X5X5X5X5X| V   X             X ! 5X5X5X5X5X5X5X5X5X5X5X5X5X5X5X5X",
"5X5X5X5X5X5X5X5X5X5X5X5X5X5X5X5X5X5X! Q _ ` ` C O O O + + O + O : T | 5X5X5X5X5X5X5X5X5X5X5X5X5X5X5X",
"5X5X5X5X5X5X5X5X5X5X5X5X5X5X5X5X5X[ ! . 6 / 2 h 7.6.6.3.5.5.5.3.N < Z [ 5X5X5X5X5X5X5X5X5X5X5X5X5X5X",
"5X5X5X5X5X5X5X5X5X5X5X5X5X5X5X5Xo.K G : c P 9 M  XZ.Z.Z.oXZ.Z.XXw.0 j T _ [ 5X5X5X5X5X5X5X5X5X5X5X5X",
"5X5X5X5X5X5X5X5X5X5X5X5X5X5X5X5X_ 2 ; F.b 8 0.u.v.m.M.m.v.m.z.d.u.K.y & R [ 5X5X5X5X5X5X5X5X5X5X5X5X",
"5X5X5X5X5X5X5X5X5X5X5X5X5X5X{ J l x z h M %.i.v.M.M._.j.j.g.:.j.v.u.8.b g , L 5X5X5X5X5X5X5X5X5X5X5X",
"5X5X5X5X5X5X5X5X5X5X5X5X5X5XL G = F F.$ i T.(.m.[.#X].a.Q.Q.R.z.M.b. X9.& # { ! 5X5X5X5X5X5X5X5X5X5X",
"5X5X5X5X5X5X5X5X5X5X5X5X5X5X5X> G.;X=X8 O.U.s.).#X*X*X#X}.}.}.W.x.m.n.q.$ k o.{ 5X5X5X5X5X5X5X5X5X5X",
"5X5X5X5X5X5X5X5X5X5X5X5X5X5X% 9 K.%X%X@.*.z.z.).[.&X,X1X=X,X=X@X_.x.n.y.p x 6 6 5X5X5X5X5X5X5X5X5X5X",
"5X5X5X5X5X5X5X5X5X5X5X5X5XR y e y.{.{.R.j.k.j.a.).+X:X3X2X2X<X&X`.k.m.i.L.A .   5X5X5X5X5X5X5X5X5X5X",
"5X5X5X5X5X5X5X5X5X5X5X5X5X: n L./.M.k.k.;.,.k.k.g.s.@X1X>X%X$X].a.j.z.n.XXn . X E 5X5X5X5X5X5X5X5X5X",
"5X5X5X5X5X5X5X5X5X5X5X5X5X% 3. Xv.h.h.h.~.,.<.<.:.z.[.&X#X[.].!.j.j.g.'.C.s .   E 5X5X5X5X5X5X5X5X5X",
"5X5X5X5X5X5X5X5X5X5X5X5XX + 5.XXv.j.k.k.>.k.<.h.h.k.j.a.j.j.z.j.k.k.x.v.V.A O   E 5X5X5X5X5X5X5X5X5X",
"5X5X5X5X5X5X5X5X5X5X5X5XX O 5.u.W.j.,.j.k.h.h.h.k.k.j.k.j.j.j.k.h.h.h.v.V.s O   E 5X5X5X5X5X5X5X5X5X",
"5X5X5X5X5X5X5X5X5X5X5X5XX O 5.oXd.j.k.k.>.h.h.k.k.k.k.k.k.>.>.k.h.h.k.c.|.D O   E 5X5X5X5X5X5X5X5X5X",
"5X5X5X5X5X5X5X5X5X5X5X5XX O 4.u.z.,.j.h.h.h.k.>.k.k.j.,.k.k.k.h.<.k.z.c.|.p .   ! 5X5X5X5X5X5X5X5X5X",
"5X5X5X5X5X5X5X5X5X5X5X5XX O 4.D.z.k.>.k.h.h.k.h.k.k.Q.k.j.k.h.<.h.>.j.E.L.p .   E 5X5X5X5X5X5X5X5X5X",
"5X5X5X5X5X5X5X5X5X5X5X5XX + 4.Z.z.h.h.h.h.h.h.j.k.,.,.j.>.k.h.h.>.k.j.E.|.D .   E 5X5X5X5X5X5X5X5X5X",
"5X5X5X5X5X5X5X5X5X5X5X~ X + 4.D.m.h.h.h.h.h.k.k.k.,.,.k.h.h.h.h.k.h.k.s.|.a .   E 5X5X5X5X5X5X5X5X5X",
"5X5X5X5X5X5X5X5X5X5X5X~ X + 4.D.z.h.h.h.<.h.k.k.j.j.k.k.h.h.h.h.k.k.k.v. Xa O   E 5X5X5X5X5X5X5X5X5X",
"5X5X5X5X5X5X5X5X5X5X5X~ X & 4.D.M.k.<.h.h.>.>.k.j.,.j.k.>.k.h.h.:.j._.N.C.d O   W 5X5X5X5X5X5X5X5X5X",
"5X5X5X5X5X5X5X5X5X5X5XE X + 6.u.d.k.x.h.h.k.>.k.>.k.k.,.j.>.h.<.k.g.=.m.C.d +   W 5X5X5X5X5X5X5X5X5X",
"5X5X5X5X5X5X5X5X5X5X5X5XX + 3.XXs.>.,.:.>.k.h.h.j.k.,.j.k.k.h.k.h.x.h.b.XXd +   W 5X5X5X5X5X5X5X5X5X",
"5X5X5X5X5X5X5X5X5X5X5X5X  O 7.K.W.Q.k.k.k.k.k.h.k.,.k.k.k.k.k.k.h.j.M.c.|.p +   E 5X5X5X5X5X5X5X5X5X",
"5X5X5X5X5X5X5X5X5X5X5X5X( T h e t.-.Q.j.k.k.>.k.k.k.k.h.j.h.k.k.l.g.d.U.L.p .   E 5X5X5X5X5X5X5X5X5X",
"5X5X5X5X5X5X5X5X5X5X5X5X5X| & 8 T.-.-.,.k.h.h.h.h.>.k.j.:.,.g.k.h.x.v.I.F z 2 5 5X5X5X5X5X5X5X5X5X5X",
"5X5X5X5X5X5X5X5X5X5X5X5X5X) o 8 P.,.Q.,.k.h.h.>.h.>.h.j.k.k.k.k.p.M.t.0.8 k ..X.5X5X5X5X5X5X5X5X5X5X",
"5X5X5X5X5X5X5X5X5X5X5X5X5X5XJ B w &.W.k.>.h.h.h.k.k.j.k.^.^.k.k.l.v.Y.J.$ @ o.5X5X5X5X5X5X5X5X5X5X5X",
"5X5X5X5X5X5X5X5X5X5X5X5X5X5X| Z $ #.E.j.l.>.>.j.x.j.z.j.`.`.<.g.b.oXw.$.< , 5X5X5X5X5X5X5X5X5X5X5X5X",
"5X5X5X5X5X5X5X5X5X5X5X5X5X5X4Xo + $.T.W.h.l.:.~.`.!.!.#Xa.;.<.j.Z..Xi 8 I 5X5X5X5X5X5X5X5X5X5X5X5X5X",
"5X5X5X5X5X5X5X5X5X5X5X5X5X5X5XC C h +.U.f.g.~.j.~.`.).!.d.).m./.q.f x B ^ 5X5X5X5X5X5X5X5X5X5X5X5X5X",
"5X5X5X5X5X5X5X5X5X5X5X5X5X5X5X5X` r 0 0.i.s.f.j.Q.`.`.d.v.i.u.K.$.9 v ] 5X5X5X5X5X5X5X5X5X5X5X5X5X5X",
"5X5X5X5X5X5X5X5X5X5X5X5X5X5X5X5X' ` P * +.Y./.s.W.s.M.M.D.oX.Xt > I ` 5X5X5X5X5X5X5X5X5X5X5X5X5X5X5X",
"5X5X5X5X5X5X5X5X5X5X5X5X5X5X5X5X5X5X/ j h i I.Y.i.b.b.b.y.q.n m c [ 5X5X5X5X5X5X5X5X5X5X5X5X5X5X5X5X",
"5X5X5X5X5X5X5X5X5X5X5X5X5X5X5X5X5X5X{  .j - 7.q.Z.A.A.OXq.2.; S _ _ 5X5X5X5X5X5X5X5X5X5X5X5X5X5X5X5X",
"5X5X5X5X5X5X5X5X5X5X5X5X5X5X5X5X5X5X5X| ! G > a B.OXB.r.t 1 U / | 5X5X5X5X5X5X5X5X5X5X5X5X5X5X5X5X5X",
"5X5X5X5X5X5X5X5X5X5X5X5X5X5X5X5X5X5X5X5X5X_ k z A r.r.A k 6 ` 5X5X5X5X5X5X5X5X5X5X5X5X5X5X5X5X5X5X5X",
"5X5X5X5X5X5X5X5X5X5X5X5X5X5X5X5X5X5X5X5X5X5X..S ; e.F ; J | 5X5X5X5X5X5X5X5X5X5X5X5X5X5X5X5X5X5X5X5X",
"5X5X5X5X5X5X5X5X5X5X5X5X5X5X5X5X5X5X5X5X5X5X-XT U 1 4 H ) 5X5X5X5X5X5X5X5X5X5X5X5X5X5X5X5X5X5X5X5X5X",
"5X5X5X5X5X5X5X5X5X5X5X5X5X5X5X5X5X5X5X5X5X5X5X5X..7 6 X.5X5X5X5X5X5X5X5X5X5X5X5X5X5X5X5X5X5X5X5X5X5X",
"5X5X5X5X5X5X5X5X5X5X5X5X5X5X5X5X5X5X5X5X5X5X5X5X[ } _ 5X5X5X5X5X5X5X5X5X5X5X5X5X5X5X5X5X5X5X5X5X5X5X",
"5X5X5X5X5X5X5X5X5X5X5X5X5X5X5X5X5X5X5X5X5X5X5X5X5X| 5X5X5X5X5X5X5X5X5X5X5X5X5X5X5X5X5X5X5X5X5X5X5X5X",
"5X5X5X5X5X5X5X5X5X5X5X5X5X5X5X5X5X5X5X5X5X5X5X5X5X5X5X5X5X5X5X5X5X5X5X5X5X5X5X5X5X5X5X5X5X5X5X5X5X5X",
"5X5X5X5X5X5X5X5X5X5X5X5X5X5X5X5X5X5X5X5X5X5X5X5X5X5X5X5X5X5X5X5X5X5X5X5X5X5X5X5X5X5X5X5X5X5X5X5X5X5X",
"5X5X5X5X5X5X5X5X5X5X5X5X5X5X5X5X5X5X5X5X5X5X5X5X5X5X5X5X5X5X5X5X5X5X5X5X5X5X5X5X5X5X5X5X5X5X5X5X5X5X",
"5X5X5X5X5X5X5X5X5X5X5X5X5X5X5X5X5X5X5X5X5X5X5X5X5X5X5X5X5X5X5X5X5X5X5X5X5X5X5X5X5X5X5X5X5X5X5X5X5X5X"
};
