/* XPM */
static char *h9_removebg_preview1742491788[] = {
/* columns rows colors chars-per-pixel */
"50 50 225 2 ",
"   c #020301",
".  c #0B0101",
"X  c #010C01",
"o  c #0C0B09",
"O  c #130000",
"+  c #1B0000",
"@  c #1A0009",
"#  c #011103",
"$  c #051204",
"%  c #230003",
"&  c #290004",
"*  c #27020A",
"=  c #340104",
"-  c #37010D",
";  c #3C0006",
":  c #2C0E12",
">  c #340613",
",  c #3B0314",
"<  c #3C0A15",
"1  c #3B051C",
"2  c #370A17",
"3  c #38141A",
"4  c #2C1E1B",
"5  c #24271C",
"6  c #381325",
"7  c #382727",
"8  c #3B2D35",
"9  c #313530",
"0  c #440003",
"q  c #460309",
"w  c #560507",
"e  c #440616",
"r  c #480416",
"t  c #45121C",
"y  c #590811",
"u  c #750F1C",
"i  c #5A261B",
"p  c #461A29",
"a  c #571A29",
"s  c #690E22",
"d  c #63122A",
"f  c #6E1B2F",
"g  c #761727",
"h  c #651D34",
"j  c #711A31",
"k  c #4A2728",
"l  c #51222C",
"z  c #42302E",
"x  c #532433",
"c  c #5E2A36",
"v  c #433132",
"b  c #49363A",
"n  c #553536",
"m  c #4C2631",
"M  c #78292A",
"N  c #642B36",
"B  c #742937",
"V  c #75293A",
"C  c #60323C",
"Z  c #65242C",
"A  c #5A3E45",
"S  c #533A40",
"D  c #772B42",
"F  c #782843",
"G  c #733A4E",
"H  c #4B4340",
"J  c #5A4747",
"K  c #5C5A57",
"L  c #66484E",
"P  c #624C53",
"I  c #685858",
"U  c #765352",
"Y  c #4D6C54",
"T  c #536A54",
"R  c #596555",
"E  c #66635C",
"W  c #69625E",
"Q  c #6F695D",
"!  c #71645E",
"~  c #65725E",
"^  c #6C5D60",
"/  c #5C7364",
"(  c #6C6A63",
")  c #6E6F69",
"_  c #6A6664",
"`  c #746966",
"'  c #637463",
"]  c #6B7464",
"[  c #667B64",
"{  c #6B736A",
"}  c #6B7A68",
"|  c #667868",
" . c #73726C",
".. c #7B756D",
"X. c #747766",
"o. c #737B71",
"O. c #767572",
"+. c #841413",
"@. c #A41316",
"#. c #841C33",
"$. c #9C1126",
"%. c #A71321",
"&. c #812323",
"*. c #96273D",
"=. c #902F3B",
"-. c #A32E3E",
";. c #AE383E",
":. c #C82E34",
">. c #ED383F",
",. c #F5343D",
"<. c #F9363E",
"1. c #F2383D",
"2. c #FB373A",
"3. c #8D2B44",
"4. c #892C49",
"5. c #972E46",
"6. c #8A3547",
"7. c #843859",
"8. c #963652",
"9. c #A63649",
"0. c #B0344E",
"q. c #AB3958",
"w. c #B63E5D",
"e. c #BB3D5A",
"r. c #BD3C57",
"t. c #AC2746",
"y. c #B63E61",
"u. c #AA3C63",
"i. c #CA3A48",
"p. c #DE3B4E",
"a. c #C33B56",
"s. c #C23D58",
"d. c #CD3D5C",
"f. c #C53854",
"g. c #DD3B5E",
"h. c #D43C59",
"j. c #EE3C43",
"k. c #ED3C4B",
"l. c #E4374A",
"z. c #F53644",
"x. c #FA3641",
"c. c #F53A44",
"v. c #FA3841",
"b. c #F4364C",
"n. c #F33B4A",
"m. c #FB3B4A",
"M. c #FA364A",
"N. c #EC3654",
"B. c #E43D54",
"V. c #EB3B54",
"C. c #E43559",
"Z. c #E33B5C",
"A. c #EB3E5A",
"S. c #E63456",
"D. c #F23654",
"F. c #F33B54",
"G. c #FA3C52",
"H. c #F53A59",
"J. c #CC3D63",
"K. c #D53E62",
"L. c #8F4954",
"P. c #A94158",
"I. c #BD415D",
"U. c #B3475A",
"Y. c #9C4A60",
"T. c #AF4964",
"R. c #B54562",
"E. c #BC4665",
"W. c #BB4966",
"Q. c #856F7B",
"!. c #D54347",
"~. c #CC435C",
"^. c #C74258",
"/. c #D5435D",
"(. c #D84458",
"). c #EB444C",
"_. c #ED4447",
"`. c #FE4046",
"'. c #F5434C",
"]. c #FC424C",
"[. c #F7484C",
"{. c #E54155",
"}. c #EC4152",
"|. c #E9475A",
" X c #F24452",
".X c #FE4653",
"XX c #FD4A53",
"oX c #F34B5C",
"OX c #FB4A5C",
"+X c #F44A55",
"@X c #EA5455",
"#X c #FC5156",
"$X c #F7555C",
"%X c #FB535A",
"&X c #CC4265",
"*X c #C64A61",
"=X c #C84766",
"-X c #D54163",
";X c #DC4364",
":X c #D64863",
">X c #D64A65",
",X c #D6516C",
"<X c #CF5772",
"1X c #E24665",
"2X c #FC4F63",
"3X c #E85B66",
"4X c #F95B66",
"5X c #E35F74",
"6X c #FB5F75",
"7X c #FF666C",
"8X c #FF6976",
"9X c #FB6576",
"0X c #FE737C",
"qX c #FD7779",
"wX c #7B8072",
"eX c #FF7A85",
"rX c #FF7C8C",
"tX c #FF7681",
"yX c #FF848E",
"uX c #FA8284",
"iX c #FF8B93",
"pX c #FF8490",
"aX c #FF9395",
"sX c #FFABAA",
"dX c None",
/* pixels */
"dXdXdXdXdXdXdXdXdXdXdXdXdXdXdXdXdXdXdXdXdXdXdXdXdXdXdXdXdXdXdXdXdXdXdXdXdXdXdXdXdXdXdXdXdXdXdXdXdXdX",
"dXdXdXdXdXdXdXdXdXdXdXdXdXdXdXdXdXdXdXdXdXdXdXdXdXdXdXdXdXdXdXdXdXdXdXdXdXdXdXdXdXdXdXdXdXdXdXdXdXdX",
"dXdXdXdXdXdXdXdXdXdXdXdXdXdXdXdXdXdXdXdXdXdXdXdXdXdXdXdXdXdXdXdXdXdXdXdXdXdXdXdXdXdXdXdXdXdXdXdXdXdX",
"dXdXdXdXdXdXdXdXdXdXdXdXdXdXdXdXdXdXdXdXdXdXdXdXdXdXdXdXdXdXdXdXdXdXdXdXdXdXdXdXdXdXdXdXdXdXdXdXdXdX",
"dXdXdXdXdXdXdXdXdXdXdXdXdXdXdXdXdXdXdXdXdX} 5 X X     X X X   9 O.dXdXdXdXdXdXdXdXdXdXdXdXdXdXdXdXdX",
"dXdXdXdXdXdXdXdXdXdXdXdXdXdX# X X X dXdX( ! 4 + + + % @ O O @ v `  .dXdXdXdXdXdXdXdXdXdXdXdXdXdXdXdX",
"dXdXdXdXdXdXdXdXdXdXdXdXdX .7 O . O   K J 3 B 5.5.5.3.3.8.8.F h l ^ | dXdXdXdXdXdXdXdXdXdXdXdXdXdXdX",
"dXdXdXdXdXdXdXdXdXdXdXdXQ P l e e < : A n 0 9.:XK.;XJ.>XK.J.&X3.r A K [ [ dXdXdXdXdXdXdXdXdXdXdXdXdX",
"dXdXdXdXdXdXdXdXdXdXdX .I % f R.E.T.L.q y U.(.C.H.V.|.V.k.V.V.~.P.1 7 ( } dXdXdXdXdXdXdXdXdXdXdXdXdX",
"dXdXdXdXdXdXdXdXdX| ..b p V 9.&X-Xt.g M -.(.1X2XoXk.n.n.j.n.c.l.^.V c z 5 R dXdXdXdXdXdXdXdXdXdXdXdX",
"dXdXdXdXdXdXdXdXdXdXW p r U.,X1X1X$.0 =.(.{.4X7XqX@Xk.'.'.'.x.n.(.W.B + 4 o.R dXdXdXdXdXdXdXdXdXdXdX",
"dXdXdXdXdXdXdXdXdX$ . N P.&XtXrX|.%.w ;.oX2XeXiXsXqX$X2X4X+Xm.G.B.d.V = I ) ' dXdXdXdXdXdXdXdXdXdXdX",
"dXdXdXdXdXdXdXdX{ H + V ,X(.9XyX).:.@.:. XOX8XeXaXuX0X0X0X8XoXF.N.{.0.f v S   Y dXdXdXdXdXdXdXdXdXdX",
"dXdXdXdXdXdXdXR ( L ; #.>X9X0XyX%X>._._.n.G.oX3X,X0XyXyXiXrX6X+Xb.D.-XP.1   $ Y dXdXdXdXdXdXdXdXdXdX",
"dXdXdXdXdXdXdX# . p 8.<X5XrX0X@X_.1.`.1.x.z.n. X).4X7X7X4X4X'.n.M.G.K.y.1   # Y dXdXdXdXdXdXdXdXdXdX",
"dXdXdXdXdXdXdXX . e *X:X3XtX7X#X1.v.<.<.m.x.m.z.m.].XX#X@X+X>.c.x.G.g.y.1   X Y dXdXdXdXdXdXdXdXdXdX",
"dXdXdXdXdXdXY # . e I.Z. XXXXXn.2.v.v.v.<.v.m.v.m.c.v.c.c.c.1.v.x.b.g.y.1 .   T dXdXdXdXdXdXdXdXdXdX",
"dXdXdXdXdXdXY X   e r.V.m.].m.x.m.2.v.v.v.v.<.<.<.<.v.v.v.v.v.v.m.n.g.y.1 . X T dXdXdXdXdXdXdXdXdXdX",
"dXdXdXdXdXdXT X   < r.A.n.c.c.z.m.v.2.v.v.v.v.v.v.v.<.v.v.v.v.v.v.n.K.y.>   X T dXdXdXdXdXdXdXdXdXdX",
"dXdXdXdXdXdXT X   < r.V.n.c.c.c.<.v.v.v.v.<.v.v.v.v.v.v.v.v.<.c.v.b.Z.y.>   X T dXdXdXdXdXdXdXdXdXdX",
"dXdXdXdXdXdXT X   < a.V.n.1.c.`.<.v.v.v.x.v.v.v.<.v.v.v.<.v.v.v.v.j.Z.U.>   X Y dXdXdXdXdXdXdXdXdXdX",
"dXdXdXdXdXdXT X   < s.N.n.1.c.v.v.v.v.v.v.v.<.v.v.v.v.<.v.v.v.<.v.n.C.I.> X X T dXdXdXdXdXdXdXdXdXdX",
"dXdXdXdXdXdXdXX   < a.D.n.1.v.v.v.v.v.v.v.v.v.v.v.v.v.v.v.<.v.v.v.c.C.e.:   X T dXdXdXdXdXdXdXdXdXdX",
"dXdXdXdXdXdXdXX   < d.D.c.c.v.v.v.2.v.x.x.<.v.v.v.v.v.v.v.v.v.v.v.n.C.e.>   X R dXdXdXdXdXdXdXdXdXdX",
"dXdXdXdXdXdXdX# . < /.D.z.<.v.<.v.v.v.v.v.v.v.v.v.v.v.v.v.v.v.<.x.M.Z.y., .   dXdXdXdXdXdXdXdXdXdXdX",
"dXdXdXdXdXdXdX#   t r.D.z.<.v.m.<.v.v.<.v.v.<.v.<.v.v.<.<.v.v.v.x.G.1Xq.,   X dXdXdXdXdXdXdXdXdXdXdX",
"dXdXdXdXdXdXdXX . - I.B.n.x.x.,.v.v.v.v.v.v.v.v.<.v.v.v.v.<.v.m.x.D.d.T.2   X dXdXdXdXdXdXdXdXdXdXdX",
"dXdXdXdXdXdXdX#   < 9.(.j.,.m.v.v.v.v.v.v.<.v.<.v.v.v.v.v.v.<.v.M.Z.=XY.3   $ dXdXdXdXdXdXdXdXdXdXdX",
"dXdXdXdXdXdXdX/ K L 0 ;.).c.x.x.v.v.v.v.<.v.v.v.v.v.<.v.v.v.<.c.F.h.=.- J E ' dXdXdXdXdXdXdXdXdXdXdX",
"dXdXdXdXdXdXdXdX .J & &.!.n.m.x.v.v.v.<.v.v.v.v.v.<.x.x.v.v.v.n.B.~.V + J dXdXdXdXdXdXdXdXdXdXdXdXdX",
"dXdXdXdXdXdXdXdXdXo O M !.[.>.m.v.v.v.v.v.v.v.v.<.v.m.2.<.x.v.c.B.^.N . o dXdXdXdXdXdXdXdXdXdXdXdXdX",
"dXdXdXdXdXdXdXdXdXdXJ i +.!.k.'.v.<.v.<.v.v.<.v.c.].].m.z.n.n.B.^.s x K dXdXdXdXdXdXdXdXdXdXdXdXdXdX",
"dXdXdXdXdXdXdXdXdX} X.k w -.i.A.v.2.2.2.v.v.c._.[.[.XXG.D.N.g.e.4.t z  .dXdXdXdXdXdXdXdXdXdXdXdXdXdX",
"dXdXdXdXdXdXdXdXdXdX] ` U q #.:X[.1.`.1.<.1.1.`.#X[.b.N.C.;X=Xj * P ..dXdXdXdXdXdXdXdXdXdXdXdXdXdXdX",
"dXdXdXdXdXdXdXdXdXdXdXdXI n Z u :.).n.].v.].].XXm.G.D.A.-Xq.d x n ( dXdXdXdXdXdXdXdXdXdXdXdXdXdXdXdX",
"dXdXdXdXdXdXdXdXdXdXdXdX~ ..k 0 9.i.p.V.n.c..XXXG.D.S.(.q.D 6 v o.dXdXdXdXdXdXdXdXdXdXdXdXdXdXdXdXdX",
"dXdXdXdXdXdXdXdXdXdXdXdXdX~ Q U - g /.V.H.b.G.H.H.C.K.R.a : P ) ' dXdXdXdXdXdXdXdXdXdXdXdXdXdXdXdXdX",
"dXdXdXdXdXdXdXdXdXdXdXdXdXdX} Q v C g a.Z.S.D.S.C.K.w.Z b 8 _ dXdXdXdXdXdXdXdXdXdXdXdXdXdXdXdXdXdXdX",
"dXdXdXdXdXdXdXdXdXdXdXdXdXdXdXwX .n & 6.*X1XK.K.K.E.F * S { dXdXdXdXdXdXdXdXdXdXdXdXdXdXdXdXdXdXdXdX",
"dXdXdXdXdXdXdXdXdXdXdXdXdXdXdXdX ._ I < s E.&XJ.E.d t I E o.dXdXdXdXdXdXdXdXdXdXdXdXdXdXdXdXdXdXdXdX",
"dXdXdXdXdXdXdXdXdXdXdXdXdXdXdXdXdXdX{ 7 x F u.u.F x b W dXdXdXdXdXdXdXdXdXdXdXdXdXdXdXdXdXdXdXdXdXdX",
"dXdXdXdXdXdXdXdXdXdXdXdXdXdXdXdXdXdXdX .P % 7.7.% A X.dXdXdXdXdXdXdXdXdXdXdXdXdXdXdXdXdXdXdXdXdXdXdX",
"dXdXdXdXdXdXdXdXdXdXdXdXdXdXdXdXdXdXdXO.I G 6 6 J _ } dXdXdXdXdXdXdXdXdXdXdXdXdXdXdXdXdXdXdXdXdXdXdX",
"dXdXdXdXdXdXdXdXdXdXdXdXdXdXdXdXdXdXdXdXdXQ.8 8 O.dXdXdXdXdXdXdXdXdXdXdXdXdXdXdXdXdXdXdXdXdXdXdXdXdX",
"dXdXdXdXdXdXdXdXdXdXdXdXdXdXdXdXdXdXdXdXdX_  .{ dXdXdXdXdXdXdXdXdXdXdXdXdXdXdXdXdXdXdXdXdXdXdXdXdXdX",
"dXdXdXdXdXdXdXdXdXdXdXdXdXdXdXdXdXdXdXdXdXdX| } dXdXdXdXdXdXdXdXdXdXdXdXdXdXdXdXdXdXdXdXdXdXdXdXdXdX",
"dXdXdXdXdXdXdXdXdXdXdXdXdXdXdXdXdXdXdXdXdXdXdXdXdXdXdXdXdXdXdXdXdXdXdXdXdXdXdXdXdXdXdXdXdXdXdXdXdXdX",
"dXdXdXdXdXdXdXdXdXdXdXdXdXdXdXdXdXdXdXdXdXdXdXdXdXdXdXdXdXdXdXdXdXdXdXdXdXdXdXdXdXdXdXdXdXdXdXdXdXdX",
"dXdXdXdXdXdXdXdXdXdXdXdXdXdXdXdXdXdXdXdXdXdXdXdXdXdXdXdXdXdXdXdXdXdXdXdXdXdXdXdXdXdXdXdXdXdXdXdXdXdX",
"dXdXdXdXdXdXdXdXdXdXdXdXdXdXdXdXdXdXdXdXdXdXdXdXdXdXdXdXdXdXdXdXdXdXdXdXdXdXdXdXdXdXdXdXdXdXdXdXdXdX"
};
