/* XPM */
static char *h1_removebg_preview1742491788[] = {
/* columns rows colors chars-per-pixel */
"50 50 242 2 ",
"   c #010501",
".  c #0E0002",
"X  c #000A03",
"o  c #090C02",
"O  c #0E0209",
"+  c #140103",
"@  c #1A0000",
"#  c #17050B",
"$  c #121A0C",
"%  c #1A1613",
"&  c #0E1408",
"*  c #250103",
"=  c #2A0002",
"-  c #2C000A",
";  c #26030B",
":  c #360101",
">  c #33000C",
",  c #37070D",
"<  c #2C0714",
"1  c #380615",
"2  c #271A1E",
"3  c #37171B",
"4  c #291107",
"5  c #222F1D",
"6  c #321824",
"7  c #1B2D21",
"8  c #392A29",
"9  c #3B3838",
"0  c #3F363B",
"q  c #2E2224",
"w  c #420102",
"e  c #470408",
"r  c #440315",
"t  c #580B1E",
"y  c #56161A",
"u  c #4B0E10",
"i  c #610000",
"p  c #660414",
"a  c #7D1518",
"s  c #750F16",
"d  c #4D281A",
"f  c #461A28",
"g  c #5F1626",
"h  c #530C24",
"j  c #69152A",
"k  c #691636",
"l  c #781F3D",
"z  c #701E34",
"x  c #6C122F",
"c  c #472628",
"v  c #55222B",
"b  c #4A302C",
"n  c #4A2732",
"m  c #5A2534",
"M  c #4B3938",
"N  c #53373A",
"B  c #53302A",
"V  c #67252A",
"C  c #722228",
"Z  c #662536",
"A  c #752739",
"S  c #6B313D",
"D  c #57453A",
"F  c #4C413F",
"G  c #61463B",
"H  c #761F41",
"J  c #573642",
"K  c #762846",
"L  c #78384E",
"P  c #4F4B49",
"I  c #5C4343",
"U  c #574748",
"Y  c #5B5249",
"T  c #5B5257",
"R  c #674B4C",
"E  c #66534D",
"W  c #645255",
"Q  c #695559",
"!  c #645C5A",
"~  c #675654",
"^  c #6E5359",
"/  c #52604F",
"(  c #596757",
")  c #4D6550",
"_  c #63645D",
"`  c #626B5C",
"'  c #6A6B5C",
"]  c #6B665A",
"[  c #68725E",
"{  c #695963",
"}  c #6C6461",
"|  c #646C63",
" . c #6C6C63",
".. c #6B6D6C",
"X. c #626966",
"o. c #726C65",
"O. c #756D6B",
"+. c #776966",
"@. c #657263",
"#. c #6B7264",
"$. c #66756A",
"%. c #6B756A",
"&. c #6C7A6A",
"*. c #667C6A",
"=. c #75736C",
"-. c #7B746D",
";. c #70796A",
":. c #767872",
">. c #726C71",
",. c #8A0E18",
"<. c #841926",
"1. c #8E1622",
"2. c #8D232B",
"3. c #992A37",
"4. c #983031",
"5. c #A7373B",
"6. c #B42B3D",
"7. c #C4273D",
"8. c #D5353F",
"9. c #F82E3A",
"0. c #EB3335",
"q. c #EC3A3C",
"w. c #EB3539",
"e. c #F3353D",
"r. c #FB363D",
"t. c #F53A3C",
"y. c #FA393D",
"u. c #F0413E",
"i. c #8B2B47",
"p. c #922C44",
"a. c #91294C",
"s. c #883247",
"d. c #9B3743",
"f. c #903B50",
"g. c #8D3752",
"h. c #A83747",
"j. c #AE3B5D",
"k. c #A83857",
"l. c #B63A57",
"z. c #A42A41",
"x. c #AB3A62",
"c. c #B63A63",
"v. c #D73B4C",
"b. c #C53C55",
"n. c #CC3C55",
"m. c #DB3457",
"M. c #D23D5C",
"N. c #DA3B5C",
"B. c #D83858",
"V. c #CA3A44",
"C. c #ED3A43",
"Z. c #E43D4D",
"A. c #EC3C4C",
"S. c #EB3548",
"D. c #F33543",
"F. c #FB3642",
"G. c #F53A43",
"H. c #FA3841",
"J. c #F4364C",
"K. c #FB344A",
"L. c #F43A4B",
"P. c #FC3B4A",
"I. c #E93455",
"U. c #E53B54",
"Y. c #ED3C52",
"T. c #E3375C",
"R. c #E43D5C",
"E. c #EB3C59",
"W. c #E93458",
"Q. c #F43C53",
"!. c #FA3D54",
"~. c #F43B5A",
"^. c #F63756",
"/. c #F22F44",
"(. c #C23B62",
"). c #CB3B64",
"_. c #C93B69",
"`. c #DC3A63",
"'. c #D63A69",
"]. c #E63A64",
"[. c #F33D63",
"{. c #8C4044",
"}. c #A0404C",
"|. c #AC455B",
" X c #AF4053",
".X c #B3405A",
"XX c #B74252",
"oX c #9F4166",
"OX c #BA4966",
"+X c #BE4C70",
"@X c #A24363",
"#X c #D7444A",
"$X c #CD445D",
"%X c #CA4151",
"&X c #D5425C",
"*X c #D9435E",
"=X c #D24A5B",
"-X c #DB4756",
";X c #C0444F",
":X c #E9434A",
">X c #F64144",
",X c #FB4143",
"<X c #F3414C",
"1X c #FD434C",
"2X c #F74B4D",
"3X c #E24555",
"4X c #E3435A",
"5X c #EB4657",
"6X c #F54254",
"7X c #FF4E54",
"8X c #FD4B5B",
"9X c #F84757",
"0X c #F6555D",
"qX c #FE525C",
"wX c #FA585A",
"eX c #EA5E5D",
"rX c #C5436B",
"tX c #C94266",
"yX c #D34262",
"uX c #DA4462",
"iX c #CF4B72",
"pX c #E54A66",
"aX c #F74C64",
"sX c #FD5B6C",
"dX c #FA5768",
"fX c #FE5A73",
"gX c #EF5D6A",
"hX c #F96369",
"jX c #EF6670",
"kX c #FF6C7B",
"lX c #F96774",
"zX c #F77071",
"xX c #718170",
"cX c #FF7988",
"vX c #AAADA4",
"bX c #FF8489",
"nX c #FF8391",
"mX c #FC9898",
"MX c #FF9FA3",
"NX c #FFABAF",
"BX c #FFB1B9",
"VX c None",
/* pixels */
"VXVXVXVXVXVXVXVXVXVXVXVXVXVXVXVXVXVXVXVXVXVXVXVXVXVXVXVXVXVXVXVXVXVXVXVXVXVXVXVXVXVXVXVXVXVXVXVXVXVX",
"VXVXVXVXVXVXVXVXVXVXVXVXVXVXVXVXVXVXVXVXVXVXVXVXVXVXVXVXVXVXVXVXVXVXVXVXVXVXVXVXVXVXVXVXVXVXVXVXVXVX",
"VXVXVXVXVXVXVXVXVXVXVXVXVXVXVXVXVXVXVXVXVXVXVXVXVXVXVXVXVXVXVXVXVXVXVXVXVXVXVXVXVXVXVXVXVXVXVXVXVXVX",
"VXVXVXVXVXVXVXVXVXVXVXVXVXVXVXVXVXVXVXVXVXVXVXVXVXVXVXVXVXVXVXVXVXVXVXVXVXVXVXVXVXVXVXVXVXVXVXVXVXVX",
"VXVXVXVXVXVXVXVXVXVXVXVXVX..$   o   & #.VXVXVXVXVXVXVXVXVXVXVX*.@.$ X   O 2 ..$.VXVXVXVXVXVXVXVXVXVX",
"VXVXVXVXVXVXVXVXVX$.(   W ^ 3 - = = 3 R Y o ) xXVXVXVXVX&.`   X.E 4 * * * f { P X ) VXVXVXVXVXVXVXVX",
"VXVXVXVXVXVXVXVXVX..>.O + 1 i.l.l. Xd.: = + ' #.( ) ( ( -.W # + : {.|..Xj.i.- + % | &.VXVXVXVXVXVXVX",
"VXVXVXVXVXVXVXVXO.U N f j C b.4X4Xv.b.1.s v B D #.;.` -.J B m j <.XX&XB.`.l.x V b M P  .VXVXVXVXVXVX",
"VXVXVXVXVXVXVXO.o.8 w h.=X-XS.A.A.Y.Y.U.3X;Xe v +.=._ ] 3 u XX$X-X3XE.E.E.4XM.OXg.- M } #.` VXVXVXVX",
"VXVXVXVXVXVX=.~ 4 V h.4X6XwX1Xq.qXQ.D.1XL.:X6.C , ~ ^ < Z }.n.fXcXcXsXJ.S.Y.E.N.rXi.m 3 Q -.VXVXVXVX",
"VXVXVXVXVX$.Y D t d.uX5X6XqX:X2XwX9XL.t.G.C.5Xz.p A S u h.=XgXhXkXkXdXC.e.P.!.I.N.rXa.r J U VXVXVXVX",
"VXVXVXVXVXX.. 1 |.M.pXaXsXhXeXgXhXwXwXq.1Xe.D.3Xb.i p OX=X4XcXhX:X:Xu.q.y.r.F.J.I.`.c.@X1 . vX*.VXVX",
"VXVXVXVX%.O.; 1 .XpXdXfXkXcXMXmXbXjXwX2X1XH.F.L.Y.7.6.-XjXkXwX2XC.D.q.t.y.r.r.P.^.[.'.j.* q :.$.VXVX",
"VXVXVXVX} W f t b.pXaXsXlXcXBXBXbXzXwX7X,Xr.H.G.L.D.6XZ.lXzX<X<XP.P.G.t.y.r.r.K.K.~.T.l.t n T X.VXVX",
"VXVXVXVX  @ i.$X4X3XL.wXdXzXnXcXlXfX0X<XL.q.y.y.0.>X>Xw.1XP.G.D.F.F.r.9.r.y.y.G.L.J.T.M.+XK O X VXVX",
"VXVXVXVX  @ 3.uXU.L.H.1X5XjXlXkXaX6X8XL.G.G.y.y.u.q.>XG.F.9.P.K.H.H.r.r.y.y.t.G.P.J.E.`.(.H O   VXVX",
"VXVXVXVX  @ p.n.A.G.y.t.<X0XdXdX8X1XL.D.G.H.r.G.y.G.t.G.F.F.F.G.G.G.F.F.F.y.t.y.G.K.I.`._.K O   VXVX",
"VXVXVXVX  @ p.&XA.y.y.y.>X9X8X8XP.P.r.r.H.F.H.H.H.F.H.H.F.H.H.y.G.t.F.F.H.y.y.t.D.!.I.N.rXH +   VXVX",
"VXVXVXVX  @ p.*XA.t.y.t.D.P.P.1XD.F.D.y.H.y.F.G.H.H.H.H.H.F.H.G.L.H.G.H.F.y.y.t.D.S.[.]._.H + X VXVX",
"VXVXVXVXX @ p.N.A.y.y.r.F.F.K.P.r.H.H.H.H.F.H.H.F.y.F.H.H.y.H.F.F.F.G.H.H.y.y.G.A.I.[.`.b.l + X VXVX",
"VXVXVXVX  + s.yXQ.F.y.H.F.F.F.H.H.H.H.H.H.H.H.y.r.H.H.F.H.H.H.y.H.K.G.H.H.r.y.G.A.E.].'.rXK . X VXVX",
"VXVXVXVX7 q A 3.U.D.r.H.F.H.r.y.H.H.H.r.H.H.H.F.H.F.G.y.F.H.H.F.F.F.L.G.F.r.y.L.Y.R.'._.i.k 3 5 VXVX",
"VXVXVXVX%.O.6 i v.K.H.F.y.G.u.q.t.H.r.F.r.H.H.F.H.H.H.H.H.H.F.F.H.F.H.H.r.F.H.G.Q.m.'.x.r f +.[ VXVX",
"VXVXVXVXVXVX# e %XA.P.K.D.t.u.u.G.H.H.H.G.F.H.y.H.H.H.H.F.F.y.G.H.H.H.H.r.F.K.J.E.`.rXx.; 8 O. .VXVX",
"VXVXVXVXVXVX% 3 5.V.<XL.G.H.t.t.t.H.F.H.H.H.F.y.F.H.F.G.r.H.H.y.y.y.9.r.P.K.F.Q.]._.x.L 2 9 -.@.VXVX",
"VXVXVXVXVXVX' E = 2.-XZ.J.P.r.r.H.H.H.y.F.H.H.H.H.y.H.H.H.H.F.G.y.u.,Xr.F.F.^.v.n.+XH < { X.VXVXVXVX",
"VXVXVXVXVXVXVX~ D d a #X!.K.F.r.F.H.H.F.G.r.G.F.F.H.H.H.H.F.F.t.y.0.P.K.K.^.E.=Xk.j m J ..VXVXVXVXVX",
"VXVXVXVXVXVXVX@.[ d e 5.v.^.K.P.F.H.H.H.H.H.F.H.G.F.y.F.H.H.H.H.u.>XL.S.~.T.b.l.3.1 J >...VXVXVXVXVX",
"VXVXVXVXVXVXVXVXVX' G w ,.-XS.C.G.y.F.H.H.H.H.y.H.y.H.H.y.H.H.t.w.P.L.~.].).OXg < R } VXVXVXVXVXVXVX",
"VXVXVXVXVXVXVXVXVXVX] c Z 2.v.:XL.r.H.H.H.F.F.H.H.F.H.H.F.H.F.H.>XD.J.N.(.j.Z v b ..VXVXVXVXVXVXVXVX",
"VXVXVXVXVXVXVXVXVXVX[ o.M = 2.-XL.y.F.H.H.H.y.F.F.H.H.H.G.F.H.G.y.Q.^.`.+XK ; U O.#.VXVXVXVXVXVXVXVX",
"VXVXVXVXVXVXVXVXVXVXVX;./ E y ,.#XC.L.F.F.F.H.G.G.y.r.F.F.H.F.L.A.I.B._.g f Q ! VXVXVXVXVXVXVXVXVXVX",
"VXVXVXVXVXVXVXVXVXVXVXVXxX_ b y 4.v.D.F.P.9.G.q.y.e.H.9.P.D.K.~.R._.j.s.f n =.%.VXVXVXVXVXVXVXVXVXVX",
"VXVXVXVXVXVXVXVXVXVXVXVXVX&.;.R : 4.3XL.F.P.t.L.t.t.y.P.F.L.Q.m.iXc.k - Y =.#.VXVXVXVXVXVXVXVXVXVXVX",
"VXVXVXVXVXVXVXVXVXVXVXVXVXVX' Y G y <.#XC.H.P.F.H.t.y.t.D.Y.U.'.x.g J J _ VXVXVXVXVXVXVXVXVXVXVXVXVX",
"VXVXVXVXVXVXVXVXVXVXVXVXVXVXVX%.xX8 u 4.V.G.K.F.P.e.L.L.Y.U.M.k.f.f 9 oXVXVXVXVXVXVXVXVXVXVXVXVXVXVX",
"VXVXVXVXVXVXVXVXVXVXVXVXVXVXVXVX` %.Y : 1.:XP.H.D.L.K.^.].B.OXz ; ^ o.VXVXVXVXVXVXVXVXVXVXVXVXVXVXVX",
"VXVXVXVXVXVXVXVXVXVXVXVXVXVXVXVXVX@.( B C ,.8.:X<XJ.W.[.'.c.j n N  .VXVXVXVXVXVXVXVXVXVXVXVXVXVXVXVX",
"VXVXVXVXVXVXVXVXVXVXVXVXVXVXVXVXVXVXVX+.c e 5.#XZ.S.].'.c.i.1 J -.VXVXVXVXVXVXVXVXVXVXVXVXVXVXVXVXVX",
"VXVXVXVXVXVXVXVXVXVXVXVXVXVXVXVXVXVXVX+.] E w <.=X*XtXOXx 1 T { %.VXVXVXVXVXVXVXVXVXVXVXVXVXVXVXVXVX",
"VXVXVXVXVXVXVXVXVXVXVXVXVXVXVXVXVXVXVXVXVX~ b v 2.j.k.Z n M X.VXVXVXVXVXVXVXVXVXVXVXVXVXVXVXVXVXVXVX",
"VXVXVXVXVXVXVXVXVXVXVXVXVXVXVXVXVXVXVXVXVXVXo.N < R K ; P $.VXVXVXVXVXVXVXVXVXVXVXVXVXVXVXVXVXVXVXVX",
"VXVXVXVXVXVXVXVXVXVXVXVXVXVXVXVXVXVXVXVXVXVX:.! R 6 6 Q ! %.VXVXVXVXVXVXVXVXVXVXVXVXVXVXVXVXVXVXVXVX",
"VXVXVXVXVXVXVXVXVXVXVXVXVXVXVXVXVXVXVXVXVXVXVXVXO.q 0 :.VXVXVXVXVXVXVXVXVXVXVXVXVXVXVXVXVXVXVXVXVXVX",
"VXVXVXVXVXVXVXVXVXVXVXVXVXVXVXVXVXVXVXVXVXVXVXVX .:.o. .VXVXVXVXVXVXVXVXVXVXVXVXVXVXVXVXVXVXVXVXVXVX",
"VXVXVXVXVXVXVXVXVXVXVXVXVXVXVXVXVXVXVXVXVXVXVXVXVX&.` VXVXVXVXVXVXVXVXVXVXVXVXVXVXVXVXVXVXVXVXVXVXVX",
"VXVXVXVXVXVXVXVXVXVXVXVXVXVXVXVXVXVXVXVXVXVXVXVXVXVXVXVXVXVXVXVXVXVXVXVXVXVXVXVXVXVXVXVXVXVXVXVXVXVX",
"VXVXVXVXVXVXVXVXVXVXVXVXVXVXVXVXVXVXVXVXVXVXVXVXVXVXVXVXVXVXVXVXVXVXVXVXVXVXVXVXVXVXVXVXVXVXVXVXVXVX",
"VXVXVXVXVXVXVXVXVXVXVXVXVXVXVXVXVXVXVXVXVXVXVXVXVXVXVXVXVXVXVXVXVXVXVXVXVXVXVXVXVXVXVXVXVXVXVXVXVXVX",
"VXVXVXVXVXVXVXVXVXVXVXVXVXVXVXVXVXVXVXVXVXVXVXVXVXVXVXVXVXVXVXVXVXVXVXVXVXVXVXVXVXVXVXVXVXVXVXVXVXVX"
};
