/* XPM */
static char *h4_removebg_preview1742491788[] = {
/* columns rows colors chars-per-pixel */
"50 50 227 2 ",
"   c #020201",
".  c #0B0101",
"X  c #060901",
"o  c #130000",
"O  c #1D0001",
"+  c #160A0B",
"@  c #230000",
"#  c #2B0003",
"$  c #2E010C",
"%  c #340000",
"&  c #31000D",
"*  c #3A0B0E",
"=  c #340913",
"-  c #2E191A",
";  c #35131C",
":  c #2E0911",
">  c #25281E",
",  c #2A321F",
"<  c #3B1922",
"1  c #1F3426",
"2  c #292F24",
"3  c #392827",
"4  c #243424",
"5  c #293020",
"6  c #2B3628",
"7  c #38342D",
"8  c #3C3E38",
"9  c #42000D",
"0  c #4A0609",
"q  c #4B0A1A",
"w  c #420316",
"e  c #49141D",
"r  c #55171C",
"t  c #5B0512",
"y  c #630008",
"u  c #680414",
"i  c #751819",
"p  c #7C020D",
"a  c #400A21",
"s  c #4D1529",
"d  c #521126",
"f  c #57192B",
"g  c #4D1732",
"h  c #4C1B30",
"j  c #501531",
"k  c #681229",
"l  c #731723",
"z  c #6F1838",
"x  c #432A2B",
"c  c #58272A",
"v  c #4C2A33",
"b  c #462B37",
"n  c #592837",
"m  c #4C353A",
"M  c #54353C",
"N  c #53382F",
"B  c #602223",
"V  c #642835",
"C  c #77283A",
"Z  c #633339",
"A  c #38493A",
"S  c #444B3D",
"D  c #58403C",
"F  c #684C3E",
"G  c #5B3944",
"H  c #7D3C4C",
"J  c #702E43",
"K  c #4A4342",
"L  c #584648",
"P  c #5A504F",
"I  c #5C5151",
"U  c #644C4E",
"Y  c #674348",
"T  c #664951",
"R  c #655455",
"E  c #635956",
"W  c #695D5C",
"Q  c #6D565C",
"!  c #4D6A53",
"~  c #536952",
"^  c #586756",
"/  c #4F7057",
"(  c #56775F",
")  c #42644C",
"_  c #67665A",
"`  c #72645D",
"'  c #5D7963",
"]  c #5D6D64",
"[  c #6C6464",
"{  c #6C6E64",
"}  c #666F63",
"|  c #756C6B",
" . c #776865",
".. c #657364",
"X. c #6A7265",
"o. c #6C7A6B",
"O. c #687769",
"+. c #73746C",
"@. c #78766C",
"#. c #6F7970",
"$. c #7A7171",
"%. c #86101C",
"&. c #8C1C34",
"*. c #87253E",
"=. c #972939",
"-. c #80323E",
";. c #9C363A",
":. c #98272D",
">. c #FD2E3E",
",. c #EB3C3C",
"<. c #EB353C",
"1. c #F2353D",
"2. c #FB353D",
"3. c #F43B3D",
"4. c #FA393C",
"5. c #F63737",
"6. c #EE372F",
"7. c #FC433E",
"8. c #892948",
"9. c #873247",
"0. c #953447",
"q. c #883754",
"w. c #9A3C59",
"e. c #AD384B",
"r. c #A73A58",
"t. c #BB3B5A",
"y. c #B63F5C",
"u. c #B13148",
"i. c #B93C64",
"p. c #CF3A4E",
"a. c #DE3B4D",
"s. c #D73C47",
"d. c #CD3E5E",
"f. c #C83A56",
"g. c #DB3B55",
"h. c #DA3959",
"j. c #ED3B44",
"k. c #EE344A",
"l. c #E43E4C",
"z. c #ED3B4C",
"x. c #ED3341",
"c. c #F53544",
"v. c #FB3642",
"b. c #F53A43",
"n. c #FA3841",
"m. c #F5354A",
"M. c #FC354B",
"N. c #F43B4B",
"B. c #FC3A4B",
"V. c #E32F55",
"C. c #EC3654",
"Z. c #E43B55",
"A. c #EC3A53",
"S. c #E5365D",
"D. c #EA365B",
"F. c #E53A5A",
"G. c #EA3C5B",
"H. c #F43553",
"J. c #F43A52",
"K. c #FC3A51",
"L. c #F53A5B",
"P. c #FF3E58",
"I. c #F42D40",
"U. c #C93B66",
"Y. c #DA3765",
"T. c #DB3C63",
"R. c #D93768",
"E. c #D63B6A",
"W. c #D63E65",
"Q. c #E83A63",
"!. c #94415D",
"~. c #AD434F",
"^. c #AB425A",
"/. c #BB465A",
"(. c #954761",
"). c #BC4465",
"_. c #BC426D",
"`. c #B64768",
"'. c #B74671",
"]. c #B24B68",
"[. c #83766E",
"{. c #DC434D",
"}. c #C44151",
"|. c #C5435C",
" X c #CA415E",
".X c #C54656",
"XX c #D44253",
"oX c #DE4151",
"OX c #D6425B",
"+X c #D6445C",
"@X c #CD4A52",
"#X c #EB4147",
"$X c #ED444C",
"%X c #E74048",
"&X c #F44144",
"*X c #FC444B",
"=X c #F7464C",
"-X c #E94556",
";X c #FD4352",
":X c #FD4D54",
">X c #F44157",
",X c #FA555A",
"<X c #EE595B",
"1X c #C44364",
"2X c #C7466A",
"3X c #DD4263",
"4X c #D34365",
"5X c #FB4E65",
"6X c #FD5664",
"7X c #F45A64",
"8X c #F85766",
"9X c #EA4064",
"0X c #FC6B77",
"qX c #FE797D",
"wX c #F26468",
"eX c #6E8471",
"rX c #6D836E",
"tX c #FB7385",
"yX c #F97788",
"uX c #859186",
"iX c #FF828C",
"pX c #FF8087",
"aX c #FF8997",
"sX c #FF9597",
"dX c #FF99A5",
"fX c #FFA6AC",
"gX c None",
/* pixels */
"gXgXgXgXgXgXgXgXgXgXgXgXgXgXgXgXgXgXgXgXgXgXgXgXgXgXgXgXgXgXgXgXgXgXgXgXgXgXgXgXgXgXgXgXgXgXgXgXgXgX",
"gXgXgXgXgXgXgXgXgXgXgXgXgXgXgXgXgXgXgXgXgXgXgXgXgXgXgXgXgXgXgXgXgXgXgXgXgXgXgXgXgXgXgXgXgXgXgXgXgXgX",
"gXgXgXgXgXgXgXgXgXgXgXgXgXgXgXgXgXgXgXgXgXgXgXgXgXgXgXgXgXgXgXgXgXgXgXgXgXgXgXgXgXgXgXgXgXgXgXgXgXgX",
"gXgXgXgXgXgXgXgXgXgXgXgXgXeXS         X         S O.gXgXgXgXgXgXgXgXgXgXgXgXgXgXgXgXgXgXgXgXgXgXgXgX",
"gXgXgXgXgXgXgXgXgXgXgXgXo.rXD . . X . . . . o . U $.gXgXgXgXgXgXgXgXgXgXgXgXgXgXgXgXgXgXgXgXgXgXgXgX",
"gXgXgXgXgXgXgXgXgXgXgXgX{ D n r r e e r d d d d v G + 6 o.X . . . . X 7 ^ gXgXgXgXgXgXgXgXgXgXgXgXgX",
"gXgXgXgXgXgXgXgXgXgX4 X.` 0 t /.|.}././. Xd.1X).k # @ 7 ` - o @ @ @ o x $...4 gXgXgXgXgXgXgXgXgXgXgX",
"gXgXgXgXgXgXgXgXgX] #.S * C e.h.z.A.oXoXA.C.F.OXu.0.C V e J Y 9.0.9.H n - W { #.gXgXgXgXgXgXgXgXgXgX",
"gXgXgXgXgXgXgXgXgXgXI v 0 e.XX-XN.#X$X$XN.v.N.z.z.a.f.=.0 C ^.1X2X1X].9.* G R { O.gXgXgXgXgXgXgXgXgX",
"gXgXgXgXgXgXgXgXgX7 o c `.f.G.N.N.7.,X$X1.B.n.3.N.z.-XXX~.y y 4Xh.Q.+X/.w.q : [...gXgXgXgXgXgXgXgXgX",
"gXgXgXgXgXgXgXgXgXR # k d.Z.>Xk.-X7XsXqX-X:X=Xb.<.N.J.s..Xy u yX5XC.D.T.U.8.n 3 8 ! gXgXgXgXgXgXgXgX",
"gXgXgXgXgXgXgXgX{ T 9 &.g.J.c.;X7XtXfXsXwXwX,X#XN.b.M.J.XXp i iX5XK.L.S.W.).q.O + uX' gXgXgXgXgXgXgX",
"gXgXgXgXgXgXgX> . ; 0.f.G.J.B.:XtXaXdXdXiXiXqX,XB.M.M.M.-X0X0X-X=Xv.m.H.Y.U.8.$ m #.eX/ gXgXgXgXgXgX",
"gXgXgXgXgXgXgX4 . & ^.h.L.M.&X,X0XyXtXyXpXqX0X,XN.M.M.1.N.6X8X%X3.4.c.L.V.E.i.k n K A ) gXgXgXgXgXgX",
"gXgXgXgXgXgXgX6   $ t.9XH.M.<.,.-X8X8X7XwX<X<X#XB.1.n.B.B.4.=X,.6.7.b.J.Q.R.U.'.j .   ' gXgXgXgXgXgX",
"gXgXgXgXgXgXgX5   * t.D.m.c.7.,.*XN.*XN.#X$Xb.j.3.b.5.2.5.4.4.3.4.3.1.z.L.Q.U.'.f .   ! gXgXgXgXgXgX",
"gXgXgXgXgXgXgX,   $ t.D.J.M.b.n.n.b.b.b.N.3.b.b.n.n.b.4.v.n.4.v.v.v.v.N.z.F.Y._.g     ~ gXgXgXgXgXgX",
"gXgXgXgXgXgXgX,   $ t.D.M.b.n.n.n.4.n.v.4.v.v.3.4.v.v.n.4.v.b.v.v.M.n.n.j.Z.Y._.g     ^ gXgXgXgXgXgX",
"gXgXgXgXgXgXgX4   $ t.F.K.v.b.3.3.v.v.n.n.n.b.n.v.n.4.n.v.n.v.n.b.v.3.b.z.Z.Y._.g     ~ gXgXgXgXgXgX",
"gXgXgXgXgXgXgX4   & y.S.M.v.b.3.b.n.n.n.n.n.2.v.b.v.v.n.n.4.v.b.n.n.3.b.z.Z.Y._.g .   ~ gXgXgXgXgXgX",
"gXgXgXgXgXgXgX4   & y.S.M.v.3.3.4.v.n.n.b.2.n.n.3.v.n.n.n.4.n.b.b.3.3.3.H.Q.R.'.g .   ! gXgXgXgXgXgX",
"gXgXgXgXgXgXgX4   $ t.D.B.v.4.3.b.n.v.n.n.n.v.4.v.n.n.n.n.v.2.b.3.3.3.N.C.Q.R.i.g .   ! gXgXgXgXgXgX",
"gXgXgXgXgXgXgX4   & t.D.M.4.4.4.2.n.n.4.n.4.v.n.v.n.2.n.v.n.n.b.5.3.3.v.m.Q.E.i.g .   / gXgXgXgXgXgX",
"gXgXgXgXgXgXgX4   & t.D.N.4.2.4.n.n.n.v.v.n.b.v.n.n.n.n.n.n.n.2.4.4.v.M.H.S.E.'.g .   / gXgXgXgXgXgX",
"gXgXgXgXgXgXgX5   & /.S.m.v.4.2.4.n.n.n.n.n.n.n.2.n.v.4.n.n.n.2.2.n.2.M.L.S.E.'.g   X ~ gXgXgXgXgXgX",
"gXgXgXgXgXgXgX2   : w.OXK.v.2.n.n.n.n.v.2.n.n.n.n.n.n.n.n.n.n.n.2.2.M.P.V.T.U.].h .   ( gXgXgXgXgXgX",
"gXgXgXgXgXgXgX> L G q =.J.M.v.5.n.n.b.2.v.4.n.n.n.v.3.n.n.v.n.v.v.v.M.C.S.4Xr.k M K A gXgXgXgXgXgXgX",
"gXgXgXgXgXgXgXgX+.Q % l g.c.*XN.b.n.n.n.v.n.v.n.n.n.v.v.n.v.3.v.v.m.K.F.3X1X8.$ G +.eXgXgXgXgXgXgXgX",
"gXgXgXgXgXgXgXgXgX3 . B @X%Xj.x.b.n.v.n.B.4.n.n.n.n.n.n.2.n.n.n.c.N.C.F.f.'.q.O + uX' gXgXgXgXgXgXgX",
"gXgXgXgXgXgXgXgXgXgX7 c i }.%X*Xb.v.2.n.n.4.4.n.v.n.n.2.n.n.v.b.c.J.-XU.'.J n b 8 gXgXgXgXgXgXgXgXgX",
"gXgXgXgXgXgXgXgXgXgX@.D % ;.s.N.b.2.n.v.B.n.n.v.3.v.n.n.n.n.v.b.N.Z.3Xt.r.w < | gXgXgXgXgXgXgXgXgXgX",
"gXgXgXgXgXgXgXgXgXgXgX_ F 0 %.oXN.n.*X*X*Xb.n.v.b.n.n.n.v.v.c.N.Z.+X|.=.w Y R O.gXgXgXgXgXgXgXgXgXgX",
"gXgXgXgXgXgXgXgXgXgXgX@.` x r =.{.,.,.&X:X*X;Xb.b.&X5.v.v.v.c.F.d.].9.f ; E gXgXgXgXgXgXgXgXgXgXgXgX",
"gXgXgXgXgXgXgXgXgXgXgXO.X. .U @ :.%X$X<.*X:X;Xb.N.4.2.v.B.m.C.h.`.w.& v  .O.gXgXgXgXgXgXgXgXgXgXgXgX",
"gXgXgXgXgXgXgXgXgXgXgXgXo.+.E F r i XXz.c.B.*X:Xn.v.v.b.A.F.R.2X8.q Z T X.gXgXgXgXgXgXgXgXgXgXgXgXgX",
"gXgXgXgXgXgXgXgXgXgXgXgXgXgXX.@.3 q ;.p.A.x.;X:XB.v.x.N.h.4XU.w.f =  .gXgXgXgXgXgXgXgXgXgXgXgXgXgXgX",
"gXgXgXgXgXgXgXgXgXgXgXgXgXgXgX_ +.U % l +X-XN.N.n.*XJ.Z.W.).q.$ G  . .gXgXgXgXgXgXgXgXgXgXgXgXgXgXgX",
"gXgXgXgXgXgXgXgXgXgXgXgXgXgXgXgXgX[ m c l }.a.N.N.J.h.f.).z g G P @.gXgXgXgXgXgXgXgXgXgXgXgXgXgXgXgX",
"gXgXgXgXgXgXgXgXgXgXgXgXgXgXgXgXgXgX@.m O C  X-X-Xg.T.2X!.a < | gXgXgXgXgXgXgXgXgXgXgXgXgXgXgXgXgXgX",
"gXgXgXgXgXgXgXgXgXgXgXgXgXgXgXgXgXgXO.^ E ; u 1XU.U.2X8.& L Q { gXgXgXgXgXgXgXgXgXgXgXgXgXgXgXgXgXgX",
"gXgXgXgXgXgXgXgXgXgXgXgXgXgXgXgXgXgXgXgX[ x c C y.i.J n b I @.gXgXgXgXgXgXgXgXgXgXgXgXgXgXgXgXgXgXgX",
"gXgXgXgXgXgXgXgXgXgXgXgXgXgXgXgXgXgXgXgXgX| L @ J (.& b [ gXgXgXgXgXgXgXgXgXgXgXgXgXgXgXgXgXgXgXgXgX",
"gXgXgXgXgXgXgXgXgXgXgXgXgXgXgXgXgXgXgXgXgX{ ` G v : T I +.gXgXgXgXgXgXgXgXgXgXgXgXgXgXgXgXgXgXgXgXgX",
"gXgXgXgXgXgXgXgXgXgXgXgXgXgXgXgXgXgXgXgXgXgXgX[.7 2 [ gXgXgXgXgXgXgXgXgXgXgXgXgXgXgXgXgXgXgXgXgXgXgX",
"gXgXgXgXgXgXgXgXgXgXgXgXgXgXgXgXgXgXgXgXgXgXgX+._ { } gXgXgXgXgXgXgXgXgXgXgXgXgXgXgXgXgXgXgXgXgXgXgX",
"gXgXgXgXgXgXgXgXgXgXgXgXgXgXgXgXgXgXgXgXgXgXgXgXo.] gXgXgXgXgXgXgXgXgXgXgXgXgXgXgXgXgXgXgXgXgXgXgXgX",
"gXgXgXgXgXgXgXgXgXgXgXgXgXgXgXgXgXgXgXgXgXgXgXgXgXgXgXgXgXgXgXgXgXgXgXgXgXgXgXgXgXgXgXgXgXgXgXgXgXgX",
"gXgXgXgXgXgXgXgXgXgXgXgXgXgXgXgXgXgXgXgXgXgXgXgXgXgXgXgXgXgXgXgXgXgXgXgXgXgXgXgXgXgXgXgXgXgXgXgXgXgX",
"gXgXgXgXgXgXgXgXgXgXgXgXgXgXgXgXgXgXgXgXgXgXgXgXgXgXgXgXgXgXgXgXgXgXgXgXgXgXgXgXgXgXgXgXgXgXgXgXgXgX",
"gXgXgXgXgXgXgXgXgXgXgXgXgXgXgXgXgXgXgXgXgXgXgXgXgXgXgXgXgXgXgXgXgXgXgXgXgXgXgXgXgXgXgXgXgXgXgXgXgXgX"
};
