/* XPM */
static char *h6_removebg_preview1742491788[] = {
/* columns rows colors chars-per-pixel */
"50 50 221 2 ",
"   c #010300",
".  c #0D0000",
"X  c #010A01",
"o  c #0B0109",
"O  c #140002",
"+  c #1C0004",
"@  c #100C03",
"#  c #051406",
"$  c #240005",
"%  c #2A0004",
"&  c #25000D",
"*  c #2C0009",
"=  c #34000E",
"-  c #390003",
";  c #2E0012",
":  c #350014",
">  c #390916",
",  c #221619",
"<  c #35151A",
"1  c #1C221B",
"2  c #2B1822",
"3  c #3B1A24",
"4  c #371623",
"5  c #3D1A30",
"6  c #3D0822",
"7  c #3F312E",
"8  c #393B3A",
"9  c #2C2724",
"0  c #430000",
"q  c #4C0919",
"w  c #560717",
"e  c #4E141C",
"r  c #53141A",
"t  c #6B0001",
"y  c #670919",
"u  c #70171B",
"i  c #770D17",
"p  c #460922",
"a  c #5E092B",
"s  c #530F28",
"d  c #471A23",
"f  c #531322",
"g  c #5B1826",
"h  c #4C1D31",
"j  c #591B37",
"k  c #671B3E",
"l  c #6B1A3D",
"z  c #621A36",
"x  c #621029",
"c  c #52332E",
"v  c #442C33",
"b  c #4A2837",
"n  c #562835",
"m  c #4D3232",
"M  c #6C2128",
"N  c #6C2433",
"B  c #692838",
"V  c #7B273F",
"C  c #7E323F",
"Z  c #334132",
"A  c #5E3B4C",
"S  c #583A45",
"D  c #642841",
"F  c #6F2E44",
"G  c #752541",
"H  c #7A2A47",
"J  c #70304A",
"K  c #504B47",
"L  c #554B4A",
"P  c #594547",
"I  c #59544B",
"U  c #594A52",
"Y  c #5D5753",
"T  c #4A5542",
"R  c #62494E",
"E  c #665B5F",
"W  c #6A5E5C",
"Q  c #655459",
"!  c #6B4A53",
"~  c #476F53",
"^  c #4B6C53",
"/  c #516953",
"(  c #596358",
")  c #507054",
"_  c #486B4D",
"`  c #6A645F",
"'  c #63685D",
"]  c #735F60",
"[  c #735F68",
"{  c #666E63",
"}  c #6C6C64",
"|  c #6A6565",
" . c #756A67",
".. c #73676A",
"X. c #796B6A",
"o. c #647363",
"O. c #657D67",
"+. c #6B746B",
"@. c #6E7A6E",
"#. c #6A7466",
"$. c #72766C",
"%. c #75756E",
"&. c #7E6F72",
"*. c #747471",
"=. c #7A7772",
"-. c #950413",
";. c #8D0223",
":. c #84162F",
">. c #982639",
",. c #E93F3F",
"<. c #F2363F",
"1. c #F8363E",
"2. c #F73A3F",
"3. c #90264A",
"4. c #8D3858",
"5. c #9A3757",
"6. c #8F2B4E",
"7. c #A93442",
"8. c #B53949",
"9. c #AB2F51",
"0. c #AC3551",
"q. c #A63851",
"w. c #A73855",
"e. c #B43B5C",
"r. c #B63B57",
"t. c #A43760",
"y. c #B83E65",
"u. c #DC3B47",
"i. c #C7395A",
"p. c #DB3955",
"a. c #DC3459",
"s. c #D53B5D",
"d. c #DC3E5A",
"f. c #D73953",
"g. c #E13647",
"h. c #ED354C",
"j. c #E5394E",
"k. c #EC3B4D",
"l. c #E93646",
"z. c #F53642",
"x. c #FA3741",
"c. c #F53B44",
"v. c #FA3841",
"b. c #F5364C",
"n. c #F9374B",
"m. c #F33B4B",
"M. c #F93B4A",
"N. c #E43552",
"B. c #EB3654",
"V. c #E43A56",
"C. c #EB3C53",
"Z. c #E4335A",
"A. c #E9365A",
"S. c #E33B5A",
"D. c #EC3B5C",
"F. c #F33A53",
"G. c #FB3F56",
"H. c #C43D64",
"J. c #CD3B66",
"K. c #D33C64",
"L. c #D93C63",
"P. c #D43D68",
"I. c #DE3762",
"U. c #D73F72",
"Y. c #E63C61",
"T. c #81425D",
"R. c #994159",
"E. c #A94258",
"W. c #B94359",
"Q. c #96496B",
"!. c #AB4969",
"~. c #BB436B",
"^. c #B94469",
"/. c #BD4774",
"(. c #B84A73",
"). c #DF444C",
"_. c #C94359",
"`. c #C64458",
"'. c #DC4559",
"]. c #D64459",
"[. c #D85158",
"{. c #E6414B",
"}. c #EF444B",
"|. c #EB4046",
" X c #F14146",
".X c #FD434D",
"XX c #F64E4E",
"oX c #E34554",
"OX c #EA4153",
"+X c #E4465B",
"@X c #F54354",
"#X c #FC4754",
"$X c #FD4C54",
"%X c #FC455B",
"&X c #F24C5A",
"*X c #FF4E5C",
"=X c #F64D50",
"-X c #FC5154",
";X c #F1515A",
":X c #FB545C",
">X c #F95A5B",
",X c #C44664",
"<X c #C94569",
"1X c #D64569",
"2X c #C34571",
"3X c #E84064",
"4X c #FE4C62",
"5X c #FD5A69",
"6X c #F5646D",
"7X c #FF6374",
"8X c #F96B76",
"9X c #EC747C",
"0X c #F67279",
"qX c #FF6D81",
"wX c #F47C83",
"eX c #839186",
"rX c #FE8B95",
"tX c #FB8B96",
"yX c #FE9697",
"uX c #FFB1B1",
"iX c None",
/* pixels */
"iXiXiXiXiXiXiXiXiXiXiXiXiXiXiXiXiXiXiXiXiXiXiXiXiXiXiXiXiXiXiXiXiXiXiXiXiXiXiXiXiXiXiXiXiXiXiXiXiXiX",
"iXiXiXiXiXiXiXiXiXiXiXiXiXiXiXiXiXiXiXiXiXiXiXiXiXiXiXiXiXiXiXiXiXiXiXiXiXiXiXiXiXiXiXiXiXiXiXiXiXiX",
"iXiXiXiXiXiXiXiXiXiXiXiXiXiXiXiXiXiXiXiXiXiXiXiXiXiXiXiXiXiXiXiXiXiXiXiXiXiXiXiXiXiXiXiXiXiXiXiXiXiX",
"iXiXiXiXiXiXiXiXiXiXiXiXiXiXiXiXiXiXT # X X # X # X   @ T iXiXiXiXiXiXiXiXiXiXiXiXiXiXiXiXiXiXiXiXiX",
"iXiXiXiXiXiXiXiXiXiXiXiXiXiXiXiXiX=.L . O . . .   @ O O ..&.iXiXiXiXiXiXiXiXiXiXiXiXiXiXiXiXiXiXiXiX",
"iXiXiXiXiXiXiXiXiXiXiXiXiXiXiXiX{ R n g e g g e e f f f n P ..iX1 o.iXiXiXiXiXiXiXiXiXiXiXiXiXiXiXiX",
"iXiXiXiXiXiXiXiXiXiXiXiXiXiXiX#.} > w W.<Xi._._.`.`.`.E.q 3 [ 2 , E @.iXiXiXiXiXiXiXiXiXiXiXiXiXiXiX",
"iXiXiXiXiXiXiXiXiXiXiXiXiXiX+.K < N r.s.N.B.OXk.k.V.oX<X7.B > S A 4 L *.' iXiXiXiXiXiXiXiXiXiXiXiXiX",
"iXiXiXiXiXiXiXiXiXiXiXiXiX( K c w 7.d.V.n.#Xc.,.z.m.h.j.].7.w N J 6 S L  .{ iXiXiXiXiXiXiXiXiXiXiXiX",
"iXiXiXiXiXiXiXiXiXiXiXiXiX  O e W.'.C.C.b.c.:XXXc.c.M.F.OX].7.y w Q.j & ] } ( iXiXiXiXiXiXiXiXiXiXiX",
"iXiXiXiXiXiXiXiXiXiXiXiXiXW % x _.}.OX4X&X6XyX0X;X@X%Xb.k.oX[.t y !.4.F 3 , ( / iXiXiXiXiXiXiXiXiXiX",
"iXiXiXiXiXiXiXiXiXiXiXiXiXR q :.).OX&X5X6XwXuXyX8X7X5XF.k.g.{.-.;.,X2X5.$ , } @.iXiXiXiXiXiXiXiXiXiX",
"iXiXiXiXiXiXiXiXiXiXiXiXiX$ 5.r.+X%X7XrXtXrXyXyXrXrXqX4X%XF.}.j.p.i.K.w.- b &.+.iXiXiXiXiXiXiXiXiXiX",
"iXiXiXiXiXiXiXiXiXiXiXiXX % q.1XC.m.&X8X8X0X9X9XwX0X7X@Xc.x.c.m.%XS.s.^.G b v 8 iXiXiXiXiXiXiXiXiXiX",
"iXiXiXiXiXiXiXiXiXiXiXiX  % e.I.k. X$X$X:X5X:X;X;X;X$Xv.1.2.c.2.z.b.d.,X!.B O   iXiXiXiXiXiXiXiXiXiX",
"iXiXiXiXiXiXiXiXiXiXiXiX  % 0.Y.k.<.c.c.c.<.M.c.|.|.2.2.v.1.2.2.x.M.d.i.(.z O   / iXiXiXiXiXiXiXiXiX",
"iXiXiXiXiXiXiXiXiXiXiXiX  % 0.S.m.v.c.2.v.v.v.v.c.2.v.v.1.v.2.x.x.n.A.P.(.k O   / iXiXiXiXiXiXiXiXiX",
"iXiXiXiXiXiXiXiXiXiXiXiX. % 0.S.m.v.v.v.x.2.v.v.v.v.x.2.v.v.x.x.x.n.A.P./.k O   ^ iXiXiXiXiXiXiXiXiX",
"iXiXiXiXiXiXiXiXiXiXiXiX  $ 0.'.m.v.v.1.v.x.v.v.v.v.x.v.x.x.v.v.x.m.S.J./.k O   ^ iXiXiXiXiXiXiXiXiX",
"iXiXiXiXiXiXiXiXiXiXiXiX  $ q.d.m.v.v.v.v.v.v.1.2.x.v.v.v.2.v.v.v.m.S.K./.k O   ^ iXiXiXiXiXiXiXiXiX",
"iXiXiXiXiXiXiXiXiXiXiXiXX $ q.d.m.2.2.x.v.x.v.v.2.v.x.v.v.1.v.v.2.k.C.s.2Xk O   ^ iXiXiXiXiXiXiXiXiX",
"iXiXiXiXiXiXiXiXiXiXiXiX  $ q.d.m.x.v.x.v.v.v.v.x.v.v.x.v.v.v.v.<.m.N.K.2Xk O   ~ iXiXiXiXiXiXiXiXiX",
"iXiXiXiXiXiXiXiXiXiXiXiXX $ 0.S.c.1.v.x.2.v.1.x.1.v.v.2.2.x.2.v.2.m.B.L.2Xk O   ~ iXiXiXiXiXiXiXiXiX",
"iXiXiXiXiXiXiXiXiXiXiXiXX $ 0.S.m.x.v.2.1.v.v.2.2.v.v.1.x.2.x.2.c.m.A.I.2Xl O   ~ iXiXiXiXiXiXiXiXiX",
"iXiXiXiXiXiXiXiXiXiXiX_ X % 9.D.m.v.x.1.v.v.v.v.x.v.x.v.v.x.1.v.n.b.D.I.~.G O   ) iXiXiXiXiXiXiXiXiX",
"iXiXiXiXiXiXiXiXiXiXiX)   * 0.V.M.v.v.v.v.v.v.v.x.v.v.v.2.x.v.v.n.n.Z.P.2Xj +   ^ iXiXiXiXiXiXiXiXiX",
"iXiXiXiXiXiXiXiXiXiXiXiX  % 0.s.m.1.v.v.2.v.v.v.v.x.x.v.v.x.v.x.n.D.Y.H.(.B .   iXiXiXiXiXiXiXiXiXiX",
"iXiXiXiXiXiXiXiXiXiXiXiX  + E.].k.x.v.v.x.v.v.1.v.2.1.v.v.v.x.M.b.Z.P.y.a h L Z iXiXiXiXiXiXiXiXiXiX",
"iXiXiXiXiXiXiXiXiXiXiXiXX < >.W.|.v.M.v.x.M.x.z.c.b.v.v.v.x.v.m.B.a.1X5.: v =.O.iXiXiXiXiXiXiXiXiXiX",
"iXiXiXiXiXiXiXiXiXiXiXiXiX' % i {.M.v.<.x.x.M.x.z.v.v.x.x.M.x.b.D.1X~.4.& o eXO.iXiXiXiXiXiXiXiXiXiX",
"iXiXiXiXiXiXiXiXiXiXiXiXiXY + u u.c.c.z..X#Xx.c.c.M.v.c.M.x.c.h.Z.J.6.j S 8 iXiXiXiXiXiXiXiXiXiXiXiX",
"iXiXiXiXiXiXiXiXiXiXiXiXiX# O r 8.k.k.m.*X$Xm.c.c.c.M.M.c.m.c.j.P.~.a ; | iXiXiXiXiXiXiXiXiXiXiXiXiX",
"iXiXiXiXiXiXiXiXiXiXiXiXiXiX} c 0 8.oX}.m.m.-X}. Xc.c.:Xm.m.k.d.,X!.s + m iXiXiXiXiXiXiXiXiXiXiXiXiX",
"iXiXiXiXiXiXiXiXiXiXiXiXiXiXiXI c M >.f.j.@X-XXX,.-X.X#XG.B.+Xi.E.j n m   iXiXiXiXiXiXiXiXiXiXiXiXiX",
"iXiXiXiXiXiXiXiXiXiXiXiXiXiXiXiX..< w E.oXh.l..X>X-X$Xb.B.Y.J.~.H = R X.iXiXiXiXiXiXiXiXiXiXiXiXiXiX",
"iXiXiXiXiXiXiXiXiXiXiXiXiXiXiXiX@. .c - >.+Xg.@X X}.m.F.a.P.~.a p ! Q iXiXiXiXiXiXiXiXiXiXiXiXiXiXiX",
"iXiXiXiXiXiXiXiXiXiXiXiXiXiXiXiXiX@.L d B >.1Xp.k.G.B.A.s.e.J h m =.iXiXiXiXiXiXiXiXiXiXiXiXiXiXiXiX",
"iXiXiXiXiXiXiXiXiXiXiXiXiXiXiXiXiXiX} &.4 : w.y.I.a.Y.L.r.G & U *.iXiXiXiXiXiXiXiXiXiXiXiXiXiXiXiXiX",
"iXiXiXiXiXiXiXiXiXiXiXiXiXiXiXiXiXiXiX+.E A p 3.2XU.J.y.x d Y ' o.iXiXiXiXiXiXiXiXiXiXiXiXiXiXiXiXiX",
"iXiXiXiXiXiXiXiXiXiXiXiXiXiXiXiXiXiXiXiXiXY 5 k 6.y.t.H d v $.iXiXiXiXiXiXiXiXiXiXiXiXiXiXiXiXiXiXiX",
"iXiXiXiXiXiXiXiXiXiXiXiXiXiXiXiXiXiXiXiXiXiX .b > T.D & Q } iXiXiXiXiXiXiXiXiXiXiXiXiXiXiXiXiXiXiXiX",
"iXiXiXiXiXiXiXiXiXiXiXiXiXiXiXiXiXiXiXiXiXiX` Y U 2 v U | iXiXiXiXiXiXiXiXiXiXiXiXiXiXiXiXiXiXiXiXiX",
"iXiXiXiXiXiXiXiXiXiXiXiXiXiXiXiXiXiXiXiXiXiXiXiXY 9 v *.iXiXiXiXiXiXiXiXiXiXiXiXiXiXiXiXiXiXiXiXiXiX",
"iXiXiXiXiXiXiXiXiXiXiXiXiXiXiXiXiXiXiXiXiXiXiXiX#.*.{ *.iXiXiXiXiXiXiXiXiXiXiXiXiXiXiXiXiXiXiXiXiXiX",
"iXiXiXiXiXiXiXiXiXiXiXiXiXiXiXiXiXiXiXiXiXiXiXiXiXo.iXiXiXiXiXiXiXiXiXiXiXiXiXiXiXiXiXiXiXiXiXiXiXiX",
"iXiXiXiXiXiXiXiXiXiXiXiXiXiXiXiXiXiXiXiXiXiXiXiXiXiXiXiXiXiXiXiXiXiXiXiXiXiXiXiXiXiXiXiXiXiXiXiXiXiX",
"iXiXiXiXiXiXiXiXiXiXiXiXiXiXiXiXiXiXiXiXiXiXiXiXiXiXiXiXiXiXiXiXiXiXiXiXiXiXiXiXiXiXiXiXiXiXiXiXiXiX",
"iXiXiXiXiXiXiXiXiXiXiXiXiXiXiXiXiXiXiXiXiXiXiXiXiXiXiXiXiXiXiXiXiXiXiXiXiXiXiXiXiXiXiXiXiXiXiXiXiXiX",
"iXiXiXiXiXiXiXiXiXiXiXiXiXiXiXiXiXiXiXiXiXiXiXiXiXiXiXiXiXiXiXiXiXiXiXiXiXiXiXiXiXiXiXiXiXiXiXiXiXiX",
"iXiXiXiXiXiXiXiXiXiXiXiXiXiXiXiXiXiXiXiXiXiXiXiXiXiXiXiXiXiXiXiXiXiXiXiXiXiXiXiXiXiXiXiXiXiXiXiXiXiX"
};
