/* XPM */
static char *_b5b1a62c9194bd3993f05905574ed5eKWLcMikXaaxHDgWK[] = {
/* columns rows colors chars-per-pixel */
"128 32 216 2 ",
"   c None",
".  c #001611",
"X  c #001915",
"o  c #00171B",
"O  c #001A1B",
"+  c #001B21",
"@  c #002522",
"#  c #002B25",
"$  c #002C2B",
"%  c #002729",
"&  c #043D35",
"*  c #0B3C3D",
"=  c #063B36",
"-  c #1C3534",
";  c #153D36",
":  c #1C3B35",
">  c #1F363B",
",  c #143C3C",
"<  c #1C3B3C",
"1  c #2D292E",
"2  c #352E2D",
"3  c #392F2E",
"4  c #24352D",
"5  c #2C342C",
"6  c #213A2E",
"7  c #2C392B",
"8  c #293423",
"9  c #33342D",
"0  c #333628",
"q  c #282C35",
"w  c #332D34",
"e  c #3A2E34",
"r  c #352F3A",
"t  c #392F3A",
"y  c #253535",
"u  c #2C3535",
"i  c #233935",
"p  c #2B3934",
"a  c #24363B",
"s  c #2C343B",
"d  c #233A3B",
"f  c #2C3A3B",
"g  c #333334",
"h  c #3A3234",
"j  c #323934",
"k  c #34343A",
"l  c #3A323A",
"z  c #353A38",
"x  c #004234",
"c  c #05433F",
"v  c #0C433C",
"b  c #034A3F",
"n  c #09483F",
"m  c #174137",
"M  c #14423D",
"N  c #1B413A",
"B  c #21423D",
"V  c #2B433F",
"C  c #0F3F41",
"Z  c #153C42",
"A  c #1C3B42",
"S  c #1F3741",
"D  c #253641",
"F  c #2E3644",
"G  c #233B42",
"H  c #2A3B43",
"J  c #343E45",
"K  c #064643",
"L  c #0B4443",
"P  c #014A43",
"I  c #0B4A47",
"U  c #0C4C4B",
"Y  c #144344",
"T  c #1B4443",
"R  c #124A45",
"E  c #1C4B4B",
"W  c #184948",
"Q  c #035247",
"!  c #16524E",
"~  c #1C524E",
"^  c #1D5554",
"/  c #1D5853",
"(  c #1A5A5A",
")  c #065653",
"_  c #234344",
"`  c #2A4244",
"'  c #234C43",
"]  c #2B424A",
"[  c #234B4A",
"{  c #2D4E4C",
"}  c #284847",
"|  c #314C4B",
" . c #27514B",
".. c #2A514C",
"X. c #2E4D51",
"o. c #264E50",
"O. c #225454",
"+. c #2C5C55",
"@. c #255E58",
"#. c #2C5C5B",
"$. c #255756",
"%. c #3F5C56",
"&. c #32595B",
"*. c #3C5E5B",
"=. c #385657",
"-. c #3C6D4F",
";. c #24645F",
":. c #2D635E",
">. c #396356",
",. c #366D53",
"<. c #3C6E54",
"1. c #34635C",
"2. c #3B615B",
"3. c #247A5D",
"4. c #3C7355",
"5. c #3E7459",
"6. c #31775F",
"7. c #295F61",
"8. c #3B5961",
"9. c #166665",
"0. c #1C6463",
"q. c #16656A",
"w. c #186B67",
"e. c #1D796D",
"r. c #15756B",
"t. c #1C7E71",
"y. c #246362",
"u. c #2C6564",
"i. c #226E63",
"p. c #2A6962",
"a. c #2D6469",
"s. c #2C6D69",
"d. c #246569",
"f. c #336465",
"g. c #3B6564",
"h. c #346964",
"j. c #3C6B65",
"k. c #316369",
"l. c #3D646A",
"z. c #336C6C",
"x. c #3C6B6B",
"c. c #24776E",
"v. c #2B726C",
"b. c #267968",
"n. c #3D746C",
"m. c #37766B",
"M. c #3F6771",
"N. c #2E7571",
"B. c #337375",
"V. c #3D7472",
"C. c #3C7A74",
"Z. c #387A78",
"A. c #415D59",
"S. c #486D4E",
"D. c #47724D",
"F. c #436D54",
"G. c #4A6E54",
"H. c #436F58",
"J. c #46695C",
"K. c #437254",
"L. c #467159",
"P. c #49745C",
"I. c #44795B",
"U. c #487153",
"Y. c #446764",
"T. c #426A64",
"R. c #426C6C",
"E. c #456766",
"W. c #44736D",
"Q. c #427C62",
"!. c #496A73",
"~. c #416E71",
"^. c #437473",
"/. c #427A73",
"(. c #457F7B",
"). c #4A7979",
"_. c #507A76",
"`. c #088A7E",
"'. c #1C847C",
"]. c #388068",
"[. c #2D8B7B",
"{. c #358679",
"}. c #43857C",
"|. c #028D83",
" X c #098982",
".X c #0E868D",
"XX c #0A898B",
"oX c #058B8A",
"OX c #10858D",
"+X c #2A9D8E",
"@X c #3C9189",
"#X c #3B9A8C",
"$X c #389488",
"%X c #359F93",
"&X c #378E86",
"*X c #1AA099",
"=X c #2DA394",
"-X c #3BA291",
";X c #468786",
":X c #55968E",
">X c #4E9794",
",X c #499C97",
"<X c #569393",
"1X c #5A9294",
"2X c #56929A",
"3X c #579796",
"4X c #51928B",
"5X c #57DBCF",
"6X c #4ADEDC",
"7X c #4CDED5",
"8X c #50DADE",
"9X c #57D9D3",
"0X c #79CAC1",
"qX c #49E1D6",
"wX c #4EDCE1",
"eX c #51DAE3",
/* pixels */
"                                                                                                                                                                                                                                                                ",
"                                                                                                                                                                                                                                                                ",
"                                                                                                                                                                                                                                                                ",
"                                                                                                                                                                                                                                                                ",
"                                                                                                                                                                                                                                                                ",
"                                                            K.K.U.G.G.S.D.D.K.K.F.I.b.3.4.S.F.K.4.K.K.F.K.F.G.G.F.L.K.4.                                                                                                                                        ",
"                                    {.,X  3X    >.>.*.A.*.*.>.*.*.A.A.%.>.>.1.f.4X. 5X=XZ.T.T.T.j.j.T.T.j.T.T.T.g.j.j.n.z.}.:X                                                                                                                                  ",
"Z.L Z A , < > G Z Z Z Z < , , , , L ) w.O >XE , < d a D G A Z A D a a d > < A Z x.% 7X|.P , < > < < < < Z , < < < < , T * ^                                                                                                                                     ",
"n.M d s y f k u > } - d d p y p u > / 0.X <X' y f 4 l k a < _ d a s k g g u y G l.@ qX|.K d s k g u f i d d d y u u y p >  .@.                                                                                                                                  ",
"n.m y g k k g u %.Y.J.i u g g g g y O.0.X <X_ u p g h w y =.2.E.] a g 3 3 h k ` l.# qX|.v g g g h 5 i =.E.A.d p g h g g i { +.                                                                                                                                  ",
"n.m y g z u y ` 2.W j...y g z 9 9 y / 9.O >X' i 5 g e l _ g. . .:.T p 9 3 w u d x.# qX|.v g g g u p B T.' T.' : g h 3 g y { +.                                                                                                                                  ",
"n.N y g k u i =.+.& / R.y k g 9 9 y ^ 9.O >X' i j 9 w s [ u., M s.R 4 9 h h k d z.$ 6XoXM g g u u d j.$.= [ j.; u h e g y { #.                                                                                                                                  ",
"^.A s k k u < W.W R U f.s l 1 g g y O.0.o 2X_ y 5 9 l H 7.d.C Y B.! - g h r k A z.$ wX.XZ l g u s a h.L T T h.T s l e g s X.#.                                                                                                                                  ",
"^.A s r k y T ^.~.V.z.).J l k g 9 y O.d.o 2X` u 5 g l q s.Z.l.R.C.$.i g g w s A z.$ eX.XZ g g g k H (.C.!.!./.Y s l e g a X.#.                                                                                                                                  ",
"^., f g k y N W.[ Z U ^.s 1 j 4 7 6 O.0.o 1X` 5 0 9 g y u.u.` a l.X.4 0 g g z _ z.$ eXOX, g 9 9 l y n.W G ] n.v y g g u i ..#.                                                                                                                                  ",
"/., p g k p N j._ A L x.k l p 7 7 6 O.0.o 1XV 5 0 9 3 f :.~ a s =.X.5 0 g 5 u < s.$ wX.X, 9 9 9 w J h.Y D F 1.W p k g u i { #.                                                                                                                                  ",
"V.M f l w p M x.G A Y x.s g z 5 9 4 / 0.O 1XV 5 8 0 e q g.~ f s 8.{ p 9 g g y B v.# 6XXX, g g g l u j.Y F F R.M p g u u i { #.                                                                                                                                  ",
"C., y g l f ; j.A Z L n.s g j 9 9 y / 9.o 1X` 5 7 9 h k f.! - a &.o.p 9 2 g k G s.$ 6XXX, g g g l f j.v D D l.[ s g u u y | #.                                                                                                                                  ",
"/.; y g h k - T.E v b m.y g 7 5 9 y ( q.+ 2X` u g 2 e s u.( L Y a.E y h e t k G x.$ 6XOXA e l g u < v.Q Y A f.T s g g u y | &.                                                                                                                                  ",
"^.; p g w k y _.C.c.e.}.f k j j g a ( q.+ 2X` u g g r D s.&XN.v.;X^ y h l t k H x.$ 8X.XS e g k s < {.[.N.B.;X, s g g u y | &.                                                                                                                                  ",
"^., H s k F G (.#X=X+X@XA q w g g y O.0.o <X` u 9 g k < i.-X#X$X>X@.4 9 g g k H j.# 7X X< g g u w > {.-X$X@X;XZ s r k s d { &.                                                                                                                                  ",
"^., a k s f d :.c.t.e.s.G k l h g y O.y.O <X` u 9 9 g a ! w.i.i.p.E i 5 5 g f d j.@ 7X X; g g g r J ;.c.c.v.u.T s l g s d { &.                                                                                                                                  ",
"W.N u k u u u f : ; - y u h 9 5 p : O.y.X <X_ u k h l k a < d d a a u g g u s d Y.@ 7X`., g g g w k > , > d a a u g g u i ..+.                                                                                                                                  ",
"m.v - p - i s y a a d y p y 4 i : ; ^ 0.O >XT d y u s s D > H a D a a i d y > _ E.@ 9X Xc d a s s y - G > a d d d d i i ;  .+.                                                                                                                                  ",
"%Xw.y.k.y.s.a.k.a.a.k.a.u.u.f.f.#.f.B.q.O ,XN.y.u.u.u.u.u.u.f.f.k.k.u.u.f.g.l.l.M.+ 9X*Xr.s.;.u.u.u.u.u.u.u.u.u.y.:.h.:.p.V.$.                                                                                                                                  ",
"r.Q I I P P c K K K L L P P n n R v c $ X 0Xb x x x x x x x & & & & x x & = * * @ . '.                          n x                                                                                                                                             ",
"Q.,.H.H.4.5.H.P.H.H.F.H.4.4.4.4.-.K.K.4.Q.,.<.I.4.4.4.4.4.K.K.K.L.L.4.4.K.K.5.5.L.<.6.].4.F.P.            4.4.<.L.H.G.P.5.5.5.                                                                                                                                  ",
"                                                                                                                                                                                                                                                                ",
"                                                                                                                                                                                                                                                                ",
"                                                                                                                                                                                                                                                                ",
"                                                                                                                                                                                                                                                                ",
"                                                                                                                                                                                                                                                                "
};
