/* XPM */
static char *e8c90417fe114e1890eb330eddf0fc2a3B3h6CWojWGlBvdM[] = {
/* columns rows colors chars-per-pixel */
"128 32 139 2 ",
"   c None",
".  c #000C00",
"X  c #053E37",
"o  c #1D3535",
"O  c #123D36",
"+  c #193C35",
"@  c #1F363E",
"#  c #153C3C",
"$  c #1B3C3C",
"%  c #2A232A",
"&  c #2D2E2F",
"*  c #26312B",
"=  c #2E322D",
"-  c #2D392F",
";  c #32332E",
":  c #2D2F35",
">  c #342F33",
",  c #382F31",
"<  c #312F3A",
"1  c #243434",
"2  c #2B3435",
"3  c #233936",
"4  c #2B3934",
"5  c #25363C",
"6  c #2C363A",
"7  c #243A3C",
"8  c #2B3A3C",
"9  c #333234",
"0  c #393236",
"q  c #333935",
"w  c #33343A",
"e  c #39313A",
"r  c #343B3D",
"t  c #413B3F",
"y  c #04463D",
"u  c #0A463F",
"i  c #024B3E",
"p  c #174137",
"a  c #15423B",
"s  c #1B413B",
"d  c #143B42",
"f  c #1B3D43",
"g  c #2E3641",
"h  c #213943",
"j  c #2B3B41",
"k  c #323B44",
"l  c #074142",
"z  c #0C4645",
"x  c #024B40",
"c  c #0C4A44",
"v  c #064F48",
"b  c #094948",
"n  c #1F4047",
"m  c #144C44",
"M  c #124548",
"N  c #154C4C",
"B  c #1C4A4A",
"V  c #005343",
"C  c #1E5656",
"Z  c #1C5851",
"A  c #234044",
"S  c #2F4844",
"D  c #22494D",
"F  c #354E4B",
"G  c #2E5550",
"H  c #225956",
"J  c #285953",
"K  c #395E57",
"L  c #3B5B58",
"P  c #226657",
"I  c #286055",
"U  c #24645B",
"Y  c #29625D",
"T  c #356B54",
"R  c #34625D",
"E  c #39625A",
"W  c #3C725A",
"Q  c #136F64",
"!  c #1B7B6C",
"~  c #266361",
"^  c #2C6565",
"/  c #246A62",
"(  c #2A6B67",
")  c #306365",
"_  c #316E66",
"`  c #3B6A64",
"'  c #3B6768",
"]  c #3D6D6A",
"[  c #23776A",
"{  c #27786F",
"}  c #32736D",
"|  c #3D7069",
" . c #3B776D",
".. c #39766E",
"X. c #3E766D",
"o. c #39726C",
"O. c #35796E",
"+. c #3F796B",
"@. c #217D70",
"#. c #337170",
"$. c #397470",
"%. c #347976",
"&. c #3C7870",
"*. c #436D57",
"=. c #426E5A",
"-. c #48735F",
";. c #487A5C",
":. c #436765",
">. c #406963",
",. c #466967",
"<. c #416C67",
"1. c #4A6D67",
"2. c #426868",
"3. c #416E69",
"4. c #416E6B",
"5. c #476E6B",
"6. c #416D6E",
"7. c #417D64",
"8. c #44726F",
"9. c #41726E",
"0. c #40786B",
"q. c #40786F",
"w. c #417171",
"e. c #437773",
"r. c #447174",
"t. c #457575",
"y. c #447572",
"u. c #4D7775",
"i. c #467974",
"p. c #427D77",
"a. c #497679",
"s. c #3D9386",
"d. c #3B9B8D",
"f. c #359F91",
"g. c #2CA08D",
"h. c #31A592",
"j. c #438A82",
"k. c #4C8F86",
"l. c #528284",
/* pixels */
"                                                                                                                                                                                                                                                                ",
"                                                                                                                                                                                                                                                                ",
"                                                                                                                                                                                                                                                                ",
"                                                                                                                                                                                                                                                                ",
"                                                                                                                                                                                                                                                                ",
";.                                                                                                                                                                                                                                                              ",
"k._ ` <.` ] :.,.] ] 2.                                                                                                                                                                                                                                          ",
"%.z d f # f @ h d d d d $ # # # + + H                                                                                                                                                                                                                           ",
" .a 3 6 2 6 w 6 7 $ $ 7 o 8 1 3 3 $ C Y                                                                                                                                                                                                                         ",
"0.p 2 9 9 9 9 6 F 1.L o r 9 = = 2 $ C ~                                                                                                                                                                                                                         ",
"+.p 2 9 9 2 1 S >.m | G 1 9 q 9 2 7 C ~ .                                                                                                                                                                                                                       ",
"X.s 2 9 w 2 3 K J X m ` 8 & 9 ; 9 7 C ~ .                                                                                                                                                                                                                       ",
"w.$ 6 w w 2 $ 3.B N b ] k e 9 9 9 7 C Y .                                                                                                                                                                                                                       ",
"r.f g < w 1 s 8.a.) #.l.g e w & 9 4 C U .                                                                                                                                                                                                                       ",
"t.$ 8 9 w 2 s 3.D D c ] r % q 4 ; 4 Z U .                                                                                                                                                                                                                       ",
"e.# 8 9 9 4 s ` A # N ' r t * - ; 4 Z P                                                                                                                                                                                                                         ",
"&.a 6 9 9 4 a ] A f M 6.6 > q ; , 2 Z P                                                                                                                                                                                                                         ",
" .O 6 e 9 8 # ] n d l ] 6 9 q ; , 6 Z P                                                                                                                                                                                                                         ",
"q.O 6 9 0 w o 5.B z v $.5 9 4 4 9 6 Z P                                                                                                                                                                                                                         ",
"i.# 8 9 > w 1 u.} { @.j.7 9 2 9 9 5 Z U .                                                                                                                                                                                                                       ",
"y.# 8 6 w 8 7 p.d.h.g.s.A w 9 > 9 7 C U .                                                                                                                                                                                                                       ",
"9.# 7 r 6 6 7 R [ ! ! / 7 w 0 > 6 7 C Y                                                                                                                                                                                                                         ",
"9.# 2 w 2 2 : r $ $ $ 5 : 9 9 9 2 $ C Y                                                                                                                                                                                                                         ",
"O.u o 8 o 7 6 1 j 5 5 5 j 1 1 3 3 $ C Y                                                                                                                                                                                                                         ",
"f.Q ~ ) ~ ( ^ ) ^ ^ ) ^ ^ ^ ) R E R o.I                                                                                                                                                                                                                         ",
"  V c c i x y y y y u u i i u                                                                                                                                                                                                                                   ",
"7.T =.=.W W =.-.=.*.*.*.W W W                                                                                                                                                                                                                                   ",
"                                                                                                                                                                                                                                                                ",
"                                                                                                                                                                                                                                                                ",
"                                                                                                                                                                                                                                                                ",
"                                                                                                                                                                                                                                                                ",
"                                                                                                                                                                                                                                                                "
};
