/* XPM */
static char *a7de858b933640a79e540630a9a8cf29VgLMvGqXC3k2egU1[] = {
/* columns rows colors chars-per-pixel */
"128 32 201 2 ",
"   c None",
".  c #001D13",
"X  c #001D19",
"o  c #00231D",
"O  c #002324",
"+  c #002826",
"@  c #00242B",
"#  c #002A2B",
"$  c #00332E",
"%  c #1F392E",
"&  c #1C2E30",
"*  c #013E39",
"=  c #083C39",
"-  c #1D3634",
";  c #1B3936",
":  c #1D363C",
">  c #153D3C",
",  c #1B3B3C",
"<  c #163E35",
"1  c #272E27",
"2  c #2D2D2E",
"3  c #2A232A",
"4  c #332E2D",
"5  c #2F3626",
"6  c #2B3827",
"7  c #263629",
"8  c #2D332C",
"9  c #263A2D",
"0  c #2A382D",
"q  c #313327",
"w  c #32332D",
"e  c #39342D",
"r  c #32392D",
"t  c #2E2E33",
"y  c #262F3C",
"u  c #232C31",
"i  c #322E31",
"p  c #382E37",
"a  c #362E38",
"s  c #243535",
"d  c #2C3434",
"f  c #243A35",
"g  c #2A3A34",
"h  c #24343B",
"j  c #2C363B",
"k  c #233A3B",
"l  c #2C3A3A",
"z  c #333333",
"x  c #333A33",
"c  c #34343A",
"v  c #3A333B",
"b  c #343E3C",
"n  c gray22",
"m  c #3B3737",
"M  c #463B3F",
"N  c #014237",
"B  c #03453D",
"V  c #08453D",
"C  c #024B3F",
"Z  c #0B4B3D",
"A  c #164137",
"S  c #15453D",
"D  c #1B413B",
"F  c #264035",
"G  c #21403D",
"H  c #29423F",
"J  c #0E3F43",
"K  c #153B43",
"L  c #1C3C42",
"P  c #243741",
"I  c #2A3640",
"U  c #243B42",
"Y  c #2B3942",
"T  c #323744",
"R  c #303942",
"E  c #074443",
"W  c #0B4542",
"Q  c #0D4A45",
"!  c #0E4548",
"~  c #074B49",
"^  c #144041",
"/  c #1C4644",
"(  c #124549",
")  c #114948",
"_  c #1D4A4D",
"`  c #1B474A",
"'  c #135049",
"]  c #0F5B5B",
"[  c #1E5654",
"{  c #1E5358",
"}  c #145E5D",
"|  c #254344",
" . c #294241",
".. c #2F4844",
"X. c #244249",
"o. c #234B4D",
"O. c #2A4E4C",
"+. c #284647",
"@. c #324B48",
"#. c #2C534E",
"$. c #214F5C",
"%. c #294F5A",
"&. c #235454",
"*. c #285953",
"=. c #225359",
"-. c #28505A",
";. c #215C5C",
":. c #2A5C5B",
">. c #355D56",
",. c #395956",
"<. c #3F5F5B",
"1. c #3F674D",
"2. c #26655D",
"3. c #386F50",
"4. c #30635D",
"5. c #3A625A",
"6. c #3C6257",
"7. c #3C7355",
"8. c #377659",
"9. c #3C7359",
"0. c #3D7859",
"q. c #295B64",
"w. c #0F6768",
"e. c #1D6465",
"r. c #1D6A60",
"t. c #196569",
"y. c #156A67",
"u. c #1B796E",
"i. c #19766C",
"p. c #246663",
"a. c #2C6564",
"s. c #236E66",
"d. c #2D6962",
"f. c #22616B",
"g. c #2D656B",
"h. c #266B6A",
"j. c #2A696C",
"k. c #336564",
"l. c #3C6265",
"z. c #336C65",
"x. c #3B6B64",
"c. c #31646A",
"v. c #3B666B",
"b. c #336B6B",
"n. c #3B6A6C",
"m. c #24776D",
"M. c #327065",
"N. c #3C746B",
"B. c #3F796B",
"V. c #35796E",
"C. c #336171",
"Z. c #3B6B72",
"A. c #277871",
"S. c #2E7273",
"D. c #357572",
"F. c #397473",
"G. c #337B75",
"H. c #3F7C75",
"J. c #425F53",
"K. c #415E5B",
"L. c #406F4F",
"P. c #436D54",
"I. c #496E56",
"U. c #426D59",
"Y. c #41645E",
"T. c #437253",
"R. c #4C7557",
"E. c #43725A",
"W. c #49755B",
"Q. c #44795D",
"!. c #416A66",
"~. c #426C6B",
"^. c #4B6E69",
"/. c #43726E",
"(. c #40786F",
"). c #447474",
"_. c #497E76",
"`. c #497679",
"'. c #487874",
"]. c #31807A",
"[. c #43817D",
"{. c #437D81",
"}. c #299C8D",
"|. c #3A938B",
" X c #359B8D",
".X c #3C9C90",
"XX c #30A392",
"oX c #418884",
"OX c #478B87",
"+X c #518183",
"@X c #499797",
"#X c #4A9A93",
"$X c #4C969B",
"%X c #4B999B",
"&X c #519493",
"*X c #569394",
"=X c #52949B",
"-X c #569F98",
";X c #589293",
":X c #40A092",
">X c #63A4AA",
/* pixels */
"                                                                                                                                                                                                                                                                ",
"                                                                                                                                                                                                                                                                ",
"                                                                                                                                                                                                                                                                ",
"                                                                                                                                                                                                                                                                ",
"                                                                                                                                                                                                                                                                ",
"                              P.R.W.E.7.9.Q.1.R.T.T.T.T.T.T.T.                                                                                                                                                                                                  ",
"OXz.x.~.            !.!.!.x.x.x.4.M.G.#X. -XN.>.5.5.5.<.K.<.5.5.5.6.J.J.K.<.5.5._..                                                                                                                                                                             ",
"G.W K L > L : U K K K K , > > > / V ] w.# %X( L , , k P P L K , , , f s k k : > n.o                                                                                                                                                                             ",
"N.S k d j j c j k G ; U s l g g j k [ e.@ &XX.s l d t v h - | < U h x r c l s | v.o                                                                                                                                                                             ",
"B.D d z z z z j @.^.,.- b 8 8 w z j &.e.O &X .d 8 w M i h O.Y.^.| s w e z n d k v.o                                                                                                                                                                             ",
"B.A d z z d d ..x.S N.#.s z z z z k [ t.+ #X/ f 6 w 4 n k ~.| O.l.+.z 4 i z z Y n.O                                                                                                                                                                             ",
"(.> d z z d k >.*.* ' x.l i 4 z z j =.t.+ @X/ s x r v j O.k.> / v.| 8 e z z z k n.o                                                                                                                                                                             ",
")., j c c s G n._ ) ~ n.Y v i z z j -.f.@ $XX.d 1 8 v h :.;.> ^ Z.o.7 r z r x f z.o                                                                                                                                                                             ",
")., j c c s D /.`.q.D.+XI v n 8 z j %.f.@ =X| d z n 2 h b._.~.!.{.:.9 5 8 8 r F b.o                                                                                                                                                                             ",
")., j z n d D ~.o.o.Q ~.T 3 b g 0 f &.f.@ *X .8 q w n & k.[ | : g.{ s r z d z k n.                                                                                                                                                                              ",
").> j t n g < x.L K ( v.c v 8 9 0 f &.e.O *XH 8 r q w l :.&.s P C.q.f r z t z l Z.                                                                                                                                                                              ",
"N.> j v z g S n.L X.( v.j z z r 5 f [ e.O *XH 8 6 r z u l.o.j y C.$.g r z z w l v.                                                                                                                                                                              ",
"H.> d i z l D n.L K E n.Y c z 8 w g [ t.@ *X .d 6 r v j v.&.k U q.=.l w 4 z z l n.                                                                                                                                                                              ",
"(.> s z v n - ~.` ! ~ F.Y c d d z j { t.@ =X+.d 8 z a h ;.} W J j.[ g w w z x f n.                                                                                                                                                                              ",
").> l c z z s '.D.A.u.oXU c d x z j { t.@ =XX.d z n v h h.|.].G.OX;.% r x z z k b.                                                                                                                                                                              ",
").> l j d l | [.:XXX}.|.U c z z z k [ t.@ =X+.d 8 i a h p..X X|.%Xq.- d c d j | b.                                                                                                                                                                              ",
").> h c d l k 4.m.u.i.h.k v v 4 d f [ e.O *X+.d z z v R [ s.r.s.j._ s z c d j k b.                                                                                                                                                                              ",
"/., d n z z t j : > L U t c z w d f &.e.O ;X| d z 2 p c U L U I : - 5 e z z d f x.                                                                                                                                                                              ",
"V.W ; l - f j j Y h Y I j h f f f , [ e.O *XX.k f k j h L L T y k k 0 8 d s s G x.                                                                                                                                                                              ",
" Xy.p.k.2.d.a.a.a.a.c.g.a.a.k.4.k.p.S.e.@ >Xb.a.d.d.k.c.j.j.c.c.j.g.k.k.k.k.k.k.F.                                                                                                                                                                              ",
"            B V V E W W C C V V N Z B $ o X Q N         N N * * *                                                                                                                                                                                               ",
"      E.7.0.U.W.U.U.U.U.9.9.7.7.T.L.0.8.8.0.3.7.7.7.T.T.7.T.I.I.U.T.T.7.7.9.7.9.E.P.                                                                                                                                                                            ",
"                                                                                                                                                                                                                                                                ",
"                                                                                                                                                                                                                                                                ",
"                                                                                                                                                                                                                                                                ",
"                                                                                                                                                                                                                                                                ",
"                                                                                                                                                                                                                                                                "
};
