/* XPM */
static char *_915fc80ed684b65a10df20bf9de73e79XKkvIqsWO8wPQBq[] = {
/* columns rows colors chars-per-pixel */
"128 32 243 2 ",
"   c None",
".  c #000F17",
"X  c #001414",
"o  c #00161C",
"O  c #00191C",
"+  c #001A16",
"@  c #000F0F",
"#  c #00241C",
"$  c #153E1C",
"%  c #001821",
"&  c #002A22",
"*  c #002C2C",
"=  c #00272B",
"-  c #01352D",
";  c #1E382E",
":  c #143A2F",
">  c #023B34",
",  c #0B3B3A",
"<  c #063735",
"1  c #1D3633",
"2  c #153C35",
"3  c #1B3C35",
"4  c #1B363B",
"5  c #143D3D",
"6  c #1C3B3C",
"7  c #17343C",
"8  c #2D2D2D",
"9  c #28202B",
"0  c #342D2B",
"q  c #392F2D",
"w  c #25332D",
"e  c #2C352C",
"r  c #24392E",
"t  c #2A392D",
"y  c #293723",
"u  c #33342D",
"i  c #38312E",
"p  c #35392E",
"a  c #262C34",
"s  c #2F2F33",
"d  c #282C39",
"f  c #332E33",
"g  c #392E36",
"h  c #342F3A",
"j  c #3B2D3B",
"k  c #253534",
"l  c #2C3534",
"z  c #243935",
"x  c #2A3935",
"c  c #24343A",
"v  c #2C343A",
"b  c #233A3C",
"n  c #2B393B",
"m  c #333333",
"M  c #393234",
"N  c #323A34",
"B  c #33333A",
"V  c #3B333A",
"C  c #353A39",
"Z  c #17441E",
"A  c #1A4122",
"S  c #0B433D",
"D  c #03493D",
"F  c #084639",
"G  c #15413E",
"H  c #1C413C",
"J  c #144438",
"K  c #065126",
"L  c #24423E",
"P  c #29443F",
"I  c #244324",
"U  c #153D43",
"Y  c #1C3C42",
"T  c #183947",
"R  c #0A3B40",
"E  c #243542",
"W  c #2A3643",
"Q  c #233C41",
"!  c #2C3A42",
"~  c #283B49",
"^  c #333542",
"/  c #343B44",
"(  c #383746",
")  c #034342",
"_  c #0B4444",
"`  c #0D4A43",
"'  c #064A48",
"]  c #144343",
"[  c #1B4246",
"{  c #134B45",
"}  c #1B444B",
"|  c #1A4B49",
" . c #035648",
".. c #1B534D",
"X. c #16524B",
"o. c #0B5E5C",
"O. c #1E5555",
"+. c #1D5953",
"@. c #185958",
"#. c #0B4A57",
"$. c #244343",
"%. c #2B4349",
"&. c #2C4D4C",
"*. c #264647",
"=. c #324D4D",
"-. c #384A4E",
";. c #2A524D",
":. c #2E4C51",
">. c #274C52",
",. c #314E52",
"<. c #364D55",
"1. c #235354",
"2. c #2B5453",
"3. c #225559",
"4. c #2C5C5C",
"5. c #2A5959",
"6. c #35565D",
"7. c #325A5B",
"8. c #3B5C5C",
"9. c #375756",
"0. c #03615E",
"q. c #1E755C",
"w. c #0C7259",
"e. c #29655B",
"r. c #3A6353",
"t. c #3A655D",
"y. c #356A5D",
"u. c #3D6F5A",
"i. c #386958",
"p. c #297459",
"a. c #3E7055",
"s. c #3A715E",
"d. c #3D6C4D",
"f. c #0A5C64",
"g. c #145A73",
"h. c #2D5C63",
"j. c #295B64",
"k. c #3A5D64",
"l. c #375A65",
"z. c #325E77",
"x. c #096163",
"c. c #036666",
"v. c #1A6466",
"b. c #1C6468",
"n. c #196A65",
"m. c #1A716E",
"M. c #107A63",
"N. c #1A7B76",
"B. c #0F776B",
"V. c #246460",
"C. c #2C6463",
"Z. c #2C6A65",
"A. c #2C6C69",
"S. c #236867",
"D. c #336464",
"F. c #3A6462",
"G. c #366A65",
"H. c #3B6B65",
"J. c #35656A",
"K. c #3C646B",
"L. c #336C6C",
"P. c #3C6C6B",
"I. c #24716A",
"U. c #2D7069",
"Y. c #387569",
"T. c #3B6C71",
"R. c #2B7975",
"E. c #347473",
"W. c #3C7B73",
"Q. c #3D7A7A",
"!. c #387975",
"~. c #425C5C",
"^. c #436D54",
"/. c #4A6D55",
"(. c #436E59",
"). c #4C6D5A",
"_. c #416059",
"`. c #447254",
"'. c #4A7155",
"]. c #44725A",
"[. c #4B735B",
"{. c #437B5E",
"}. c #44714F",
"|. c #425D64",
" X c #4C5964",
".X c #436462",
"XX c #426964",
"oX c #436B6B",
"OX c #486769",
"+X c #42746C",
"@X c #447762",
"#X c #437573",
"$X c #437C75",
"%X c #497675",
"&X c #4B7368",
"*X c #1D8854",
"=X c #12867D",
"-X c #298369",
";X c #378567",
":X c #378279",
">X c #48847D",
",X c #449579",
"<X c #599378",
"1X c #56896E",
"2X c #098981",
"3X c #088A89",
"4X c #12848C",
"5X c #029188",
"6X c #108C94",
"7X c #3D8A86",
"8X c #3A978B",
"9X c #2D9C99",
"0X c #2C9590",
"qX c #3CA099",
"wX c #28A499",
"eX c #468883",
"rX c #45958D",
"tX c #539394",
"yX c #549199",
"uX c #599194",
"iX c #4F9294",
"pX c #608A80",
"aX c #53A081",
"sX c #63A88C",
"dX c #6D9EA6",
"fX c #4CB6B4",
"gX c #4BB9B4",
"hX c #49B7B7",
"jX c #54B4B5",
"kX c #4CACA8",
"lX c #6FA1A8",
"zX c #7DC291",
"xX c #73C8B3",
"cX c #41BBCA",
"vX c #48D9CF",
"bX c #4ADDDD",
"nX c #4DDDD3",
"mX c #56D9D4",
"MX c #5ECBD0",
"NX c #46E2D7",
"BX c #52DAE2",
"VX c #4EDBE2",
"CX c #BEF6E9",
/* pixels */
"                                                                                                                                                                                                                                                                ",
"                                                                                                                                                                                                                                                                ",
"                                                                                                                                                                                                                                                                ",
"                                                                                                                                                                                                                                                                ",
"                                                                                                                                                                                                                                                                ",
"                                                    zX1Xd.}.[.'./.'.'.`.}.`.].].d.@Xq.-X@X^.`.`.`./././.(.(.(.(.[.].{.<XsXaX,X-XM.w.q.p.p.;X,X                                                                                                                  ",
"                                      xX  xX  <X<X    [.r.r._.~.~.~.8.t.r.t.F.D.uX- mXwXV.%XoXF.XXXXXXoXP.P.oXOXXXF.t.P.Y.:XrXm.gX0XR.W.Y.W.W.$XE.Q.Q.$X%X+X$X$X1XpX                                                                                            ",
"*XK K A $ I y y y A A A Z Z Z Z A J  .M.# 7XX.J 3 r r x 3 6 6 4 E E b 6 6 6 Y T L.* vX5X' 7 6 6 6 5 5 5 U U Y 4 4 Q 4 Y , 3.S.+ hXc.) U G ] U T } } R ] Y Y Y 5 b 6 , CX                                                                                        ",
"Y.J z x x x l l z L 1 z w x t t t 3 @.n.O yX} b x w M B b 6 } U E v x l m m d ! P.& NX5XS n v l z ; L H H 6 b k x l l z 6 2.4.X fX0.Y v k l B v c Y 6 6 n k l n v b 5 G.                                                                                        ",
"+X6 v B B l v n 8.OX8.b B s M m u z O.v.o yX*.v l u M f c 7.J.oX%.k e u i m m ! H.& NX5XS m m m N r 1 9.OX8.L z l m m l z =.7.X jXo.b M u m M s ! |..X=.w e M 8 v c 5 D.                                                                                        ",
"+X6 v m B l k %.t.| oX&.l B e p u r +.n.+ tX$.l y u q B L t.&.&.D.| x p i M m b G.& NX5XS m m m l l b OX%.OX,.c m M m m b :.4.X gX0.b B m m l c 7.C.4.F.n N M M B v 6 F.                                                                                        ",
"+X6 l m m k b 9.2.> ..oXn m u u u w +.n.+ tXL e p u 0 l *.y.2 G Z.{ ; u i M B b L.* NX3X5 m m m l l .X2.7 :.oX6 v M m m n ,.7.X gX0.Y B m l v Q P._ > G.&.k 8 V B v 6 F.                                                                                        ",
"%X6 v M B k H H.| ` ` G.v M u u m k 3.b.O tX$.l e i V v 4.V.F ` E.X.z m M g B Q L.* VX4XU B m l l z G.` [ [ P.] l m i m l =.7.X gXx.4 M e e x *.Z.) ) D.;.1 m V M l 6 t.                                                                                        ",
"#X6 v M B l H +X#XL.E.>X/ V B m M c 3.b.o tX$.l e m j d A.:XH.P.Q.5.x M M m B Y L.* BX4XU B m m l P >XW.oXoX$X{ x m i u x =.7.X fXx.b M u t x =.eXA.L.#Xt.b l s M l 3 y.                                                                                        ",
"W.5 n m V l b oX*.] ' #XW 9 C w m c 3.S.o uXL x N N B c C.C.$.c k.:.e i m l n $.L.* BX4X5 m i i m k Y.X.Y *.W.S l M i u z &.7.X fXx.E g m u m -.D.X.| 7.F.6 k l M l 3 y.                                                                                        ",
"W.S b f V m 1 OXQ Y _ J./ ( 8 N m c 3.b.o uXL e t m B ! C.O.v h 8.,.e u m l x 6 L.* BX4X5 m u i g / G.{ E ~ C.{ x m i m z &.4.X fXx.E g M e l -.l.[ 7 :.8.6 k B M l 3 y.                                                                                        ",
"T.G n B m l H XX! ~ U K./ f m m u k 3.v.O tX$.e e C g a F.1.^ d k.&.x u m m k H U.* bX3X5 m m m m n oX[ / W L.` b m m m x =.4.X jXf.W j B l v =.8.6 Q =.8.1 c B M l 3 y.                                                                                        ",
"#X5 v B B n 3 F.Q Y _ K./ V M u i x O.v.O tX$.l y u M B K.O.4 Q 4.>.x e 0 m n L L.* bX3X5 m m l l b oX[ E Y L.{ n m m m l =.4.X fXf.E j m w z =.k.7 4 &.8.1 v m M l 3 y.                                                                                        ",
"$X5 c m B x : H.` '  .A.b m l e u l 3.v.O tX$.l e e f c 5.@.S ] A...z i g g B W K.= BX4XY g B l n 6 U.X.] } Y.G l m m m x =.7.X hX0.Q M e t x =.t._ ] 2.9.z t u B l 6 y.                                                                                        ",
"#X2 n l m l 2 $XR.N.N.:XQ l t t u k 3.v.O tX$.l N N B 4 I.8X:X!.7X+.z M V g h W K.= mX4XY g B l n J !.R.E.E.>X] l g f m b =.7.X fX0.Y m e t x =.Q.I.I.Q.8.z e m B l 6 y.                                                                                        ",
"+X2 x m l n [ 7XqX9X0X7X%.m t t l b O.b.o yX%.m m f h 4 n.qX8X8XrXe.; u m f B ! K.& nX2X5 m l l l Q :X8X8X8XeX{ v g M m b ,.6.. jXo.b m u u l >.kX9X9XiXk.W B B B v 6 y.                                                                                        ",
"+XJ l B m n Y C.I.m.m.C.! m e t l b 3.b.o uX%.v B M V W O.I.n.V.C.| x u l m B b G.& nX2X5 m l l m n e.I.I.I.Z.] v M g m b :.6.. jXo.Q m u u l *.R.N.N.R.<.^ B h B v 6 F.                                                                                        ",
"W.G k V f m f v b 6 Q W B B C x l k 1.V.X uX$.l e 0 g B b Y Q b c v m m l x n b G.& nX=XS m M g M l z b c b Q 1 l m m m z &.4.X jXx.Y s u u 8 B Q Y Y Q x e m u m v 4 F.                                                                                        ",
"R._ 4 n k l B f m v ^ d v c b k l z 1.j.X uX*.z x l B B E 4 ! v ^ v v l z 3 4 $.L.& mX2XD b v v x z 1 c v W 4 6 6 z l n 6 2.4.o hXc.T c c z a v c c c 1 z ; x l v c 6 F.                                                                                        ",
"9Xm.A.h.D.H.9. X X X X|.k.J.D.D.8.8.T.j.X lXoX|..X.X|.|.J.J.K.oXk.K.K.L.L.J.K.J.Q.* mXwXn.A.V.D.C.C.C.C.D.D.C.C.V.Z.e.D.C.T.j.% cX3Xg.z.h.5.h.h.h.4.5.4.V.h.l.l.7.5.e.Y.                                                                                        ",
"                        4.....;.        @             5 , > < < , < > > > - - - > # =XB. .D D D D D D S _ _ S D D D S S S { ] % MX4X#.#.j.T.Q.Z.+...X.{ ' S.                                                                                                    ",
"                _..XOX&X(.^./.'.'.^.^.].@X].(.`.].`.`.].].].).).).[.].].`.`.(.(.^.a.p.;Xa.d.].a.a.a.(.(.(.(.u.u.a.]././.^.u.Y.p.Y.p.s.]./.).&X].a.`.`.`.+X>XdX                                                                                                  ",
"                                                                                                                                                                                                                                                                ",
"                                                                                                                                                                                                                                                                ",
"                                                                                                                                                                                                                                                                ",
"                                                                                                                                                                                                                                                                ",
"                                                                                                                                                                                                                                                                "
};
