/* XPM */
static char *_d9871c9394149e5f8c1671fe33b4f31B4AotFL6AYKHwJTN[] = {
/* columns rows colors chars-per-pixel */
"128 32 239 2 ",
"   c None",
".  c #010303",
"X  c #000B03",
"o  c #000D0F",
"O  c #00170D",
"+  c #000D1A",
"@  c #001413",
"#  c #001916",
"$  c #00151C",
"%  c #00191C",
"&  c #000A26",
"*  c #001322",
"=  c #001C27",
"-  c #002D26",
";  c #002B2A",
":  c #00242A",
">  c #083937",
",  c #1D3535",
"<  c #1C3B35",
"1  c #1D363B",
"2  c #143D3D",
"3  c #1C3B3C",
"4  c #153936",
"5  c #173130",
"6  c #2B2C2D",
"7  c #332E2D",
"8  c #3C2E2D",
"9  c #25342C",
"0  c #2D342C",
"q  c #283A2F",
"w  c #33332D",
"e  c #39302C",
"r  c #33382D",
"t  c #373428",
"y  c #2E2E32",
"u  c #272F38",
"i  c #342E35",
"p  c #382E33",
"a  c #322F39",
"s  c #3A2D3B",
"d  c #243434",
"f  c #2C3534",
"g  c #243A35",
"h  c #2B3934",
"j  c #24353C",
"k  c #2B353B",
"l  c #233A3B",
"z  c #2A3A3B",
"x  c #333334",
"c  c #3A3334",
"v  c #333B34",
"b  c #343439",
"n  c #3A333A",
"m  c #33393B",
"M  c #383830",
"N  c #412D36",
"B  c #0C433D",
"V  c #00463B",
"C  c #14423C",
"Z  c #1B413C",
"A  c #164236",
"S  c #22423D",
"D  c #2B423B",
"F  c #073A46",
"G  c #153D43",
"H  c #1B3C43",
"J  c #153C4C",
"K  c #2D2D40",
"L  c #312E42",
"P  c #243642",
"I  c #2C3442",
"U  c #233B42",
"Y  c #2A3C43",
"T  c #243D48",
"R  c #313345",
"E  c #333B44",
"W  c #024645",
"Q  c #0C4544",
"!  c #024B43",
"~  c #02464B",
"^  c #074949",
"/  c #144342",
"(  c #1B4244",
")  c #154943",
"_  c #1A4449",
"`  c #144E4B",
"'  c #1B4C4A",
"]  c #1A4946",
"[  c #0A5246",
"{  c #16524A",
"}  c #074A55",
"|  c #164955",
" . c #0A5857",
".. c #1C5555",
"X. c #195955",
"o. c #244343",
"O. c #294245",
"+. c #25444A",
"@. c #2C4D4B",
"#. c #234947",
"$. c #324D4C",
"%. c #334746",
"&. c #27514C",
"*. c #32594D",
"=. c #274D54",
"-. c #324E51",
";. c #2C5251",
":. c #2C5C55",
">. c #235459",
",. c #235C5C",
"<. c #2B5C5C",
"1. c #265357",
"2. c #365E56",
"3. c #34565A",
"4. c #325A5B",
"5. c #395753",
"6. c #066259",
"7. c #1A635D",
"8. c #2C625E",
"9. c #27655B",
"0. c #3D6E53",
"q. c #3B635B",
"w. c #376859",
"e. c #2B7359",
"r. c #3E7455",
"t. c #3E735B",
"y. c #347158",
"u. c #39714C",
"i. c #0D5B65",
"p. c #165469",
"a. c #2B5663",
"s. c #245C63",
"d. c #2C5D62",
"f. c #2F5E6A",
"g. c #365A68",
"h. c #3A5C7B",
"j. c #345D77",
"k. c #2C5F72",
"l. c #086568",
"z. c #1B6465",
"x. c #1C636A",
"c. c #19696A",
"v. c #19716C",
"b. c #147573",
"n. c #256363",
"m. c #2B6363",
"M. c #226964",
"N. c #28676B",
"B. c #336364",
"V. c #3A6564",
"C. c #336C65",
"Z. c #3C6B64",
"A. c #32646A",
"S. c #336B6B",
"D. c #3B6C6B",
"F. c #3A636C",
"G. c #27766C",
"H. c #377669",
"J. c #2C6D74",
"K. c #2A6977",
"L. c #396776",
"P. c #277874",
"I. c #3C7474",
"U. c #347B74",
"Y. c #3C7C74",
"T. c #377879",
"R. c #425E5B",
"E. c #525D4D",
"W. c #426D53",
"Q. c #4B6D54",
"!. c #4B6C5C",
"~. c #446758",
"^. c #447253",
"/. c #43725B",
"(. c #4A735C",
"). c #4A7556",
"_. c #497152",
"`. c #415B76",
"'. c #436A64",
"]. c #436D6C",
"[. c #466966",
"{. c #43726C",
"}. c #467366",
"|. c #527267",
" X c #456A72",
".X c #437473",
"XX c #477A78",
"oX c #546B61",
"OX c #12807A",
"+X c #23836F",
"@X c #2B8775",
"#X c #3A847C",
"$X c #3A8068",
"%X c #468379",
"&X c #6EA279",
"*X c #2B5D87",
"=X c #375C82",
"-X c #037E8E",
";X c #287685",
":X c #397181",
">X c #467883",
",X c #597787",
"<X c #0B878C",
"1X c #058B88",
"2X c #10858F",
"3X c #009086",
"4X c #198D90",
"5X c #3C8986",
"6X c #39968A",
"7X c #389995",
"8X c #289892",
"9X c #26A099",
"0X c #3AA29B",
"qX c #339DA5",
"wX c #2EA0A0",
"eX c #488885",
"rX c #558684",
"tX c #5C8D9A",
"yX c #499899",
"uX c #549295",
"iX c #57939A",
"pX c #57928E",
"aX c #4DB6AB",
"sX c #50B4AE",
"dX c #4BB6B7",
"fX c #53B5B4",
"gX c #41A1A0",
"hX c #4B95A0",
"jX c #54C8BC",
"kX c #4BC6C8",
"lX c #56C6C3",
"zX c #4ADEDC",
"xX c #46DFDB",
"cX c #52DADD",
"vX c #4ACBCD",
"bX c #45E3D8",
"nX c #77E1DD",
"mX c #53D9E2",
"MX c #6FCACD",
/* pixels */
"                                                                                                                                                                                                                                                                ",
"                                                                                                                                                                                                                                                                ",
"                                                                                                                                                                                                                                                                ",
"                                                                                                                                                                                                                                                                ",
"                                                                                                                                                                                                                                                                ",
"                                                          &X^.).Q.Q._.^.^.^././.(.y.@XG.0.Q.^.W.^.^.^.Q.Q.Q.Q.Q.).W.W.(.W.W.(.t.$Xe./.^.u.r.r.^.                                                                                                                ",
"                                                      oX!.*.~.2.R.R.2.q.q.q.B.A.eX6.vX9XS.].[.'.'.'.[.[.'.'.[.[.V.{.'.Z.C.%XH.# fX6XY..XH.Y.{.XXXX.X.X{.}.XXrX%X%X%XU.6X6.jX6X#XU.%X%XXXXXXXY.#X%X%XeX5XU.Y.rX                                                  ",
"U.Q G H 2 H 1 U G G G G G 2 2 2 3 > 7.c.# iX/ Z < l b f l 3 4 3 l j l l l l H J J.- bX3XW U , l 3 3 3 3 G G 3 3 U 3 4 ( 2 >.n.# dXl.Q H C / G H H G G ] 2 ( G 2 / Q ~ b.! kXv.W / ( 3 1 H ( Q Q / 2 2 / ( H 3 ( M.                                              ",
"Y.C l k k k m k l o.4 Y j z h h k l >.z.# uX( g h f x b l 4 #.3 l f x x x b j +.S.- bX3XB k x x b h z l l 3 l d h f f h l &.:.@ aX6.H k d z k k j l l < l d m b b j G J.! jXM.2 d k b b I j Z 2 3 Y z h k k b , n. .                                            ",
"H.A h x x x x f 5.'.~.< f x f x x k >.x.# uXO.h f x n a d ;.q.'.o.d 0 t c c a Y S.- bX3XB x w w x f g 5.[.2.l g f x x x h @.:.O aX .l n x x x f Y R.~.@.9 f n 7 c x U S.V jXm.< h x i n f z 5.'.@., 9 x x n i d n.} *                                           ",
"H.A h x v f d O.q.&.Z.@.h x w w x j ..z.$ uXO.h 0 w n n o.Z.#.;.V.#.q 0 w w b O.S.- bX3XB x w w f h S Z.] Z.&.< f w w x h @.:.O sX .l x x x x z :.8.:.w.S h x x x h H J.! jXm.< h h f h , -.5.;..X#.g x y x 7 h n. .& >X                                        ",
"H.Z h x b f g 2.:.> X.Z.z n x w c h >.z.$ uXo.f v w p f #.B.4 Z C.) < q w x k l D.; zX1X2 x f f f l Z.X.> &.C.A f x p x h $.:.@ sX .3 n x x f o.C.! V w.*.g 6 x x d H J.! jXm., 9 h f z Z Z.;.> m.>.l v x b 8 d n.i.& ,X                                        ",
".XH k a b d 3 ].' Q ^ B.u n y x c f 1.x.% uXo.f 0 w c z 8.9.B / J.` < h x x m j D.; mX<XG b f f k 1 S.Q _ _ C.) k x p x k -.4.@ fXl.H b b x k @.M.W W m.:.3 j m x d G K.~ lXm.3 z f f Y 2 B.] 2 ..A.j f b n c f d.| & ,X                                        ",
".X3 k a b d Z .XXXI.S.rXE n m 0 x h 1.x.% uXo.f 0 M i d C.U.D.].:X,.g 0 x y m Y D.; mX2XG b x k k Y XXY. X XY.) k x p x k -.3.@ fXl.H a b x z ;.eXG.S.D.B.3 k f x h G K.~ lXm.3 f f f z ' XXZ.D.S.XXj y b y c z d.} + ,X                                        ",
".X2 z x x h Z {.&.G ` .Xk 6 v 9 q g >.x.$ iXO.f w w x d m.n.O.j f.=.f e c x m l S.; mX2X2 x x x n j I.` T +.I.B h x x x l @.4.@ sXl.3 i n w k -.B.' +.3.2.< f x w f G J.W lXB.d x v x u ( {.@.#.X.S.j n m x w d 8.` o |.                                        ",
".X4 k x x h A Z.H H B V.E n 9 h q < ..x.$ tXY f w w c k 8...j I g.1.f e c 7 x l C.- cX<X2 x x x i %.Z./ P Y 8.{ h w w 0 g $.4.@ aXl.j p c w h -.4.( 1 $.2.3 f c w f H J.W lXB.d 0 w x d #.V., S ' B.z x 0 r x d <.{ X !.                                        ",
"I.4 m 7 w h A Z.H H Q V.E a f x w g X.x.* tXY f 9 v x u B...z u f.=.f w M w 0 z C.- zX<XG x b b n z ].H R I C.C h x w w f $.4.@ fX .P s n f z $.4.H l 5.2.< f b w f H J.~ lXm.g 0 v x d ' V.j j _ ].d x r 0 h 3 <.' X !.                                        ",
"I.2 m x M h A D.H G Q C.E n x x w d X.c.* tXO.h 9 0 x k C.{ 3 j s.>.z w 7 w x h C.- zX<XG n b k k l Z.( j j S.) h w w w f $.4.@ fX .j s x f z -.g.G 1 $.2.< h x w f H J.W lXm.< 9 x x j _ V.j P _  Xd w r 0 z 1 d.' X Q.                                        ",
"Y.G l x n f 1 ]._ Q ! C.h e w 0 w d ..c.$ iXO.h h f a j n.X./ / N.X.h t w x n h Z.- zX<XG x f h h < C.{ G _ S.B z x x f l @.<.@ aX6.l w 0 q h -.B.G H ;.2.< h 9 0 d H J.W lXm.< f w b k ( D.l 3 | S.l w w w b j m.` X Q.                                        ",
"XX2 l f b f U XXT.P.P.%Xz w w r w d ..z.$ uXO.f w x a j N.5XT.T.5XX.g x x x n z D.; zX<X3 c x f g 2 U.P.J.J.#XB z x x f l ;.<.@ aX6.l w 0 q z -.>Xc.J.I.V., h 0 h h H J.~ lXm.d x x b l _ %X8.m.P.J.l 7 w x n j d.` X oX                                        ",
".X3 h x x f +.>X0XwX8X6X+.x x x x j >.z.# pXD w t t x j N.yX7X7XyXs.d n b k I T S.; xX1X3 8 t w k ( #X7X7X7X5X` k x x x g @.3.@ fXi.U x x x k =.gX9X9X7XF.z k x h l H J.~ lXB.k x i f 3 [ 6X6X6X0XT.3 y x n L K d.' . E.                                        ",
"{.3 h x w 9 l d.P.b.b.M.U a n x x j >.n.# pXD w e e c k ..c.c.c.N.+.k n b k I T L.; xX1X2 8 e i a U n.P.v.G.N./ k x p x g $.3.o fXi.P a x x f +.P.b.OXP.=.k b x f l H J.W lXm.j x c x 1 Q G.+X+X@Xn.l x x x s I d.' .                                           ",
"{.< h w 0 0 y z < 4 S g x x n b b j 1.s.$ uXO.f c 8 N n z 3 Z l j a i c x f k U F.; zX1XG b s p i x z U j j l d f x p x g ;.4.@ fXi.P i 0 r 7 x l 2 C S h 7 w 0 0 d 3 S.V jXn.< 9 M x x l S S Z Z g r M t 0 f l 9.' .                                           ",
"U.B < g g l k j P j Y d k j j j l 3 >.x.* hX| P I a L K I j l j I R k f k j j T F.: cX1XQ P I L k k k I L R P U l l h k 3 ;.<.$ dXl.J j g q 9 f d d < , g 9 g 9 g 1 G J.! jXM.2 < h f k I 5 j j j d h 9 9 g l 2 7.' .                                           ",
"7Xv.n.S.N.N.:X*X*X*X*Xj.K.N.A.B.B.,.T.l.= dX;XK.L.L.=X=X=X=X=Xh.h.h.L.F.F.g.F.F.>X* kXwXK.L.g.`.j.j.h.h.h.j.k.A.N.n.B.B.A..X>.* vX-Xx.f.s.m.<.m.m.8.8.9.9.8.d.d.d.f.k.;X~ kX;Xs.d.4.3.a.a.a.a.a.g.g.d.,.,.,.n.z.P.{ .                                           ",
"                      p.} } ~ W B 9.X.> % MXF }                                       l.% $ + = > > F F F F Q ^ ^ [ ` ) / ] > $ lX4Xc.s.>.,...` ` ` [ [ [ [ ` ` >.I.I.  ; nX  Y.  .XD.B.m.m.m.A.a.a...X.X.X. . . .- .                                           ",
"                              I.w.(././.t.t.}.}.{..XI.                5X.X].Z.q.~.~.w.C./.(.|.~.0.r././././.t.r.0.0.Q.Q.W./.t.y.H.e./.!.~.!.!.}./.t.r.^.r.t.t.t./.0./.w.H.e.y././.^.^.Q.^.^.^./.!.!./.t.r.t.t.t.t./.Q.                                          ",
"                                                                                                                                                                                                                                                                ",
"                                                                                                                                                                                                                                                                ",
"                                                                                                                                                                                                                                                                ",
"                                                                                                                                                                                                                                                                ",
"                                                                                                                                                                                                                                                                "
};
