/* XPM */
static char *key11742571267[] = {
/* columns rows colors chars-per-pixel */
"10 27 104 2 ",
"   c #3B281C",
".  c #402B1E",
"X  c #402C1E",
"o  c #412C1F",
"O  c #473121",
"+  c #493223",
"@  c #4A3323",
"#  c #4B3323",
"$  c #4D3525",
"%  c #4E3524",
"&  c #503727",
"*  c #523827",
"=  c #533928",
"-  c #543A28",
";  c #573C29",
":  c #5B3E2A",
">  c #5A3E2B",
",  c #5C3F2B",
"<  c #5B3F2C",
"1  c #5C3F2C",
"2  c #5F412D",
"3  c #61432E",
"4  c #62432E",
"5  c #8A4115",
"6  c #8F4315",
"7  c #964615",
"8  c #9E4B13",
"9  c #A04A15",
"0  c #A84A12",
"q  c #A94A12",
"w  c #AA4C12",
"e  c #AB4D12",
"r  c #A94E12",
"t  c #AB4F12",
"y  c #AD5412",
"u  c #AE5115",
"i  c #AD5416",
"p  c #B45112",
"a  c #BE5912",
"s  c #C15C12",
"d  c #C25D12",
"f  c #C25D13",
"g  c #C66614",
"h  c #CA6412",
"j  c #CB6513",
"k  c #C86713",
"l  c #CD6B1A",
"z  c #D17B16",
"x  c #D17E1C",
"c  c #D37721",
"v  c #E58616",
"b  c #EC8B17",
"n  c #EE9017",
"m  c #F39317",
"M  c #F3941E",
"N  c #F9981B",
"B  c #F9991C",
"V  c #F8991F",
"C  c #E18927",
"Z  c #E48A24",
"A  c #E58B25",
"S  c #E98B20",
"D  c #EC8E20",
"F  c #E68D28",
"G  c #EF9120",
"H  c #EF9222",
"J  c #E5902E",
"K  c #EE952A",
"L  c #ED982F",
"P  c #EE992F",
"I  c #F79A22",
"U  c #F59C29",
"Y  c #E69230",
"T  c #EB9A37",
"R  c #EC9B35",
"E  c #EF9E3B",
"W  c #EE9F3D",
"Q  c #F39E30",
"!  c #F4A238",
"~  c #FBAE40",
"^  c #F5AB4C",
"/  c #F4AF54",
"(  c #FAB551",
")  c #F6B661",
"_  c #F9BC62",
"`  c #FABC62",
"'  c #FABD64",
"]  c #F7BF72",
"[  c #FBC676",
"{  c #F4C17B",
"}  c #F6C37C",
"|  c #F6C47C",
" . c #F9C97F",
".. c #FCC97C",
"X. c #FACB82",
"o. c #FACD87",
"O. c #F8CE8F",
"+. c #F9D59F",
"@. c #F9D6A0",
"#. c #F9D9A4",
"$. c #FDDAA5",
"%. c #FCDCA8",
"&. c #FADFB2",
"*. c None",
/* pixels */
"*.@.| / / F F F *.*.",
"@.@./ | / / F F 9 *.",
"@.@./ 4 $ 1 F F 7 *.",
"| | 4 *   = < F 5 *.",
"@.@.O     o O F 5 *.",
"} @.4 * o - 2 F 7 *.",
"@.| | > # 4 D F 9 *.",
"@.&.E D # D D i 7 *.",
"*.#.} F @ D l 9 *.*.",
"*.*.] Y $ D u *.*.*.",
"*.*.@.Y L n w *.*.*.",
"*.*.O.Y T C t *.*.*.",
"*.*.X.W 4 C t *.*.*.",
"*.*.#.T > C t *.*.*.",
"*.*.X.K = C t *.*.*.",
"*.*.' ^ L C y *.*.*.",
"*.*.' ] R F w *.*.*.",
"*.*.' ] - A w *.*.*.",
"*.*.o.) , C 8 *.*.*.",
"*.*.%.! & G t *.*.*.",
"*.*.$.M L M a h b m ",
"*.*...I ! H f h f *.",
"*.*.[ I = G k h m m ",
"*.*.( I ; N s h n v ",
"*.*.` Q $ U f h f *.",
"*.*.~ N S B f h m m ",
"*.*.x z c g p *.*.*."
};
