/* XPM */
static char *key41742571267[] = {
/* columns rows colors chars-per-pixel */
"10 27 114 2 ",
"   c #3B281C",
".  c #402B1E",
"X  c #402C1E",
"o  c #412C1F",
"O  c #473121",
"+  c #493223",
"@  c #4A3323",
"#  c #4B3323",
"$  c #4E3524",
"%  c #523827",
"&  c #5B3E2A",
"*  c #5A3E2B",
"=  c #5B3F2C",
"-  c #5C3F2C",
";  c #5F412D",
":  c #61432E",
">  c #62432E",
",  c #5B7568",
"<  c #8A4115",
"1  c #8F4315",
"2  c #964615",
"3  c #A04A15",
"4  c #AA4C12",
"5  c #AB4D12",
"6  c #AB4F12",
"7  c #A84D16",
"8  c #AD5513",
"9  c #AE5115",
"0  c #AD5416",
"q  c #A6511B",
"w  c #A6571E",
"e  c #B45112",
"r  c #BC5E18",
"t  c #BE621B",
"y  c #9B5621",
"u  c #BC6620",
"i  c #C25D13",
"p  c #C15F15",
"a  c #C56716",
"s  c #CA6412",
"d  c #CA6513",
"f  c #CB6513",
"g  c #C06118",
"h  c #C36F1F",
"j  c #CD6B1A",
"k  c #D07C18",
"l  c #D17E1C",
"z  c #D27924",
"x  c #E58616",
"c  c #EC8B17",
"v  c #EE9017",
"b  c #F39317",
"n  c #DF8B2B",
"m  c #DE9533",
"M  c #DE9537",
"N  c #D7993E",
"B  c #DF9F3C",
"V  c #E18927",
"C  c #EC8E20",
"Z  c #E18928",
"A  c #E68D28",
"S  c #E5902E",
"D  c #ED952B",
"F  c #ED982F",
"G  c #F19E27",
"H  c #F19F28",
"J  c #E69230",
"K  c #E29C36",
"L  c #E29D37",
"P  c #E69E34",
"I  c #EC9931",
"U  c #EB9A37",
"Y  c #EC9B35",
"T  c #E99D36",
"R  c #EF9E3B",
"E  c #EE9F3D",
"W  c #DFA03D",
"Q  c #EAA437",
"!  c #E6A63A",
"~  c #E5A73D",
"^  c #E6A73D",
"/  c #F4A238",
"(  c #D49A42",
")  c #E5A842",
"_  c #E3A948",
"`  c #F9AF42",
"'  c #F2AD4F",
"]  c #E3AE51",
"[  c #F4AF54",
"{  c #F2B95B",
"}  c #F7BD64",
"|  c #F9BC63",
" . c #F5BF68",
".. c #F5C06A",
"X. c #E3C076",
"o. c #EDC47C",
"O. c #F4C17B",
"+. c #F6C37C",
"@. c #F6C47C",
"#. c #F4C97D",
"$. c #F9C97F",
"%. c #6EFFFD",
"&. c #E7C782",
"*. c #F8CA80",
"=. c #FACB82",
"-. c #F8CE8F",
";. c #F2D08E",
":. c #F9D59F",
">. c #F9D6A0",
",. c #F9D9A4",
"<. c #F9DBA7",
"1. c #F5DEAC",
"2. c #FADFB2",
"3. c None",
/* pixels */
"3.>.@.[ [ A A A 3.3.",
">.>.[ @.[ [ A A 3 3.",
">.>.[ > $ ; A A 1 3.",
"@.@.> %   % = A 1 3.",
">.>.O     o O A < 3.",
"+.>.> % o % ; A 2 3.",
">.@.@.* $ : C A 3 3.",
">.2.R C # C C 0 2 3.",
"3.>.+.A @ C j 3 3.3.",
"3.3.O.J $ C 9 3.3.3.",
"3.3.:.J F C 4 3.3.3.",
"3.3.-.S Y V 6 3.3.3.",
"3.3.$.E > V 6 3.3.3.",
"3.3.,.U * V 6 3.3.3.",
"3.3.=.D , V 6 3.3.3.",
"3.3.| ' I n 0 3.3.3.",
"3.3.} o.Y M 7 3.3.3.",
"3.3...&.%.N q 3.3.3.",
"3.3.;.X.%.( y 3.3.3.",
"3.3.1.] %.B w 3.3.3.",
"3.3.<.P T L r s c b ",
"3.3.*.Q / L g f i 3.",
"3.3.#.~ %.W h f b b ",
"3.3.{ ~ %.~ t f v x ",
"3.3. ._ %.) t s i 3.",
"3.3.` H m H p f b b ",
"3.3.l k z a e 3.3.3."
};
