/* XPM */
static char *key51742571267[] = {
/* columns rows colors chars-per-pixel */
"10 27 117 2 ",
"   c #3B281C",
".  c #402B1E",
"X  c #402C1E",
"o  c #412C1F",
"O  c #473121",
"+  c #493223",
"@  c #4A3323",
"#  c #4B3323",
"$  c #4E3524",
"%  c #523827",
"&  c #5A3E2B",
"*  c #5B3F2C",
"=  c #5C3F2C",
"-  c #61432E",
";  c #62432E",
":  c #8A4115",
">  c #8F4315",
",  c #964615",
"<  c #A04A15",
"1  c #AA4C12",
"2  c #AA4F15",
"3  c #A74F18",
"4  c #AE5115",
"5  c #AD5416",
"6  c #A5531E",
"7  c #A6571E",
"8  c #A9561B",
"9  c #AB5918",
"0  c #A8581E",
"q  c #B45112",
"w  c #BC5E18",
"e  c #BE621B",
"r  c #9B5621",
"t  c #A75920",
"y  c #BC6620",
"u  c #C25D13",
"i  c #C15F15",
"p  c #C56716",
"a  c #CA6412",
"s  c #CA6513",
"d  c #CB6513",
"f  c #C06118",
"g  c #C36F1F",
"h  c #CD6B1A",
"j  c #D07C18",
"k  c #D17E1C",
"l  c #D27924",
"z  c #E58616",
"x  c #EC8B17",
"c  c #EE9017",
"v  c #F39317",
"b  c #DB8F33",
"n  c #DE9533",
"m  c #D6953C",
"M  c #DE9639",
"N  c #DA983D",
"B  c #DF9F3C",
"V  c #EB8F22",
"C  c #EC8E20",
"Z  c #E68D28",
"A  c #F19E27",
"S  c #F19F28",
"D  c #E69230",
"F  c #E59332",
"G  c #E29C36",
"H  c #E29D37",
"J  c #E69E34",
"K  c #ED9930",
"L  c #EC9B35",
"P  c #E99C36",
"I  c #E99D36",
"U  c #EF9E3B",
"Y  c #DFA03D",
"T  c #EAA437",
"R  c #E6A63A",
"E  c #E5A73D",
"W  c #E6A73D",
"Q  c #F4A238",
"!  c #D39740",
"~  c #D39842",
"^  c #D39B43",
"/  c #D69A40",
"(  c #D19944",
")  c #DEA244",
"_  c #DAA852",
"`  c #DFAA54",
"'  c #E5A842",
"]  c #E3A948",
"[  c #F9AF42",
"{  c #E3AE51",
"}  c #F4AF54",
"|  c #E8B35D",
" . c #F2B95B",
".. c #F5BE66",
"X. c #F6BE66",
"o. c #F5BF68",
"O. c #F3C06C",
"+. c #E2C178",
"@. c #F4C17B",
"#. c #F6C37C",
"$. c #F6C47C",
"%. c #F4C97D",
"&. c #6EFFFD",
"*. c #E6C783",
"=. c #EAC580",
"-. c #F4CB84",
";. c #F8CA80",
":. c #F3CE88",
">. c #F2D08E",
",. c #F6CF90",
"<. c #F9D59F",
"1. c #F9D6A0",
"2. c #F9DBA7",
"3. c #F1DBA9",
"4. c #F5DEAC",
"5. c #FADFB2",
"6. c None",
/* pixels */
"6.1.$.} } Z Z Z 6.6.",
"1.1.} $.} } Z Z < 6.",
"1.1.} ; + = Z Z , 6.",
"$.$.; % o % = Z : 6.",
"1.1.O     o + Z : 6.",
"#.1.; % o % * Z , 6.",
"1.$.$.& $ - C Z < 6.",
"1.5.U C # C C 5 , 6.",
"6.2.#.Z + C h < 6.6.",
"6.6.o.D $ C 4 6.6.6.",
"6.6.<.F K V 1 6.6.6.",
"6.6.,.M L n 2 6.6.6.",
"6.6.:.{ &.! 8 6.6.6.",
"6.6.3._ &.( t 6.6.6.",
"6.6.:.^ &.~ 0 6.6.6.",
"6.6.o.| P m 9 6.6.6.",
"6.6...=.L N 3 6.6.6.",
"6.6.O.*.&./ 6 6.6.6.",
"6.6.,.+.&.( r 6.6.6.",
"6.6.5.{ &.B 7 6.6.6.",
"6.6.2.J P H w a x v ",
"6.6.%.T Q H f d u 6.",
"6.6.%.W &.E g a v v ",
"6.6.| E &.R y d c z ",
"6.6.O.] &.' e a u 6.",
"6.6.[ A F S f a v v ",
"6.6.k j l d q 6.6.6."
};
