/* XPM */
static char *key61742571267[] = {
/* columns rows colors chars-per-pixel */
"10 27 126 2 ",
"   c #413124",
".  c #4B3323",
"X  c #483727",
"o  c #4A3829",
"O  c #523B2A",
"+  c #5C3F2C",
"@  c #443D31",
"#  c #443E31",
"$  c #5C402D",
"%  c #5C4D3B",
"&  c #62432E",
"*  c #62442F",
"=  c #62503D",
"-  c #444F45",
";  c #586355",
":  c #5F7061",
">  c #647363",
",  c #8A4115",
"<  c #8F4315",
"1  c #964615",
"2  c #A04A15",
"3  c #A04B17",
"4  c #A74F18",
"5  c #A5531E",
"6  c #A6571E",
"7  c #A95218",
"8  c #A85219",
"9  c #AC5619",
"0  c #AB5918",
"q  c #A8581E",
"w  c #B45112",
"e  c #BC5E18",
"r  c #BE621B",
"t  c #9B5621",
"y  c #A75920",
"u  c #AA5B22",
"i  c #BC6620",
"p  c #C25D13",
"a  c #C15F15",
"s  c #C56716",
"d  c #CA6412",
"f  c #CA6513",
"g  c #CB6513",
"h  c #C06118",
"j  c #C36F1F",
"k  c #D07C18",
"l  c #D17E1C",
"z  c #C5782E",
"x  c #D27924",
"c  c #E58616",
"v  c #EC8B17",
"b  c #EE9017",
"n  c #F39317",
"m  c #DE9533",
"M  c #D6953C",
"N  c #DA983D",
"B  c #DB9E3E",
"V  c #DF9F3C",
"C  c #E68D28",
"Z  c #E68D29",
"A  c #E58E2B",
"S  c #F19E27",
"D  c #F19F28",
"F  c #E09936",
"G  c #E29C36",
"H  c #E29D37",
"J  c #E69E34",
"K  c #EC9B35",
"L  c #E99C36",
"P  c #E99D36",
"I  c #DFA03D",
"U  c #EAA437",
"Y  c #E6A63A",
"T  c #E5A73D",
"R  c #E6A73D",
"E  c #F4A238",
"W  c #D39842",
"Q  c #D39B43",
"!  c #D69A40",
"~  c #D09A46",
"^  c #D99B42",
"/  c #DA9D44",
"(  c #D6A247",
")  c #DEA244",
"_  c #D3A44B",
"`  c #D1A14E",
"'  c #D6A14C",
"]  c #D9A954",
"[  c #DEAB55",
"{  c #E5A842",
"}  c #E3A948",
"|  c #E2A84E",
" . c #F9AF42",
".. c #E3AE51",
"X. c #F4AF54",
"o. c #E8B35D",
"O. c #F2B95B",
"+. c #F5BE66",
"@. c #F6BE66",
"#. c #F5BF68",
"$. c #F3C06C",
"%. c #E2C178",
"&. c #F6C37C",
"*. c #F6C47C",
"=. c #F4C57E",
"-. c #F4C97D",
";. c #6EFFFD",
":. c #E6C783",
">. c #EAC580",
",. c #EDC482",
"<. c #EAC887",
"1. c #E9CA89",
"2. c #F2CC85",
"3. c #F8CA80",
"4. c #F3CE88",
"5. c #F2D08E",
"6. c #F4CF92",
"7. c #F5D6A2",
"8. c #F8D6A0",
"9. c #F9D6A0",
"0. c #F8D6A1",
"q. c #F9DBA7",
"w. c #F1DBA9",
"e. c #F5DEAC",
"r. c #F8DFB3",
"t. c None",
/* pixels */
"t.9.*.X.X.C C C t.t.",
"9.9.X.*.X.X.C C 2 t.",
"9.9.X.& . $ C C 1 t.",
"*.*.* O   O $ C < t.",
"9.9.X # - # o A , t.",
"&.9.= ; ;.; % A 1 t.",
"9.=.1.: ;.> m A 2 t.",
"9.r.| _ ;._ F 9 1 t.",
"t.9.1.` ;.( z 3 t.t.",
"t.t.,.' ;.B u t.t.t.",
"t.t.7./ L F 7 t.t.t.",
"t.t.6.^ K M 7 t.t.t.",
"t.t.2.[ ;.W q t.t.t.",
"t.t.w.] ;.~ y t.t.t.",
"t.t.4.) ;.W q t.t.t.",
"t.t.@.o.L M 0 t.t.t.",
"t.t.@.>.K N 4 t.t.t.",
"t.t.$.:.;.! 5 t.t.t.",
"t.t.5.%.;.W t t.t.t.",
"t.t.e...;.V 6 t.t.t.",
"t.t.q.J L H e d v n ",
"t.t.-.U E H h d p t.",
"t.t.-.T ;.V z d n n ",
"t.t.O.Y ;.Y r d b c ",
"t.t.$.} ;.{ r d p t.",
"t.t. .S F D p d n n ",
"t.t.l k x s w t.t.t."
};
