/* XPM */
static char *key71742571267[] = {
/* columns rows colors chars-per-pixel */
"10 27 144 2 ",
"   c #627B6D",
".  c #667E6F",
"X  c #657F70",
"o  c #8F4417",
"O  c #8E481B",
"+  c #89481E",
"@  c #964615",
"#  c #954B1B",
"$  c #9F4C18",
"%  c #A04A15",
"&  c #A74F18",
"*  c #A5531E",
"=  c #A6571E",
"-  c #A95218",
";  c #A85219",
":  c #AB5918",
">  c #A8581E",
",  c #AB5B1F",
"<  c #B45112",
"1  c #BC5E18",
"2  c #BE621B",
"3  c #9B5621",
"4  c #A75920",
"5  c #AA5B23",
"6  c #BC6620",
"7  c #C25D13",
"8  c #C15F15",
"9  c #C56716",
"0  c #CA6412",
"q  c #CA6513",
"w  c #CB6513",
"e  c #C06118",
"r  c #C36F1F",
"t  c #D07C18",
"y  c #D17E1C",
"u  c #D27924",
"i  c #C47A30",
"p  c #62877A",
"a  c #66897B",
"s  c #E58616",
"d  c #EC8B17",
"f  c #EE9017",
"g  c #F39317",
"h  c #DE9533",
"j  c #DE9537",
"k  c #D6953C",
"l  c #DD9538",
"z  c #DC973A",
"x  c #DA983D",
"c  c #DB9E3E",
"v  c #DF9F3C",
"b  c #E68D28",
"n  c #E58E2A",
"m  c #E58E2B",
"M  c #E3902E",
"N  c #F19E27",
"B  c #F19F28",
"V  c #E09936",
"C  c #E29C36",
"Z  c #E29D37",
"A  c #E69E34",
"S  c #EC9B35",
"D  c #E99C36",
"F  c #E99D36",
"G  c #DFA03D",
"H  c #EAA437",
"J  c #E6A63A",
"K  c #E5A73D",
"L  c #E6A73D",
"P  c #F4A238",
"I  c #D39842",
"U  c #D39B43",
"Y  c #D69A40",
"T  c #D79B43",
"R  c #D09A46",
"E  c #D69D45",
"W  c #D99B42",
"Q  c #DA9D44",
"!  c #D39F49",
"~  c #DEA244",
"^  c #D2A04B",
"/  c #D3A44B",
"(  c #D6A14C",
")  c #D2A54E",
"_  c #CEA352",
"`  c #CCAB58",
"'  c #D9A954",
"]  c #DEAB55",
"[  c #DDAB56",
"{  c #E5A842",
"}  c #E3A948",
"|  c #F9AF42",
" . c #E3AE51",
".. c #EFB25B",
"X. c #E8B35D",
"o. c #F0B159",
"O. c #F2B95B",
"+. c #DFBC6F",
"@. c #DCBD72",
"#. c #E8B663",
"$. c #E2BA6B",
"%. c #F5BE66",
"&. c #F6BE66",
"*. c #F5BF68",
"=. c #F3C06C",
"-. c #E2C178",
";. c #F5C47D",
":. c #F4C97D",
">. c #648E82",
",. c #679083",
"<. c #639489",
"1. c #609E94",
"2. c #60A097",
"3. c #64B8B0",
"4. c #64B8B1",
"5. c #6EFFFD",
"6. c #DAD097",
"7. c #E6C783",
"8. c #EAC580",
"9. c #ECC583",
"0. c #EAC987",
"q. c #E3CC8E",
"w. c #E9C989",
"e. c #F2C580",
"r. c #F2C680",
"t. c #F2CC85",
"y. c #F8CA80",
"u. c #F3CE88",
"i. c #F2D08E",
"p. c #F4CF92",
"a. c #E3DCAF",
"s. c #E6DCAD",
"d. c #EDDAA8",
"f. c #F7D6A1",
"g. c #F7D7A1",
"h. c #F5D6A2",
"j. c #F9D6A0",
"k. c #F8D6A1",
"l. c #F4D8A4",
"z. c #F9DBA7",
"x. c #F1DBA9",
"c. c #F5DEAC",
"v. c #F6E0B4",
"b. c None",
/* pixels */
"b.j.;.o...M n n b.b.",
"j.g.#.q.+.$.l n % b.",
"g.d.@.. 5.>.^ j o b.",
"e.q.,.3.5.1.  T O b.",
"l.a.5.5.5.5.5.! + b.",
"e.s.. 2.5.4.p E # b.",
"j.w.6.<.5.a ) z $ b.",
"j.v.[ ` 5.` c , @ b.",
"b.g.w._ 5.) i $ b.b.",
"b.b.9.( 5.c 5 b.b.b.",
"b.b.g.Q D V - b.b.b.",
"b.b.p.W S k - b.b.b.",
"b.b.t.[ 5.I = b.b.b.",
"b.b.x.' 5.R = b.b.b.",
"b.b.u.~ 5.I , b.b.b.",
"b.b.&.X.D k : b.b.b.",
"b.b.&.9.S x ; b.b.b.",
"b.b.=.7.5.x * b.b.b.",
"b.b.i.-.5.U 3 b.b.b.",
"b.b.c. .5.v = b.b.b.",
"b.b.z.A F Z 1 0 d g ",
"b.b.y.H P Z e w 7 b.",
"b.b.:.K 5.G r w g g ",
"b.b.O.K 5.K 2 w f s ",
"b.b.*.} 5.{ 2 w 7 b.",
"b.b.| N h B 8 w g g ",
"b.b.y t u 9 < b.b.b."
};
