/* XPM */
static char *_328c171148e47dc995379a90a503c34RZovnxIzJl2lFdK2[] = {
/* columns rows colors chars-per-pixel */
"32 32 90 1 ",
"  c #56B2B7",
". c #57B3B8",
"X c #58B3B8",
"o c #60B7BB",
"O c #64B9BE",
"+ c #69BBBF",
"@ c #66BCC0",
"# c #6CBDC2",
"$ c #73BFC4",
"% c #6FC2C6",
"& c #74C0C4",
"* c #79C2C6",
"= c #75C5CA",
"- c #7EC5C8",
"; c #79C8CC",
": c #7ECBD0",
"> c #83C7CA",
", c #8ACACD",
"< c #82CED2",
"1 c #8CCED2",
"2 c #91CED2",
"3 c #87D1D5",
"4 c #8CD3D7",
"5 c #8DD4D8",
"6 c #94D2D5",
"7 c #9BD1D4",
"8 c #92D7DA",
"9 c #9BD6D9",
"0 c #94D9DD",
"q c #9ADADD",
"w c #A1D5D7",
"e c #A8D7DA",
"r c #A8DADD",
"t c #B2DCDE",
"y c #9CDEE1",
"u c #A2DFE3",
"i c #AEDEE0",
"p c #B7DEE0",
"a c #A1E1E5",
"s c #ADE2E4",
"d c #A9E5E9",
"f c #AEE9ED",
"g c #BFE2E4",
"h c #BAE7E9",
"j c #B4EBEE",
"k c #BEEBEE",
"l c #B7EEF1",
"z c #BAEEF1",
"x c #BCF2F5",
"c c #C3E4E6",
"v c #C8E6E7",
"b c #C3E7E9",
"n c #C3E9EB",
"m c #CCE9EA",
"M c #D9EEEF",
"N c #C5EEF1",
"B c #D0EFF0",
"V c #C4F4F6",
"C c #CAF3F5",
"Z c #CDF6F8",
"A c #D4F2F4",
"S c #DDF2F3",
"D c #D1F7F9",
"F c #D3F6F8",
"G c #D7F7F9",
"H c #D9F7F9",
"J c #DAF7F9",
"K c #D5F8F9",
"L c #DBF9FB",
"P c #DEF9FA",
"I c #E0F1F1",
"U c #E4F3F3",
"Y c #E5F3F4",
"T c #E7F5F6",
"R c #E9F5F6",
"E c #E1F7F8",
"W c #E1F9FB",
"Q c #E5F8FA",
"! c #E7FBFC",
"~ c #EBFAFB",
"^ c #ECFBFB",
"/ c #E9FBFC",
"( c #ECFBFC",
") c #EFFCFD",
"_ c #F2F9F9",
"` c #F5FBFC",
"' c #F3FDFD",
"] c #F6FEFE",
"[ c #FBFFFF",
"{ c #FEFFFF",
/* pixels */
"XXXXXXXXXXXXXXXXXXXXXXXXXXXXXXXX",
"XXXXXXXXXXXXXXXXXXXXXXXXXXXXXXXX",
"XXXXX. X   XXXXXXXXXXXXXXXXXXXXX",
"XXX. owv,>#..XXXXXXXXXXXXXXXXXXX",
"XXX+#1H]D~S*+.XXXXXXXXX  .XXXXXX",
"XX6ASHDPLDPSI>X..XXXX.X##+.XXXXX",
".OBLLVDLWxxG]Smwo.XX.OqCAS> XXXX",
" OCDVV'/'GCZVL{{tXX -MZVW{R>.XXX",
"XX5dxC)LVDW/VC){U+.Xs]CVQW]mXXXX",
"XXXX5azVxxZCVL(]S+.XqVxjVG[mXXXX",
"XXXXXX;0y<fxxxVVN+.XO<<#8zN1XXXX",
"XXXXXX XX %y5=af<XXX.   XOOXXXXX",
"XXX.  XXXX XX XOXXXX.  XX..XXXXX",
"XX.+>-X.XXXXXXX.XX.X#,*X...XXXXX",
"X.Ob'`poX.XXXXXXX.OrS{_t+++.XXXX",
"X.9LL!Qbc+ XXXXXXX6![W'[hAS> XXX",
".OA/LCVD]g#.XXXXX8CVCxCPVG{Y-.XX",
".ONGZZZGW{e XXX #lPPVG/]ZCZ'T& X",
"XX<ffxVW'E> XXXXX8xD!PDLLLP]{, X",
"XXXOO;444=XXXXXXXX<audxxK]{{]> X",
"XXX..      .XXXXXXXXX@8y0jks8oXX",
"XXXXX X+X>e#.XXXXXXXX.XXXOOXX.XX",
"XXXX.$eYnS{gX XXXXXXX.XXX..XXXXX",
"XXXX7T(/ZVZAt,XXXX.2m>XXXXXXXXXX",
"XX.+A]WLGxxZ{`- X #CLCm7X.XXXXXX",
"XXXX8VGH'HVP{{, XXi!PG]^m- XXXXX",
"XXXXX#:<jKxV)`- .+NL]/W'{vXXXXXX",
"XXXXX   @0dxVsXXXX8jD]QGD9XXXXXX",
"XXXXXXXX.X@33@.XXXX#shzx4XXXXXXX",
"XXXXXXXXXX.  .XXXXX XX%=X.XXXXXX",
"XXXXXXXXXXXXXXXXXXXXXX  XXXXXXXX",
"XXXXXXXXXXXXXXXXXXXXXXXXXXXXXXXX"
};
