/* XPM */
static char *_ef33e30ff8b4e3a8766f4024ef29bfdAljfR1Co74noVOCN[] = {
/* columns rows colors chars-per-pixel */
"32 32 69 1 ",
"  c #5C5F9E",
". c #5D609F",
"X c #5E61A1",
"o c #6163A5",
"O c #6466AA",
"+ c #6668AE",
"@ c #6869AF",
"# c #6769B0",
"$ c #6A6CB4",
"% c #6D6FB9",
"& c #6E71BC",
"* c #7072BF",
"= c #477CCE",
"- c #4A7ACE",
"; c #457FD0",
": c #4D7AD1",
"> c #517AD5",
", c #557CDB",
"< c #597EDF",
"1 c #7174C3",
"2 c #7476C9",
"3 c #7579CD",
"4 c #767BD3",
"5 c #787CD4",
"6 c #777DDB",
"7 c #787EDC",
"8 c #5B7FE2",
"9 c #787FE0",
"0 c #3F8ADC",
"q c #4482D4",
"w c #4286D9",
"e c #4189DC",
"r c #7980DF",
"t c #5D80E4",
"y c #5E81E6",
"u c #6082E7",
"i c #6183E9",
"p c #6284EB",
"a c #6384EC",
"s c #6585EE",
"d c #7780E2",
"f c #7981E2",
"g c #7983E7",
"h c #7983E8",
"j c #7984EA",
"k c #7A86EC",
"l c #7B88EF",
"z c #6787F1",
"x c #6987F2",
"c c #6788F1",
"v c #6A89F3",
"b c #6B8AF4",
"n c #6C8BF6",
"m c #6F8DF8",
"M c #7B89F2",
"N c #7C8AF3",
"B c #7C8AF4",
"V c #7D8DF7",
"C c #718EFA",
"Z c #728FFB",
"A c #7C8EF9",
"S c #7390FC",
"D c #7490FC",
"F c #7E90FA",
"G c #7893FF",
"H c #7F93FF",
"J c #7B95FF",
"K c #7D96FF",
"L c #8094FF",
/* pixels */
",xKFd1O Xo%4gAKDi>-=:yDLk4%X+3f7",
";:iGLk4$XXXO16kHKn8:=-<nKV71oo1r",
"eq-<mKV7&oooXO17MLJv<-=:aJKj3+ $",
"eew=>sJHh2+X+OX$3fVLDs,--8CLB7%X",
";wee;-8DLM5%X+$XX%4hAKSi:->vKHg1",
">-qweq-,vKFf1oo%$ o16kHKm8:-yDLl",
"Cy:-qew=:iGLk4$.$1+ +17MLJv<-,nK",
"HKn8-=weq-<mKV7&Xo1*o.$3fVLGs>>p",
"fMLJc,-;ww=>sJHh2O %3%Xo%4hAKDy>",
"$3gALDp>-qwq-8DLM5%.O33# o16kHKn",
" o&4jHKCy:=qq=,vKFf1oX&51O +17ML",
"1o O16kHKn<-;q;:iGLk4$ #45&oX$3f",
"j3$  $27BLJz,-;q-<mKV7*Xo174$Xo%",
"KV6&X o$3gALDp>-;=>sJHh2O $5r2+ ",
"xKHg2+  o&4jFKCy:==:8DLM5%.O3f71",
":yDLM4%XXXO16kHKn<:==,vKFf1oX&7g",
"q-,nKAf1oXoX+29BLJz,-=:iGLk4$ $4",
"0w=:iJKj3@XOoX$3gALDp>--<mKV7*Xo",
"weeq-<CKB6&oO$Xo&4jFKCy:->sJHj2+",
"-qeew=>zKHg2OX$# O16kHKn8--yDLM5",
"y:=qee;-yDLM4$X+&O +29BLJv,-,vKF",
"Jb<-=weq-,nKAf1oo*&XX$3gALDp>:iD",
"VLGs,-;ww=:iJKj3+ $2$ o&4jFKCy:<",
"4gAKDi>-qwq-<CKB7&XO22+ O16kHKn<",
"o&5kHKmy:=qw=>zKHg2O.&41o +29BLJ",
"O +17MLKb<-;q;:yDLM4$ +35%XX$3gA",
"4$  $2fVLGs,-qq-,nKAf1oX173$.o&4",
"V71o o%4gAKDi>-q=:iJKj3+ $572+ O",
"JHj3+  O&5kHKm8:=;-<CKB7&Xo2r7*o",
"8CLN6%X X+17MLKb<:==>xKHg2O %7f5",
"->vKFg1OXXX$2fVLGs,-=:yDKM5$.O3f",
"w=:iDKk4$XOXo&4gFKCu>--,nKAr1oo1"
};
