/* XPM */
static char *e866f78da9d64ad3b93b0d42e7c585dcisE4L5rSxkgydfpo[] = {
/* columns rows colors chars-per-pixel */
"32 32 167 2 ",
"   c #59565F",
".  c #5D585F",
"X  c #615A5F",
"o  c #5E5B62",
"O  c #565476",
"+  c #5D5777",
"@  c #5C5974",
"#  c #56537A",
"$  c #5B557B",
"%  c #635D61",
"&  c #695F61",
"*  c #615D72",
"=  c #645B7C",
"-  c #6C5F7D",
";  c #5E6165",
":  c #5F6268",
">  c #646366",
",  c #6C6363",
"<  c #6E6967",
"1  c #656668",
"2  c #6D676F",
"3  c #67686A",
"4  c #6D6A6A",
"5  c #726563",
"6  c #766965",
"7  c #7C6C65",
"8  c #746E6B",
"9  c #796E69",
"0  c #76716C",
"q  c #7C726B",
"w  c #6C6374",
"e  c #6E617C",
"r  c #706772",
"t  c #716970",
"y  c #7A6D75",
"u  c #73657B",
"i  c #7C6B7B",
"p  c #7E7073",
"a  c #806E65",
"s  c #847267",
"d  c #8A7567",
"f  c #847469",
"g  c #8A7669",
"h  c #857A6E",
"j  c #8C7A6B",
"k  c #937C6B",
"l  c #836D7F",
"z  c #847575",
"x  c #8C7C72",
"c  c #8C747F",
"v  c #8F787E",
"b  c #927F75",
"n  c #96797F",
"m  c #9A7E7E",
"M  c #93816F",
"N  c #9B826C",
"B  c #99886F",
"V  c #968373",
"C  c #9B8572",
"Z  c #9B8871",
"A  c #9D817C",
"S  c #A1866D",
"D  c #A48A6E",
"F  c #AC8E6E",
"G  c #AE916F",
"H  c #B1936F",
"J  c #A18770",
"K  c #A58A73",
"L  c #AB8E73",
"P  c #A1857C",
"I  c #A58A7A",
"U  c #AC8C7C",
"Y  c #B18F7F",
"T  c #A79171",
"R  c #AF9172",
"E  c #B39472",
"W  c #B99774",
"Q  c #B69A74",
"!  c #BB9B74",
"~  c #B4937C",
"^  c #BA977D",
"/  c #BD9A7B",
"(  c #C19F76",
")  c #C29E7B",
"_  c #C6A276",
"`  c #C8A475",
"'  c #C5A279",
"]  c #C6A27B",
"[  c #C9A578",
"{  c #CAA47A",
"}  c #CDA878",
"|  c #D1AB76",
" . c #D6AE79",
".. c #D7B077",
"X. c #D9B277",
"o. c #DAB179",
"O. c #523D9E",
"+. c #4632A3",
"@. c #4B37A0",
"#. c #4A36A3",
"$. c #4F3BA2",
"%. c #523DA0",
"&. c #523DA2",
"*. c #5E4A92",
"=. c #57439A",
"-. c #56419E",
";. c #5B459D",
":. c #5A449E",
">. c #5F499B",
",. c #655881",
"<. c #6D5C83",
"1. c #66518C",
"2. c #6B558B",
"3. c #6C568A",
"4. c #725B8B",
"5. c #614C90",
"6. c #634C9A",
"7. c #654D9B",
"8. c #644C9D",
"9. c #655090",
"0. c #6C5495",
"q. c #6E5494",
"w. c #6F5698",
"e. c #705795",
"r. c #765D91",
"t. c #765C97",
"y. c #7B6483",
"u. c #7E6584",
"i. c #7D6882",
"p. c #78608A",
"a. c #7C6488",
"s. c #7F638E",
"d. c #7C6291",
"f. c #5540A0",
"g. c #836A81",
"h. c #816982",
"j. c #856D82",
"k. c #886E84",
"l. c #81678F",
"z. c #856A8B",
"x. c #8A6E8B",
"c. c #8A6E8E",
"v. c #897180",
"b. c #8E7680",
"n. c #8E718A",
"m. c #907385",
"M. c #927585",
"N. c #977885",
"B. c #9B7D82",
"V. c #9E7E85",
"C. c #90728A",
"Z. c #93758B",
"A. c #95768A",
"S. c #97788A",
"D. c #9A7A89",
"F. c #806496",
"G. c #856A90",
"H. c #8D7090",
"J. c #A38383",
"K. c #A48485",
"L. c #A88684",
"P. c #AD8C80",
"I. c #AD8C83",
"U. c #A88788",
"Y. c #B28F82",
"T. c #B49181",
"R. c #B99682",
/* pixels */
"1 > % % 5 N q 4 > % % 6 S [ ^ ~ Y b.,.+ y I / _ E a & % > 1 0 f ",
"1 1 1 1 % , f j j j k S E ! L z = = i P I.U ) E 7 % o % 1 1 9 6 ",
"1 1 1 1 3 > o % % , 6 q q t w u j.C.c.p.g./ _ N k k N 4 1 > q , ",
"1 3 1 1 1 1 1 1 > < j T E ~ V.s.7.-.5.v.E G g 6 , % s M ; 3 q % ",
"o > > > o % % , a S ! Y H.8.@.%.t.K.! H d , % % % % % j 1 9 6 > ",
"7 6 6 7 7 s j R ' m 3.=.:.q.C.Y./ Q B 0 1 1 1 1 1 1 , h : q , > ",
"0 q 9 6 5 6 S ' m u.x.Z.m.v.i r 8 9 , % % % > 1 1 1 6 9 > 7 o 7 ",
": o o % 6 N [ ) ^ ~ v - $ + y C D N d 7 % % > 1 1 > f > 6 5 > R ",
"f s g k N E E C y + # e m / [ _ R N k J N % 1 1 1 1 7 % s > j / ",
", , , 5 9 9 w w u g.N.L.J.A ' W a % o o V a > 3 > 6 , 6 s 9 L j.",
"> > < j R ! ^ L.n.d.q.1.y.^ E 6 % % > > 0 s > 3 % s & k 9 D n 2.",
", a D W ~ A.w.O.@.%.9.v.) [ N s % % 1 1 8 7 > > 5 7 a N h ( 2.l.",
"R ' A 4.-.@.O.7.G.J.~ E N j g N K 4 1 ; q 6 > > a s R M Z I.-.M.",
"' n 3.r.l.n.J./  ...H s & X o   s M ; 1 h , > , k E ` q R F.:.n ",
"^ ~ T.J.k.y.u w t 0 8 3 1 > > > & h 1 1 f > > a ( [ E w I.-.q.P ",
"^ A u + O @ 2 h j 7 , > 1 1 1 1 , h > , s % , G / ^ b u A.+.c./ ",
"@ # # - c U ! F g , % % > 1 1 1 , f o 7 7 > g ^ k.^ w l d.@.J.X.",
"v.n.V.^ ' ' _ E L N , % > 1 1 > 6 9 . g 5 9 R g.k.P # M.w.=.U ! ",
"n.l.d.4.g./ E a 5 M S % > 1 1 > s , , k 6 D U *.D.i = J.q.2.~ N ",
"%.f.5.g.) ! 7 % % o V 7 > 3 1 % g % g N 0 _ z.>.N.$ i I.2.m [ D ",
"6.4.v.) W 6 X % > 1 0 f o 3 > 5 s 6 R N z ' :.e.v.# I ~ n } S R ",
"/ ! W E R J , o 1 1 4 f o 1 o s j E _ h x U.+.z.l * / ) ' S , % ",
" .F 7 5 , g L 4 1 > 8 f o 1 % k ! ' ( w A d.@.K.i 8 ! ( N 5 % % ",
"h h 5 % %   s k ; 1 q s o 1 5 ( ^ ~ I + B.>.:.' p h S E 5 X % > ",
"1 > 1 1 > > & j 1 > q 7 o 1 k / g.^ y = M.%.r.o.x 0 7 N C % 1 8 ",
"6 > 1 1 1 1 > j 1 o f 7 > f R g.a.I.$ i.n.=.M.` j 1 , , N S k f ",
"% % > 1 1 1 > j > % k 6 4 G I *.n.v.# V.z.1.U N 9 > % % o % > > ",
"5 % 1 1 1 1 , g o , N 7 h | z.f.A.<.= R.u.m ) 7 , 1 > > 1 1 1 3 ",
"S % 1 1 1 > 5 f . g D f x } >.6.N.+ z ) m [ E 5 % 1 1 1 1 1 1 > ",
"C 7 > 3 1 o 7 s 7 E E 8 V I.@.r.m @ I [ [ N N 6 % 1 1 1 1 1 % % ",
"q g o 1 1 o g g E [ E * A z.+.S.P 3 E ! S & j s o 1 3 1 1 % 6 j ",
"4 j % 1 1 % N W / ' V + V.q.$.R.K 8 D K 5 X 6 N X > 1 > % g g 5 "
};
