/* XPM */
static char *e96ced6ef0384fb5d587a2cdc9cb1b0dXQmx5AxWiRKonIj5[] = {
/* columns rows colors chars-per-pixel */
"32 32 106 2 ",
"   c #554B46",
".  c #594E47",
"X  c #564E49",
"o  c #584E48",
"O  c #57524E",
"+  c #5C524C",
"@  c #5E5651",
"#  c #5E5955",
"$  c #5F5C58",
"%  c #60554E",
"&  c #615751",
"*  c #645A54",
"=  c #695D55",
"-  c #645E59",
";  c #695F59",
":  c #6C6057",
">  c #66615D",
",  c #6C635C",
"<  c #72655D",
"1  c #75695F",
"2  c #666360",
"3  c #6C6661",
"4  c #6E6964",
"5  c #6F6B68",
"6  c #716760",
"7  c #746A63",
"8  c #7A6E65",
"9  c #746E69",
"0  c #796F68",
"q  c #7D7166",
"w  c #76716C",
"e  c #7C736C",
"r  c #7B7671",
"t  c #7D7975",
"y  c #81766D",
"u  c #84786E",
"i  c #89796F",
"p  c #817771",
"a  c #847A73",
"s  c #8A7E74",
"d  c #837E79",
"f  c #8A7F78",
"g  c #907E71",
"h  c #8D8076",
"j  c #86817C",
"k  c #8C837B",
"l  c #908275",
"z  c #92857C",
"x  c #9B8779",
"c  c #95897F",
"v  c #988B7E",
"b  c #8B8681",
"n  c #8D8983",
"m  c #918780",
"M  c #938B84",
"N  c #9A8D83",
"B  c #928E89",
"V  c #9E9186",
"C  c #96928B",
"Z  c #9B948B",
"A  c #9C9790",
"S  c #9E9892",
"D  c #A08F85",
"F  c #A39386",
"G  c #A4978A",
"H  c #A0958D",
"J  c #A3988C",
"K  c #A4998D",
"L  c #AF9989",
"P  c #A19A93",
"I  c #A79C92",
"U  c #A19B94",
"Y  c #A09C95",
"T  c #A29C94",
"R  c #A89E93",
"E  c #AB9F92",
"W  c #ABA094",
"Q  c #ACA094",
"!  c #ACA196",
"~  c #A7A199",
"^  c #A9A19A",
"/  c #ABA39A",
"(  c #A9A39C",
")  c #A9A49E",
"_  c #B0A497",
"`  c #B1A69B",
"'  c #B3A89C",
"]  c #B5A99D",
"[  c #B5A99E",
"{  c #ACA7A0",
"}  c #B3A9A0",
"|  c #B7ACA0",
" . c #B9ADA2",
".. c #BBAEA3",
"X. c #BBB0A5",
"o. c #BCB1A4",
"O. c #BFB3A7",
"+. c #C1B4A6",
"@. c #C0B4A8",
"#. c #C4B7A9",
"$. c #C5B9AC",
"%. c #C8BAAC",
"&. c #C9BDAF",
"*. c #CABEB0",
"=. c #CCBFB1",
"-. c #CDC0B2",
/* pixels */
"- d A S j * %   . < < # 2 d 9 , & > a d d j 0 Q O.y ` &.c > t t ",
"- n Z U ( k + s 6 0 s - 4 4 - q 8 * c a z J & a a & N [ v k Q Z ",
"3 A ~ n S Z & w - m O.e C P > 7 y 0 q q O.+.h G V , a s , H *.O.",
"O j Z d e 6 k W e - f * w M 6 + - p < - I N k O._ 7 N N - s  .J ",
"= + w M J ; H &.Z + w s k r - = u q < 6 p p < y h s y q < 6 p < ",
"* 6  .@.-.z ; e 6 b Y ) ) Y 3 V %.J , ~ ) ~ e M ' #.z B } { j % ",
"% 6 X.@.=.Q 7 k 6 B n j n Z - N &.` > Y ~ Y e Z | O.s j Y ~ j + ",
"& o 0 y w , , z < * * @ @ 6 + 7 m e & 4 4 7 @ 7 Z Z p 4 e 4 - , ",
"n s j 3 ; % 1 x 1 * s i < l 7 4 d e 7 V R q 9 B b j , a v 0 k ^ ",
"Y ~ ) 9 w w + , % * h s x s , b Y d 7  .#.a d ~ ) A w V N w C S ",
"2 9 3 O - > - h , & , , 0 7 % 9 r - + 7 0 & 7 n B d 7 c y * r e ",
"1 y : + a e + + * b Z M < z N k a q < 1 < a v q e a 0 q h 7 , & ",
"s D i @ A ~ e 3 > n Y C e O.-.Q k v s N s ` %.h N J v w c z a - ",
"= i ,   n ^ A w > > 4 > k $.*.N s c s s 7 V  .y M V k * a s p + ",
"3 * M ; - j d e C 7 *   w K V a y w c a q 0 q * y s q 0 , 4 j j ",
"9 6  .V , V 0 j ^ B X , 1 8 = e k J , - s V s q k y a O.^ 3 > r ",
"* & I  .6 N s > S C * z F L q = k Q y v s 7 , h J y 0 O.&.Z o - ",
"7 . p ` < + y 7 - 7 + = 8 i < , * - & N G a 4 7 0 % 7 f M q + 7 ",
"e s a , a H  .J < K R v < 9 d > s 0 * < q a S B n 0 Q [ v , 4 > ",
"R @.O., s Q O.K q O.@.$.k B ~ j S B < y X 9 A U j 9 ' @.R w B j ",
"e m c + X 6 c c & e k e & d n w d d & q 0 X 4 j e 7 H [ H O 3 e ",
"M p + * k & O e s - * , * X $ @ - - 7 G a , k J c   ; e 0 < = - ",
"+.@.a 6 } u * n b - < N N > 3 M U j 0 N < e Z Z h * B j , % + 6 ",
"H ' p X M 0 w C b X * s v 7 > d j 9 0 s @ 4 > 9 9 O r n e >   o ",
"6 * & - *   9 C a & 7 < + % * > # @ 1 7 , * + 6 k 0 # 7 > * * q ",
"h + t C m # 3 t > 6 M z < I  .Q , q F z V s y  .%. .> h c 6 6 H ",
"N - d C b # 7 5 @ e M 7 - ^ @.*.p 0 z k k 7 7 W X. ., p k p ; h ",
"> @ 4 9 - > m 3 s [ ` e O f H H 6 y y s s y O 9 d p & > , > * ; ",
"* 9 P Y e & e & * e 6 & O   + w q 0 0 ; , y u * & < x h - , x g ",
". 3 A ^ r 0 Z k - 3 b m b r = [ +.&.J + @ s y e s 7 V N % + 8 1 ",
"O # C C - + e h 6 - B U Z r - W  . .c < X w a 0 7 ; k s , - , 6 ",
"r # n B + 6 c < & 7 - 3 4 -   e W p > w & # * 7 s = q 7 + d Z A "
};
