/* XPM */
static char *b53ccc646bee4dffac4259030e247fadSikLwr9AdC7A8a30[] = {
/* columns rows colors chars-per-pixel */
"32 32 100 2 ",
"   c #D62FD6",
".  c #D92ED6",
"X  c #DD2ED8",
"o  c #D630D7",
"O  c #D735DC",
"+  c #DC33DD",
"@  c #D638DF",
"#  c #E12FDB",
"$  c #E132DE",
"%  c #DC37E1",
"&  c #D63DE4",
"*  c #DD3AE4",
"=  c #DC3EE8",
"-  c #E334E2",
";  c #E933E7",
":  c #E13AE5",
">  c #E939E7",
",  c #EE37E9",
"<  c #E43EEA",
"1  c #EB3DED",
"2  c #F43EF1",
"3  c #BA47E2",
"4  c #B74BE3",
"5  c #BD4AE4",
"6  c #BE50EC",
"7  c #BD52F3",
"8  c #CE46E7",
"9  c #C449E4",
"0  c #CF46E9",
"q  c #C64CED",
"w  c #CC4BED",
"e  c #D342E7",
"r  c #D445EB",
"t  c #DB43EB",
"y  c #D449EE",
"u  c #D948EF",
"i  c #CD4EF2",
"p  c #DF47F1",
"a  c #D44DF2",
"s  c #DB4CF4",
"d  c #D84FF8",
"f  c #C353F4",
"g  c #CC52F5",
"h  c #D451F6",
"j  c #DB52F7",
"k  c #D453F9",
"l  c #DC52FB",
"z  c #E442ED",
"x  c #E941EF",
"c  c #E645F2",
"v  c #EA45F3",
"b  c #E34AF5",
"n  c #E949F5",
"m  c #EC48F5",
"M  c #EE49F6",
"N  c #EF4AF6",
"B  c #E54FFA",
"V  c #E94BF8",
"C  c #E94DF8",
"Z  c #EC4DFB",
"A  c #EC4EFB",
"S  c #F441F3",
"D  c #F345F6",
"F  c #F148F7",
"G  c #F147F8",
"H  c #FA45F8",
"J  c #FB45FB",
"K  c #F24CFA",
"L  c #F64BFE",
"P  c #F34EFC",
"I  c #F84CFB",
"U  c #FC4DFE",
"Y  c #E551F7",
"T  c #E250F8",
"R  c #E353FB",
"E  c #E552FA",
"W  c #E054FA",
"Q  c #E454FD",
"!  c #E456FE",
"~  c #E952FC",
"^  c #EA53FD",
"/  c #EC53FE",
"(  c #EE53FE",
")  c #E856FE",
"_  c #EC56FF",
"`  c #ED56FF",
"'  c #E458FF",
"]  c #EC58FF",
"[  c #ED58FF",
"{  c #F050FB",
"}  c #F151FE",
"|  c #F750FF",
" . c #F753FF",
".. c #F255FF",
"X. c #F357FF",
"o. c #F756FF",
"O. c #FD53FF",
"+. c #F956FF",
"@. c #F55AFF",
"#. c #FF59FF",
/* pixels */
"B C a s * i r <  .c z : N < * c v P : t g & : g t w ! l l [ X.C ",
"_ s a c h y @ l c z v z z + c c > z z ) a + = g N 4 h _ } F x c ",
"( E C a s * g e : o.v z : z n + z < A +.n X t 7 G c 9 Y  .C B c ",
"( _ s s v k y O h b < N c v : * v c S L c . < f f b c p T } V N ",
"A ( ^ ^ a a : h w + {  .< c + c v n - N v   + z g g g a ( ) ( n ",
"n A _ T a N s k O e ' z < 1 < n n < . z ^ +   + $ - , K B B ( A ",
"c A ( _ ( s a t * g y + A S V < C : o - _ C : % O & s h w B _ ( ",
"N N C ( ) y a x h k @ : X.I C - ^ : + + : n ( ^ a g k a c C s _ ",
"N b N ^ } l P j h a + r W o.n + ^ v . o + ; J +.! y & * s a B ! ",
"C c K N ( X.! 0 a t $ q j ! n . c ) v : : z n V < + & k a c s s ",
"A A v b N ! W b g 1 < f j q A +   z A A C c z : x ) h & * h s C ",
"( C N n v )  .s h 2 n f ! 5 a K : + - < v v c x P A * & g t p a ",
"! P Q < } D A ! ) J ( 7 E T 3 h _ ^ C n z + + < z < A j & r a c ",
"X.) C F } > !  ._ O.X.f f ^ T ! o.I 1 $ O : v n z G A : a y = h ",
"a T  .) n < ! K ( X.#.j 7 7 f i l +.K c c n c * : c z } z & a t ",
"q n ^ ! N x ! N K ! #.#.X.T a 8 t z * : z < + < n z N c v s & a ",
"s r k ) N v l C , ( ! U J , $ # + + z P v : c n * : z c P z a e ",
"n q l @.^ D l T N 2  .) ^ n b r y i ' o.c z z % < N < c z } z e ",
"( f E #.! J ( l l ^ P _ i q a j k i t : z N < z v * 1 z v c n s ",
"_ 7 E U ( ( J N Q ! ' ) ( b w h t + O u @.F z z * c z : z v K < ",
"^ 7 j O.J ! ( S > : < D } l ! D < y g i z < K 1 c z * c < z z } ",
"T g f X.O.O.[ ) A N K _ ! _ ( a a k y O & [ K z z : n : < z v v ",
"T d 7 f E X.X.! ! _ K v N } E y a c * a g t < P c c : z c : z c ",
"l ! l f 7 7 q l  .D z n B A } ! ( p k h % & ! v z c z c % c z 1 ",
"k w s _ ( b r n ( ) ^ c x A ^ _ s w b < a g % z  .z z : c < : c ",
"} j 5 6 g k a w h X.N C K v A } ^ ^ n h h % e j z v v c < * n : ",
"+ 1 v t r a s b  .X.! A c b n A _ E w s z a g @ b } z z < n : : ",
"% . . . X # - v T a ( ( C v F V ( ( ! C a s * y a : K N z : : n ",
"( C c z t e a k a r s _ A A v n A ( ) y s c h a @ s ( < c < n : ",
": z K o.j i k k h s } ) ( A n N N A ( ) B a s * i r * } N z : * ",
"  - 2 U X.a 0 & : v s s ^ ( A N c V ( _ s B c k y O a C < N 1 c ",
"z c n A c * + + r k a y ) ) A n v N V ( _ E a s : h y % ( P z c "
};
