/* XPM */
static char *_b971a3e34d34d299ac745d028c96a791S0S1OjqL6vvhE2I[] = {
/* columns rows colors chars-per-pixel */
"32 32 129 2 ",
"   c #658E9B",
".  c #6C929A",
"X  c #749596",
"o  c #799793",
"O  c #7D9C96",
"+  c #71969B",
"@  c #769A9D",
"#  c #7A9B9A",
"$  c #7EA09D",
"%  c #6C96A3",
"&  c #759DA4",
"*  c #789EA1",
"=  c #749FA9",
"-  c #689FB8",
";  c #77A0A7",
":  c #7BA2A5",
">  c #76A3AC",
",  c #7AA5AB",
"<  c #7DA8AD",
"1  c #6FA2B5",
"2  c #6AA2BB",
"3  c #6FA8BE",
"4  c #76A6B2",
"5  c #78A7B2",
"6  c #77A9B5",
"7  c #79A9B5",
"8  c #70A7BB",
"9  c #76ABBB",
"0  c #7AADBB",
"q  c #7AB0BF",
"w  c #75ADC2",
"e  c #7BB2C2",
"r  c #829F96",
"t  c #809F9A",
"y  c #85A297",
"u  c #89A395",
"i  c #84A39A",
"p  c #8AA699",
"a  c #8EA99A",
"s  c #90A793",
"d  c #95AE9B",
"f  c #99AF98",
"g  c #96B09D",
"h  c #9BB49E",
"j  c #9FB89F",
"k  c #A1B99F",
"l  c #83A6A2",
"z  c #86AAA6",
"x  c #8BACA2",
"c  c #82ABAD",
"v  c #9AB6A3",
"b  c #9CB8A3",
"n  c #94B6A9",
"m  c #9BBCAD",
"M  c #82AEB2",
"N  c #87B3B5",
"B  c #84B3B9",
"V  c #88B7BB",
"C  c #8BB9BB",
"Z  c #9ABCB0",
"A  c #A3BBA0",
"S  c #A2BFAA",
"D  c #9BC1B7",
"F  c #9CC5BC",
"G  c #ABC2A4",
"H  c #A7C4AE",
"J  c #ACC7AD",
"K  c #AEC8AC",
"L  c #B1C8A7",
"P  c #B5CCAA",
"I  c #B9CFAB",
"U  c #BBD1AB",
"Y  c #ADCDB5",
"T  c #A0C7BB",
"R  c #A6CABA",
"E  c #B1CDB1",
"W  c #AFD3BE",
"Q  c #B5D2B4",
"!  c #BAD3B3",
"~  c #B4D5BC",
"^  c #BEDCBF",
"/  c #CCDEAF",
"(  c #C1D7B1",
")  c #C5DBB2",
"_  c #C0D9B4",
"`  c #C8DEB2",
"'  c #C9DEB2",
"]  c #CADEB2",
"[  c #C3DFBB",
"{  c #CCE0B1",
"}  c #CCE2B6",
"|  c #CBE4BB",
" . c #D2E4B3",
".. c #D6E5B1",
"X. c #D6EAB7",
"o. c #DAEAB4",
"O. c #D5EAB8",
"+. c #D7EDBA",
"@. c #D6ECBD",
"#. c #D8EEBA",
"$. c #DAEEBA",
"%. c #DDF0BB",
"&. c #DAF0BF",
"*. c #E1F3BA",
"=. c #E0F2BB",
"-. c #E2F4BA",
";. c #E1F5BC",
":. c #E7F9BF",
">. c #E8F9BF",
",. c #80B5C2",
"<. c #85B9C2",
"1. c #8EBEC0",
"2. c #A6CDC0",
"3. c #B4D7C2",
"4. c #BBDBC0",
"5. c #BDDEC1",
"6. c #DCF2C3",
"7. c #E4F6C2",
"8. c #E6F8C1",
"9. c #E8FBC0",
"0. c #EBFDC0",
"q. c #EEFEC3",
"w. c #F2FFC3",
"e. c #F4FFC2",
"r. c #F3FFC4",
"t. c #F8FFC1",
"y. c #FBFFC5",
"u. c #F9FFC6",
"i. c #FCFFC8",
/* pixels */
"< e ,.<.w e _ U G b e e q e e 7 7 e e q e e > > > 4 e e e e e e ",
"0 e ,.6.5.,.C U G B q z i 0 e 0 0 e q = > q 0 > > 0 e 0 0 e e e ",
"e 9 3 2.t.+.Q I G n d s c e e q q e e 5 @ = > > > 7 7 7 0 q 0 0 ",
"V ~ C 2 ~ *.{ U G k f z w 0 : 0 0 , 7 q > & = > > 4 7 0 0 0 q 0 ",
"6 | e.^ T #.' I G j f c l r # 0 0 * @ > > & = > > 4 7 0 0 q q 0 ",
"1 7 8.y.0.#.' I G j d a u y 7 6 7 6 @ @ @ & = > > 4 7 0 0 0 7 6 ",
"E M D r.8.#.' I G j f a u , > * * > > @ & & = > > 4 7 0 0 7 5 0 ",
"..-.&.q.9.#.' I G j f a p y O O # # @ @ & & = > > 4 7 0 0 0 e e ",
"..*.@.q.9.#.' I G j f a u t O O # # @ @ & = = > > 4 7 0 0 0 e e ",
"J : Z r.8.#.' I G j f a u : = @ @ = = @ & & = > > 4 7 0 0 > > 7 ",
"% ; 9.y.0.#.' I G j f a u r = = = = @ @ & & = > > 4 7 0 0 0 = & ",
"& } w.! m #.' I G j f $ # r O & & # @ @ & & = > > 4 7 > , q 0 & ",
"l J l   Q ;.{ U G k g i @ @ # @ @ @ @ @ & = > > > 4 7 , @ & , & ",
"@ + . H y.O.K I G d f s O @ @ @ @ @ @ @ & = & > > > 4 0 > @ @ @ ",
"i # i #.! O a U G i # i u # # # # # # @ @ # @ > > * # , 7 @ # @ ",
"a @ O O X y ) U G j O @ # # # # # # # # # # = > > 4 # O # # # * ",
"d O O y X y ( U G j O # O # # # # # # # O # = > > 4 # O # # O @ ",
"p O p #.! i a U G p O p u O O O O O O @ @ O O > > # O , 0 O O O ",
"r O o G y.+.I I G g f a u r y y y y u O & = * > > , 7 0 : r y r ",
"d I g o U ;.} U G A f p u u r u i O i u $ = = > > 4 6 < u i c i ",
"p  .r.) G #.' I G j f a p r y a a O @ $ i = = > > 4 7 z c e 0 a ",
"s g :.y.0.#.' I G j f a u y f g g f # @ & = = > > 4 7 0 0 0 d f ",
"U A I r.8.#.' I G j f a u g j p i h g @ & & = > > 4 7 0 0 n v N ",
"..-.*.q.9.#.' I G j f a u i O # # # O @ & & = > > 4 7 0 0 B e e ",
" .*.:.q.9.#.' I G j f a p a O X X # l @ & = = > > 4 7 0 0 V e w ",
"{ { X.r.9.#.' I G j f a u L ' v v ) K @ & = = > > 4 7 0 9 Y [ F ",
"#.#.q.r.8.#.' I G j g p O i O.;.;.O.@ . & = = > > 4 7 6 8 q O.-.",
":.:.q.q.9.#.' I G k f ' I O d 8.9.x + J _ = ; > > 5 7 [ W 9 1.8.",
"q.>.q.q.9.#.' I G j a P i.:.P ;.7.P *.i.H % & > > 4 4 R y.7.3.6.",
"q.q.q.q.9.%.X.U G I h O ( y.y.w.w.y.y.!   ; m , , D 7 - 4.t.e.w.",
"*.*.-.q.:.*.#.U G  .%.L g o.-.o.X.-.#.x S #.[ > > [ %.R C #.-. .",
"{  . . . . .' I G A { o./ / ..U U ..' / o.{ : = > 5 { o.' ' ..G "
};
