/* XPM */
static char *_e567d6728b540d2d423b4e627a9f398XPf5CN1N1HCCKGYK[] = {
/* columns rows colors chars-per-pixel */
"128 32 233 2 ",
"   c None",
".  c #000E0C",
"X  c #00120C",
"o  c #000C15",
"O  c #001412",
"+  c #001A1C",
"@  c #001819",
"#  c #001922",
"$  c #002B24",
"%  c #002B2A",
"&  c #002526",
"*  c #1E3A2E",
"=  c #1D2E36",
"-  c #0E3D3C",
";  c #083A36",
":  c #1D3534",
">  c #153D37",
",  c #1D3A35",
"<  c #1D353B",
"1  c #143E3C",
"2  c #1C3B3C",
"3  c #16363B",
"4  c #0B2E30",
"5  c #292C2D",
"6  c #332E2E",
"7  c #392E2E",
"8  c #24332D",
"9  c #2C342D",
"0  c #233A2E",
"q  c #2C392D",
"w  c #283626",
"e  c #33342E",
"r  c #32392C",
"t  c #3A332E",
"y  c #2F2F32",
"u  c #282D35",
"i  c #342E33",
"p  c #3A2E34",
"a  c #352F39",
"s  c #3A2F3A",
"d  c #253535",
"f  c #2C3434",
"g  c #243A35",
"h  c #2B3834",
"j  c #24353B",
"k  c #2C353A",
"l  c #233B3C",
"z  c #2B3A3B",
"x  c #333334",
"c  c #393234",
"v  c #343A34",
"b  c #33343A",
"n  c #39333A",
"m  c #323A3B",
"M  c #3A3A3C",
"N  c #0E423E",
"B  c #03453C",
"V  c #15413D",
"C  c #1A413C",
"Z  c #154639",
"A  c #27403C",
"S  c #1D3441",
"D  c #143D43",
"F  c #1B3B42",
"G  c #173D4A",
"H  c #0B3C40",
"J  c #243542",
"K  c #293641",
"L  c #233B42",
"P  c #2A3C42",
"I  c #273C49",
"U  c #323B43",
"Y  c #333745",
"T  c #024544",
"R  c #0D4344",
"E  c #004A44",
"W  c #014549",
"Q  c #014A4A",
"!  c #0C4949",
"~  c #0D4747",
"^  c #144343",
"/  c #1B4243",
"(  c #1A4A46",
")  c #134649",
"_  c #1C454C",
"`  c #174C47",
"'  c #08544C",
"]  c #19524D",
"[  c #174A52",
"{  c #015B55",
"}  c #005A5A",
"|  c #0C5C5B",
" . c #1C5553",
".. c #1D575A",
"X. c #195A59",
"o. c #244445",
"O. c #2A4244",
"+. c #29434D",
"@. c #2C4B4B",
"#. c #274A48",
"$. c #324D4C",
"%. c #344849",
"&. c #2B514B",
"*. c #26534C",
"=. c #284E51",
"-. c #324C50",
";. c #235454",
":. c #2C5252",
">. c #24545A",
",. c #245D5C",
"<. c #2D5B5A",
"1. c #265956",
"2. c #325A5B",
"3. c #3C5C5B",
"4. c #365756",
"5. c #32524F",
"6. c #04625C",
"7. c #09615D",
"8. c #1D655C",
"9. c #26655D",
"0. c #2A625D",
"q. c #32645F",
"w. c #3A625D",
"e. c #396A54",
"r. c #3A7358",
"t. c #337254",
"y. c #085D67",
"u. c #245D63",
"i. c #2B5C63",
"p. c #3C5E64",
"a. c #355E66",
"s. c #066464",
"d. c #1D6564",
"f. c #196868",
"g. c #1A756B",
"h. c #187977",
"j. c #0D706B",
"k. c #246463",
"l. c #2C6463",
"z. c #2C6963",
"x. c #2E6569",
"c. c #2A6C6B",
"v. c #236768",
"b. c #336463",
"n. c #3A6463",
"m. c #346C65",
"M. c #3C6A65",
"N. c #33636A",
"B. c #3B6469",
"V. c #346C6B",
"C. c #3B6A6B",
"Z. c #26756A",
"A. c #33726A",
"S. c #3A736C",
"D. c #3E7A6E",
"F. c #397A67",
"G. c #2D6B74",
"H. c #2B6C79",
"J. c #316A73",
"K. c #306A78",
"L. c #297775",
"P. c #3D7A75",
"I. c #387876",
"U. c #425D5B",
"Y. c #456F54",
"T. c #4B6E54",
"R. c #44685E",
"E. c #437254",
"W. c #43725B",
"Q. c #497051",
"!. c #476D4E",
"~. c #446463",
"^. c #436A66",
"/. c #426A6A",
"(. c #4D6A6A",
"). c #44746D",
"_. c #4C736D",
"`. c #437573",
"'. c #427A73",
"]. c #4D7C76",
"[. c #427E7B",
"{. c #4C7D79",
"}. c #46757A",
"|. c #466673",
" X c #16847E",
".X c #1B827F",
"XX c #04897C",
"oX c #298479",
"OX c #368478",
"+X c #218064",
"@X c #468179",
"#X c #3D7D81",
"$X c #2D7E82",
"%X c #457F80",
"&X c #028C83",
"*X c #0D878B",
"=X c #0A8986",
"-X c #11858C",
";X c #158786",
":X c #2B8C86",
">X c #288C8C",
",X c #368A87",
"<X c #379A8A",
"1X c #298B91",
"2X c #399C93",
"3X c #299A93",
"4X c #19A09A",
"5X c #2BA198",
"6X c #39A393",
"7X c #3FB8B3",
"8X c #438381",
"9X c #468C87",
"0X c #469894",
"qX c #5A9296",
"wX c #55949B",
"eX c #569498",
"rX c #508D8B",
"tX c #4CB4AD",
"yX c #49B8AF",
"uX c #54B3AF",
"iX c #4DB3B3",
"pX c #50B5B6",
"aX c #53AEB2",
"sX c #49C9BB",
"dX c #55C5BD",
"fX c #4DC9C6",
"gX c #55C5C3",
"hX c #57C5C0",
"jX c #4BDDDA",
"kX c #54DAD9",
"lX c #4DDECF",
"zX c #47E1D8",
"xX c #53D9E2",
/* pixels */
"                                                                                                                                                                                                                                                                ",
"                                                                                                                                                                                                                                                                ",
"                                                                                                                                                                                                                                                                ",
"                                                                                                                                                                                                                                                                ",
"                                                                                                                                                                                                                                                                ",
"                                                                        Q.  W.W.Y.F.+XZ.W.!.Y.E.r.E.E.Y.Y.T.T.T.Y.E.r.E.E.W.W.e.F.t.W.E.e.E.Y.E.W.W.E.Q.T.T.E.r.e.Y.W.r.t.r.r.W.E.E.E.Y.E.E.Y.                                                                  ",
"                                                      U.w.w.w.3.U.U.U.w.w.w.n.b.rX@ kX5XI.^.^.^.M.M.^./.M./.^.^.^.^.M.S.m.P.8X{ yX:XI.'.D.D.D.].`.`.).)._.).).D.'.P.@X0Xh.dX0X[.@X].].].].{.{.{.{.{.@X@X@X@X@XOX2XoX{ uX9XrX9X                                  ",
"I.~ D L D F < L D D D F F 1 1 1 / ; 7.j.# 0X) 2 2 l j J F F F L K k l , , 2 F G J.% zX&XT 2 l < 2 2 F F G G F F F 2 3 / H ..k.@ 7Xs.W D N ^ 1 G G G ^ ^ / F / ^ R B W h.T fXg.T R 1 D D D D ^ ^ D D 1 V ^ R R T j.{ *X>XW ~ ! ! ! ! ! ! Q Q ~ ) ) R ! ! ) X.L.+ ",
"S.V l k k k k k l F < O.d h d g k , ..d.@ qXo.g z 8 n n j < C , k x x f f b k I C.% zX&XN k x x m f z l 2 2 L j k f h z 2 :.,.O tX6.F k g l z j j < l 2 g d U d l > D L.E sXd.- , d k j P 3 / < L P m 9 f z j 3 d.{  X:X^ l l l l l 3 / - / l j l l l l j @.b.X ",
"S.C h x b x x k 4._.3.: m f x v x d ;.d.@ qXo.d 9 e c i d 5.w.~.A d 9 e t n b P C.$ zX&X1 v t t x x d $.(.U.< z x x x x h $.<.X tX| l c x x c k P ~.U.$.h f i x f g F c.B sXk.> h e x x z l 4.R.$.d 9 c c n i d 9.{ .X,X2 f x x x z g l ~.$.z m x x x f f %.n.. ",
"D.V h x b f h O.M.V C.#.8 b v e x d X.f.+ eXo.f w e p b o.M.&.&.n.#.0 e 6 p b O.V.$ zX&X1 x e e x 8 o.)./ M.:.: f c 7 x h $.<.X tX| l p x e x k 3.2.1.R.A x b c c f J J.E dXk., x c i x d 5.3.:.).#.8 e x i n h 0.{ ;X,X2 x x x 9 z , ^.:.(.#.d f x x x f %.w.X ",
"'.> h x b f g 4.;.; ] M.z b e e x j ..f.+ wXo.h v e i k ] l.> V z.` * r t c b l V.% jX=X1 b x f f z M.;.- =.m.V f c p x h $.<.O tX| J n b x x P C.B B w.@.h f x c x J J.E dXl.< f c x b 2 M.&.; ,. .g e x n n d 0.{ ;X:X2 x x x M d &.n.4 4.^.l f x x f h %.b.X ",
"`.1 k b b d A M.( ) ! b.k n y x x j >.d.# wX+.h 9 f n z ,.v.- ^ L.] : v n a b 2 V.% xX*XD n x f f l m.T _ _ V.( k n p c k -.2.@ pXs.F b k h z @.9.E T ,.2.2 d m b f J K.Q gXx.< m c a P 1 l./ - X.c.l 9 z m a d l.} -X1XF f f f f : b.] D _ C.V k f b f j @.b.O ",
"`.2 k b b d C ).}.b.I.rXY n M 9 x j >.u.# qXO.h 9 x b = z.I.B./.#X,.g e i i m P V.% xX-XD b x x n l [.[.|.|.%X^ k n p x k -.2.O iXs.F b k h z :.8Xc.V.`.M.2 j k x h F H.W gXx.< f x f P ` @XM.C.L.[.l w k k y z l.} -X1X/ f x x b l S.A.B.a.P.` g x x f d @.b.O ",
"`.1 z x b h C )./ _ ~ /.Y 5 v 8 q , ;.v.+ qXO.9 e e x : l.9.O.j a.=.d e c x h l V.% xX-X1 x x x x j S.~ +.+.V.N h x e 9 g &.2.O tXs.J a b 9 f $.M.^ o.p.3., k x q 0 F G.T gXl.d f v x d ^ `.@.o.>.M.9 e m f x d 0.} -X>XC f e x M d A.8.:.:.P.` h x v x f %.w.X ",
"`.> z x b h > M.o.2 R n.m M 9 q q *  .d.+ qXO.9 w e 6 z 0. .j k a.:.f e v 9 h l m.% kX*X1 h x x c z M.( J I l.` h x e q g &.<.O tXs.J p c 9 f $.4./ j %.3.l u b q 0 F G.T dXl.d 9 e x z ( C.: L _ B.x t f f v 8 0.{ *X>X2 e e e 6 z m.] 3 F V.N h x e e f %.w.X ",
"S.1 z c y d Z M.L I R B.U c 9 9 e 8  .f.+ qXO.9 q r c 5 q. .P u B.;.g e v x f l m.$ jX=XN q 9 9 x k /./ Y I V.N h c e h g @.<.O tX7.l c x f z %.p.F J %.~., h x e 9 2 J.T hXq.0 9 e v 8 ( M.d z _ B.h e x f e h 0.{ *X>X2 e e e x h M.( j j V.` z x t t x %.w.X ",
"P.1 h c n z > M.F G T C.U M x e t d ..f.+ eXo.f w 9 p m b. .2 2 i.;.z 9 6 x b l V.% jX=X1 e 9 f x k M.^ S S V.^ k x e h g $.<.O tX7.l x e w h $.a.D S -.3., h v e f F J.W gX0.: 9 9 v d ( M.g l _ B.g 9 b b x d 0.} =X>X2 e e e e h M.( J L V.( g x e e f %.b.X ",
"'.1 h x n b : /./ ~ E V.j a 8 9 f g ..f.# wXO.f v x s K ,.X.R ^ v. .z x a s Y j C.% kX-X2 p x f z , A.' D _ V.^ k p x f g $.2.O iX7.j x r w g $.b.R D :.4.A h 9 h d F H.Q fXk., z f x z ( C.F 3 [ N.g x n n c d l.} *X1XF x x x x z m.` S L b.( g f e f d @.l.X ",
"`.> z x i x d ].I.oXL.9XP n x v f g ..f.# wXO.k b x a < k.,XL.L.,X..d v n s n K C.% kX-XF p c f h 2 OXoXL.I.8X1 k p x f g $.4.O pXy.j c r w g @.8Xf.v.I.q.l f 9 h g F H.Q fXv., z b f l ) P.z.k.L.I.l 9 n a c d l.} -X1XL c x x f l A.v.,.i.I.( g x x f d #.b.X ",
"`.1 z b x z l [.<X5X3X,XL a i x x d >.f.+ eXO.f x x k 3 f.6X<X<X0X1.* 9 v y b P C.$ jX=X2 x x f x l OX2X2X2X9X^ k s c f l :.4.o pXy.J s v 9 k =.0X5X5X2Xx.2 f h h g F G.W gXl.d n n f 2 ' <X<X<X6XOXZ 8 b n b d 0.{ ;X:X2 x x x n < oX6X2X2X9X) k p p c j @.p.o ",
"`.1 j b f z l 0.g.g.g.v.l n n 6 x d ;.k.+ eXo.f x v b 2  .g.8.8.z.( 0 9 x f k P M.$ lX&X1 x x x n z 9.Z.g.Z.x.F k p c k l :.4.o aXy.J s v 9 k +.L.h. XL.>.j b x f d F G.T hXb.d c n x g ~ Z.oXg.oX9., 9 b x x d 0.{  X:X2 x x x n g Z.:XoXoXI./ k p p c d @.p.o ",
").2 d x f f f z 2 2 L P a n b f h , ;.k.@ eXo.f x p s b P F 2 P g d f 9 f h g l M.& lXXXN x c a n f l 2 < L L g k c x x g &.2.O uX| k 7 9 w 9 z L F D F z x v e x h j J.T dXl., f n n b j o./ 2 F l x c n y f g 0.{  X:XC f c c f d o.o.L L L < k f x x d @.n.. ",
"A.N , z : g z k P j J j z d d g 2 >  .d.@ eX_ l d k k k L < J K J k d g g , 2 / M.& lX&XT l k k d g < l j J g l l g d g , *.<.O tX6.2 f 0 * d d j J l < d d h 8 d g F G.T gXd.1 l j k k J < J L J j h h h j l ; 9.{  X:XR l k k g l < = U K < F 2 , h h , #.b.X ",
"2Xj.k.b.9.z.l.l.x.x.N.x.x.x.b.b.b.,.#Xf.@ uXc.z.z.b.x.x.x.x.N.N.N.N.z.z.b.b.N.N.}.& kX4Xg.c.k.x.l.l.l.x.x.x.x.x.0.0.q.0.z.'.>.@ sXXXf.l.,.l.i.i.i.i.i.l.0.0.<.<.l.>.u.$XE fXoX8.,.<.<.<.i.u.u.u.u.,.,.1.,.,.,.8.L.{ ;X3XX. .>.>.;.;.;.>.>.....X.X.X. .:.;.x.k.O ",
"          B B                                                                                                                                                                                                                                                   ",
"                                                                                                                                                                                                                                                                ",
"                                                                                                                                                                                                                                                                ",
"                                                                                                                                                                                                                                                                ",
"                                                                                                                                                                                                                                                                ",
"                                                                                                                                                                                                                                                                ",
"                                                                                                                                                                                                                                                                "
};
