/* XPM */
static char *b3b6dcef26ce443082e2b6a5c9c05aed[] = {
/* columns rows colors chars-per-pixel */
"128 128 3 1 ",
"  c #58B3B8",
". c #BCF2F5",
"X c white",
/* pixels */
"                                                                                                                                ",
"                                                                                                                                ",
"                                                                                                                                ",
"                                                                                                                                ",
"                                                                                                                                ",
"                                                                                                                                ",
"                                                                                                                                ",
"                                                                                                                                ",
"                                                                                                                                ",
"                                                                                                                                ",
"                                                                                                                                ",
"                                                                                                                                ",
"                                                                                                                                ",
"                            XXXX                                                                                                ",
"                         XXXXXXXX                                                                                               ",
"                        XXXXXXXXXX  XXXXX                                                                                       ",
"                       XXXXXXXXXXXXXXXXXXXX                                                                                     ",
"                       X..XXXXXXX...XXXXXXXX                                                                                    ",
"                       .....XXXX.....XXXXXXX                                                                                    ",
"                      X......XXX......XXXXXX                                                                                    ",
"             XXXXXXXXXXX......XXX.....XXXXXXXXXXXXX                                                                             ",
"           XXXXXXXXXX.XXXX....XXXX....XXXXXXXXXXXXXX                                                                            ",
"          XXXX.XXXXXX..XXX....XXXX....X.......XXXXXXX                                                                           ",
"         XXXX...XX......XX....XXXX.............XXXXXXX                                                                          ",
"         XXX...XXX......XX...XXXXXX............XXXXXXXX                                    XXXXXXXXXXXX                         ",
"        XXXX...XXX.......X......XXX............XXXXXXXXXXXXXX                             XXXXXXXXXXXXXX                        ",
"        ..XX...XXX.......X....................XXXXXXXXXXXXXXXX                           ..........XXXXXX                       ",
"        ..XX...XXX.........XXXX.XXXX.........XXXXX......XXXXXXXX                         ...........XXXXXX                      ",
"        ..XX....XX.......XXXXXXXXXXX..........X........XXXXXXXXXX                     XXX...........XXXXXXX                     ",
"        ..XXX...........XXXXX.XXXXXXX................XXXXXXXXXXXXX                  XXXXX...........XXXXXXXX                    ",
"        ..XXX..........XXXXXX..XXXXXXX................XXXXXXXXXXXXX                XXXXXX.......XXXXXXXXXXXXX                   ",
"        ...XX..........XXXXXX..XXXXXXXX...XXXX.........XXXXXXXXXXXX               .XXXXXXX.....XXXXXXXXXXXXXXX                  ",
"        ....X..........XXXXXX......XXXXX.XXXXX.........XXXXXXXXXXXX               XXXXXXXX.....XXXXXXXXXXXXXXXX                 ",
"         ..............XXXXXXX..........X.XXXXX............XXXXXXXXX             .XXXXXXX.......XXXXXXXXX.XXXXX                 ",
"          ..............XXXXXXX.........X..XXXXX........XXX..XXXXXXX             ..XXXXX.........XXX.....XXXXXX                 ",
"               ............XXX..........X..XXXXXX......XXXXXXXXXXXXX             ...XXX..................XXXXXX                 ",
"                ........................X......XXX....XXXXXXXXXXXXXX             ........................XXXXXX                 ",
"                 .......................XX............XXXX.XXXXXXXX              .................XXX.XXXXXXXXX                 ",
"                  .......................XX...........XXXX..XXXXXXX              .....................XXXXXXXXX                 ",
"                        ...................X..........XXXX..XXXXXXXX              .....................XXXXXXXX                 ",
"                         ............. .................XX......XXXX               .........    .......XXXXXXX.                 ",
"                          ...........  ...........................XX                 ......      .....X.......                  ",
"                              ......    ...........................X                              ...........                   ",
"                                         ..........................X                               .........                    ",
"                                          ..........  .............                                                             ",
"                                           ........    ...........                                                              ",
"                                             .....      .........                                                               ",
"                                                           .....                                                                ",
"                                                                                                                                ",
"                                                                                                                                ",
"                                                                                                                                ",
"                                                                                                                                ",
"                                                                                                                                ",
"                                                                                                                                ",
"                                                                                                                                ",
"                XXXXXXX                                                            XXXXXXX                                      ",
"              XXXXXXXXXXX                                                         XXXXXXXXXX                                    ",
"             XXXX..XXXXXXX                                                    XX.XXXXXXXXXXXXX                                  ",
"            .XXXXXX..XXXXXX                                                  XX.XXXXXXXXXXXXXXX                                 ",
"            .XXXXXXXXXXXXXXX                                               .XX.XXXXXXXXXXXXXXXXX                                ",
"           ...XXXXXXXXXXXXXX                                               .XX.XXXXXXXXXXXXXXXXXX   XXXXXXX                     ",
"          .X...XXX.XXXXXXXXXX XXXXX                                       .XXX.XXXXXXXXXXXXXXXXXXX XXXXXXXXX                    ",
"          XX.........XXXXXX.XXXXXXXX                                      ..XX.XXXXXX....XXXXXXXX.....XXXXXXX                   ",
"         .XXX..............X...XXXXXX                                     ..XX..XXXX......XXXXXX.......XXXXXXX                  ",
"         XXXXX.................XXXXXX                                  .........XXX.......XXXXXX........XXXXXXX                 ",
"        .XXXXXXX...............XXXXXX                                 ........................XX........XXXXXXXX                ",
"        .XXX.XXXXXXXX..........XXXXXXXXX                             .....X.............................XXXXXXXX                ",
"        .XXX..XXXXXXXX.........XXXXXXXXXX                           .....XXX...................X....XXXXXXXXXXXXXX              ",
"        .XXX...XXX...X.XX...........XXXXXX                          .....XXXX.............XXXXXX...XXXXXXXXXXXXXXXX             ",
"        ..XXX.......X...XX..........XXXXXX                         ......XXXXX........XXXXXXXXXX.............XXXXXXX            ",
"        ...XXX...........XX.XX....XXXXXXXX                         ......XXXXXX......XX.XXXXXXXXX............XXXXXXXX           ",
"        ..............X.....XXXXXXXXXXXXXX                          .........XXXX...XXX..XXXXXXXX............XXXXXXXX           ",
"         .............XX....XXXXXXXXXXXXX.                          ...........XXXX.XXX..XXXXXXXX............XXXXXXXX           ",
"          ...................XXXXXXXXXXXX                            ..........XXXX..XX......XXXXX...........XXXXXXXX           ",
"           ...................XXXXXXXXX..                             .........XXXX..XXX...........XXX.XXXXXXXXXXXXXX           ",
"            ....... ...........XXX......                               .........XXX....XX.........XXXXXXXXXXXXXXXXXXX           ",
"                     ..................                                  ........................XXXXXXXXXXXXXXXXXXXX           ",
"                      ...............                                     ........................XXXXXXXXXXXXXXXXXXX           ",
"                                                                           ......... .............XXXXXXXXXXXXXXXXXXX           ",
"                                                                                      ................XXXXXXXXXXXXXXX           ",
"                                                                                       .................XXXXXX......            ",
"                                                                                        ...........................             ",
"                                                                                          ......   ...............              ",
"                                                                                                    .......                     ",
"                                                                                                                                ",
"                                                                                                                                ",
"                                       XXXXX                                                                                    ",
"                                      XXXXXXX                                                                                   ",
"                            XXXX    .XXXXXXXXX                                                                                  ",
"                           XXXXXXXX.XXXXXXXXXXX                                                                                 ",
"                          XXXXXXXX...XXXXXXXXXX                                                                                 ",
"                      XXXXXXXXXXXX...XXXXXXXXXX                                                                                 ",
"                     XXXXXXXXXXXXX.......XXXX.X                                                                                 ",
"                   XXXXX.XXXXX.XXX............XX                               XXXXX                                            ",
"                  XXXXXX..XXX.................XXXXXXXX                        XXXXXXX                                           ",
"                 XXXXXXX...XXX...............XXXXXXXXXX                      .XXXXXXXX                                          ",
"                XXXXXXXXX..XXXX................XXXXXXXXX                     ..XXXXXXXX                                         ",
"                XXXXXXXXX......X................XXXXXXXXX                   X...XXX...XXXXXXX                                   ",
"                X.XXX.XXXX.....XXX...............XXXXXXXX                  .XX........XXXXXXXX                                  ",
"                ...XX.XXXXX...XXXXX............XXXXXXXXXX                  .XXX..........XXXXXX                                 ",
"                ....X..XXXXX.XXXXXXX...X......XXXXXXXXXXX                  ...............XXXXXX                                ",
"                 .......XXXX..XXXXXXX...X....XXXXXXXXXXXX                 X...XXX.......XXXXXXXXXXXX                            ",
"                  .........X..XXXXXXXX..XX..XXXXXXXXXXXXX                XXXXXXXXX.XXX.XXXXXXXXXXXXXX                           ",
"                   ...............XXXX..........XXXXXXXXX               .XXX.XXXXXXXXX.XXXXXXX..XXXXXX                          ",
"                       ..... ......XXX..........XXXXXXXXX               .XXX..XXXXXXXX..XXXXX...XXXXXX                          ",
"                        ...   ......XX..........XXXXXXXXX               ..XX...XXXXXXX...XXX.XXXXXXXXXX                         ",
"                               .....XXX..........XXXXXXXX               ...XX...XXXXXXX.....XXXXXXXXXXX                         ",
"                                  ...............XXXXXXX                .........XXXXX.X....XXXXXXXXXXX                         ",
"                                   ..................XXX                ..........XXX.XXXXX..XXXXXXXXXX                         ",
"                                    ...................                  ............XXXXXXX..XXX......                         ",
"                                     ... .............X                   ..........XXXXXXXX..........                          ",
"                                          ............                     .......XXXXXXX.X..........                           ",
"                                           ..........                           ..XXXXX............                             ",
"                                            ........                            ...XXX............                              ",
"                                                                                 ..... ...........                              ",
"                                                                                  ...   .........                               ",
"                                                                                         .......                                ",
"                                                                                                                                ",
"                                                                                                                                ",
"                                                                                                                                ",
"                                                                                                                                ",
"                                                                                                                                ",
"                                                                                                                                ",
"                                                                                                                                ",
"                                                                                                                                ",
"                                                                                                                                ",
"                                                                                                                                ",
"                                                                                                                                "
};
