/* XPM */
static char *_d3a4498295e400fbe71ecb5b5818183[] = {
/* columns rows colors chars-per-pixel */
"64 64 109 2 ",
"   c #351B0D",
".  c #3B1E0E",
"X  c #361E11",
"o  c #391F11",
"O  c #3F200F",
"+  c #362013",
"@  c #3D2213",
"#  c #37251C",
"$  c #3D2619",
"%  c #3F291D",
"&  c #3C2A21",
"*  c #41210F",
"=  c #442311",
"-  c #4A2612",
";  c #462817",
":  c #4D2814",
">  c #422718",
",  c #432A1B",
"<  c #4C2C1B",
"1  c #532A14",
"2  c #5A2E16",
"3  c #542E19",
"4  c #582F19",
"5  c #4F301F",
"6  c #5E3016",
"7  c #54311D",
"8  c #5C321A",
"9  c #623116",
"0  c #63341A",
"q  c #452E22",
"w  c #492F21",
"e  c #453125",
"r  c #4C3224",
"t  c #46342A",
"y  c #4B352A",
"u  c #4D392E",
"i  c #533523",
"p  c #5B3622",
"a  c #573826",
"s  c #5B3926",
"d  c #523728",
"f  c #533A2D",
"g  c #5A3C2B",
"h  c #4D3C32",
"j  c #4D3F38",
"k  c #523E33",
"l  c #583F31",
"z  c #623A24",
"x  c #643D28",
"c  c #5F402E",
"v  c #564033",
"b  c #514137",
"n  c #544136",
"m  c #594234",
"M  c #5B4335",
"N  c #5F4537",
"B  c #53433A",
"V  c #574338",
"C  c #56453B",
"Z  c #53453D",
"A  c #584438",
"S  c #5A473D",
"D  c #5C473C",
"F  c #57483F",
"G  c #59483E",
"H  c #5D483C",
"J  c #5C483E",
"K  c #62412E",
"L  c #614535",
"P  c #694430",
"I  c #604739",
"U  c #604A3D",
"Y  c #624A3C",
"T  c #694E3F",
"R  c #544842",
"E  c #5B4A41",
"W  c #5F4C41",
"Q  c #5D4C42",
"!  c #5C4C43",
"~  c #584B44",
"^  c #5E4E45",
"/  c #5D4F47",
"(  c #5B4F48",
")  c #5E5047",
"_  c #5A504B",
"`  c #5C514A",
"'  c #5E534C",
"]  c #5F544E",
"[  c #5F5550",
"{  c #604C41",
"}  c #614D41",
"|  c #624E42",
" . c #635046",
".. c #60534B",
"X. c #62534B",
"o. c #60544D",
"O. c #62544C",
"+. c #64554D",
"@. c #68564B",
"#. c #66584F",
"$. c #635750",
"%. c #635953",
"&. c #665A53",
"*. c #645A55",
"=. c #685D56",
"-. c #645D59",
";. c #695E58",
":. c #67605B",
">. c #69605B",
/* pixels */
"-...^ ^ ^ ^ ^ ^ ^ ~ *.o.Z Z A H Q ^ ` ^ E ` C k k k f f u t q k o.A A D } } Q Q G ^ &.&.o.o.o.o.] ` ` ` o.%.R b B ^ A f A G G ^ ",
"' < = = = = = = = > B u   o = - : : : : : t + . . O O . . .   > C = = = 1 : - = = > G h > > > > > > > > r Z $ = - : - = = = = : ",
"[ , * * * O O O * = Z y . . = = - - - - = e o . . . . . . .   @ t @ = - - - = = * = E k * * * = = = = - i E + - 1 : - - - - - : ",
"_ > * * O O O O O = ^ u . = = = = = = = : k +   . . . . . . . + e = - - = = = = = = ^ M - - - - - - - - i Z + - : : - - : : : 1 ",
"R o . O * * O O O = E k * = = = = = = = < V + . . . . . . . . $ k - - - = = = = = = ` D : - - - = = - - i Z @ - - - - - - - : 3 ",
"~ X . . . O * * * = S n * = = = = = = = : v @ . . . . . . . . @ d - : - - - - - - : ..N - - - = - - - - i o.< = - - - - - - 1 1 ",
"` +     . . . O = = H M * - - - = = - - : n @ . . . . . . . . @ d : - = = : : : : 3 +.U 1 - - - : : - - a $.< * = - 1 1 1 1 1 3 ",
":.~ Z C V C C V C H &...M M D Q Q G H H Q %.k u k k k k n n k b ..S S S Z E ^ } } } ;.&.N M M D H H k M  .;.H M n M N I I U } ..",
"G n V ^ =.$.o.) ^ Q Q Q Q Q $.;.+...o.o.] .. .} } &.%. .....o.$.o.~ E ` =.o.^ ) ..o.$.%.%.$.%.$.Q S Z h t R R E ~ $.$.` ^ ^ Q E ",
"= = * < F , @ @ @ = = = = = h U 3 - : : : : 1 1 1 I h : : : < < > X   % ^ w @ @ > > > , , > u A - = = . . + o     $ > = @ = = = ",
"O O * , S @ . . . * = = = . u D 1 - - - : - - - 1 N t - 1 : - - = = * < ` < * * * * = * * . q n = * = = * * . .   $ = . O O O O ",
"O O . > S > . = = * = = = O b H 1 - - - - - - - - M e = - - - - : : 1 w ..< = = = = = = = . q A = = = = O O O .   q = O O * O O ",
"O . . @ C = * = = O = @ * O n D - - - - - - - - - f e O - - - - - - 1 d o.< * = = = = = = . e M = = = = . . . . . t , O O O . O ",
". .   + n = * * * O = = * . k A = = - - - - - - = f t . = = - - - - 1 g o.< = = = = = = * . u n = = O O . O . . . u , O O O O O ",
"      + V = * = = * O O . . t A O . * = = * * * O u q . = = - - 1 - - f o.< = = = = * * * = Z A = = O O O O . . . k , . . . . . ",
"t t t h o.k d n n k f f f u Z ` d y y , q f f k B ` ^ n n n M N H n r k -.^ G S C n M n k n &.&.Q A n n k n n k k ` t r k h u t ",
"-.%.' ' *.] ] %.o.o.;.=.' ` ` ` o.o...h E *.` G C V n k k k u C *.E B V E ^ o.*.%.*.>.;.+. . .}  .} } U  .=...} } } D D H H H  .",
"..r < < r < < , > , &.^ > @ @ > < 7 8 8 g n > @ . . . . . .   % C + . . @ = ; < < 5 Q U 8 1 1 1 1 1 1 1 p } 7 1 1 : : - - - : a ",
"^ = = = = = = O . > o.^ : - - - 1 2 1 1 p k @ O . . . . . . . $ n @ . * = = = - - : Q L 1 : 1 1 : - : 1 i } 1 - : - - - - - - i ",
"R @ = = = = = = * = o.R : 2 2 2 2 2 1 1 p k @ . O O O O O O . , k = = = - = = = = : ..L 1 1 : : : : 1 : d Q : - - - - - - - - i ",
"h . * = = = = = = = ..Z 1 2 2 1 1 1 1 1 3 y @ O O O O O O O . q n = - - = = = = = - ^ L 1 1 1 : 1 1 1 - ; n : = - - - - - - - 7 ",
"h . * = = = = = = = G ^ 8 2 1 2 2 1 1 - < f @ . . . O O O * * r A : - - = = = = = - Q I 1 1 1 : 1 1 - - = k = = = - - - - - - 3 ",
"Z @ . * = = - - : : b Z 8 2 1 1 1 : : = > t . . . . . . . . . r A - - - - - - = = - A A - - - - - - - = > k > . * = = = = = = < ",
"-.~ k k M A H ^ ^ } o.^ I N N D H A D A b h $ , q , q u t h b E o.b k f f g f t r f ^ ` f f k M M M A S A ..k u h V n n n n V ^ ",
"@.@.+.$.-.*...o.o.o.o.o.o.&.>.=.~ R B C C k h u Z ` }  .U I I U A C k V ~ h t e e u h Z B k ^ o.Z R ~ ` Z A Q ~ ) *.^ } @.@.+.+.",
"8 8 8 x $.k : : : : ; = > , S E @ . . . @ = = @ @ u s 8 2 2 2 6 1 - - < k           .   . . u G = = @ @ = @ @ @ + k , : 8 0 8 8 ",
"2 1 2 z %.f - - = = = = . . f A . . . . . . . . . h x 1 1 2 1 1 2 2 1 7 k X   . . . . . . . f H 1 - = = = = * . . u @ - 2 2 2 1 ",
"2 2 2 z ] d - - - - - = = * d k . . . . . . . . X Z s 1 1 1 2 2 2 2 1 3 t     . . . . . O O f M 1 = = = = = = * @ h @ - 2 6 2 1 ",
"2 1 2 x =.g - - - = = = = * f b . . . . . . .     h i 1 1 1 2 2 1 1 1 < t o . . . . . . . . k M 1 - = = = = = = = k > - 1 2 1 1 ",
"2 2 2 x ;.M - - - - - = - = k C . . . . . . .     h i - - 1 1 2 1 1 1 : e @ . . . . . . . . h l - - - - = = = = = C < - : 1 2 2 ",
"2 2 9 x =.M 1 : - - - - - - M Z @ @ @ . . .       Z d * = - : 1 1 1 - > % . . . . . .       t f - - - - - = = = - S , * - 1 1 2 ",
"c K P T -.` Q } H H H D A D +.=.^ ~ F b h q q e u o.Q u k f M M H ~ E ~ ` b h u u h h t t u R V M M M M M g f l A %.Z h Z H N N ",
"*.^ ....^ Q ^ ..Q ..-.] E ^ ..+.+.@.+.....j # & h ~ ^ E Q G G ^ =.+.+.o.E h u u k H $.~ B C E ~ ` ] $.+.*.*.S A A H H S Q } } o.",
"~ ; - - : : - - - < ..u = = : 1 3 8 8 8 s R +     + @ @ = = = e D 3 8 3 - = O * - 1 U t . o = = > ; < < f Q = = = = = = - - : i ",
"u O = = = = = = = - ..d * - - : 1 1 1 2 8 Q + . . * * * * = * y C - 1 2 1 1 1 1 1 2 U f * = = = = = = * i G = * = = = = = = = 7 ",
"t . = = = = = = = - ^ f - - : 1 1 1 1 1 p Q @ * = = = = = = = r h = - 1 1 1 1 1 1 2 I t * = = = = = = = < A = * = = = = = = = 5 ",
"h . = = = = = = = = R a - 1 1 1 1 1 1 1 s ..> * = = = = = = = > % . - 1 1 1 1 1 1 - k q . = = = = = = = < V @ O = = = = = = = 7 ",
"b . . = = = = = = - ~ g 1 1 1 1 1 1 1 1 s $.r = = = = = = = = @ $ = - 1 1 1 1 1 1 - k e . = = = = = = = < C @ . * = = = = = - d ",
"k . . . * = = = = : E g 1 : : - : : - - a +.< * * * * * * = = @ , - : 1 1 1 - - = = n e . * = = = = = = < B o . . . * * = = - d ",
"o.B n n n n n A A Q %. .D M M M M D A f Q =.k y f d d f f M k S ` A M M N N M A n r ~ E b k u y k k M A Z ' h k f f k k n M C ` ",
"^ o.o.*.*.V n k k n n A S S ` =.&.o.o.o.....^ Q ^ *.*.$.&.&.+.o.....o.&.>.-.-.*.^ , n } ^ Q Z Z ^ ` .. .Q G A C Z %.o.G Q } ` ..",
"= = , r ^ ; * * * * * * * . $ n < ; = = > = = @ > ` G < < < 3 3 : : < g %.f d r ; = - - - 1 D f < < < : - = . . . b d = = = = = ",
"= = * < G = O O O @ @ * O . @ f - = = = = * * O = ^ h * = = = - = = - i +.i - - - - - : : 1 M r - : - - - = * . . u r * @ = = = ",
"= = * < S = O O O O O * * . , n = = = = = = = = @ E h . = = = = - - - r ..< - : 1 1 : : : 1 U t - 1 - = = = = O . u r * = = = = ",
"= = * r S = O O O O O * * . q A = = = = = = = = @ E u . = = = = = = * < ^ ; - : : - - - : 1 D u - : - - = = = = . u < . = = = = ",
"= = * r A = O * O O O O O . , A - = = = = = = * > ^ y . = = = = = * . , ^ < - 1 1 : - : 1 2 M E : - - : - - - = * t , . . * = = ",
". . . w A = . . . . . . .   , G : = = - = = * . = ^ k . * = = = = @ . , ..< - 1 1 1 1 1 2 8 U H : - - : - - - - = r >   . . . . ",
"y r r n $.C n n b b k k y q u $.D M M A n h k n C &...k n M A A G E E ^ =.Q D U U } } U }  .=...g g M n k C S N A ` R k b k u y ",
"o.h h ~ o...` ^ ^ ^ &.#.} E E E ` o.+...&.&.h u t t Z G G S Z ~ o.^ ^ Q Q Q Q E E E %.o.o.o.$.o.` ` ..} +.%.S Q ......Q H E Z E ",
"~ = - : ; - = = = @ u g 1 : = - : < 3 3 g Z X . . . = = @ .   $ r - = = = = = @ o o V n > @ @ > ; 3 3 1 a A = - 1 : : - = = @ , ",
"..< - - - - = = = * r r = - - - - - - 1 7 t   . . O * O . .   + r = = = = = * . . . k d - = = - 1 1 1 - i A = - 1 : - - - - - 7 ",
"Q : = = = = = = - - d , - - - - - - - - i B X . . O . O O . . $ r = = = = = = * . . k r - : 1 1 1 1 1 - i V = - 1 : - - : 1 1 p ",
"Q : = = = - - - - - d , = - - - - - - - i h   . O . . . O O . $ r = = = = @ = = O . V k - 1 1 1 1 1 1 - 7 b @ - - - - - - : 1 g ",
"Q : - - - - - - - - d , * - - - - - - 1 a B o O * . . . O O . , d = = = = = = = O . V A - 1 1 1 1 1 : - 7 V = = - : : - - - 1 s ",
"..: = - - = = = = * d , . = = - - - - : f E @ * = = * * O . . , f * * * * * * * . . C v = * = - - = : 1 8 S > * - : 1 1 1 : 1 s ",
"*.M f f k d d k k f G ~ Z S A H Q M n H ..&.C k v M M k f d r k H d d f k f d d y u o.o.B e B e u C D U  .&.C M A D N L I N N } ",
"o.o.o.*.>.+..... .) ( ~ ' ` =.>.o.` ` ..' o.o.o.%.*.n f u u t r k k k Z o.E C S S H H } } } ..A d N } ..o.o.$...^ -.*.........o.",
"> @ @ u $.p 3 3 : = = = < 3 } ` > > > > > @ @ @ q E > . . . . .       X b @ . = = - - : 1 1 d N 2 1 2 4 3 3 3 : > E k = > > > > ",
"O . . q $.p 2 2 2 1 1 2 2 2  .~ @ . . . . . .   $ Z > . . . . . .     X n > * = - - - - 1 - d N 1 1 1 1 1 1 1 - = G d * = * * * ",
"= = . q %.i 1 1 2 2 6 2 2 2 Q ^ @ . . . . . .   + k = . . . . . . .   + b = - - - - - : - - d k 1 1 1 1 1 1 1 = = E d * = = = = ",
"= = . w ` > : : : 1 2 2 2 2 E ~ @ . . . . .     X u = . . . . . . .   + Z < 1 : - - 1 : - = r M 1 1 1 1 1 1 1 - = Q d * = = = = ",
"= = . r ~ @ - - 1 : 1 2 9 0 } E @ . . . . .     + u = . . . . . . . . @ ~ i 1 1 1 1 1 - = * r N 1 1 1 1 1 2 1 : = Q d * = = = = ",
"= = * r ' > - : 1 4 3 < < p } ~ = . . . . .     + h > @ . . . . . . . @ ^ i 1 1 1 1 1 - = * r K 2 2 2 1 : - 1 : = Q f = = = = = ",
"d d d A -.S l N I  ...( ` %.;.=.G V b b k h u u k ` G n f f u r r w , y $.U L L L i < i d r Z +.U L U H b h f i d +.Q f f f f f "
};
