/* XPM */
static char *_39c5cdaaa584e34fc24a14b1a1528dcfumXc7QYeWtyARp2[] = {
/* columns rows colors chars-per-pixel */
"40 40 197 2 ",
"   c None",
".  c #DDA66D",
"X  c #D6A86C",
"o  c #DBAB6C",
"O  c #DCB46B",
"+  c #CCA772",
"@  c #CEAF76",
"#  c #C6AC7B",
"$  c #CDAB7D",
"%  c #D7A572",
"&  c #D4AB75",
"*  c #DBAB75",
"=  c #D3AC7B",
"-  c #DAAB7A",
";  c #CBB47E",
":  c #D5B073",
">  c #DAB272",
",  c #DBB876",
"<  c #D4B37B",
"1  c #DBB47C",
"2  c #DBBA7B",
"3  c #E1AB6B",
"4  c #E8B16E",
"5  c #E1AB71",
"6  c #E0BB75",
"7  c #E3BD7D",
"8  c #E3C47C",
"9  c #EDC07D",
"0  c #CEA683",
"q  c #CDAC83",
"w  c #CAA988",
"e  c #D6AD82",
"r  c #DAAE83",
"t  c #D1AF8A",
"y  c #C7B086",
"u  c #CCB184",
"i  c #CEBA85",
"p  c #CEB48E",
"a  c #D2B285",
"s  c #DBB284",
"d  c #D5BB84",
"f  c #DAB984",
"g  c #D5B38B",
"h  c #DDB68B",
"j  c #D5BA8F",
"k  c #D8BA88",
"l  c #CBB293",
"z  c #CFB992",
"x  c #CABB9A",
"c  c #D3B493",
"v  c #D9B692",
"b  c #D5BB94",
"n  c #DBBA94",
"m  c #D2B699",
"M  c #D2BB9C",
"N  c #DABC9C",
"B  c #E2B387",
"V  c #E0B38A",
"C  c #E1BB8C",
"Z  c #E1BC9C",
"A  c #CFBBA3",
"S  c #D5BDA4",
"D  c #D9BEA3",
"F  c #E1BCA1",
"G  c #DFC28F",
"H  c #DCC495",
"J  c #DAC39C",
"K  c #E2C582",
"L  c #E4C48B",
"P  c #EAC38A",
"I  c #E3CB8D",
"U  c #EACB88",
"Y  c #E4C495",
"T  c #E4CB93",
"R  c #E8CE95",
"E  c #E1C29A",
"W  c #E6CC9D",
"Q  c #E4D192",
"!  c #EED494",
"~  c #E5D49C",
"^  c #EAD39B",
"/  c #EED89E",
"(  c #F4D295",
")  c #F3D39B",
"_  c #F2DA9A",
"`  c #D4C2A3",
"'  c #DAC3A4",
"]  c #DFCEA2",
"[  c #D6C3AB",
"{  c #DCC4AB",
"}  c #DCCBAD",
"|  c #DBC5B2",
" . c #DCCAB2",
".. c #DCCDBC",
"X. c #DED0B5",
"o. c #E3C5A4",
"O. c #E4CCA4",
"+. c #E0C7A9",
"@. c #E3CCAD",
"#. c #E8CBAD",
"$. c #E7D4A4",
"%. c #E9D3A2",
"&. c #ECD9A5",
"*. c #E5D3AF",
"=. c #EAD3A9",
"-. c #F5D4A7",
";. c #F1DDA2",
":. c #F2D5AB",
">. c #F4DAAB",
",. c #E5C6B5",
"<. c #E5CDB6",
"1. c #E0C4B8",
"2. c #E2CFBB",
"3. c #E9CCBB",
"4. c #E3D3B2",
"5. c #EFD5B4",
"6. c #EEDAB4",
"7. c #E2D2BE",
"8. c #EBD5BB",
"9. c #ECDCBB",
"0. c #F1DBB4",
"q. c #F8DCB5",
"w. c #F0D6BB",
"e. c #EFE7BC",
"r. c #F6E4B3",
"t. c #FCE5B6",
"y. c #F5E3BC",
"u. c #FCE6BC",
"i. c #F2E9B9",
"p. c #FDEABD",
"a. c #DECDC3",
"s. c #DFDBCF",
"d. c #E5CEC0",
"f. c #E4D2C2",
"g. c #EBD5C0",
"h. c #ECDAC5",
"j. c #E6D5CE",
"k. c #E8D1C9",
"l. c #E5DACC",
"z. c #EBDBCB",
"x. c #F3D6C2",
"c. c #F4DDC4",
"v. c #F0DECA",
"b. c #E0DDD5",
"n. c #EBDCD3",
"m. c #E4DCD9",
"M. c #F0DCD3",
"N. c #F2DFD8",
"B. c #EDE3C5",
"V. c #EFEBC8",
"C. c #F2E3C2",
"Z. c #F5EDC3",
"A. c #FDEDC4",
"S. c #F5E2CB",
"D. c #FCE4CE",
"F. c #F4ECCC",
"G. c #FBECCC",
"H. c #FDF2CC",
"J. c #FFF8CF",
"K. c #EBE1D4",
"L. c #EDE4DC",
"P. c #E8E8DE",
"I. c #F6E5D3",
"U. c #FAE7D6",
"Y. c #F3EBD6",
"T. c #FDEED3",
"R. c #F2E1DD",
"E. c #FDECD8",
"W. c #F6F0D3",
"Q. c #FEF3D4",
"!. c #F8F8D6",
"~. c #F7F2DC",
"^. c #FEF4DC",
"/. c #FEF9DD",
"(. c #F0EBE5",
"). c #FCEFE5",
"_. c #F4EDEA",
"`. c #F3F4E3",
"'. c #FDF5E3",
"]. c #F5F8E3",
"[. c #FEFBE4",
"{. c #FDF6EB",
"}. c #F6F9E8",
"|. c #FEFCEC",
" X c #FFFCF5",
".X c #FEFDF4",
"XX c #F7FFFF",
"oX c #F7FFF8",
"OX c #FBFFFA",
"+X c #FFFDFB",
"@X c #FFFFFA",
"#X c #FEFFF9",
"$X c #FDFBFF",
"%X c #FEFBFF",
"&X c #F9FDFF",
"*X c #FEFDFD",
"=X c #FEFEFC",
/* pixels */
"                                                                                ",
"m.L.                                                                            ",
"b.b.n.).                                                                        ",
"P.s...f.M.N.                                                                    ",
"  K...{ { ,.                                                                    ",
"  K. .m v Z F o.S } h.                                                          ",
"  n.D t s B V h a p ' c.T.D.w.#.o.n g q q g n                 ..                ",
"  j.{ g r - - h Y a y b +.o.v e = = = = = & - e               d.                ",
"  R.g.c g r e C G W H b q $ = 1 : : < < : o . . r N           1.                ",
"      S D E v a O.t.y.6.J a : 7 8 K I I L 7 4 3 % v ..                          ",
"            8.m *.H.Q.Q.C.=.L U K I &.r.r.) 9 3 * g a._.*X                      ",
"              } 4.Q./.[.[.H.&.Q Q ~ e.Q.Q.p.( 7 s c R.+X(.                      ",
"            U.} ` Q.|..X.X[.Z.i.i.e.F.^.[.Q.r.%.p } {..X..                      ",
"            h.' z G.|.+X$X+X|.[.W.W.~.[.|.[.W.B.X.E.|.U.M `                     ",
"            @.n k u.[.*X$X*XOX|.{.'.'.|..X.X}.`.{.|.[.5.a # l                   ",
"            n 1 + -.^. X$X&XXX+X+X X|..X X+X+XoX+X|.Q.Y < @ m                   ",
"        N h - * * s :.^. X+XoXOX+X*X+X+X X X+X+X+X'.0.L 2 @ S                   ",
"      [ a * * * * 1 Y y.^.|..XoX*X*X*X*X X X*X*X X'.r.! 7 < {                   ",
"      S $ & * o * 1 G =.G.'.|.{.*X*X&XOX+X*X*X*X.X'.A.;.K @ N c.                ",
"        g & * X > 7 I &.G.^.'.|.*X*XOXOX+X*X*X*X+X].H.r.T = $ m h.              ",
"        v = * o O 6 K / A.T.^..X+X*XOXOX+X*X*X*X+X].H.p.^ , & $ M S.            ",
"        c = * o O O 8 _ A./.'.{. X+XOXOX+X*X*X*XoX}.!.Z.^ , o * q { I.          ",
"          a - o o O 8 ! u.^.|.{. X+X*X*X+X+X+X+X+X.X~.Z.^ , . 5 = c 2.          ",
"      j.<.Z r - o > 8 T 4.Y. X+X X+X*X*X*X+X+X+X*X+X].V.$.2 . 3 * g } L.        ",
"          x.F 0 = = 2 i } '. X+X+X$X*X*X*X.X X+X X*X.X[.A.T X * * e ' K.        ",
"            3.D w u u ] Q.|.+X+X+X+X*X$X.X+X+X+X*X+X X|./.0.a & * e ' z.        ",
"              k.| 8.M C.|.|.{.oX*X*X.X.X X+X*X*X+X.X+X X.X^.' q = s +.v.        ",
"                    [ G.|.|..X X+X+X|.[.|. X+X+X|.{.|.|. X.Xh.b q a O.S.        ",
"                  7.` T.|..X.X.X.X|.Q.G./.|.|.[./.F.B.~..X.X'.9.j a b #.I.      ",
"                  [ } [.|..X.X.X[.B.O.>.A.A.G.H.u.$.J G.|.|.|.T.0.H g c @.U.    ",
"            g.8.+.M 6.[.{..X+X|.C.b < P ) R T / T f a :.H./.[./.H.>.Y b c <.    ",
"           .l p g E q.Q.'.|.{.l.x u = = < d d ; < @ @ a O.G././.J.t.>.W p S U.  ",
"        D.N a s s Y >.u.G.T.7.                          { `  .G.H.p.t.-.N c <.  ",
"        3.N g s s L -.u.0.}                                   } } O.=.:.o.b { c.",
"      z.} N v g a v b ' S                                        .` m D N m { g.",
"    _.l.| D N c c c m [                                             [ A S | f.z.",
"      K...[ ' D S S h.                                                          ",
"      {.K.2. . .7.z.                                                            ",
"        ).K.z.l.                                                                ",
"                                                                                "
};
