/* XPM */
static char *_adba5139d594c2aae9755328e066bb7[] = {
/* columns rows colors chars-per-pixel */
"64 64 256 2 ",
"   c #161B39",
".  c #1C233D",
"X  c #25263B",
"o  c #221B36",
"O  c #1B1F44",
"+  c #1D2642",
"@  c #282B45",
"#  c #342E44",
"$  c #2C3349",
"%  c #33344C",
"&  c #36394B",
"*  c #3A3D53",
"=  c #353A54",
"-  c #2C3551",
";  c #433D4E",
":  c #3C4254",
">  c #3D445B",
",  c #36414F",
"<  c #005C7D",
"1  c #01567B",
"2  c #064E76",
"3  c #35536B",
"4  c #04667D",
"5  c #13687A",
"6  c #246877",
"7  c #3D687C",
"8  c #316B75",
"9  c #14495F",
"0  c #444A5B",
"q  c #4B4C5C",
"w  c #464756",
"e  c #534D5A",
"r  c #4C535D",
"t  c #56555D",
"y  c #504448",
"u  c #715D58",
"i  c #766258",
"p  c #484C62",
"a  c #4B5566",
"s  c #575966",
"d  c #575F73",
"f  c #415E72",
"g  c #675B64",
"h  c #5A636C",
"j  c #48697B",
"k  c #5A6674",
"l  c #54727B",
"z  c #69656B",
"x  c #6B6C73",
"c  c #656A76",
"v  c #6C747C",
"b  c #697577",
"n  c #76767B",
"m  c #746C6F",
"M  c #5A453A",
"N  c #817978",
"B  c #85776F",
"V  c #79897E",
"C  c #968678",
"Z  c #84877D",
"A  c #A9997E",
"S  c #004D83",
"D  c #005484",
"F  c #005C83",
"G  c #025C89",
"H  c #055C8E",
"J  c #006384",
"K  c #006B84",
"L  c #00658B",
"P  c #016A8B",
"I  c #0C6989",
"U  c #156B88",
"Y  c #06768A",
"T  c #16758B",
"R  c #046895",
"E  c #166B93",
"W  c #017393",
"Q  c #077897",
"!  c #167996",
"~  c #246A87",
"^  c #396987",
"/  c #28788A",
"(  c #397887",
")  c #287A95",
"_  c #377C94",
"`  c #206B91",
"'  c #0D78A3",
"]  c #277BA1",
"[  c #457689",
"{  c #58788A",
"}  c #497B95",
"|  c #517592",
" . c #697886",
".. c #747B85",
"X. c #66788C",
"o. c #4A79A8",
"O. c #817E82",
"+. c #1A828D",
"@. c #108295",
"#. c #288798",
"$. c #388797",
"%. c #318C96",
"&. c #168BA9",
"*. c #298EA3",
"=. c #3989A5",
"-. c #3696A6",
";. c #2E94AB",
":. c #3BA5B0",
">. c #468388",
",. c #478898",
"<. c #578798",
"1. c #469499",
"2. c #56969C",
"3. c #5A868D",
"4. c #6B878C",
"5. c #74848A",
"6. c #798689",
"7. c #688B98",
"8. c #778994",
"9. c #689599",
"0. c #74939B",
"q. c #78979A",
"w. c #72938D",
"e. c #4BA09B",
"r. c #71A59E",
"t. c #5989A4",
"y. c #4899A7",
"u. c #5998A6",
"i. c #508DAF",
"p. c #688CA4",
"a. c #6899A5",
"s. c #759CA3",
"d. c #7899A6",
"f. c #6B94B3",
"g. c #58A6A8",
"h. c #4DA5B1",
"j. c #69A5A9",
"k. c #78A6A9",
"l. c #79B4AA",
"z. c #66A8B3",
"x. c #75A8B3",
"c. c #7BB7B6",
"v. c #68B3B0",
"b. c #7CC9BC",
"n. c #69BAC5",
"m. c #55B3C4",
"M. c #78C9C7",
"N. c #858989",
"B. c #868E94",
"V. c #889797",
"C. c #969A98",
"Z. c #91938B",
"A. c #9AA69D",
"S. c #89A19E",
"D. c #ADAE98",
"F. c #869DA4",
"G. c #8D9DA5",
"H. c #88A7A9",
"J. c #96A9A7",
"K. c #89B5AB",
"L. c #9BB3AC",
"P. c #98B6AB",
"I. c #87ABB3",
"U. c #94ACB4",
"Y. c #89B7B7",
"T. c #9CBCBB",
"R. c #98B8B6",
"E. c #A4ABA5",
"W. c #A3B4AD",
"Q. c #A7B8AA",
"!. c #B5BAAA",
"~. c #AABBB4",
"^. c #A3BCBB",
"/. c #A6B8B5",
"(. c #B4BDB2",
"). c #B5AEA6",
"_. c #A79C96",
"`. c #C5B9A5",
"'. c #9BC6BB",
"]. c #8AC2BC",
"[. c #B3C1AD",
"{. c #ACC3B4",
"}. c #ACC3BB",
"|. c #ADCBBD",
" X c #A3C5BB",
".X c #B2C4B5",
"XX c #B3C4BC",
"oX c #B4CCBC",
"OX c #BBCDBC",
"+X c #B8C9B7",
"@X c #BDD2BD",
"#X c #B6D1BC",
"$X c #ADC6B1",
"%X c #C6CAB9",
"&X c #C2D3BE",
"*X c #C7D7BE",
"=X c #CDD0B9",
"-X c #CFC09A",
";X c #98BAC2",
":X c #8CBAC4",
">X c #A5BDC4",
",X c #9AC8C8",
"<X c #94CCD0",
"1X c #A7C8C5",
"2X c #B4CCC3",
"3X c #BBCDC3",
"4X c #B4CCCA",
"5X c #BACAC8",
"6X c #AAD2C2",
"7X c #BDD3C4",
"8X c #BDD9C5",
"9X c #BCD5CB",
"0X c #BCD9CB",
"qX c #B4D4C7",
"wX c #BBD8D4",
"eX c #A9D1D4",
"rX c #BBE3D5",
"tX c #A5EAF3",
"yX c #C3CDC2",
"uX c #C2D5C4",
"iX c #C4D9C5",
"pX c #CBDBC5",
"aX c #C2D6C9",
"sX c #C4DACB",
"dX c #CBDCCB",
"fX c #CAD5C6",
"gX c #D4DBC9",
"hX c #C4DCD2",
"jX c #CBDCD3",
"kX c #CDDED8",
"lX c #D1DED2",
"zX c #CDE1CC",
"xX c #C5E1CB",
"cX c #D2E2CD",
"vX c #D8E8CC",
"bX c #CCE2D3",
"nX c #CAE7D8",
"mX c #D4E3D3",
"MX c #DBE5D3",
"NX c #D4E9D5",
"BX c #DBEAD4",
"VX c #D3E5D9",
"CX c #D5EADC",
"ZX c #DBECDC",
"AX c #DBE6DA",
"SX c #DBF1DA",
"DX c #E4EBD8",
"FX c #E8F3DB",
"GX c #F4F4DD",
"HX c #DBEDE2",
"JX c #D6ECE3",
"KX c #DAF6E9",
"LX c #E8EFE2",
"PX c #E9F6E5",
"IX c #F7F9E6",
"UX c ivory",
/* pixels */
"H.) ' 4XfX0   q N...R.^.9XsX1X2XJ.fX{././.j.9.w q e yXK.Y @.2X5.v k.Q =.dX(.@ - c N.5.R.|.9XwX5X/.W.*X{.~.R.9.b & s g DXa.@.1.2X",
"W.s.$.G $.dXr w c L.zXaX7XsXs.s.3 aXfXuXpX'.e.!.> %Xj.K @.4.<X{ B.U.a.! F a.OX= s ..3XiX7X9XwXs.{ 7.cX&XiXpXc.l.C.q zX1.K ! 9.;X",
"xXy.$.E D g.pX> J.cX7X7X7XsXI.d.3 OXuX7XoX*X'.9 %X].< ! >.5 tX3.c rX) y.E H Y.Q.p 7XsX7X7X7XhXk.3.p.pX&XuX@XcXj.3 DXe.4 ) <.=.>X",
"2.Q J } E y.qXaXdX7XuXuX7XaXR.I.f .XuX@X@X7X@Xq.PXl.I ,.4 ' M.R.b y.W I ,.! j.bXkXiX7X7X7X9XhXU.q.d.fX@X&X@XiXP.0.FXy.P <.I ' T.",
"fX/ F I ( a.7XaXfXaXuX7X2XbXY.J.3 oXuXOX7X7X@XJXPX1X) I R K '.!.=X5X< L 5 8 k.VXJX&XuX7X7X7XbXd.H.p.pX+X@X@X7X@X7XBXk.$.E L ) uX",
"x &X2.U $.R.{.2XfXuXuXaXnXsXk.L.I.sXaXdXfXiXiXJXCX|.g.*.T '.n * s N.|.$.5 >.R.dXVXuXuX7XsXCX4Xa.XXY.uXxXiXiXiX8XaXsX Xh.! ,.L.a ",
"w w E.sXbXCXZXlXuXuX2X}.6.: s !.L.a  .V.L.W.L.VXZXBXBXNXuXz   s C * s +XdXbXCXHXlXfXaX3X/.5.= ..[.B.p ..S.P.L./.ZXZXBXcXCXW.* @ ",
"w $ B.uXcXNXNXgXpXcXFXPXx X % z z & & Q.pX+XA.gXBXOXOX/.6.p . c Z.& a W.zXcXmXHXDXgXMXIXgXr @ * z e $ z *X%XQ.!.LXmXoX+XL.5.* X ",
"l /.LX7X7XaX2XuXMX1Xg.l.aXq @ C C # =X|.l.Y.CX9X@XiX&X@XbXaXB.W.R. .3XmX7X7X7XhXZXcX,Xg.Y.yX@ 0 A i g vXK.c.6X9X/.*X@X@X&XNX}.C.",
"f.BX7XuXuXuX2XdX3X3.< F / {.a y y %Xj.J Q 9.wX XOXuX&X@X+XaXKX^ i.H.MXOX7XuX7X9XjX}.1.K 1 u..Xp z u fX#.K +.q.1XJ.*X@X@X&X+XzXnX",
"U.mXaXuXaXuXoXfXvXj._ T F ) pXD.=Xv.J ! 2.6 wXV.Q.fX@X@X@X@X X^ a.1XfXuX7XuXuX9XdXzX1._ E 2 u.vX!.gX%.K #.6 z.wXR.pX@X@X@X@X7XY.",
"U.cX7X7X7X7X7X3XvXg.W ,.T L g.mX2X*.Q 2.I K rX5.Q.pX&X@XuXiX|.7 p.4XfXaX7XuX7XhXXX*X#.L _ R Q a.(.qXQ +.( K h.0XU.fX@X@X@X7XuXT.",
"F.dX3X3X3X7XiXa W.x.S H _ Q M.d.W.h.#.! J ( aXs V.pX@X7X7XaXqX( f.5XfX9X7XoXzXL.0 |.) H I ~ :.l.4.2X#.U Q L j..X= W.@X@X7X7X9X X",
"5XMXdXdXiXZX..= 0 W.I._ ,.,XVXq.P. X*.@.1.(.h # a aXuXdXdXzXMXJ.^.lXmXlXdXzXdX> * k yXa._ 9.wX~.d.nXx.&.! k.!.> # ..zXuXzXdXmXmX",
"IX5Xd.f.f.8.l : g @ A.Q.w.5.B.h S.V.d.I.A.& q # x q.j 7.q.U.PXIXIXLXU.d.f.p.v p w s > yXJ.5.5.8. .V.V.s.R.Z.* s # N. .j 9.0.}.IX",
"UX;X^ [ t.eX1Xk s w n `.N...h 0 J.v x A.v $ x x c w.| } 7.Y.PXPXIXIXp.^ [ p.4Xq.a r 0 C.)...k ..c 6.x N ).q % x x v 7.[ ,.t.1XIX",
"fXJ.9.0.9.9.c O z X fX9Xg.1.7Xk }.n.*.aXDX= & : s A.p.f.Y.1XVXLXlXdXV.0.s.a.q.p - s q DX'.h.l.}.c 2Xh.-.FX%XO q $ ..G.t.a.T.2XDX",
"0.BXpXfXdX1.H.Z.$ (.Y.4 Y 3.1XX.V.2.&.! 2.fXq $ N.k 9XsXsXsX1X0.4.H.vXpXpXqX%.!.z w *Xy.4 4 I.,X8.^.2.&.! j.%X@ q n 8.zXfXsXaX9X",
"0.cX3X7X@X#Xv.l (.v.J Q ( ,.<Xj $XY.,.! F 1.cX0 a sXuX9X9XaX1XX.X.q.gX&X@XuX'.2.n iX:.F ! >.z.,Xk CXa.,.R D x.+X- X.zXuX7X7X7XqX",
"0.cXuX7X@XpXk.{ PX#.Q ( ~ &.<Xj 0.h.P ,.` D  XJ.XXdX7XaXuXaX4X7.7.0.gX&X@X@XvX[ J.KXW Y ,.P :.R.> x.;.J <.I ) 8X/.aXfXuXuXuX7X0X",
"F.fXOX7X@X@X+X}.NXu.U ` W P bX=XyX) F I ,._ oXoXiXaXuX7X9X7XwXd.7.8.pXOX@X7X7XoXPXsX*.$.! Q +.cX%X2XU F T ,.u.#XmXdXuXuXuX7X8X9X",
"p.mX7X7X7X7X7XaXdX9.#.W F /.6...Z.OX$.K 5 7.Q..XfXiXuXuX0XJX,X0.k.k.BXuXuX@X7X8XZX8Xj.! Q U {.n t C.2X~ K 5 0..XsXfXuXuXiXaXHXH.",
"5X8.1X{.{.oXqXaXiXNXwXR.5Xv $ m t r .X|.'. XdXyXsXfXoXoXXXC.k E.fX/.q.}.}.oX7X8XZXcXbX6XR.XXh . n r c oX^.,XqXdXjXfX7XoXoX5X..a ",
"> p 0 b V Z.Q.PXcXdXZXCXb @ @ x z . : yXBXdXfXMXfXQ.!.OXV.; @ t h > % s b V A.mXLXfXNXPX3Xw @ * x s + h NXcX7XsXAXpX!.!.+Xc # & ",
"N X %XvXQ.Q.dXOX&XOX@X}.oXV.N.pX6.h fXuXsXuXsXOXvXBX6X0XPXb . n `.e t vX&XP.[.dXNX@X&X@X}.yXk C.@Xc 8.fXaXaXsX7XVXDXpX X7XfXw % ",
"y !.Y.T #.R.1XJ.pX&X@XuX@XZX;Xj.,.aXmXuXuXuXsXW.2XT.U F / /.r % i u lXh.Q 1.P.rXCX*X*X@XuX7XLXI.( p.VXsX7X7XaX9XKXuXk.I J ,.(.* ",
"%Xc.4 Q ( a.qXP.fX&XuXuX@XfX2.u.a.dXiXiXuXuX0XJ.iXY.( ~ D E sXN.B MX%.W T 8 c.nXsX&XuXuX@XoX3X( 7 k.dX7X7X7X7X9XJXMXq.,.! 2 1.vX",
"6XK ! ,.1 h.qXH.zXaXuXuX7XzX0.3.a.fXsXuXuX7X0XJ.uX6XQ ,.) R y.pXIXj.W ) 8 Y Y.9XJ.*X&XuX7X7X7X4.[ H.NX7X7X7X7X7XKXvXK.I ,.E D z.",
"H.#.,.5 P y.+Xh 3X@X7XuX7XzXk.<.t.oX9X7X7XoXCXB.V.Y.1 R ,.! *.k.5Xc.#.6 @.J c.A.c NXOX7X7X7XiX0.[ s.mX9X7X7X7XBXG.!.a.S E 1.' :.",
"~.j.Q L ,..Xs @ 8.ZXsXiXuXdX}.s.;XiXiXiXiXzXXX0 @ J.I.I P ,.T.^.wXJ.,.W K a.E.w & ~.BXfXiX7XzXA.0.H.NXiXsXaXCXL.= : W.p.I T a.:X",
"+X1Xz.a.E.0 q o V.J.F.L.}.mXGXMXFXAX2X1XI.U.N.@ e : A.7XI.T.2X8.q.7X].y.I.V.% w @ J.G.F.^.1XZXFXMXZXVX2X1XR.J. .$ e - (.3XY.}.1X",
"s v C.C.p q x s 6.j [ <.<.>XIXIXUXaXo.i.i.X.0.8...k p Z...v X.a q c 6.A.N.; q s z 8.j ( t.a.hXIXLXUX>Xo.o.o.{ 8. .v d s Z.s  .{ ",
"R.z.'.UXN.  C.= 8.U.^ a.k.1XIXPXIXXX7 j [ Y.T.- c r t GX7Xa.P.b x '.x.bXIX* % N.% J.7.[ 9.I.hXIXIXPXL.7 j [ ,Xq.+ ..& N.IX1X9.W.",
"d.*.R k.2Xv   q O. .2XqX7X9XT.J.b &X+X+X7Xv.>.m * t gX2.K 4 1X7.B.r.W ] P.oX0   x v V.2X2X2X9XU.J.q.iX+XOX9X1.b x $ m iX%.W $.1X",
"|.k.,.1 U 0XN.% c 7XfXaX7XxXd.4.> @XpX*X*XoXg./.z +X1.J +.3.<X| B.1Xq.U 2 1.vXa w 6.dXuX7X7XhXs.X.7.pX@X&XfX].v.C.m 7XI W ) 3.,X",
"'.-.) ,.D $.iX .3XaX7X7X7XsXI.d.j .XiX&X@X*X|.2 lXb.< ! z.@.<X} a eX! u.E 2 ,XOXc mXuX7X7X7XxXk.7.p.dX7X@X@XdXj.3 UX%.J 1.6 ! eX",
"a.P P _ ) ,.oXjXdX7X7X7X7XsXR.H.{ .X*X@X@X@X@XP.ZXY.Q u.U P z.jX!.,.L I u.E n.ZXHXuX7X7XuX7XhXU.d.d.dX7X7X7X7X{.L.PXg.! / Y K ,X",
"gX,.< P 5 s..X5XfXuX7X7X2XCXx.8.7 aX&X@X@X7X@XHXHX'.1.I F I  XE.(.yX6 < I ,.x.CXHXaXaX7X7X9XJXp.U.t.dX3X7X7X7X@XsXBXk.U P < 1.!.",
"r !.k.,.u.T.7XaXsXsXsXsXbX>X0..X2X5XXXxXiX7X#XnXnX7XY.z.z.}.h * t v +X9.( <.4XhXCXsXsXaXhXhXJ.q.uX1XW.9XdXuX7X#XaXdXoXY.v.c.A.$ ",
"w @ V.+XOX@XmXmXaX+X.X/.c $ w A...* p 5.L.3XaXmXDXLXPXBXE.r   q N $ > E.[..X+XAXmXuX+XoXJ.w X x N.c * k 8.L.7XbXMXZXIXPXBXC.@ $ ",
"w a W.oX{.{..XfXcXOX+X=XC.- = N m X s D.!.OXcXBXdXdXiXoXA.c $ V.C.$ 8.Q.OX.X.X7XFXpXOX*X=Xn @ w m t & x !.!.+XgXMXfXsX7X}.A.c , ",
"7.5XmX7XaXaX9X7XfXY.*.y.1Xb   Z.C e vXc.h.j.oXwX&X*X@X@XsXCXXXV.s.q.mXdXaXaXaXsXdXjXv.-.j.7X: % D.u g NXv.-.K.2X|.uXOX@X&XiXfX3X",
"x.VX7X7X7X9XqXjX0X7.) D 1 1XN.e i cXy.Y Y j wX2X+XuX&XuXoX7XZX6 ,.R.lX7X7X7X7X9XmXR.<.I 1 $.@Xb z i BX+.K T q.6X7XiX&XuX@X.XuX7X",
"U.dX7X7X7XaX2XaXBXj./ $.G R 7XGXDXy.P ! >./ wXV.Q.fX&XuX7XuX X3 <.9XsXaX7XuX7XjXNXpXy._ T S y.DXgXCX#.Y #.6 y.sX2X&X&XuX&X@XuXK.",
"U.dX7X7X7X7XsXL.cX2.G [ _ R u.^.T.;.Y >.T Y nX5.Q.pX7X7XuXfX|.7 p.5XsXaXuXuX7XjXJ.iXT L 2.I &.u.V.,X@.#.( P *.xX8.OX&XuXuXuXuX X",
"U.fX7X7X7XbXXX: 6.I.G H ~ =.,Xd.W.u.) Q < u.~.% v sXuX7X7X7X2X[ f.5XuXaXaX7XCXV.$ J.u.G F ) :.k.8.2X$.U P < c.E.0 V.iXuXuX7X7X7X",
"jXMXuX3X2X3Xd p q N.oXj.j.W.sX0.}.hXm.&.x.E.a # r jXOX7XiXdXDX+XaXMXNXaX2XqXXX> q s Q.1Xz.z.hX~.V.nX6X-.#.R.Z.0 # ..fX{.7XiXzXFX",
"IX>Xf.i.f. .4.: x $ N.Z...8.8.a G.C.5.V.Z.@ s # x 4.7 3.d.;XLXIXIXLXx.f.i.t.5.k w z - E.V.F.8.4.k V.B.6.B.v @ s & n l ^ 7.d.4XIX",
"IXI.} t.a.R.H.d N.k ..D.N.H.}.0 OX^.J.gXC.= n n a k.} t.j.I.PXIXUXFX7.| <.d.R.8.k n s Z.).G.J.W.w Q.T.OXDX..> N.d b I.} t.a.T.PX",
"}.~.V.q.q.c.b   s q =XI.+.1.VXk J.h.&.qXMX: % 0 x 6.s.d.R.}.hXaX^.oXJ.w.w.s.x.a X t e cXv.@.j.4Xv /.*.&.VXyX= * & B.6.7.s.'.2XbX",
"7.BXpXgXcXg.l.C.e gX1.4 Y 9.eX{ J.k.-.P ( sXc % x 0.zXdX7XsX'.[ { H.BXzXcXxX1.{.n t gX%.K / x.:X5.4X9.*.F 1.sXp p b J.zXsXaX0X4X",
"0.cX@X@XoXiXg.j DX1.J #.>.=.eXj R.n.$.) 1 ^ SXd  .bX7X7X7XaX|.3.7.H.dX7X7XuX8X,.c ZX+.J ) 8 n.,Xa rXg.$.U S g.fXp V.zXoX7X7X9XqX",
"0.zX@XuX7XiXK.4.FX#.Q 2.U ! <X..d.&.P _ / I  X}.7XiX7X9X7XaX2Xk.p.F.fX7X7X7XdX4.^.nXY U ( Y :.,Xk a.&.L } U =.qXaXdX7XuX7X7X7XsX",
"a.dXoXaX7X@X@XiXNXj.$.U Q U sXDXDX,.J I 8 8 6X9XfXuX7X7X7XsX4Xd.d.s.fXOX@X@X#XuXPXxX%.U I J $.mXgXfX~ F I [ u.2XjXfXuX7X7X7XaX2X",
"Y.dXsXfXuXuX8XdXuXR.=.' ) ~.h d x %X9.T / 9. X|.aXuX7X7XsXZXF.q.U.T.mX8X7X7X7X8XJX#Xk.*.! $.Q.s s b OX,.T #.R.}.dXfXuX7X7XsXCXS.",
"V.d 8.L.}.}.oXAXNXNXxXxXXXr $ z z , E.sX9XbXbXbXdXsXaX9XW.k * Z.(...d V.}.2XoXoXLXvXBXzXbX~.: & N s r E.oXqXbXHXmXfXdXaXsXL.h q ",
"a X r OXfX+X.XFXBXuX@XA.v = $ V z + b Q.[.[.OXLXDXBXDXIXZ.@ $ t z $ X b fXgXOX%XFXNX7XoXS.k X : Z r $ 6..XOXsXmXmXcXdXMXAXn X * ",
"u q mX'.l.|.sX{.iX@X@X7XbX/.J.6X4.5.SXuXuXuXiXoXcXNXY.T.JXx   n -X; N NXK.r.+XCXmX@X7X@X7XbXV.C.[.v J.ZX7X9XaX0XVXDXqXj.Y.NXk . ",
"u yX1.W +.q.eXL.pXuXuXuX+XFXI.t.[ aXuX7X7X7XaXW.2XR.) L U 1Xb & M C 9XT Q $.R.rXcX&X&X&X@XoXIXk.6 a.lXaX7X7X9X0XJX7Xk.K < ~ oXs ",
"sX$.J ) 8 a.9XH.cX&XuX@X@XfX9.<.p.sXfXuXuXuXiXL.fXR.( ) S I wX!._.9XY W #.7 Y.jX{.*X&XuX7X7X7X{ j :XdXaX7X7X7X9XJXvXc.$.I S $.vX",
":XW T ( K h.9XH.cXuXuX7X@XdX0.<.<.uXfXuXuX7XsXL.@X'.P / _ H ) 9XPXg.W $.( J ].qXV.*X@X@X7X7X0X4.j ;XdX7X7X7X7X7XJXvXl.Q ,.E R z.",
"R.%./ P < z.Q.0 2XiX7XuX7XdXs.<.<.7XuX7XuX2XNX6. .'.F R _ ] -.k.eXc.=._ W L ,XN.s iX+X@X7X7XsX4.j I.dX7X7X7X2XNXc J.j.D E _ ' n.",
"R.x.&.W j.Q.& $ 5.mXiXdXuXcXXXL.1XdXiXsXuXmX/.& = 5.1X/ ! 2.1XR.1X1Xg.Q E R.N.# # L.cXuXaX0XZX~.J.5XlXsXsXaXZX8.% & L.H.T ) z.Y.",
"0XnXc.R.C.% h X C.q.7.I.U.jXIXGXPXFX5X^.U.F.4.= z - 6.gX~.~.(.5.5.mXqXx./.b & w & E.0.0.P.R.AXIXFXPXmX^.R.I.V. .: s @ !.%X/.OXW."
};
