/* XPM */
static char *h100_removebg_preview1742492519[] = {
/* columns rows colors chars-per-pixel */
"128 32 189 2 ",
"   c #0B0002",
".  c #0C000A",
"X  c #160003",
"o  c #190003",
"O  c #16000A",
"+  c #1C0008",
"@  c #230003",
"#  c #2B0000",
"$  c #23000B",
"%  c #2C000C",
"&  c #330000",
"*  c #3B0001",
"=  c #420000",
"-  c #4A0000",
";  c #540000",
":  c #5B0000",
">  c #600000",
",  c #7B625D",
"<  c #7A6265",
"1  c #76676A",
"2  c #7A666F",
"3  c #75696F",
"4  c #796B68",
"5  c #756570",
"6  c #736971",
"7  c #7E6872",
"8  c #EE2F3E",
"9  c #F22F3F",
"0  c #FF2B3D",
"q  c #E33034",
"w  c #ED3639",
"e  c #ED3B3C",
"r  c #F33335",
"t  c #F03836",
"y  c #F4343D",
"u  c #FB353E",
"i  c #F53A3C",
"p  c #FB3A3D",
"a  c #BF3F4C",
"s  c #CF3955",
"d  c #C13C5A",
"f  c #CC3C5E",
"g  c #C43A53",
"h  c #D63556",
"j  c #DE3559",
"k  c #D33C5D",
"l  c #DC3A5D",
"z  c #DA3D52",
"x  c #FF2E43",
"c  c #E43640",
"v  c #EE3444",
"b  c #E43C45",
"n  c #ED3D46",
"m  c #E4374A",
"M  c #E33D4D",
"N  c #EC3B4C",
"B  c #F63444",
"V  c #FC3543",
"C  c #F53B44",
"Z  c #FB3941",
"A  c #F4354A",
"S  c #FB354B",
"D  c #F4394D",
"F  c #FC3C4A",
"G  c #E23A51",
"H  c #EB3C55",
"J  c #EC3C5B",
"K  c #E93759",
"L  c #F43753",
"P  c #F23A52",
"I  c #FC3D52",
"U  c #F33E5B",
"Y  c #C83A68",
"T  c #C93C65",
"R  c #DE3763",
"E  c #DA3A63",
"W  c #DB3669",
"Q  c #D43B69",
"!  c #E13D60",
"~  c #E0396D",
"^  c #984B5D",
"/  c #A7405B",
"(  c #BD4753",
")  c #B64F53",
"_  c #B4445C",
"`  c #B64D5B",
"'  c #BD4A59",
"]  c #AA555D",
"[  c #B65A5B",
"{  c #80635D",
"}  c #895665",
"|  c #9E546E",
" . c #945969",
".. c #AF4261",
"X. c #AD4A65",
"o. c #AF476C",
"O. c #AF4C68",
"+. c #A64A63",
"@. c #B54364",
"#. c #BA4667",
"$. c #B14B65",
"%. c #BC4A64",
"&. c #B5476C",
"*. c #B9446E",
"=. c #B24A6B",
"-. c #BB4D6C",
";. c #AD5563",
":. c #BA5160",
">. c #B35168",
",. c #BC516F",
"<. c #B64571",
"1. c #B94472",
"2. c #B84977",
"3. c #AD5772",
"4. c #A05373",
"5. c #826563",
"6. c #8B6660",
"7. c #816C67",
"8. c #82656C",
"9. c #826D68",
"0. c #8A6A6A",
"q. c #826573",
"w. c #C6494D",
"e. c #C3444F",
"r. c #DD424E",
"t. c #C34B56",
"y. c #CB4D53",
"u. c #C34C5C",
"i. c #CA4B5B",
"p. c #CD415C",
"a. c #DB4457",
"s. c #D4435C",
"d. c #DB4359",
"f. c #D24B5D",
"g. c #D84B57",
"h. c #C7525A",
"j. c #EA4142",
"k. c #E4434B",
"l. c #EC444C",
"z. c #F44147",
"x. c #FB4244",
"c. c #F2414D",
"v. c #FB434C",
"b. c #E34354",
"n. c #EB4352",
"m. c #EA435A",
"M. c #FF4150",
"N. c #F0415E",
"B. c #EC5E5A",
"V. c #F25157",
"C. c #FF5259",
"Z. c #F8595E",
"A. c #F2555E",
"S. c #C34365",
"D. c #CC4160",
"F. c #C94C6A",
"G. c #D54163",
"H. c #D34C6A",
"J. c #C05069",
"K. c #C35465",
"L. c #D55765",
"P. c #CC4B74",
"I. c #E1426A",
"U. c #F34060",
"Y. c #EB5E65",
"T. c #FC5664",
"R. c #F45B64",
"E. c #F95962",
"W. c #F2566A",
"Q. c #FD5668",
"!. c #F45B6B",
"~. c #FF5D6A",
"^. c #F35661",
"/. c #F45B70",
"(. c #F45774",
"). c #DB6879",
"_. c #E56363",
"`. c #EB6065",
"'. c #F3637A",
"]. c #FF7E93",
"[. c #FF828E",
"{. c #FF8C8E",
"}. c #FF8695",
"|. c #FF8991",
" X c #FF849E",
".X c #FF9193",
"XX c #EE91A4",
"oX c #FFB1B3",
"OX c None",
/* pixels */
"OXOXOXOXOXOXOXOXOXOXOXOXOXOXOXOXOXOXOXOXOXOXOXOXOXOXOXOXOXOXOXOXOXOXOXOXOXOXOXOXOXOXOXOXOXOXOXOXOXOXOXOXOXOXOXOXOXOXOXOXOXOXOXOXOXOXOXOXOXOXOXOXOXOXOXOXOXOXOXOXOXOXOXOXOXOXOXOXOXOXOXOXOXOXOXOXOXOXOXOXOXOXOXOXOXOXOXOXOXOXOXOXOXOXOXOXOXOXOXOXOXOXOXOXOXOXOXOX",
"OXOXOXOXOXOXOXOXOXOXOXOXOXOXOXOXOXOXOXOXOXOXOXOXOXOXOXOXOXOXOXOXOXOXOXOXOXOXOXOXOXOXOXOXOXOXOXOXOXOXOXOXOXOXOXOXOXOXOXOXOXOXOXOXOXOXOXOXOXOXOXOXOXOXOXOXOXOXOXOXOXOXOXOXOXOXOXOXOXOXOXOXOXOXOXOXOXOXOXOXOXOXOXOXOXOXOXOXOXOXOXOXOXOXOXOXOXOXOXOXOXOXOXOXOXOXOXOX",
"OXOXOXOXOXOXOXOXOXOXOXOXOXOXOXOXOXOXOXOXOXOXOXOXOXOXOXOXOXOXOXOXOXOXOXOXOXOXOXOXOXOXOXOXOXOXOXOXOXOXOXOXOXOXOXOXOXOXOXOXOXOXOXOXOXOXOXOXOXOXOXOXOXOXOXOXOXOXOXOXOXOXOXOXOXOXOXOXOXOXOXOXOXOXOXOXOXOXOXOXOXOXOXOXOXOXOXOXOXOXOXOXOXOXOXOXOXOXOXOXOXOXOXOXOXOXOXOX",
"OXOXOXOXOXOXOXOX0.o @ o 6.OXOXOXOXOXOXOX4 X @ o 1 OXOXOXOXOXOXOXOXOXOXOXOXOXOXOXOXOXOXOXOXOXOXOXOXOXOXOXOXOXOXOXOXOXOXOXOXOXOXOXOXOXOXOXOXOXOXOXOXOXOXOXOXOXOXOXOXOXOXOXOXOXOXOXOXOXOXOXOXOXOXOXOXOXOXOXOXOXOXOXOXOXOXOXOXOXOXOXOXOXOXOXOXOXOXOXOXOXOXOXOXOXOXOX",
"OXOXOXOXOXOXOX@ * K.i.t.= # 4 OXOXOX2 @ * ) ( ` # + 6 OXOXOXOXOXOXOXOXOXOXOXOXOXOXOXOXOXOXOXOXOXOXOXOXOXOXOXOXOXOXOXOXOXOXOXOXOXOXOXOXOXOXOXOXOXOXOXOXOXOXOXOXOXOXOXOXOXOXOXOXOXOXOXOXOXOXOXOXOXOXOXOXOXOXOXOXOXOXOXOXOXOXOXOXOXOXOXOXOXOXOXOXOXOXOXOXOXOXOXOXOX",
"OXOXOXOXOXOX# ] u.d.G G g.) # 5.OX7 # ;.t.g.M d._ ^ % q.OXOXOXOXOXOXOXOXOXOXOXOXOXOXOXOXOXOXOXOXOXOXOXOXOXOXOXOXOXOXOXOXOXOXOXOXOXOXOXOXOXOXOXOXOXOXOXOXOXOXOXOXOXOXOXOXOXOXOXOXOXOXOXOXOXOXOXOXOXOXOXOXOXOXOXOXOXOXOXOXOXOXOXOXOXOXOXOXOXOXOXOXOXOXOXOXOXOXOXOX",
"OXOXOXOXOX@ ` f.!.b.Q.n.M r.L.*  .# ` s.}.[.c.D N.G.$.# q.OXOXOXOXOXOXOXOXOXOXOXOXOXOXOXOXOXOXOXOXOXOXOXOXOXOXOXOXOXOXOXOXOXOXOXOXOXOXOXOXOXOXOXOXOXOXOXOXOXOXOXOXOXOXOXOXOXOXOXOXOXOXOXOXOXOXOXOXOXOXOXOXOXOXOXOXOXOXOXOXOXOXOXOXOXOXOXOXOXOXOXOXOXOXOXOXOXOXOX",
"OXOXOXOXo ] f.W.!.!.^.E.C D m g.- ` H.[.b.n B F S K G.X.o OXOXOXOXOXOXOXOXOXOXOXOXOXOXOXOXOXOXOXOXOXOXOXOXOXOXOXOXOXOXOXOXOXOXOXOXOXOXOXOXOXOXOXOXOXOXOXOXOXOXOXOXOXOXOXOXOXOXOXOXOXOXOXOXOXOXOXOXOXOXOXOXOXOXOXOXOXOXOXOXOXOXOXOXOXOXOXOXOXOXOXOXOXOXOXOXOXOXOX",
"OXOXOXOX* t.!.Y..XoX.XE.C.C C A M b.[.k.D C u Z V I J #.@ 7 OXOXOXOXOXOXOXOXOXOXOXOXOXOXOXOXOXOXOXOXOXOXOXOXOXOXOXOXOXOXOXOXOXOXOXOXOXOXOXOXOXOXOXOXOXOXOXOXOXOXOXOXOXOXOXOXOXOXOXOXOXOXOXOXOXOXOXOXOXOXOXOXOXOXOXOXOXOXOXOXOXOXOXOXOXOXOXOXOXOXOXOXOXOXOXOXOXOX",
"OXOXOXOX) a.m A._.{.`.V.e F V F V C l.b z.V p u B v U.f 4.o OXOXOXOXOXOXOXOXOXOXOXOXOXOXOXOXOXOXOXOXOXOXOXOXOXOXOXOXOXOXOXOXOXOXOXOXOXOXOXOXOXOXOXOXOXOXOXOXOXOXOXOXOXOXOXOXOXOXOXOXOXOXOXOXOXOXOXOXOXOXOXOXOXOXOXOXOXOXOXOXOXOXOXOXOXOXOXOXOXOXOXOXOXOXOXOXOXOX",
"OXOXOXo t.n.v v.A.R.~.c x.t i u p p q z.C x u u Z C H p.3.@ @ # @ @ @ @ @ @ @ @ @ @ @ @ @ @ @ @ @ @ @ @ @ @ @ @ @ @ @ @ @ @ @ @ @ @ @ @ @ @ @ @ @ @ @ @ @ $ @ @ @ @ @ @ @ @ @ @ @ @ @ @ @ @ @ @ @ @ @ @ @ @ @ @ @ @ @ @ @ @ @ @ % $ @ @ # @ @ @ @ O . OXOXOXOXOX",
"OXOXOXo a D F y D T.v M.y i x.i i p x.C V V u p r F J f O.* +.>.X.O.O.O.O.O.O.O.O.O.O.O.O.O.O.O.O.O.O.O.O.O.O.O.O.O.O.O.O.O.O.X.O.O.O.O.O.O.O.O.O.O.O.O.O.O.O.O.O.O.O.O.O.O.O.O.O.O.O.O.O.O.=.X.O.O.O.O.O.O.O.O.O.O.O.O.O.O.O.=.=.=.=.$.$.$.O.O.o.| X OXOXOXOXOX",
"OXOXOX@ f.v F Z F B S 0 V u u p i t x.w C F Z i F 8 U E &.= H.s d.a.d.a.a.d.d.a.d.d.a.a.a.a.a.a.d.d.a.a.a.a.a.a.d.d.a.a.a.a.d.a.d.d.a.a.a.a.a.a.a.a.a.a.a.a.d.g.a.a.a.a.a.a.a.d.d.g.a.a.a.a.a.d.d.d.d.a.a.a.a.a.d.d.a.a.a.a.d.a.a.b.a.a.a.a.a.s.H./ @ OXOXOXOXOX",
"OXOXOX@ t.l.v u F F V V u u F y i p w i Z C C i i v.K E -.- '.~.T.T.T.T.T.T.E.T.T.T.T.T.T.T.T.T.T.T.T.T.T.T.T.T.T.T.T.T.T.T.T.T.T.T.T.T.T.T.T.T.T.T.T.T.T.T.T.T.T.T.T.T.T.T.T.T.T.T.T.T.T.T.T.T.T.T.T.T.T.T.T.T.T.T.T.T.T.T.T.T.T.T.E.Z.A.E.E.W.s %.@ OXOXOXOXOX",
"OXOXOXOX* w.l.C B y Z p i x.C F V V V F V y i F C N l T = XX|.{.{.{.|.|.|.|.|.|.|.|.|.|.|.|.|.{.|.|.|.|.|.|.|.|.|.|.|.|.|.|.|.|.|.|.|.|.|.|.|.|.|.|.|.|.|.|.|.|.|.|.|.|.|.|.|.|.|.|.|.|.|.|.|.|.|.|.|.|.|.|.|.|.|.|.|.|.|.|.|.|.|.|.{.{.{.{.}. XT ,.X OXOXOXOXOX",
"OXOXOXOX@ [ g.e C p C i e e A S S u Z u Z F V C D M G.S.- )._.B.`.Y.Y.Y.Y.Y.Y.Y.Y.Y.Y.Y.Y.Y.Y.Y.`.Y.Y.Y.Y.Y.Y.Y.`.Y.Y.Y.Y.Y.Y.Y.Y.Y.Y.Y.Y.Y.Y.Y.Y.Y.Y.Y.Y.Y.Y.Y.Y.Y.Y.Y.Y.Y.Y.Y.Y.Y.Y.Y.Y.Y.Y.Y.`.Y.Y.Y.Y.Y.Y.Y.`.`.Y.Y.Y.Y.Y.Y.Y.Y.Y.`.Y.Y.!.(.G.@.O OXOXOXOXOX",
"OXOXOXOX4 # h.r.j.i i i i F A F u p p p y F C D H s.d : s.m.e w C j.n n n n n n n n n n n n n n n n n n n n n n n n n n n n n C n n n n n n n n n n n n n n n n n n n n n n n n n n n n n n n n n n n n n n n n n n n n n n n C n n j.j.n n D H ! _ X OXOXOXOXOX",
"OXOXOXOXOX0.& t.k.i i p F B S B F u Z u V B B H k g > s.H S p p i Z Z Z Z Z Z V Z V C Z V Z Z Z Z Z i V Z Z V Z Z Z Z Z C Z Z V Z Z Z Z V Z u C Z Z Z Z V Z Z V Z Z i V V Z Z Z V Z Z Z V Z V Z Z Z Z Z Z Z Z Z Z V Z Z V Z Z i V V i i i u S L j %.o OXOXOXOXOX",
"OXOXOXOXOXOX5.& w.l.i Z u Z y F B I y F S L U d.' ; z P D t x.p Z Z Z Z Z Z Z Z Z Z p V Z Z Z Z Z Z Z Z Z Z Z Z Z Z Z Z Z Z i Z Z Z Z Z Z Z Z Z Z Z Z Z Z Z p Z Z Z Z Z Z Z Z Z Z Z Z Z i Z Z Z Z Z Z Z Z Z Z Z Z Z Z Z Z Z Z F F C Z C V F S L j @.X OXOXOXOXOX",
"OXOXOXOXOXOXOX5.* y.M F u i x.i S x F v I J l d - u.m.L N N N N D D D A D D D D D D D A D D D D D D D D D D D D D D D D D A D D D D D D D D D A D D D A D D D D D D D D D D D D D D D D D D D D D D D D D A D A D D D D D D D D D D H D H L U J I...o OXOXOXOXOX",
"OXOXOXOXOXOXOXOX, # h.l.F u p r p V F D G k @.- P.Y E ! R E ~ W R R R R R R R R ! R R R R R R R ! R R R R R R R R R R R R R R R R R R R R R R R R R R R R R R R R R R R ! R R R R R R R R R R R R R R R R R R R R R R R R R R R R W R E E E E Q Y 2.+ OXOXOXOXOX",
"OXOXOXOXOXOXOXOXOX9.* e.k.i x.i p y B U T -.# | &.#.#.#.@.1.1.1.1.*.*.*.*.*.*.&.*.*.*.*.*.*.*.*.1.*.*.*.*.*.*.*.*.*.*.*.*.*.*.*.*.*.*.*.*.*.*.*.*.&.*.*.*.*.*.&.*.*.*.*.*.*.*.*.*.*.*.*.*.*.*.*.*.*.*.*.*.&.*.*.*.*.*.*.*.*.*.&.<.1.<.&.#.&.&.&.o.4.X OXOXOXOXOX",
"OXOXOXOXOXOXOXOXOXOX9.& y.k.w x.i F L h $.@     X o @ o o O O O X + o o o o + o + o o o o + o o o o o o o o o o + o o o o + o o o o o o o + o o o + o o o o + o + X o o o o + o o o o o o + o o o + o o + o o o o o o X o + o o X X + o o o o o o O   OXOXOXOXOX",
"OXOXOXOXOXOXOXOXOXOXOX5.* y.k.b l.m l F.# 2 OXOXOXOXOXOXOXOXOXOXOXOXOXOXOXOXOXOXOXOXOXOXOXOXOXOXOXOXOXOXOXOXOXOXOXOXOXOXOXOXOXOXOXOXOXOXOXOXOXOXOXOXOXOXOXOXOXOXOXOXOXOXOXOXOXOXOXOXOXOXOXOXOXOXOXOXOXOXOXOXOXOXOXOXOXOXOXOXOXOXOXOXOXOXOXOXOXOXOXOXOXOXOXOXOXOX",
"OXOXOXOXOXOXOXOXOXOXOXOX{ # h.g.a.p.$.# q.OXOXOXOXOXOXOXOXOXOXOXOXOXOXOXOXOXOXOXOXOXOXOXOXOXOXOXOXOXOXOXOXOXOXOXOXOXOXOXOXOXOXOXOXOXOXOXOXOXOXOXOXOXOXOXOXOXOXOXOXOXOXOXOXOXOXOXOXOXOXOXOXOXOXOXOXOXOXOXOXOXOXOXOXOXOXOXOXOXOXOXOXOXOXOXOXOXOXOXOXOXOXOXOXOXOXOX",
"OXOXOXOXOXOXOXOXOXOXOXOXOX0.* ` -.=.# 8.OXOXOXOXOXOXOXOXOXOXOXOXOXOXOXOXOXOXOXOXOXOXOXOXOXOXOXOXOXOXOXOXOXOXOXOXOXOXOXOXOXOXOXOXOXOXOXOXOXOXOXOXOXOXOXOXOXOXOXOXOXOXOXOXOXOXOXOXOXOXOXOXOXOXOXOXOXOXOXOXOXOXOXOXOXOXOXOXOXOXOXOXOXOXOXOXOXOXOXOXOXOXOXOXOXOXOXOX",
"OXOXOXOXOXOXOXOXOXOXOXOXOXOX5.@ } o < OXOXOXOXOXOXOXOXOXOXOXOXOXOXOXOXOXOXOXOXOXOXOXOXOXOXOXOXOXOXOXOXOXOXOXOXOXOXOXOXOXOXOXOXOXOXOXOXOXOXOXOXOXOXOXOXOXOXOXOXOXOXOXOXOXOXOXOXOXOXOXOXOXOXOXOXOXOXOXOXOXOXOXOXOXOXOXOXOXOXOXOXOXOXOXOXOXOXOXOXOXOXOXOXOXOXOXOXOX",
"OXOXOXOXOXOXOXOXOXOXOXOXOXOXOX3 X 2 OXOXOXOXOXOXOXOXOXOXOXOXOXOXOXOXOXOXOXOXOXOXOXOXOXOXOXOXOXOXOXOXOXOXOXOXOXOXOXOXOXOXOXOXOXOXOXOXOXOXOXOXOXOXOXOXOXOXOXOXOXOXOXOXOXOXOXOXOXOXOXOXOXOXOXOXOXOXOXOXOXOXOXOXOXOXOXOXOXOXOXOXOXOXOXOXOXOXOXOXOXOXOXOXOXOXOXOXOXOX",
"OXOXOXOXOXOXOXOXOXOXOXOXOXOXOXOX6 OXOXOXOXOXOXOXOXOXOXOXOXOXOXOXOXOXOXOXOXOXOXOXOXOXOXOXOXOXOXOXOXOXOXOXOXOXOXOXOXOXOXOXOXOXOXOXOXOXOXOXOXOXOXOXOXOXOXOXOXOXOXOXOXOXOXOXOXOXOXOXOXOXOXOXOXOXOXOXOXOXOXOXOXOXOXOXOXOXOXOXOXOXOXOXOXOXOXOXOXOXOXOXOXOXOXOXOXOXOXOX",
"OXOXOXOXOXOXOXOXOXOXOXOXOXOXOXOXOXOXOXOXOXOXOXOXOXOXOXOXOXOXOXOXOXOXOXOXOXOXOXOXOXOXOXOXOXOXOXOXOXOXOXOXOXOXOXOXOXOXOXOXOXOXOXOXOXOXOXOXOXOXOXOXOXOXOXOXOXOXOXOXOXOXOXOXOXOXOXOXOXOXOXOXOXOXOXOXOXOXOXOXOXOXOXOXOXOXOXOXOXOXOXOXOXOXOXOXOXOXOXOXOXOXOXOXOXOXOXOX",
"OXOXOXOXOXOXOXOXOXOXOXOXOXOXOXOXOXOXOXOXOXOXOXOXOXOXOXOXOXOXOXOXOXOXOXOXOXOXOXOXOXOXOXOXOXOXOXOXOXOXOXOXOXOXOXOXOXOXOXOXOXOXOXOXOXOXOXOXOXOXOXOXOXOXOXOXOXOXOXOXOXOXOXOXOXOXOXOXOXOXOXOXOXOXOXOXOXOXOXOXOXOXOXOXOXOXOXOXOXOXOXOXOXOXOXOXOXOXOXOXOXOXOXOXOXOXOXOX",
"OXOXOXOXOXOXOXOXOXOXOXOXOXOXOXOXOXOXOXOXOXOXOXOXOXOXOXOXOXOXOXOXOXOXOXOXOXOXOXOXOXOXOXOXOXOXOXOXOXOXOXOXOXOXOXOXOXOXOXOXOXOXOXOXOXOXOXOXOXOXOXOXOXOXOXOXOXOXOXOXOXOXOXOXOXOXOXOXOXOXOXOXOXOXOXOXOXOXOXOXOXOXOXOXOXOXOXOXOXOXOXOXOXOXOXOXOXOXOXOXOXOXOXOXOXOXOXOX"
};
