/* XPM */
static char *_5c532f8f1bf495c8e072a8e60ffae07K8TN4FwNvRccdcUA[] = {
/* columns rows colors chars-per-pixel */
"128 32 188 2 ",
"   c None",
".  c #010101",
"X  c #0A0003",
"o  c #0F030A",
"O  c #150003",
"+  c #1B0001",
"@  c #16000A",
"#  c #1B0008",
"$  c #240002",
"%  c #2B0001",
"&  c #27000A",
"*  c #2B000B",
"=  c #330000",
"-  c #3B0001",
";  c #420000",
":  c #4A0000",
">  c #540000",
",  c #5B0000",
"<  c #600000",
"1  c #7B625D",
"2  c #796064",
"3  c #76676A",
"4  c #7A666F",
"5  c #75696F",
"6  c #796A69",
"7  c #756570",
"8  c #736971",
"9  c #7E6873",
"0  c #EE2F3E",
"q  c #F22F3F",
"w  c #FF2B3D",
"e  c #E33034",
"r  c #ED3639",
"t  c #EE3B3C",
"y  c #F43335",
"u  c #F03836",
"i  c #F4343D",
"p  c #FB353E",
"a  c #F53A3C",
"s  c #FB3A3D",
"d  c #BF3F4C",
"f  c #CF3952",
"g  c #C13C5B",
"h  c #CB3C5E",
"j  c #C43A53",
"k  c #D63556",
"l  c #D43C5D",
"z  c #DC3A5D",
"x  c #DA3D52",
"c  c #FF2E43",
"v  c #E43640",
"b  c #EE3444",
"n  c #E53C45",
"m  c #EC3E44",
"M  c #E4374A",
"N  c #E43D4D",
"B  c #EC3B4C",
"V  c #F63444",
"C  c #FC3643",
"Z  c #F53B43",
"A  c #FC3A43",
"S  c #F4354A",
"D  c #FB354A",
"F  c #F33B4B",
"G  c #FC3C4A",
"H  c #E23A51",
"J  c #EB3C53",
"K  c #ED3E5A",
"L  c #E93759",
"P  c #F43651",
"I  c #FF3750",
"U  c #F23B51",
"Y  c #FC3D53",
"T  c #F33E5B",
"R  c #C63E64",
"E  c #CC3965",
"W  c #DC3763",
"Q  c #DA3A64",
"!  c #DA3A68",
"~  c #DB346A",
"^  c #E03665",
"/  c #E0396D",
"(  c #984B5D",
")  c #BD4753",
"_  c #B64F53",
"`  c #B6475A",
"'  c #B64D5B",
"]  c #BB4C5A",
"[  c #AE545E",
"{  c #A6555C",
"}  c #B65A5B",
"|  c #80635D",
" . c #895665",
".. c #985669",
"X. c #AC4965",
"o. c #AF476C",
"O. c #AE4E69",
"+. c #A64A63",
"@. c #B54365",
"#. c #BA4466",
"$. c #B24964",
"%. c #B6456D",
"&. c #B9446C",
"*. c #B14B6A",
"=. c #BB4D6C",
"-. c #AD5563",
";. c #BA5160",
":. c #B4506A",
">. c #B64572",
",. c #BA4472",
"<. c #BA457A",
"1. c #AD5574",
"2. c #826563",
"3. c #8C6760",
"4. c #816C67",
"5. c #82656F",
"6. c #826D68",
"7. c #886C68",
"8. c #826573",
"9. c #806870",
"0. c #C6494D",
"q. c #C3444F",
"w. c #DD424E",
"e. c #CF4656",
"r. c #C34B56",
"t. c #CB4D53",
"y. c #C34C5C",
"u. c #CA4B5B",
"i. c #CD415C",
"p. c #DA4554",
"a. c #D4425C",
"s. c #DB435A",
"d. c #D34B5C",
"f. c #DA4B5F",
"g. c #D74854",
"h. c #C7525A",
"j. c #E4434B",
"k. c #EC444C",
"l. c #F44147",
"z. c #FB4244",
"x. c #F2414D",
"c. c #FB434C",
"v. c #E34354",
"b. c #EB4352",
"n. c #E44758",
"m. c #EA435A",
"M. c #FF4150",
"N. c #F3415C",
"B. c #EC5E5A",
"V. c #F25157",
"C. c #FD555C",
"Z. c #F8595E",
"A. c #F2555E",
"S. c #C34365",
"D. c #CC4160",
"F. c #C94C6A",
"G. c #D54163",
"H. c #D14A68",
"J. c #C05069",
"K. c #C35465",
"L. c #D55765",
"P. c #CC4B74",
"I. c #F34060",
"U. c #ED5D65",
"Y. c #FC5662",
"T. c #F45B65",
"R. c #F95961",
"E. c #F15669",
"W. c #FD5668",
"Q. c #F55C6B",
"!. c #FF5D6B",
"~. c #F35661",
"^. c #F45B70",
"/. c #D46470",
"(. c #DB6879",
"). c #DE6B72",
"_. c #E46464",
"`. c #EB6065",
"'. c #F3637A",
"]. c #FF7E93",
"[. c #FF828E",
"{. c #FF8C8E",
"}. c #FF8592",
"|. c #FF8A92",
" X c #FF9193",
".X c #FB939C",
"XX c #EE91A4",
"oX c #FFB1B3",
/* pixels */
"                                                                                                                                                                                                                                                                ",
"                                                                                                                                                                                                                                                                ",
"                                                                                                                                                                                                                                                                ",
"                  + $ $ 3.              4.O $ + 3                                                                                                                                                                                                               ",
"              $ - K.u.r.; % 6       9.$ - ' ) ' % O 7                                                                                                                                                                                                           ",
"            % [ u.s.H v.g._ $ 2.  9.% -.r.p.N s.` ( * 8.                                                                                                                                                                                                        ",
"          $ ' d.^.v.W.b.N w.L.- ..$ ' a.|.[.x.B N.G.$.% 9                                                                                                                                                                                                       ",
"        + { d.E.E.Q.~.Y.F F N g.: ' f.].j.m Z D D L G.X.+                                                                                                                                                                                                       ",
"        - r.Q.T. XoX|.R.C.Z V F N v.[.N B Z i A C Y L S.$ 9                                                                                                                                                                                                     ",
"      O ' p.n R._.{.`.V.m Z p A C Z k.n F A A p Z b I.h ..#                                                                                                                                                                                                     ",
"      O r.b.b c.A.T.!.v c.r a a p s e l.D p C p s F H D.1.$ $ % $ & & & $ $ $ $ % + X . X X X . . . . . . . . . . . . . . . . . . . . . . . . . . . . . . . . . . . . . . . . . . . . . . . . . . . . . . . . . . . . . . . . . . . . . . . . . . . .           ",
"      + d F G i F Y.b M.i s Z a s s z.Z C C p s y F K h X.- +.:.*.*.*.*.*.*.*.*.*...                                                                                                                                                                .           ",
"      $ d.b G A F V D w C A C p a u z.r A G Z a G 0 T Q %.; H.f p.p.p.p.p.p.p.p.d.'                                                                                                                                                                 .           ",
"      + r.b.Z p G G c C A p G i Z a i a Z Z Z a a G L Q =.: '.!.Y.Z.Z.Z.Z.Z.Y.R.Q.).                                                                                                                                                                .           ",
"        - 0.k.A V i C s u z.V G C A p A C i Z Z Z U z R ; XX|.{.|.|.|.|.{.|.}.}.}..X                                                                                                                                                                .           ",
"        $ } g.m Z Z Z a a t Z D C C A p A A Z V F H G.S.: (.`.B.U.U.U.`.U.U.U.T.Q./.                                                                                                                                                                .           ",
"          % h.w.m a a a a Z S G p s s A p A G F J s.g , l m.m r Z Z m m m m m F P p.                                                                                                                                                                .           ",
"            = r.j.Z s a G V D V A i Z p A V b J a.j < a.J V s s C C Z Z Z Z Z D I n.                                                                                                                                                                .           ",
"            2.= 0.j.a s p A i G V Y V G D S T s.] > x U F i z.a A A A Z Z Z Z A V p.                                                                                                                                                                .           ",
"              2.- t.j.G p p z.i A C G V Y K z g : y.m.U B B B B U F F F F B B J N.e.                                                                                                                                                                .           ",
"                1 % u.B G p s y s C G U L l @.: P.E Q z z W / ~ ! Q ^ W Q Q Q Q ! #.                                                                                                                                                                .           ",
"                  6.- q.k.i z.a s i S T a.=.% ..o.#.#.#.@.,.,.<.>.>.,.,.%.%.%.%.%.1.                                                                                                                                                                .           ",
"                    6.% t.n t z.a G P k X.$ X X O + $ + + O @ @ O O + + O O + $ * + o . . . X X . . . . . . . . . . . . . . . . . . . . . . . . . . . . . . . . . . . . . . . . . . . . . . . . . . . . . . . . . . . . . . . . . . . . . . . . . . .           ",
"                      2.- t.j.n x.M z F.% 4                                                                                                                                                                                                                     ",
"                        | % h.p.s.i.$.% 8.                                                                                                                                                                                                                      ",
"                          7.= ;.J.O.% 5.                                                                                                                                                                                                                        ",
"                            2.$  .+ 2                                                                                                                                                                                                                           ",
"                              5 o 5                                                                                                                                                                                                                             ",
"                                8                                                                                                                                                                                                                               ",
"                                                                                                                                                                                                                                                                ",
"                                                                                                                                                                                                                                                                ",
"                                                                                                                                                                                                                                                                "
};
