/* XPM */
static char *_3706e6bdeb94155ef1a87f9a6f5188345Kit4HuXSoOCS4O[] = {
/* columns rows colors chars-per-pixel */
"128 32 197 2 ",
"   c None",
".  c #010101",
"X  c #0D0001",
"o  c #03000B",
"O  c #0F0009",
"+  c #160002",
"@  c #1A0002",
"#  c #17000A",
"$  c #1D0009",
"%  c #0D0A11",
"&  c #110010",
"*  c #240002",
"=  c #2A0001",
"-  c #2C000C",
";  c #330000",
":  c #3B0001",
">  c #420000",
",  c #4A0000",
"<  c #540000",
"1  c #5B0000",
"2  c #600000",
"3  c #7B625D",
"4  c #7A6364",
"5  c #76676A",
"6  c #7A666F",
"7  c #76696F",
"8  c #796B68",
"9  c #756570",
"0  c #7E6872",
"q  c #736971",
"w  c #EE2F3E",
"e  c #F22F3F",
"r  c #FF2B3D",
"t  c #ED3639",
"y  c #ED3B3C",
"u  c #E33034",
"i  c #F43335",
"p  c #F03836",
"a  c #F4343D",
"s  c #FB353D",
"d  c #F53A3C",
"f  c #FB3A3D",
"g  c #BF3F4C",
"h  c #CF3952",
"j  c #C13C5B",
"k  c #CB3C5E",
"l  c #C43A53",
"z  c #DF365F",
"x  c #D43C5D",
"c  c #DC3A5D",
"v  c #D83954",
"b  c #FF2E43",
"n  c #E43640",
"m  c #EE3444",
"M  c #E53C45",
"N  c #ED3E45",
"B  c #E43D4D",
"V  c #EC3B4C",
"C  c #E8374B",
"Z  c #F63444",
"A  c #FC3543",
"S  c #F53B44",
"D  c #FB3942",
"F  c #F4354A",
"G  c #FB354A",
"H  c #F43A4C",
"J  c #FC3C4A",
"K  c #E23A51",
"L  c #EA3C54",
"P  c #ED3E5A",
"I  c #E93759",
"U  c #FD3752",
"Y  c #F33A51",
"T  c #FC3D53",
"R  c #F33E5B",
"E  c #F43652",
"W  c #C93C65",
"Q  c #DE3763",
"!  c #DA3A64",
"~  c #D73E6C",
"^  c #DB3468",
"/  c #E0396D",
"(  c #E33D65",
")  c #984B5D",
"_  c #A6495E",
"`  c #B64F53",
"'  c #B6475A",
"]  c #B64D5B",
"[  c #BD4956",
"{  c #AA555D",
"}  c #B65A5B",
"|  c #80635C",
" . c #895665",
".. c #9D526D",
"X. c #945969",
"o. c #AD4B65",
"O. c #AF476C",
"+. c #AF4C68",
"@. c #A64A63",
"#. c #B54365",
"$. c #BA4667",
"%. c #B24A64",
"&. c #B5456C",
"*. c #BA446D",
"=. c #B3496A",
"-. c #BB4B6C",
";. c #AD5563",
":. c #BC5362",
">. c #B2526A",
",. c #B45367",
"<. c #B54671",
"1. c #B94472",
"2. c #BB447A",
"3. c #A75279",
"4. c #AD5772",
"5. c #826564",
"6. c #8B6660",
"7. c #816A65",
"8. c #886D67",
"9. c #82656F",
"0. c #826D68",
"q. c #8C696E",
"w. c #826573",
"e. c #CF424B",
"r. c #C6494D",
"t. c #C3444F",
"y. c #DD424E",
"u. c #CF4753",
"i. c #C34B56",
"p. c #CB4D53",
"a. c #CD435A",
"s. c #C34C5C",
"d. c #CA4B5B",
"f. c #D54755",
"g. c #DB4457",
"h. c #D44B55",
"j. c #D4435B",
"k. c #DB4359",
"l. c #D24B5D",
"z. c #DD4B5C",
"x. c #DB4A51",
"c. c #C7525A",
"v. c #E94041",
"b. c #E4434B",
"n. c #EC444C",
"m. c #F44147",
"M. c #FB4244",
"N. c #F2414D",
"B. c #FB434C",
"V. c #E34354",
"C. c #EB4352",
"Z. c #EA435A",
"A. c #FF4150",
"S. c #F0415E",
"D. c #EF5055",
"F. c #EA5D5B",
"G. c #F25157",
"H. c #FF5259",
"J. c #F3585F",
"K. c #C34365",
"L. c #CC4160",
"P. c #C94C6A",
"I. c #D54163",
"U. c #D14A68",
"Y. c #C05069",
"T. c #C35465",
"R. c #D55765",
"E. c #CC4B74",
"W. c #F34060",
"Q. c #EC5E65",
"!. c #EE5C69",
"~. c #FC5664",
"^. c #F45A64",
"/. c #F95961",
"(. c #F15669",
"). c #FD5668",
"_. c #F45C6B",
"`. c #FF5D6B",
"'. c #F35661",
"]. c #F55B71",
"[. c #D66273",
"{. c #DB6879",
"}. c #E46464",
"|. c #ED6066",
" X c #FB6167",
".X c #F3637A",
"XX c #FF7E93",
"oX c #FF828E",
"OX c #FF858E",
"+X c #FF8C8E",
"@X c #FF8692",
"#X c #FF8992",
"$X c #FF8499",
"%X c #FF9193",
"&X c #EE91A4",
"*X c #FE93A3",
"=X c #FFB1B3",
/* pixels */
"                                                                                                                                                                                                                                                                ",
"                                                                                                                                                                                                                                                                ",
"                                                                                                                                                                                                                                                                ",
"                  @ * * 6.              0.+ * @ 5                                                                                                                                                                                                               ",
"              * : T.d.i.> = 8       w.* : ] [ ] = @ 9                                                                                                                                                                                                           ",
"            = { d.k.K V.h.` * 5.  0 = ;.i.g.B g.' ) - w.                                                                                                                                                                                                        ",
"          * ] l.].V.).C.B y.R.: X.* ] j.#XoXN.V S.I.%.= 0                                                                                                                                                                                                       ",
"        @ { l.(.(._.'.~.H H B f., ] z.XXb.N S G G I I.o.@                                                                                                                                                                                                       ",
"        : i._.^.%X=X#X/.H.S Z H B V.oXB V S a D G T I K.* 0                                                                                                                                                                                                     ",
"        ] g.M /.}.+X|.G.N S s D D S n.M S D D s S m W.k ..$                                                                                                                                                                                                     ",
"      + i.C.m B.J._.`.n B.t d d s f u m.G s A s f S L L.4.* * = * * * * * * * * * * * * * * * * * * = * * * * * = * * * * $ & o . . . . . . . . . . . . . . . . . . . . . . . . . . . . . . . . . . . . . . . . . . . . . . . . . . . . . . . . . . .           ",
"      @ g H J a H ~.m A.a f S d f f M.S D A s s i S P k o.: @.,.+.+.+.+.+.+.+.+.+.+.+.+.+.+.+.+.+.+.%.=.+.+.=.%.%.,._ ,.o...                                                                                                                        .           ",
"      * l.m J D H Z G r A D A s d p M.t D J S d J w R ! &.> U.h k.g.g.g.g.g.g.g.g.g.g.g.g.g.g.g.f.f.g.f.j.j.g.g.z.e.u.u.a.:.                                                                                                                        .           ",
"      @ i.C.S s J J b A D s J s S d a d S S S d d J I ! -., .X`.~.~.~.~.~.~.~.~.~.~.~.~.~.~.~.~././.~.^.^.^.~.~.D. XJ. X_.[.                                                                                                                        .           ",
"        : r.n.D Z a D f p M.Z J A D s D D a S S S Y c W > &X#X+X#X#X#X#X#X#X#X#X#X#X#X#X#X#X#X#X#X#X@X#X#X#X@XOX#X+X+XoX$X*X                                                                                                                        .           ",
"        * } x.N S S S d d y S G A A D s D D S Z H K I.K., {.}.F.Q.Q.Q.Q.Q.Q.Q.Q.Q.Q.Q.Q.Q.Q.Q.Q.!.!.!.!.!.!.^.^.F.F.Q._.].[.                                                                                                                        .           ",
"        4 = c.y.N d d d d S F J s f f D s D J H L k.j 1 x Z.N y N N N N N N N N N N N N N N N N N N H H H H H N v.v.N H Y j.                                                                                                                        .           ",
"          q.; i.b.S f d J Z G Z D a S s D Z m L j.l 2 j.L Z f f f S D D S S S S D S D S S S S S S S D A G A S d d f S G U f.                                                                                                                        .           ",
"            5.; r.b.d f s D a J Z T Z J G F R k.[ < v Y H a M.d f D D D D D D D D D D D D D D S S S D A A D S f s f D D H h.                                                                                                                        .           ",
"              5.: p.b.J s s M.a D A J Z T P c j , s.Z.Y V V V V H H H H H H H H H H H H H H H H V V H Y Y Y H H H S F C P d.                                                                                                                        .           ",
"                3 = d.V J s f i f D J Y I x #., E.W ! c c ! / ^ Q Q Q Q Q Q Q Q Q Q Q Q Q Q Q Q ! ! Q Q ! ! ! ! z z ( ! ~ &.                                                                                                                        .           ",
"                  0.: t.n.a M.d f a F R j.-.= X.O.$.$.$.#.1.1.2.1.*.*.*.*.*.*.*.*.*.*.*.*.*.*.&.=.=.*.1.1.<.<.&.*.$.-.#.&.3.                                                                                                                        .           ",
"                    0.= p.M y M.d J E v o.* X X + @ * @ @ @ # # # @ @ @ @ @ @ @ @ @ @ @ @ @ @ + + + @ $ @ # # + @ @ + @ $ + % . . . . . . . . . . . . . . . . . . . . . . . . . . . . . . . . . . . . . . . . . . . . . . . . . . . . . . . . . . . .           ",
"                      7.: p.b.M N.C c P.= 6                                                                                                                                                                                                                     ",
"                        | = c.g.k.a.%.= w.                                                                                                                                                                                                                      ",
"                          8.; :.Y.+.= 9.                                                                                                                                                                                                                        ",
"                            5.*  .@ 4                                                                                                                                                                                                                           ",
"                              7 O 7                                                                                                                                                                                                                             ",
"                                q                                                                                                                                                                                                                               ",
"                                                                                                                                                                                                                                                                ",
"                                                                                                                                                                                                                                                                ",
"                                                                                                                                                                                                                                                                "
};
