/* XPM */
static char *b6860163f35b427ca5f053fce4cc8e55QA4lp5uKBt9H9m1h[] = {
/* columns rows colors chars-per-pixel */
"128 32 184 2 ",
"   c None",
".  c #020101",
"X  c #0B0001",
"o  c #0F0009",
"O  c #150203",
"+  c #190003",
"@  c #17000A",
"#  c #1B0008",
"$  c #230003",
"%  c #2B0000",
"&  c #2C000C",
"*  c #330000",
"=  c #3B0001",
"-  c #420000",
";  c #4A0000",
":  c #540000",
">  c #5B0000",
",  c #600000",
"<  c #7B625D",
"1  c #796064",
"2  c #76666D",
"3  c #7A666F",
"4  c #75696E",
"5  c #796B68",
"6  c #736871",
"7  c #7E6872",
"8  c #EE2F3E",
"9  c #F22F3F",
"0  c #FF2B3D",
"q  c #E33034",
"w  c #ED3639",
"e  c #ED3B3C",
"r  c #F43335",
"t  c #F03836",
"y  c #F4343D",
"u  c #FB353E",
"i  c #F53A3C",
"p  c #FB3A3D",
"a  c #BF3F4C",
"s  c #CF3952",
"d  c #C13C5B",
"f  c #CB3C5E",
"g  c #C43A53",
"h  c #D63556",
"j  c #D43D5D",
"k  c #DC3A5D",
"l  c #DA3D52",
"z  c #FF2E43",
"x  c #F42F4B",
"c  c #E43640",
"v  c #EE3444",
"b  c #E53C45",
"n  c #ED3D46",
"m  c #E4374A",
"M  c #E43D4D",
"N  c #EC3C4B",
"B  c #F63444",
"V  c #FC3543",
"C  c #F53B44",
"Z  c #FB3942",
"A  c #F4354A",
"S  c #FB354A",
"D  c #F43A4D",
"F  c #FC3C4A",
"G  c #E23A51",
"H  c #EA3C54",
"J  c #E53A5E",
"K  c #ED3E5A",
"L  c #EA3557",
"P  c #F33B51",
"I  c #FC3C52",
"U  c #F43E5C",
"Y  c #F43652",
"T  c #C63E64",
"R  c #CC3965",
"E  c #DE3763",
"W  c #DA3B63",
"Q  c #DB3468",
"!  c #E0396D",
"~  c #984B5D",
"^  c #94555D",
"/  c #BD4753",
"(  c #B64F53",
")  c #B4465C",
"_  c #B64D5B",
"`  c #BD4A59",
"'  c #AE545E",
"]  c #A6555C",
"[  c #B65A5B",
"{  c #80645D",
"}  c #895665",
"|  c #97576A",
" . c #AD4B65",
".. c #AF476C",
"X. c #AF4C68",
"o. c #A64A63",
"O. c #B54365",
"+. c #BA4667",
"@. c #B24964",
"#. c #B7476B",
"$. c #B9446E",
"%. c #BB4D6C",
"&. c #AC5463",
"*. c #A55868",
"=. c #BA5160",
"-. c #B35168",
";. c #B94473",
":. c #BB447A",
">. c #AD5772",
",. c #826563",
"<. c #8B6760",
"1. c #806C67",
"2. c #886C67",
"3. c #83666C",
"4. c #89616B",
"5. c #826D68",
"6. c #8D686D",
"7. c #826573",
"8. c #C6494D",
"9. c #C3444F",
"0. c #DD424E",
"q. c #C34B56",
"w. c #CB4D53",
"e. c #CE445D",
"r. c #C34C5C",
"t. c #CB4C5C",
"y. c #D04653",
"u. c #DB4457",
"i. c #D4435B",
"p. c #DB435A",
"a. c #D24B5D",
"s. c #DC4B5E",
"d. c #D84B53",
"f. c #C7525A",
"g. c #E4434B",
"h. c #EC444C",
"j. c #F44147",
"k. c #FB4244",
"l. c #F2414D",
"z. c #FB434C",
"x. c #E34354",
"c. c #EB4352",
"v. c #EA435A",
"b. c #FF4150",
"n. c #F0415E",
"m. c #EC5E5A",
"M. c #F25157",
"N. c #FF5259",
"B. c #F2555E",
"V. c #C34365",
"C. c #CC4160",
"Z. c #C94C6A",
"A. c #D54163",
"S. c #D14A68",
"D. c #C05069",
"F. c #C35465",
"G. c #D55765",
"H. c #CC4B74",
"J. c #F34060",
"K. c #EB5E65",
"L. c #FC5664",
"P. c #F55B65",
"I. c #F95961",
"U. c #F15669",
"Y. c #FD5668",
"T. c #F35D6C",
"R. c #FD5B6B",
"E. c #F35661",
"W. c #F45B70",
"Q. c #DD616C",
"!. c #D76D79",
"~. c #DB6879",
"^. c #E46464",
"/. c #ED6066",
"(. c #F3637A",
"). c #FF7E93",
"_. c #FF828E",
"`. c #FF8E8E",
"'. c #FF8492",
"]. c #FF8991",
"[. c #FF9193",
"{. c #FF909A",
"}. c #EE91A4",
"|. c #FFB1B3",
/* pixels */
"                                                                                                                                                                                                                                                                ",
"                                                                                                                                                                                                                                                                ",
"                                                                                                                                                                                                                                                                ",
"                3.+ $ $ <.              1.+ $ + 2                                                                                                                                                                                                               ",
"            3.$ = F.t.q.- % 5       7.$ = _ / _ % + 2                                                                                                                                                                                                           ",
"          4.% ' t.p.G x.d.( $ ,.  7 % &.q.u.M u.) ~ & 7.                                                                                                                                                                                                        ",
"          $ _ a.T.x.Y.c.M 0.G.= | $ _ i.]._.l.N n.A.@.% 7                                                                                                                                                                                                       ",
"        + ] a.U.U.T.E.L.D D M u.; _ s.).g.n C S S L A. .+                                                                                                                                                                                                       ",
"        = q.T.P.[.|.].I.N.C B D M x._.M N C y Z V I J V.$ 7                                                                                                                                                                                                     ",
"      + _ u.b I.^.`./.M.n C u Z Z C h.b F Z Z u C v J.f | #                                                                                                                                                                                                     ",
"      + q.c.v z.B.P.R.c z.w i i u p q j.S u V u p C H C.>.$ $ % $ $ $ $ $ $ $ $ $ $ $ $ $ $ $ $ $ $ $ $ $ $ $ $ $ $ $ $ $ $ $ $ $ $ $ $ $ $ $ $ $ $ $ $ $ $ $ $ $ + X . X . . . . . X X . . . . . . . . . . . . . . . . . . . . . . . . . . . . . . .           ",
"        a D F y D L.v b.y p C i i p k.C Z V u u r F K f  .= o.-.X.X.X.X.X.X.X.X.X.X.X.X.X.X.X.X.X.X.X.X.X.X.X.X.X.X.X.X.X.X.X.X.X.X.X.X.X.X.X.X.X.X.X.X.X.X.X.X.&.^                                                                                 .           ",
"      $ a.v F Z D B S 0 V Z V u i t k.w C F C i F 8 U W #.- S.s p.u.u.u.u.u.u.u.u.u.u.u.u.u.u.u.u.u.u.u.u.u.u.u.u.u.u.u.u.u.u.u.u.u.u.u.u.u.u.u.u.u.u.u.u.u.u.i.t.'                                                                                 .           ",
"      + q.c.C u F F z V Z u F u C i y i C C C i i F L W %.; (.R.L.L.L.L.L.L.L.L.L.L.L.L.L.L.L.L.L.L.L.L.L.L.L.L.L.L.L.L.L.L.L.L.L.L.L.L.L.L.L.L.L.L.L.L.L.L.L.P.T.!.                                                                                .           ",
"        = 8.h.C B y Z p t k.B F V Z u Z Z y C C C P k T - }.].`.].].].].].].].].].].].].].].].].].].].].].].].].].].].].].].].].].].].].].].].].].].].].].].].].'.{.                                                                                .           ",
"        $ [ d.n C C C i i e C S V V Z u Z Z C B D G A.V.; ~.^.m.K.K.K.K.K.K.K.K.K.K.K.K.K.K.K.K.K.K.K.K.K.K.K.K.K.K.K.K.K.K.K.K.K.K.K.K.K.K.K.K.K.K.K.K.K.K.K.K.R.Q.                                                                                .           ",
"          % f.0.n i i i i C A F u p p Z u Z F D H p.d > j v.n e n n n n n n n n n n n n n n n n n n n n n n n n n n n n n n n n n n n n n n n n n n n n n n n n D y.                                                                                .           ",
"          6.* q.g.C p i F B S B Z y C u Z B v H i.g , i.H B p p p C Z C C C C C C C Z C C C C C C C C C C C C C C C Z C C Z C C C C C C C C Z C C Z C C C C C S I s.                                                                                .           ",
"            ,.* 8.g.i p u Z y F B I B F S D U p.` : l P D y k.i p Z Z Z Z Z Z Z Z Z Z Z Z Z Z Z Z Z Z Z Z Z Z Z Z Z Z Z Z Z Z Z Z Z Z Z Z Z Z Z Z Z Z Z Z Z Z Z x u.                                                                                .           ",
"              ,.= w.g.F u u k.y Z V F B I K k d ; r.v.P N N N N D D D D D D D D D D D D D D D D D D D D D D D D D D D D D D D D D D D D D D D D D D D D D D D P U e.                                                                                .           ",
"                < % t.N F u p r p Z F P L j O.; H.R W k k W ! Q E E E E E E E E E E E E E E E E E E E E E E E E E E E E E E E E E E E E E E E E E E E E E E E W j )                                                                                 .           ",
"                  5.= 9.h.y k.i p y A U i.%.% | ..+.+.+.O.;.;.:.;.$.$.$.$.$.$.$.$.$.$.$.$.$.$.$.$.$.$.$.$.$.$.$.$.$.$.$.$.$.$.$.$.$.$.$.$.$.$.$.$.$.$.$.$.$.$.#.) *.                                                                                .           ",
"                    5.% w.b e k.i F Y h  .$ X X + + $ + + + @ @ + + + + + + + + + + + + + + + + + + + + + + + + + + + + + + + + + + + + + + + + + + + + + + + + $ + O . . . . . X X X . . . X X X . . . . . . . . . . . . . . . . . . . . . . . . . .           ",
"                      ,.= w.g.b l.m k Z.% 3                                                                                                                                                                                                                     ",
"                        { % f.u.p.e.@.% 7.                                                                                                                                                                                                                      ",
"                          2.* =.D.X.% 3.                                                                                                                                                                                                                        ",
"                            ,.$ } + 1                                                                                                                                                                                                                           ",
"                              4 o 4                                                                                                                                                                                                                             ",
"                                6                                                                                                                                                                                                                               ",
"                                                                                                                                                                                                                                                                ",
"                                                                                                                                                                                                                                                                ",
"                                                                                                                                                                                                                                                                "
};
