/* XPM */
static char *a597a7a757e34317e10528a10f466aaa0QNZhAmDOZUlC5dS[] = {
/* columns rows colors chars-per-pixel */
"128 32 189 2 ",
"   c None",
".  c #010101",
"X  c #0B0002",
"o  c #0F0009",
"O  c #0D0B0C",
"+  c #150001",
"@  c #190003",
"#  c #17000A",
"$  c #1B0008",
"%  c #230003",
"&  c #2B0000",
"*  c #2C000C",
"=  c #330000",
"-  c #3B0001",
";  c #420000",
":  c #4A0000",
">  c #540000",
",  c #5B0000",
"<  c #600000",
"1  c #7B625D",
"2  c #7A6365",
"3  c #76676A",
"4  c #7A666F",
"5  c #75696F",
"6  c #796B68",
"7  c #756570",
"8  c #7E6872",
"9  c #736971",
"0  c #EE2F3E",
"q  c #F22F3F",
"w  c #FF2B3D",
"e  c #E33034",
"r  c #ED3639",
"t  c #ED3C3C",
"y  c #F43335",
"u  c #F03836",
"i  c #F4343D",
"p  c #FB353E",
"a  c #F53A3C",
"s  c #FB3A3D",
"d  c #ED403A",
"f  c #BF3F4C",
"g  c #CF3952",
"h  c #C13C5B",
"j  c #CB3C5E",
"k  c #C43A53",
"l  c #D63556",
"z  c #DB3759",
"x  c #D43C5D",
"c  c #DC3A5D",
"v  c #D73E52",
"b  c #FF2E43",
"n  c #E43640",
"m  c #EE3444",
"M  c #E53C45",
"N  c #ED3D46",
"B  c #E43D4D",
"V  c #EC3B4C",
"C  c #E4374A",
"Z  c #F63444",
"A  c #FC3543",
"S  c #F53B43",
"D  c #FB3942",
"F  c #F4354A",
"G  c #FC344B",
"H  c #F4394D",
"J  c #FC3C4A",
"K  c #E23A51",
"L  c #EA3C54",
"P  c #ED3E5A",
"I  c #E93759",
"U  c #F53453",
"Y  c #FB3452",
"T  c #F33B51",
"R  c #FB3C53",
"E  c #FB3558",
"W  c #F33E5B",
"Q  c #C93C65",
"!  c #DE3763",
"~  c #DB3B63",
"^  c #DB3468",
"/  c #E0396D",
"(  c #E53D61",
")  c #F33A63",
"_  c #984B5D",
"`  c #BD4753",
"'  c #B64F53",
"]  c #B6475A",
"[  c #B64D5B",
"{  c #BD4A59",
"}  c #AA555D",
"|  c #B65A5B",
" . c #80635D",
".. c #895665",
"X. c #9E5066",
"o. c #97576A",
"O. c #A34B62",
"+. c #AD4A66",
"@. c #AF476C",
"#. c #AF4C68",
"$. c #B44463",
"%. c #BA4667",
"&. c #B24964",
"*. c #B7476B",
"=. c #B9446E",
"-. c #BA4B6A",
";. c #A95669",
":. c #BA5160",
">. c #B4526A",
",. c #B94473",
"<. c #BB447A",
"1. c #AD5772",
"2. c #826563",
"3. c #8B6660",
"4. c #816C67",
"5. c #83656D",
"6. c #836B69",
"7. c #8A6B6B",
"8. c #8A616A",
"9. c #826573",
"0. c #C6494D",
"q. c #C3444F",
"w. c #DD424E",
"e. c #C34B56",
"r. c #CB4C54",
"t. c #CD445D",
"y. c #C34C5C",
"u. c #CA4B5B",
"i. c #DB4457",
"p. c #D4435D",
"a. c #DB435A",
"s. c #D34B5C",
"d. c #D84B57",
"f. c #C7525A",
"g. c #E4434B",
"h. c #EC444C",
"j. c #F44147",
"k. c #FB4244",
"l. c #F2414D",
"z. c #FB434C",
"x. c #E34354",
"c. c #EB4352",
"v. c #EA435A",
"b. c #E4485D",
"n. c #FF4150",
"m. c #F0415E",
"M. c #F64C59",
"N. c #ED5D5A",
"B. c #F25157",
"V. c #FF5259",
"C. c #F05C58",
"Z. c #F2555E",
"A. c #C34365",
"S. c #CC4462",
"D. c #C94C6A",
"F. c #D54163",
"G. c #D14A68",
"H. c #C1516A",
"J. c #C35465",
"K. c #D55765",
"L. c #CC4B74",
"P. c #F34060",
"I. c #EB5E65",
"U. c #FC5664",
"Y. c #F35B65",
"T. c #F95961",
"R. c #F15669",
"E. c #FD5668",
"W. c #F35D6B",
"Q. c #FF5C6A",
"!. c #F35661",
"~. c #F45B72",
"^. c #D2646F",
"/. c #DA6075",
"(. c #DB6879",
"). c #E46464",
"_. c #ED6066",
"`. c #F66174",
"'. c #F3637A",
"]. c #FF7E93",
"[. c #FF828E",
"{. c #FF878F",
"}. c #FF8C8D",
"|. c #FF8797",
" X c #FF8991",
".X c #FF9193",
"XX c #EE91A4",
"oX c #FE94A2",
"OX c #FFB1B3",
/* pixels */
"                                                                                                                                                                                                                                                                ",
"                                                                                                                                                                                                                                                                ",
"                                                                                                                                                                                                                                                                ",
"                5.@ % % 3.              4.+ % @ 3                                                                                                                                                                                                               ",
"            6.% - J.u.e.; & 6       5.% - [ ` [ & @ 7                                                                                                                                                                                                           ",
"          8.& } u.a.K x.d.' % 2.  8 & ;.e.i.B a.] _ * 9.                                                                                                                                                                                                        ",
"          % [ s.W.x.E.c.B w.K.- o.% [ p.|.[.l.V m.F.&.& 8                                                                                                                                                                                                       ",
"        @ } s.R.R.W.!.U.H H B d.: [ s.].g.N S G G I F.+.@                                                                                                                                                                                                       ",
"        - e.W.Y..XOX XT.V.S Z H B x.[.B V S i J Z R I A.% 8                                                                                                                                                                                                     ",
"      + [ i.M T.).}._.B.N S p J D S h.M J J D p S m P.j X.$                                                                                                                                                                                                     ",
"        e.c.m z.Z.Y.Q.n z.r a a p s e j.Z p A p s S L S.1.% % & % % % % % % % % % % % % % % % % % % % % % % % % % % % % % % % % % % % % % % % % % % % % % % % % % % % % % % % % % % % % % % % % & % @ @ % % o . . . . . . . . . . . . . . . . . . . .           ",
"        f H J i H U.m n.i s S a s s k.S D A p p y J P j +.- O.>.#.#.#.#.#.#.#.#.#.#.#.#.#.#.#.#.#.#.#.#.#.#.#.#.#.#.#.#.#.#.#.#.#.#.#.#.#.#.#.#.#.#.#.#.#.#.#.#.#.#.#.#.#.#.#.#.#.#.#.#.#.#.#.&.&.>.O.;.+.X.                                        .           ",
"      % s.m J J H Z G w A D A p a y k.r D J S a J 0 W ~ *.; G.g a.i.i.i.i.i.i.i.i.i.i.i.i.i.i.i.i.i.i.i.i.i.i.i.i.i.i.i.i.i.i.i.i.i.i.i.i.i.i.i.i.i.i.i.i.i.i.i.i.i.i.i.i.i.i.i.i.i.i.i.i.i.i.i.b.v t.t.t.H.                                        .           ",
"      % e.c.S p J J b A D p J i S a u a S S S a a J I ~ -.: '.Q.U.U.U.U.U.U.U.U.U.U.U.U.U.U.U.U.U.U.U.U.U.U.U.U.U.U.U.U.U.U.U.U.U.U.U.U.U.U.U.U.U.U.U.U.U.U.U.U.U.U.U.U.U.U.U.U.U.U.U.U.U.U.U.U.M.Q.Y.`.~./.                                        .           ",
"        - 0.h.D Z i D s u k.Z J A J p J D i S S S T c Q ; XX X}. X X X X X X X X X X X X X X X X X X X X X X X X X X X X X X X X X X X X X X X X X X X X X X X X X X X X X X X X X X X X X X X X}.}.}.{.|.oX                                        .           ",
"        % | d.N S S S a a t S Z A A J p J J S Z H K F.A.: (.).N.I.I.I.I.I.I.I.I.I.I.I.I.I.I.I.I.I.I.I.I.I.I.I.I.I.I.I.I.I.I.I.I.I.I.I.I.I.I.I.I.I.I.I.I.I.I.I.I.I.I.I.I.I.I.I.I.I.I.I.I.I.I.I.I.N.C.N.I.W.^.                                        .           ",
"        2 & f.w.N a a a a S F J p s s D p J J H L a.h , x v.N t N N N N N N N N N N N N N N N N N N N N N N N N N N N N N N N N N N N N N N N N N N N N N N N N N N N N N N N N N N N N N N N N t d S H H r.                                        .           ",
"          7.= e.g.S s a J Z G Z J i S p J Z m L p.k < p.L Z s s s S D S S S S S S S D S S S S S S S S S S S S S S S D D S D S S S S S S S S D D S D S S S S S S S S D S S S S S S S D S S S S S a s A A Y d.                                        .           ",
"            2.= 0.g.a s p J i J Z R q J G F W a.{ > v T H i k.a s D D D D D D D D D D D D D D D D D D D D D D D D D D D D D D D D D D D D D D D D D D D D D D D D D D D D D D D D D D D D D D D A G G G E p.                                        .           ",
"              2.- r.g.J p p k.i J A J Z R P c h : y.v.T V V V V H H H H H H H H H H H H H H H H H H H H H H H H H H H H H H H H H H H H H H H H H H H H H H H H H H H H H H H H H H H H H H H H R U Y U ) S.                                        .           ",
"                1 & u.V J p s y s D J T I x $.: L.Q ~ c c ! / ^ ! ! ! ! ! ! ! ! ! ! ! ! ! ! ! ! ! ! ! ! ! ! ! ! ! ! ! ! ! ! ! ! ! ! ! ! ! ! ! ! ! ! ! ! ! ! ! ! ! ! ! ! ! ! ! ! ! ! ! ! ! ! ! ! z z ( ! ~ $.                                        .           ",
"                  4.- q.h.i k.a s i F W p.-.& o.@.%.%.%.$.,.,.<.,.=.=.=.=.=.=.=.=.=.=.=.=.=.=.=.=.=.=.=.=.=.=.=.=.=.=.=.=.=.=.=.=.=.=.=.=.=.=.=.=.=.=.=.=.=.=.=.=.=.=.=.=.=.=.=.=.=.=.=.=.=.=.=.-.&.-.$.&.;.                                        .           ",
"                    4.& r.M t k.a J U l +.% X X + @ % @ @ @ # # @ @ @ @ @ @ @ @ @ @ @ @ @ @ @ @ @ @ @ @ @ @ @ @ @ @ @ @ @ @ @ @ @ @ @ @ @ @ @ @ @ @ @ @ @ @ @ @ @ @ @ @ @ @ @ @ @ @ @ @ @ @ @ + + + @ % % + O . . . . . . . X X . . . . . . . . . . .           ",
"                      2.- r.g.M l.C c D.& 4                                                                                                                                                                                                                     ",
"                         .& f.i.a.t.&.& 9.                                                                                                                                                                                                                      ",
"                          7.= :.H.#.& 5.                                                                                                                                                                                                                        ",
"                            2.% ..@ 2                                                                                                                                                                                                                           ",
"                              5 o 5                                                                                                                                                                                                                             ",
"                                9                                                                                                                                                                                                                               ",
"                                                                                                                                                                                                                                                                ",
"                                                                                                                                                                                                                                                                ",
"                                                                                                                                                                                                                                                                "
};
