/* XPM */
static char *_7d8c8a6cd6248db9f20ab37d4f29e85[] = {
/* columns rows colors chars-per-pixel */
"64 64 240 2 ",
"   c #1A0E09",
".  c #180D08",
"X  c #1E110B",
"o  c #1F1007",
"O  c #1B1213",
"+  c #120D0F",
"@  c #230F01",
"#  c #251102",
"$  c #2C1402",
"%  c #23140C",
"&  c #2A160B",
"*  c #2C190D",
"=  c #2B190A",
"-  c #331602",
";  c #351A03",
":  c #3B1C03",
">  c #331C0C",
",  c #3A1F0C",
"<  c #2B1B13",
"1  c #2C1D1B",
"2  c #251815",
"3  c #331E12",
"4  c #321F19",
"5  c #3E2005",
"6  c #3D210B",
"7  c #35200F",
"8  c #3B2212",
"9  c #34221C",
"0  c #3A251B",
"q  c #382316",
"w  c #291E22",
"e  c #2D2124",
"r  c #2E2429",
"t  c #332424",
"y  c #392624",
"u  c #3B2926",
"i  c #32252A",
"p  c #36292C",
"a  c #3B2A2C",
"s  c #382728",
"d  c #3C2D33",
"f  c #421E02",
"g  c #401F0A",
"h  c #442204",
"j  c #4B2403",
"k  c #44240B",
"l  c #49260B",
"z  c #4C290D",
"x  c #4D2803",
"c  c #502603",
"v  c #542B03",
"b  c #5B2E03",
"n  c #532C0B",
"m  c #5B2E09",
"M  c #5C3103",
"N  c #5C320A",
"B  c #57300E",
"V  c #412513",
"C  c #472915",
"Z  c #562F10",
"A  c #612F04",
"S  c #633405",
"D  c #6C3905",
"F  c #633309",
"G  c #6B350A",
"H  c #6C3A0A",
"J  c #683706",
"K  c #733C06",
"L  c #733C0A",
"P  c #783C0B",
"I  c #773D14",
"U  c #6E3D1A",
"Y  c #422D28",
"T  c #47322D",
"R  c #412E33",
"E  c #443136",
"W  c #4A3435",
"Q  c #44333B",
"!  c #4A363C",
"~  c #4D383D",
"^  c #533B3D",
"/  c #543C36",
"(  c #7C440C",
")  c #784108",
"_  c #7D4213",
"`  c #78461A",
"'  c #5D423D",
"]  c #6B4431",
"[  c #4D3A42",
"{  c #4A3641",
"}  c #533D43",
"|  c #563E45",
" . c #5C4244",
".. c #5D444A",
"X. c #564148",
"o. c #65494B",
"O. c #6B4C4C",
"+. c #654747",
"@. c #73524D",
"#. c #7A544D",
"$. c #6C4D52",
"%. c #654A51",
"&. c #6F5151",
"*. c #745353",
"=. c #7A5653",
"-. c #7C5955",
";. c #755559",
":. c #7C5A5B",
">. c #78575B",
",. c #704F4D",
"<. c #7D5C62",
"1. c #803F15",
"2. c #84490D",
"3. c #87490D",
"4. c #8E510F",
"5. c #94530D",
"6. c #834513",
"7. c #854A13",
"8. c #8B4C13",
"9. c #884A19",
"0. c #914E15",
"q. c #8D5116",
"w. c #945414",
"e. c #95541B",
"r. c #9A551E",
"t. c #9D591D",
"y. c #9C5814",
"u. c #934D0F",
"i. c #A25D1C",
"p. c #A15C14",
"a. c #8A4C25",
"s. c #8B5325",
"d. c #9B5522",
"f. c #9D5C23",
"g. c #985928",
"h. c #985E33",
"j. c #8C5232",
"k. c #A35D23",
"l. c #A25D2C",
"z. c #A75D23",
"x. c #A55F30",
"c. c #9D622F",
"v. c #A46326",
"b. c #AB6324",
"n. c #A4622B",
"m. c #AB642C",
"M. c #AD692C",
"N. c #B2662B",
"B. c #B56A2C",
"V. c #BA6C2B",
"C. c #B56726",
"Z. c #AB6633",
"A. c #AC6A33",
"S. c #A66636",
"D. c #B36C34",
"F. c #BA6D35",
"G. c #B36B39",
"H. c #BC7233",
"J. c #BC723D",
"K. c #B57039",
"L. c #BA712E",
"P. c #AF651D",
"I. c #C5783A",
"U. c #C16F2E",
"Y. c #84594E",
"T. c #835B54",
"R. c #8B5D54",
"E. c #835D5B",
"W. c #895E5A",
"Q. c #925E57",
"!. c #9B5F4E",
"~. c #9D644A",
"^. c #8D625C",
"/. c #88625A",
"(. c #9A6556",
"). c #94645B",
"_. c #9B665C",
"`. c #9E6A5B",
"'. c #946658",
"]. c #A9674B",
"[. c #AC6B4C",
"{. c #A76848",
"}. c #B26D4B",
"|. c #B56E46",
" X c #B5714C",
".X c #BA734C",
"XX c #BB7545",
"oX c #AC6B52",
"OX c #A46B5C",
"+X c #A56B59",
"@X c #B46E52",
"#X c #B66F54",
"$X c #AB745C",
"%X c #A97458",
"&X c #B47354",
"*X c #BB7453",
"=X c #B3755A",
"-X c #BA765C",
";X c #B47A5B",
":X c #BB7B5C",
">X c #BB7A55",
",X c #AD714B",
"<X c #825E62",
"1X c #8D6562",
"2X c #876265",
"3X c #936662",
"4X c #956B64",
"5X c #9B6C64",
"6X c #986A69",
"7X c #9C7266",
"8X c #9E726A",
"9X c #9D7173",
"0X c #A36C63",
"qX c #A66D63",
"wX c #AB7363",
"eX c #AC7963",
"rX c #A57568",
"tX c #B47C65",
"yX c #BC7D63",
"uX c #B67967",
"iX c #A57677",
"pX c #C27543",
"aX c #C57A43",
"sX c #CA7C43",
"dX c #C27A4D",
"fX c #C47C54",
"gX c #C17C5B",
"hX c #C67B53",
"jX c #C37F62",
"kX c #CB823E",
"lX c #D1853D",
"zX c #BC815C",
"xX c #BA8266",
"cX c #CD8144",
"vX c #D68744",
"bX c #C6815C",
"nX c #C48263",
"mX c #CB8465",
"MX c #C98666",
"NX c #D28866",
/* pixels */
"E.E.W.E.E.<X4X3X1X6X3X6X6X6X6X6XrXiXiXiXiX9X9X9X9X6X6X2X2X2X<X<X2X2X2X>.=.&.O.O.O.O.O.+. .+.O.+. .+.O.+.+.O.+.O.@.@.@.=.=.;.*.-.",
"fXhXfXfXfX&XhX.X X.X*X&X[.~.[.oX X}.[.@XoXoX].].[.[.~.~.].!.].}.}.oX[.[.}.{.{.[.{.{.~.].[.|.|.|.].}.].}..X|.{.}.*XfX X|.XX}. X*X",
"A S b b j v v v b v v c f f c j j j h : : : f j j h f j v c S S H J J B N b v v c m j j c v c h : c j v v S L L H F S M S S F m ",
"} | |  .| ..o.o...X.o.....%.$.O.%.X.[ ....X.| o.%.o.[ %.$.o.$.*.%.%.O.o.o.o.o.O.o...| ! } } | Q Q } ^ ^ ^ ^ ^ ^ ^ ^ ^ ^ ^  .o.} ",
"jXnXmXmXyXyXyXjXyX;XnXbXmXNXmXnXtX$XgXmXgX=X-XjXyX$X~.;X-XfXgXfX&X&XoXoXoX,X X=X&X&X&XoX&X&X-X(.{.=X>XoX>X&XoX>X-X:XfXbXbXgXbXnX",
"P P ( P K F v F L D H ( ( ) K H J K D J K K K G A m j S B H K F F D J J H M S J K D S D P H G A K L H ( P P ) ( P ( 2.2.( 2.) K ",
"y a Y T Y y u y y u a s y s s a a s a a R a s s s t e t e e e t t t 1 2 i e e 1 1 u s t i s a p p R R T W T T Y s T T Y Y Y T u ",
"yXnXyXtXeXeXtXtXtXyXxXtXeXtXtXtXeXtXtXtXeXeXOX`.`.`.(.+X+X;X$XwX$XeXrXtXnXxXtXeXeXuXeXwXtXuXtXeX;XeXtXtXtXtXtXeXeX$X;XeXeX`.tXyX",
"I I _ _ ` 6._ 6.6.6.I 6._ ` _ 8.7.0.9.a.u.0.8.8.6.6.6.w.5.w.4.4.4.4._ ` ( ( ( 2.8.7.3.6.6.I P 6.u.4.4.4.2.3.2.2.` 7.3.( 2.7.6.7.",
"X % % % . % X X X X   % * 2 % & & &     % % % X % * % & > * > > > * % O * % . % & % % % % % % % % < * % X X % X + X % X         ",
"iXrXrX5X8X4X7X7XrXrX/.1X8X7X4X).7X7X7X4X4X8X8XrX8X8XrX8X6X6X4X4X4X1X5X5X).^.^.1X).).5X4X4X4X4X).4X4X3X3X5X5X5X4X5X5X4X).4X5XrX8X",
"l.g.g.s.s.s.f.g.s.f.g.g.f.v.g.f.v.v.c.v.k.k.b.M.v.k.b.b.m.m.m.m.B.Z.m.b.M.l.g.g.g.l.l.k.v.v.k.b.v.l.l.l.l.n.n.l.b.n.m.n.m.n.M.l.",
"# # @ $ # $ $ # # # $ @ # $ $ - ; : ; 5 h f : : : : h : h h : : ; $ $ ; : : ; - $ @ # $ # $ $ - $ # $ # o $ ; - $ $ ; $ $ $ $ @ ",
";.<.2X<.<X2X2X2X<.:.:.:.:./.*.&.E./.E.>.;.;.*.*.;.:.>.>.E.>.&.O.o.O.O. .'  .+.+.+. .^ ' ^ ..O... .+.o.O.O.@.*.=.*.@.*.@.@.=.:.>.",
"sXsXI.J.J.J.J.I.I.I.cXlXvXkXXX{.aXXXJ.I.XXXXXX|.J.pXpXsXpXJ.|.kXsXaXkXaXXXF.J.J.J.K.G.G.|.J.aXpXpXsXsXpXcXvXcXvXcXaXI.I.I.sXpXaX",
"b b b b b v b b A b M M S b h 5 h j x v b S M N S S b S D S S D D D D v k b v v b M S S N S D S N D S S S M M M v l c v M M S S ",
"E Q d ! Q Q Q E d R d ! ! E Q ! W ~ } | | } } } | [ } X...| | } { | | | | [ ! } | ..} ! ! [ { { | } { { Q Q Q Q Q Q d d E E E d ",
"dX.XdX.X+XoX[. X*X*X*X&X@XfXfX>X*X:X:XfX>X=X=XoXoX&X@X&XoX].oX@X}.}.*X*X*X|.|.|.[.[.].oX&X*X&X*X&X*X#XoX[.[.{.[.}.|.|.[.|.[.}..X",
"D D A h c G F S J S J S S H D H H F J H D N v M v N b x j b m F m c b b b m m v n m m N H L H S S S m m v v v v c j v v v F F S ",
"a a p p p r e p p e i i r e e i i r r i i p d d E d d p i d R d p p i i i w r i i e s i e i i i i r r p d d d d p d i i d d a a ",
";X;X%X%X>X%X&X;X=X;XzXzX:X;X:X:X=X=X:X:XjXMXmXMXtX=X=X=X=XyXyX:X-X-X:X-X$X+XoXoX].[.&X&XgXnXjXmXbXyXmXNXmXnXjX:X:XuX+XoX&XoX&X:X",
"w.y.w.i.t.w.q.0.7.9.w.q.w.9.7.7.7.7.w.w.w.q.w.w.7.8.y.y.8.7.3.6.8.8.6.6._ I I I _ 8.8.i.P.k.i.i.i.t.r.y.8.8.3.8.0.q.I I I I 7.0.",
"1 4 4 q q q 9 9 q 4 q 0 q 4 1 1 4 q q q 0 9 0 0 9 0 0 Y Y y 9 w t 9 4 1 4 1 1 1 1 9 0 V C 0 0 0 q 0 9 0 9 9 0 q 1 1 2 2 O O 2 < ",
"$XqXOX0X0X0X0X5X0X5X5X5X`.qXqXqX0X0XqXwXrXrXwXuXwXwXwXwXqX0XqXOXOX`.OXOXOX`.OXOX_.OXwXwXwXqXqXqXOXOX5X_.OXOXqXOX(.(.(.(.(.+X+X+X",
"d.e.s.a.r.9.9.9.9.a.a.a.e.a.d.d.d.z.z.b.b.b.k.k.d.d.r.r.t.d.r.s.j.s.z.b.i.t.z.i.z.z.i.k.k.k.b.z.z.b.k.z.b.h.h.z.k.t.f.z.d.r.f.f.",
"X X X X % % & = > > > & 3 8 , > > 8 8 8 7 3 3 8 8 V 8 8 V V V q 1 > > 7 3 q 4 < 2 < < % % < 3 8 3 * 3 8 3 2 < = = & & & & & % X ",
"'.).).^.R./._.).5X3X3X5X5X5X1X).5X0X5X3X5X5X3X5X8X0XeXrX5X5X5X3X_.).)._._.).'.(.R.^.).).^.W.^.'.).).^.^.^.^.).).R.R.Y.Y.R.Y.Y.R.",
"V.U.B.n.m.M.m.Z.n.n.S.S.V.N.l.n.M.M.m.M.V.D.A.S.S.H.H.B.M.D.B.B.B.B.V.C.N.N.V.U.V.V.B.D.S.S.D.L.H.H.D.M.N.N.V.V.m.l.m.b.b.b.V.V.",
"k l l l l B B B m m l q V z z , , : : k k k z 8 6 j l k l k k l k z l l k 6 k k k z z z C C j z l z k , , 5 k k k k k l z n l k ",
">.>.W.E.E.-.E.^.^.W.:.-.-.-.T. .X.+.@.#.,.@.#.#.O.@.@.@.-.>.*.*.;.>.*.*.*.,.#.=.#.-.#.#.Y.-.T.>.@.=.>.>.:.:.E.E.E.E.^.^.3X4X4X/.",
"M.S.H.G.I.U.U.I.I.F.F.F.F.D.F.j.h.N.Z.D.D.D.F.F.F.F.D.H.D.A.A.A.A.D.D.H.I.I.I.H.H.D.Z.D.F.Z.D.S.Z.Z.D.Z.H.K.D.D.D.D.D.D.D.D.D.B.",
": ; : : h h h h : : : : h : ; # $ $ $ ; ; > ; ; ; : h h : h j h h h j h h 5 ; h 5 : ; $ # # # ; : : : ; : 5 5 , : h ; ; : ; ; ; ",
"*.*.;.*.$.$.$.$.$.$.;.*.*.=.:.E.>.:.>.:.=.*.;.;.-.>.$.O.*.*.@.*.*.*.$.*.*.O.*.*.*.&.*.>.>.:.<X<X<.<X<X>.<.<X<.<.<.<X:.*.:.>.;.*.",
"*XdXhX X}.}..X#XoX.X.X X&X*X*X*X|.|.}. X|.dXhX.X X X X.XdXdXdXdX.X}.[.}.[. XXX XdX#XoX*X*XfXfX*X&X*XoX@X}.}.@X*X*X&X}.|.|.|.|.].",
": f h v c j v j j b m F J F n S M b v m m A v S b v A M v b v j j h f f j h j j : - - - - : : : : j : h j j v v n h x h 5 h x h ",
"[ [ ....| Q ..+.o.+. .! ^ ^ ^ ^ ^ W W ~ E E W E W E ! ^ ! ! Q ! ! E ! ^ ~ E Q d R ! Q d ~ } | Q Q .. .X.......o.O.o.............",
"gXgXgX-X+X~.-X>X&X,X[.{. X&X&X*X X,XoX[.oX-X-X=X=X%X%XOX$X-X$X=X-X-XbXgX-X$X+X=XgXbXgXbXNXmXyX(.+X-X>X&X>X-X&X>X=X;X>XhXbXgXfXfX",
"K K G F m b S F K K H ) L ) H H D F F M M F F F S S F m F H H ) ( ( ( ) L H K ) K K L K K G G b D F F K K S K 2.2.2.2.) ) ) D D ",
"t e w e w e e t s a u u s w i p s i 1 e i w e e y t 2 t t t u Y t s u u u s s s a s i s a p E W W / ^ / / ' ' / W / / T Y t s s ",
"wX$XOXOX+X+X+X$X;XeXtXtXtXwXxXxXtXtXOXtXtXuXtXtXeXwXeXyXyXyXyXtXeX$X$XtXtXeXeXuXuXtXtXeXuXuXuXeXtXtXxXtXxXxXtXeXeX$X$X+X`.OXtX$X",
"_ 6.6.6.6.8.y.y.y.5.4.8.4.` 7.4.8.8.8.8.7.6.9.7.7.9.q.0.7._ _ I 6._ U I _ ( _ _ ` 6.0.6.6.P P P 3.5.y.p.5.3.4.y.9.7.3.8.w.w.8.3.",
"% % % % & & > > > % X X % + O % % % % % % % % o % % .   X % % X   X + % % & * % % * > & > > , , > 6 , 7 > & & % O < * & % * & % ",
"4X4X).4X7X4X3X6X4X5X5X5X4X5X5X5X4X5X4X5X4X4X8X4X8X8X6X7X7X7X7X^.:.7XrXrX7X7X7X7X7X4X4X4X5X5XrX8X5X3X1X1X^.3X4X5XrX7X7X5X5X4X5X4X",
"f.v.b.v.N.B.n.l.l.l.l.f.l.M.M.m.f.f.g.m.n.l.l.n.l.g.g.v.b.v.b.b.v.f.v.c.f.v.v.v.v.f.f.n.n.k.f.k.b.l.n.l.n.n.n.l.M.M.n.g.f.g.f.f.",
"; : ; ; ; ; $ ; - $ $ ; : : : : : - $ $ - - - - - - - - ; $ ; - $ $ - - ; : ; $ ; ; $ $ $ ; ; : : : : : ; : : ; : : ; $ ; $ # $ ",
"*.;.*.;.;.$.$.$.o.O.@.&.&.o. .O.@.#.=.*.*.*.>.<X2X<X/.:.:.;.*.*.*.*.*.O.X.&.@.*.O.o.*.&.O.$.*.$.o.O.$.*.=.T.E.>.*.O.*.@.@.;.*.O.",
"J.XXXXI.J.G.J.J.J.pXkXXXI.lXcXsXI.I.sXsXpXcXvXsXG.S.G.S.S.K.I.I.kXlXkXI.{.aXaXJ.I.aXsXaXXXpXsXpXXXpXpXpXcXvXXXI.I.pXJ.J.K.K.K.|.",
"S S F D D F J S S S S S S S m N M N v j h h h f f j v j j j v M J S M M j n M S D M b b v v b j x S S b M S M S b l v j v b b v ",
"! ! ! ! Q d Q Q Q Q Q Q d d Q ! ! E Q E Q } | Q ^ ~ | [ Q Q ! [ [ ! ! E E E d Q [ Q [ ! ! ! { { } [ ! ! { { [ | } } | | X.X.X.} ",
"[.&X&X&X&X[.[.oX#X*X@X*X X[. X X X X X.X.XdX.X,XXX~.+XoX].].]. X[.[.}.{.[. X&X&X*X*X-X;X-XgXgX&X&X&X@X#X@X@X&XoX X}. X X X X|.{.",
"N H L H K D P P K G G G S S G m F H H L G M b S c j K G P P K P P L D D H H H F S D F F S F S S H P K F F m v S S G G G F m N F ",
"d p d E E E E d ! Q E Q E R a i w i p i i p p i i e i 1 s i 1 w e r p p r w e r p p a s i s i i i e i a p p R R R W p p E W W d ",
":XnXnXMXmXNXMXjXnXjXjX:X-X-X&X`.].@X@XoX&XzX:XzXzXzX&X=X:X:X;XzXbXMXnXnXnXgXjXbXzXnX:X:X;XtX=X=X:X-XyXnXmXjXyX-X:XuX+XoX-X@XoX&X",
"8.y.w.9.w.w.w.q.8.w.6.8.8.8.7.I I I I _ 8.7.8.w.q.w.q.7.7.8.9.e.t.i.y.9.8.q.7.8.8.q.7.7.w.9.q.w.i.P.t.y.w.0.0.0.0.7.6.6.1.I 7.8.",
"9 9 9 9 0 0 0 9 t y y t 9 0 9 9 e 1 9 9 9 9 9 1 1 0 9 < 1 1 2 < 2 2 < 2 % % & & % 2 1 4 4 < 7 q 8 8 0 0 0 9 4 4 0 y 0 1 1 1 1 1 ",
"qXwXwXtXwXwXwX0XwXrXuXtXwXwXqX0X`.(.).'.(.OX`.`.OX0X_.).Q.Q.Q.Q.).(.OX`.).Q.).)._.5X).).(.(.`.`.(.`.5XwXwXOXwXwXOXqXOX(.(.`.OXOX",
"z.z.k.k.k.r.i.z.k.z.c.h.f.z.t.e.e.r.r.z.z.i.e.e.s.r.r.e.e.k.d.d.j.d.k.d.k.d.d.k.z.k.v.b.b.N.b.b.C.C.b.b.k.h.c.b.b.b.i.f.r.r.r.t.",
"> * * > > > > ; ; ; < 3 > 6 V 8 V 8 V V C 8 > , 7 7 7 > > > = & # % % * ; = > > > > > , 8 V 8 , V , > , > < > , 7 > 8 8 8 3 3 7 ",
"T.T.-.=.T.Y.Y.T.T.T.R.T.R.R.R.R.R.R.'.'._.).^.^./.T.Y.R.R.R.3X3XW.R.R.W.W.R.R.T.W./.).5X).W.^.'.).).W.W.T.R.^.R.R.R.Q.R.R.Y.Y.Y.",
"M.n.h.S.I.I.H.H.D.D.B.V.U.V.N.m.C.V.C.C.N.B.B.B.Z.Z.B.M.Z.A.A.Z.S.F.V.N.S.B.V.D.D.I.I.D.S.{.K.H.H.H.F.M.m.m.N.N.m.m.m.N.N.V.C.C.",
"6 6 3 6 k k k k k k k l k l k 6 , 6 k k 6 k 6 k , , 6 6 l h h h 8 8 h : & - h k k h l k 8 k x n n n Z z k k k l l k z z n l l l ",
"#.#.#.=.:.>.T./.1X1X1X^./.-.-.*.@.=.=.=.=.@.%.-.*.@.@.=.=.*.=.=.-.=.@.=.+.} O.#.#.#.Y.Y.T.T.T.=.@.-.=.=.-.E.E.>.=.*.@.@.#.#.T.#.",
"N.Z.Z.Z.Z.Z.D.H.D.D.A.Z.n.h.n.A.D.A.A.M.m.b.h.Z.h.h.n.n.n.x.Z.N.Z.D.F.D.j.j.l.x.D.F.D.F.F.S.Z.n.S.D.D.D.A.S.A.D.D.A.A.M.A.D.M.M.",
"; ; > ; ; : ; $ : h h 5 h h j h h ; ; ; ; ; ; $ : : : : k k f h n n z h : ; : f f : : g k k l h l k k h : 5 5 5 : h 5 k k : ; $ "
};
