/* XPM */
static char *_5dc6fad27004ec18c374cd8920379a7[] = {
/* columns rows colors chars-per-pixel */
"64 64 256 2 ",
"   c #29180A",
".  c #34281C",
"X  c #34291B",
"o  c #3C3020",
"O  c #711600",
"+  c #542B0E",
"@  c #782603",
"#  c #6A3718",
"$  c #7A3912",
"%  c #70300A",
"&  c #463B2C",
"*  c #672C12",
"=  c #70431D",
"-  c #564938",
";  c #504636",
":  c #745031",
">  c #7E603E",
",  c #5E5443",
"<  c #514640",
"1  c #6A5944",
"2  c #7B654A",
"3  c #766C57",
"4  c #716E61",
"5  c #811800",
"6  c #8B2C01",
"7  c #852803",
"8  c #912A02",
"9  c #883507",
"0  c #943502",
"q  c #943A09",
"w  c #873C11",
"e  c #913E11",
"r  c #A13E05",
"t  c #97410B",
"y  c #8C4619",
"u  c #984817",
"i  c #9B541E",
"p  c #A7541E",
"a  c #A84B16",
"s  c #8C4C26",
"d  c #964D23",
"f  c #8B542A",
"g  c #995629",
"h  c #875A34",
"j  c #985B36",
"k  c #A65928",
"l  c #A35D32",
"z  c #A85E34",
"x  c #B35C26",
"c  c #9A663B",
"v  c #8D6237",
"b  c #AA622C",
"n  c #A86738",
"m  c #B56A38",
"M  c #AC723D",
"N  c #BA733D",
"B  c #B46228",
"V  c #C2753C",
"C  c #876949",
"Z  c #976B47",
"A  c #9B7348",
"S  c #887557",
"D  c #987857",
"F  c #8A6C52",
"G  c #A46B42",
"H  c #A96B45",
"J  c #B46E43",
"K  c #AC7345",
"L  c #AB754B",
"P  c #A87749",
"I  c #B4754B",
"U  c #B47A4C",
"Y  c #B97746",
"T  c #A87956",
"R  c #B37C53",
"E  c #BA7C53",
"W  c #B47B58",
"Q  c #897B64",
"!  c #997E63",
"~  c #AC7C61",
"^  c #A15F41",
"/  c #C57B48",
"(  c #C57D53",
")  c #99825D",
"_  c #B9814E",
"`  c #A9835A",
"'  c #B48254",
"]  c #BC8355",
"[  c #B4835B",
"{  c #BB845B",
"}  c #BC8B5D",
"|  c #B8895A",
" . c #B4905F",
".. c #998567",
"X. c #9B9377",
"o. c #94886F",
"O. c #A78968",
"+. c #B28563",
"@. c #BA8761",
"#. c #B38B63",
"$. c #BC8C63",
"%. c #BC8C6B",
"&. c #B48A6B",
"*. c #AB936B",
"=. c #BD9266",
"-. c #BC936C",
";. c #B7966C",
":. c #B78D73",
">. c #A79776",
",. c #BD9372",
"<. c #BD9B74",
"1. c #BB9B7A",
"2. c #B59979",
"3. c #A88D72",
"4. c #BCA37C",
"5. c #B8A57A",
"6. c #ADA27D",
"7. c #C7824B",
"8. c #C28354",
"9. c #C38B5C",
"0. c #C78758",
"q. c #D28A57",
"w. c #CA925C",
"e. c #D8965C",
"r. c #D1864D",
"t. c #C48C64",
"y. c #CB8D64",
"u. c #C48B69",
"i. c #C39264",
"p. c #CB9464",
"a. c #C3946B",
"s. c #CB946B",
"d. c #C49A6C",
"f. c #CC9A6C",
"g. c #CB9966",
"h. c #D49968",
"j. c #C39473",
"k. c #C49B74",
"l. c #CB9C74",
"z. c #C49D7A",
"x. c #CB9C7B",
"c. c #C99574",
"v. c #D39C72",
"b. c #D49C77",
"n. c #D28D60",
"m. c #D5A26C",
"M. c #C3A274",
"N. c #CCA274",
"B. c #C4A37C",
"V. c #CBA37C",
"C. c #CCAA7C",
"Z. c #C5A97C",
"A. c #D3A374",
"S. c #D3A47C",
"D. c #D3AB7C",
"F. c #DAA879",
"G. c #D7AB77",
"H. c #E3B07A",
"J. c #A79C84",
"K. c #B89C83",
"L. c #A49F90",
"P. c #AAA185",
"I. c #B4A584",
"U. c #BCA583",
"Y. c #BCAA84",
"T. c #BCAC8A",
"R. c #B7A689",
"E. c #B6AA93",
"W. c #BBB396",
"Q. c #B0AA92",
"!. c #B9B4A5",
"~. c #C69E82",
"^. c #D09F81",
"/. c #C4A483",
"(. c #CBA582",
"). c #C4AC84",
"_. c #CCAB84",
"`. c #C3AD8B",
"'. c #CCAD8B",
"]. c #C7A48A",
"[. c #D4A683",
"{. c #D3AB83",
"}. c #DBAD83",
"|. c #D3AC8B",
" X c #DAAD8B",
".X c #D6A685",
"XX c #C4B28D",
"oX c #CCB38C",
"OX c #CAB487",
"+X c #D4B284",
"@X c #DAB284",
"#X c #D4B48C",
"$X c #DBB38B",
"%X c #D4BA8D",
"&X c #DCBA8D",
"*X c #C8AC93",
"=X c #D5AD92",
"-X c #C4B493",
";X c #CCB593",
":X c #CDBA93",
">X c #C5BC9C",
",X c #C8B799",
"<X c #D5B493",
"1X c #DAB593",
"2X c #D4BB94",
"3X c #DBBB94",
"4X c #D4BD9A",
"5X c #DBBD9A",
"6X c #D6B59A",
"7X c #E3B78A",
"8X c #E3BC94",
"9X c #E2BD9C",
"0X c #E5B695",
"qX c #E1AD84",
"wX c #C6BCA5",
"eX c #D7BCA3",
"rX c #C1BDB3",
"tX c #E1BDA1",
"yX c #CAC29E",
"uX c #DAC295",
"iX c #D4C29B",
"pX c #DCC39B",
"aX c #DBC799",
"sX c #E3C295",
"dX c #E4C49C",
"fX c #E8C79A",
"gX c #E9C695",
"hX c #CCC5A7",
"jX c #DBC4A3",
"kX c #DCCBA4",
"lX c #D7C7A8",
"zX c #D6CEB3",
"xX c #E3C5A3",
"cX c #E4CBA3",
"vX c #EBCCA4",
"bX c #E4CBAB",
"nX c #EBCDAB",
"mX c #E8C5A7",
"MX c #EBD3AC",
"NX c #E7D4AA",
"BX c #F3D7AA",
"VX c #E6CDB2",
"CX c #E5D4B2",
"ZX c #EBD4B3",
"AX c #ECDBB4",
"SX c #E7DAB9",
"DX c #F2D9B5",
"FX c #F2CEA7",
"GX c #EAE2BC",
"HX c #F6E3BA",
"JX c #E6DBC3",
"KX c #EBE4C6",
"LX c #F7E6CA",
"PX c #FFF8DB",
"IX c #F9EECD",
"UX c #E6E1CB",
/* pixels */
"..XX:X;XoX).oXY.4.iXpXuXiX:XOXOX).).uX%XuX:XY.).iX4XoX2X).5.5._.).OXoXoX4.Z.uXuX:X2X2XdX#X5.M.%X4.2X#XuXaXcXNXaXpX2XaXOX4XpXxXoX",
"3 lX/.#X5Xk.}.MX3.s.l.k.f.=.$.A.+XN.V.N.}.8X_.} p.A.i.vX>.(.k.U L n H.P.=.0.8.8.E l._.(.V.N.l.{.(.| =.k.V.(.|.V.V.{.V.{.k.i.HX>X",
"4 VX(.<X8X+XC.IX>.A n [ ] U h.v.#XD.S.{.d.l.j.8./ ,.i.} h H [ E I i H.o.c U M m b | i.9.E l.-.' [ ,._.k.%.l.|.z.z.+.,.} c M MXCX",
"3 6X6X6XdXC.+XhX_.uXB.&.A R g.F.$X$X$X3X+Xk.9.8.Y n J =.: d v j g t qXR.T L 8.Y m a.$.] $.z.<.#.<.5XjX&.<.1X|.{.(.%.,.I E ' pXZX",
", R.<X1.=.l.kXD E V.$XuX5.4.T i. X}.MXbXAXCX+Xk.-.K b MXR.D Z [ /.K bXO.n k.8X0.8.k.,.z.{.B.k.M.(.B.'.1.B.V.-.|.1Xj.W W L g dXCX",
"4 E.bXB.#.sXT.V.p.%.<XxXdXvX%X5.oX;.<X8XxX;XV.l.{.} | lX2._.`.).XX:XoX: m s. X7./ $.H :.=.=.;._.'.oXXXk.#.@.:.V.,.(.'.[ ` U mXSX",
"o.eXeXN.oXNXF s.k.:.cX3XxX&XqX@X&XuX).1.+.+.T K E n G.>.h K H l i s.:Xh w.| '.;.{ u.-.&.T $.<.2XiXiX4.` P @.-.#.k.'./.j.(.l.SXSX",
"4 *X4XaX;XL #X=.W 6XAXbX5XdX$Xt.s.D.F.@XOX4.*.L n b 5XF w j Z d z [.>X= M [ (.<.+.1.,.-.V.z./.2XjXjX4._.z.B.B.B.Z.>.(.|.<X{.LXSX",
"1 ,XR.D H n m FX2X<XmXDXdX5X3Xa.9.t.9.0.l.$XsXaX..4.GXF = d H l g H.uX) 4.5.R.Y.;X5.R.T.oXT.T.4.I.U.T.>X-XY.-X'.iXY.I.Y.B.pXAXCX",
", bX..n Y J n Y HXaXD _.z.a.k.| j.x.@.Y 0.Y E h.G.uX-XiXT...T n n BXXXpXkX&X&X+X_.V.B.<.4.%XZ.).oX<XB.z.5XpXjXlX2.+.| b E c.GXAX",
"- :.cXD _ n I R ] sXI.D z.V.s.] i.t.d.] m J U b Y vX..j J a.iX<.).W.3.M.-.cXfXd.C.k.R V./.).6X_.iX4X'.z.'.kXoXXXA n n j G ] SXAX",
"- ~ $X) R ] [ [ P t.fXwX~ a.l.a.] { i.I J I 8.( h.yX# z l i b u jXX.M.d.[.BXDXsXD.C.[ i.].5XcX(.B.3XB.#X'._.*.Y.Z b d g n W DXCX",
"- &.[.5X` s.$.` d.l.' pXyXO.s.v.{ @.R Y Y ] { ] gXSX= t J K u u 3X>.A.@X7XmXbXkX,.;.=.;.<.+X;.#X(.<.3XsX].4.C.R.v b b K T +.GXGX",
", K.9XHX) [ N.k.=.i.N.| }.uX..t.a.i.0.E +.N.i.A.CX*.+X= u G e V :X..fXsXdX2X+X2XZ.d.%.M.-.<.` $.C.*.&X5X#X{.7X4.A $.c K [ b dXKX",
"3 K.x.BXY.&.oX+X<.A.S.k.a.G.uX..E y.0.W a.}.@XBX>.i / +XS w x 8XE.<.@X8.N p.| K [ h.V.k.V.;.=.` F.D.<XpXsXD.7XOX` i.T L #.P MXKX",
"3 T H v.jXC A.V.B.S.l.N.C.M.+XjX! n / S. X@.&XlXv / t m MX..=.IXJ.<XN.Y V N K =.D.}.#X<X3X[.L R s.l.l.f.N.F.H.XX` f.-.(./.+.VXGX",
", G n E xXo.;.#Xa.{.N.d.oX<.` 7XZXF c qX_.k.DXS w k i u V m.I.lX;X;X`.U.U.XXXXR.Y.U.2.R.4.*.6.2.4.).).4./.4.).P.Z m.k.xX<X[ VXSX",
"- L W +.v.-XO.N.| j.C.V.;.k.C.D.3XIXS G }.cXT.B.: y u i e / SX*.}.p.V.dXoX1XxX1X{.qXs.d.E a.A.k.aX` A.P n i h.,XD D.l.(.'.s.CXzX",
": W z..Xf.cX>.{.V.d.$X{.8.@X&XD.N.#.aX3.2X>X# N iXC w q k 7X>.k.t.$.N.|.z.<X=X(.|.[ ,.x.qX}.| %.hXA Y @.,.c 9.<.O.F.t.N.1.t.cXJX",
"- W j. X XBXE.O.vX2X| _ K | 9.k.} U 8.HXT.s w 9 7.aX# 0 r.kX..t.{ A.G.(.V._.=X.Xu.$.a.s.v.h.[ '.Q.c L P B.b p.-XO.}.V.}.#XR cXKX",
"; &.u.1Xx.}.CXQ D.#Xk.w.Y Y U R d.7.8XKXS t 9 9 6 r.P.f uX..a.f.s.t.S.|.|._.|.x.[.}./ w.d.Y I (.L.v -.i G b p.hXO. X_.Z.$X} 3XSX",
"; j.^..X3X<XmX6.` +X%XN.w.U ] ] y.vX>X).T.* 7 t u 6 ( hX3.s.u.F.y.t.u.(.=X1X[.b.V.L Y f.N / U V.P.A E G b n } XXD 7XS.{.7Xt.pXKX",
"& ,.f.c..X{.mXvX..$X_.D.i.' | H.BX>Xh 0 qX-Xf @ 0 0 h.E.K q./ 0.q.0.W u.s.y.t.y.R Y b 8.8.( N F.E.T _ 9.n ` $.-X! .XF.$XA.M JXzX",
"& *Xs.t.a.{.xXjXI.3.F.N.#.i.%XAX3.s g n y Y &X..@ e.hX2 9.u.0.t.x..X,.V.l.a.%.] E E m 0.] i.L S.P.| V.N.R +.=.wXZ S.$X7X0.p ZXzX",
"; *Xx.0.E x.z.=XlXC w.}.3XNXU.uXS @ t l i 0 u 7XhXW.:XXXY.>.oXoXY.iX2XT.XX`.`.2.XX-X2.Y.XX-XXX-X>.T p.D.S.n [ E.T t.~.f.b L DXCX",
"- ].^.y.E J W %.#X..+.xXXXZ 9 m bX> 0 t i K u H.zX>.%XD.G.f.f.m.sXxXxXsX&Xz.S.R pX:X*.cX#XuX4X2.wX*.N.%.N.A.k.2.,.s.|.9.H Z CXNX",
"- ,.u.0.J n { <.k.zXhXP.$ 6 u 6 r.hX# k u J f.>XK.$X&Xg.F.D.p.f.xXxXoXoX$X{.V._ _.4.U.uX<X6XoX-XP.<.#X'.%X;XAXW.&.0Xv./ 0.g xXSX",
"- &.a.t.k.k.B.R.` ' / I.+ 0 y 9 7 vXS f k H.W.T.MXfX'.N.7X{.v.H.&XA.{.-.$X{.S.f.fXY.3.jX;X).].4XQ.).fXC.oX;XpXE.F F.w.w.v.f.xXkX",
"Q ,X2.#X(.cXW.$ 0 t t w.J.# u y 9 B _.C 7XwX>XfXsXvXz.S.dX_.A.G.l.f.p.g.v.d.D.V.7XZ.o.bXlXbX/.i.K.O.dX).B.dXB.`.>.1.5._.B.;.MXAX",
"- j j g t f.JX# 6 7 t 0 gX3 O 0 6 6 @XyXlXX.oX8Xw.r.Y q.F.w.w.0.v.}.m.A.i.i.+XC.S.M.W.NX`.,XZ.f.#.D 3X*X5XXXT K 5XF w m l 9 HXJX",
"o j T j y T SX2 y 6 0 0 u jX: 0 p C.W.3.nXzXO.V.+XG.A.&X8X{.n q.7XG.@XD.m.%X}.f.}.R.Y.sX_.4X5X9.B.J.yXkX3 G p 0 j.F u z l 6 VXGX",
"X H k d 9 6 vXX.% p p q 7 y.yXO.iX,XiX$.}.CX2.:XiX).:XY.2.T.U.4.;X`.:XB.;.4.4.*._.>.`.MX5XVX&X&XT.&.R d.S $ k u (...g w u u VXJX",
"o s u e t u u.zX% 8 0 0 m %XwXwXlXHXxXvXz.lXU 8.t.i.i.c.] | l.l.V.1XBX8X8XMXuX|.BXE.+.5XAXCXoXS g U [ P I.# Y n V.S y d w n SXKX",
"+ w 9 9 6 6 n KXD {  .oX-XkXX.U.vXAXMXMXF.hXg / 0.u.y.8.D.{.9.S.1X9XdX8XxXZX1X9XLX!.;.dX;Xc z O.$ n |.a.U.C m H ] > u l j s ZXKX",
"  $ g y s g M.zXwXwX;X5X8XdXL.`.@X_.xX1Xh.hXc 7.Y w.9.s.S.{.Y } }.nXbX5XmX1Xl.x.0XhX6.! % t d V.: u g d /.2 j y J E.q k [ l bXLX",
"- D ;X-X4.z.cXwXf a.1X0X$X9Xo.,XBXlXCXDXdX!.Y / N m Y t.h.F.qX$XnXnX=X|.6X|.b.S.gXCX2 O e y f I ..$ u e n o.= B F.hXD +XC.pXMXCX",
", jX{.(.S.l.1XW.d y.|.VXz.].Q.4X5X<XnXHXIXwXG e.0.N k x r.F.$X9XnX5X|.|.].|.1XBXW.T o.O 0 y ~ ^ 2.= q z j.wXO.2X1.,.M.5X4XpXLXSX",
"& ].3X8X{.$.mXP.l 8.@. X+.x.zX,.i.$.fXZXLXrXK q.7.( x x 0.e.h.v.3X.X|.bX,X X5X>X= 5 L J.$ d n d +.F c #XNX`...Z.a.u.$.{.'.1.LXSX",
"& |.jX5XS.=.HXX.n h.8.I 0.}.hXv M p.3X;XLXwXD k.K U [ t.g.h.i.V.<Xx.z.T <.ZXhX= 8 7 7 d *.: a B G.XX>.#.] '.F }.1X(.V.$._.).KXSX",
"& 6XxX_.'.{.fXX.n b.9.U / s.JXR.:XXX;X-XzXCXiXlXlXoX2XkX2X4X%XiX_.$XMX`.lXD U 5.O 7 9 q u 3.A &XY.` } 8.p.$XO.W i.a.dX@XC.B.LXNX",
"o <.a.|.z.|.vXP.n Y J { b E rX'.mX(.|.|.bX5XZXmX5XxXxX8XZX5X@XfX}.F.tXKX! @ 8 S.3 O 6 7 7 7.hX..R p.| 9.9.h.XXD $.=.8X$XS.d.GXCX",
"& +.=XeX4X_.BXo.g r.N 7.p t.!.U.8XS.f.c.x.9X9X_.(.k.1X<X3X#XvX1XfX7XZX>.$ 7 d m mX: O 8 8.,X2.E 7.n.$.7.Y / 4XQ U g.g.+X=.M SXSX",
"; '.K.oXxX;XMXP.g ( f.}.U y.!./.1Xg.m / N x.t.8.y.( ( 8.p.f.7XnX&XBX>X$ a d d b ( *X: Y T.T a.8.0.8.w.0.h.0.-.5.c F.l.+Xf.m.KXKX",
", <X_.}.1X4X1XQ.c Y 8.a.x.v.wXT [ c.m m N [ n m m ( Y s.] / q.1XA.MX3 O a k H E k p sXJ.D E y.t.9.d.A.F.m.B.P 7XC [.3XD.}.f.LXGX",
"- K.V.x.jXCXxXL.y p k R j.&XL.O.9.H U b m 9.g m N U f.h.S.F.0.y.vX,X2.C w e H U g Y MXQ `.#.W j.x.|.(.1XS.A.N.F.3./.BX7X$XfXIXGX",
"& ~.(.[.j.<XdX>.i B t K $.dXL.A 9.%.H l b N m m t.Y 0.V v.S.|.H.lX= r E T.O.A g x jX>.;XF T +.j.%.(./.sXz.a.{.F.U.D vX7XsXLXPXcX",
"; z.@.k.+.1.#XhXh n b @.&.'.wXD [ <.*.T $.a.{ #.V.V.|.[ l.V.V.CX2 q m J N =.J.S #X..{ ^.lXS D |.<.1.4X2XjX].3X@.{.J./.dXvXZXIXkX",
"o k.@.,.-._.9XzXR.jXY.-XCX4X1.).iXU.).:XhX2XkX6XpXjXoXoXoXZ.zXhXS 9 z K I l J jX..8.E K 8XjXQ '.0X].V.'.1.1.z.' @.,X>.FX$X3XPXCX",
"o V.z.<X*.'.mXX.j E U +.|.C.C.l.8.Y q.7Xk.l.w.F.w.q.r.7XF.V NX..t.Q.Z G I m r.2.#.S.s.y.k.$XiXQ &.{.V./.3.z.%.0.t._.K.S.F.N.IXSX",
". #XpXcX'.,.FXo.f c K -.)._.MX2Xl.{.#Xm.e.<X9.8XbXf.( t.I l.zX# 8 n B.3.s a S.o.$X{.|.|.[.}.fXdXS ! z.,.+.' W [ t.s.,X1.}.<XPXbX",
". 6XVXlX'.z.xXo.= P M d.OX&X+XkX`.2XZXdXG.@XA.l.R.VXt.h.p.}.I.9 u 9 0 ( ` =...&.mX'.~ <._.V.|.l.sX..C +.H n L W G E '...t.@.PXaX",
". eXeXlX*XjXbXL.$ M ' _.3X_.Z.pXiX5XD.vXAX2Xf.h.F.D.aXDXN.dX2 @ f g e 7 f.J.3.pX1X<X#.K k.k.l.*.=.$X*.S 1.T } E J n 9.6.{ U SXZX",
". lX'.eXVXlXHXX.h 9.B.x.+XoXZ.kXaXpX_.NXaXpX3XMX&X$XNXxX8XNX>.C # 9 7 0 V.X.O.dXNXiX<.K l.&.D.}.-.~.BXR.o.=X$.] K T n z.L l.LXlX",
"& bX'.eXSXSXLXS n V.k.$X6X;X3XpXDXNXcX1Xk.dX}.F.@X8.7XMXDX3.7 p.;.C % q oX>.XX-XjX,X,.` E ` #.1Xt.(.6XbX>X! :.$.L T g $.2.=.IXkX",
"; R.,X-XeXwXSXP.A (.%.#XoXU.aX;X;X4X/.j.V.iX).k.N.m.D.pXjX2 6 0 i t.U.D -X>.Q.J.k.f._ P 1.d.n i.} -.~.B.5X`.Q %.] { R 8.;X#.IXiX",
", 2./.2X-XU.2X).B.#.#.M.<.;.:X<.O.).4XiX:X;X4X>XaXkX:XcX-X* 0 9 $ 6 x ;X..#XkXT.O.G n V f.] b I z.T +._.<.9XhXS 8.8.W q.OX-XkXZ.",
"  -.'.<X|.1X[.j.x.v.U ( 0.b.S.[.@.f. X9.8.1XcXeX_.1XvXbXSX+ 6 u j d q d.> z.;X5XcXiX5.D G | z J (.U.:.'.l.S.dX-XD n ' U.#.-.NXZ.",
"  ,.~.'.6X1.$.%.W f.w.{ E v.f.p.A.C.=.Y t.k.ZX6X1X4X<X&XaXU.#.f e @ b SXv l.pX6XB.D. XfXY.2.v i n -.| d.T | z.i.lXT.>.D ] i.AXkX",
". &.].R.K.6XtXZXk.N G.9Xs.I n S.l.F.sX' U $X5XC.B.z.].dXD q 8.' ;.P N.>.P s._.#X*.#.d.i.g.w.k.5.Z $ R /.[ ] ` Y '...U _ | =.SXZX",
". O.:.&.j.tX6X6XtX .d.-.1X%.{ #XC.i.[ u.G.V.w.p.(.;XT #XZ 5 6 0 k E fX..4XcXoXU.k.;.d.i._ m b M &X5.D 2.1.R p.7X..P 8.U G | HXcX",
". ~ j. X|.<XeXeX1X|.,.V.j.d.(.-.S.+XD.k.p.f.A.e.0.5Xj.D.: 8 e 9 9 0 +X6.pXoXZ.C.Z.M.9.i.d.d.' [ 8.{.D.C.4.D k.`.> _ 8.I j.k.NXaX",
". %.x.=X X0XmXJX5X Xl.S.7.v.9XS.(.pXdX$Xl.#X7Xg.8.}.F.%X+ 0 7 @ 6 u #XS +X;.=.M.M.,.a.a.l.=.] f.a.A _ w.e.| C.F y K E y L x.NX:X",
"< wXE.*X6X1.].,X`.(.3X(.}.mX=X<XlXpX5X<X#X).{.k.k.V.sXCX: b c M g j iX3 3Xa.R -.<.#.;.;.M.a.| M 9.P d.g.9.7.gX>.h P @.G K ,.cX:X",
"2 J.P.-X,X,X`.T.R.T.iX`.,X4X-X-XT.XXkX4X:X4XhX,X`.-XY.:X6.5.XX`.5.).2X*.U.XXI.XX5.I.XX-XY.5.:XXXOXY.).Y.Y.).XXR.3.3.) 2.O.O.4.Y."
};
