/* XPM */
static char * door_open_xpm[] = {
"128 128 59 1",
" 	c None",
".	c #FFFFFF",
"+	c #8A7355",
"@	c #7C644B",
"#	c #695745",
"$	c #66533E",
"%	c #80664E",
"&	c #856B54",
"*	c #735C45",
"=	c #5D4224",
"-	c #6D512E",
";	c #574023",
">	c #4D3219",
",	c #452A12",
"'	c #634225",
")	c #73522E",
"!	c #654927",
"~	c #4F381D",
"{	c #735432",
"]	c #6E5231",
"^	c #6B4B2C",
"/	c #5F482A",
"(	c #563C21",
"_	c #644B2B",
":	c #765934",
"<	c #7B5B36",
"[	c #55391E",
"}	c #463017",
"|	c #5D452A",
"1	c #5A3A1E",
"2	c #442C19",
"3	c #3D2B1C",
"4	c #46311B",
"5	c #3E2A12",
"6	c #2E190A",
"7	c #2F2112",
"8	c #7D5C39",
"9	c #36200E",
"0	c #7E613A",
"a	c #342312",
"b	c #361F10",
"c	c #8A693E",
"d	c #7F6037",
"e	c #8D6C41",
"f	c #826137",
"g	c #87683E",
"h	c #84643B",
"i	c #7C5738",
"j	c #906E42",
"k	c #927144",
"l	c #89623D",
"m	c #967648",
"n	c #8F7044",
"o	c #6C533B",
"p	c #856A4A",
"q	c #755A3D",
"r	c #654B33",
"s	c #7D6243",
"t	c #624C39",
".++@@#$                                                                                                                   %+&@*#",
"=--=;>,                                                                                                                   ')!=~>",
"!{]^/(>                                                                                                                   _:]_;=",
"':]_!(>                                                                                                                   ^:__(=",
"=:]_!(>                                                                                                                   _<^_([",
"!:]^!(}                                                                                                                   ^:-_([",
"_:]_|(>                                                                                                                   ^:^!((",
"_<]!|(>                                                                                                                   -<^/((",
"_:]_!(>                                                                                                                   -{-_;(",
"_:]-!(~                                                                                                                   -:]_(1",
"_:]{!(>                                                                                                                   -{{_((",
"_:]^!(>                                                                                                                   ){-_;(",
"-:--!(>                                                                                                                   {{^_=(",
"!:{-!(>                                                                                                                   -<-_=[",
"':{-_>2                                                                                                                   3:-_==",
"!:{-_45                                                                                                                   6:--==",
"^:{]!45                                                                                                                   7{{-;=",
"_:{]!45                                                                                                                   7{)_;[",
"!:{{!45                                                                                                                   6{{_=1",
"!<^-_45                                                                                                                   7-^-(=",
"_8__->9                                                                                                                   7{=]==",
"_8^-_45                                                                                                                   7{_]=(",
"^8-]_25                                                                                                                   7{-]([",
"_0--_25                                                                                                                   a{^](>",
"!8]{_45                                                                                                                   a{]]([",
"'8:-->5                                                                                                                   b8]]==",
"_<]]_>,                                                                                                                   a{--==",
"'8{-_=[                                                                                                                   ^<-^==",
"'0-__=>                                                                                                                   )<_^==",
"'<--_=>                                                                                                                   -:^^==",
"':--_=~                                                                                                                   ^<--==",
"_8-]_=>                                                                                                                   ):]-==",
"!8]-_=~                                                                                                                   {<]]!=",
"!8{]_=>                                                                                                                   :8:-=(",
"!0{-_=~                                                                                                                   {0{^==",
"_c]-_=~                                                                                                                   <0^]==",
"^c-^^=>                                                                                                                   d8^]|(",
")e^_^=4                                                                                                                   f<!]!(",
"^c{-_=>                                                                                                                   <f-]==",
"'e{-!=>                                                                                                                   <g-]==",
"^c:{-=>                                                                                                                   <g-{|=",
"-h-{]!>                                                                                                                   <<{{_=",
"-h^]]!>                                                                                                                   <<]{_=",
"^c{-]=}                                                                                                                   if-{![",
")c]{]=}                                                                                                                   f<-]!(",
"^c:{^'>                                                                                                                   f0:]!=",
")c<:_![                                                                                                                   hf:{!=",
":e::_=>                                                                                                                   cf{{==",
")e<:!=>                                                                                                                   hf:]==",
")j::_=[                                                                                                                   gf{]==",
"-j::_=[                                                                                                                   h8{]==",
":k::_'>                                                                                                                   cf{]|=",
"-k::^_>                                                                                                                   gf{{!=",
")e::]_>                                                                                                                   h<:{_=",
":c:{^!}                                                                                                                   l<:]_1",
")e::^!2                                                                                                                   h<:{_1",
")e{{^!4                                                                                                                   h<{]_(",
":k{^-!~                                                                                                                   c0^-_=",
":j{{]_~                                                                                                                   c8{]_'",
"-j::^_>                                                                                                                   hf:]!=",
":e:{^_~                                                                                                                   h<:]!'",
")e:{^![                                                                                                                   f8:-!=",
"^e{{-![                                                                                                                   f8{]_'",
"-c{{_'>                                                                                                                   h<{-'=",
")e<{_=>                                                                                                                   hh:^==",
")j:{!=[                                                                                                                   h0{-==",
"^e:{_=>                                                                                                                   ff{-==",
"!c<-_=4                                                                                                                   <f{^=(",
"^h:{!=~                                                                                                                   <<:_==",
")j<{!=>                                                                                                                   hh:_==",
")j<{_=>                                                                                                                   hg{-!=",
"^e<{^=>                                                                                                                   ff{]!=",
")e{{_'>                                                                                                                   h<{-!=",
"^e{{_=4                                                                                                                   h8{-!=",
"^e:-_=>                                                                                                                   hg-_=(",
"^e{]!=>                                                                                                                   h8{^=(",
"^e:]==>                                                                                                                   cg{_==",
"{m:-==4                                                                                                                   kf{_=1",
"-n--|=4                                                                                                                   e<{_=(",
"-k{-==4                                                                                                                   e8-!=(",
"{k]{!=>                                                                                                                   e<{-=(",
"-e{{!=>                                                                                                                   g<{_==",
")e:]!=>                                                                                                                   g8{_'=",
"-e{-!=4                                                                                                                   c8]_==",
"^e:{_=>                                                                                                                   gf{-|=",
"-e{{_=>                                                                                                                   g<{-==",
"^e{]!|>                                                                                                                   g<:_|=",
"'c:-!![                                                                                                                   <0{_!=",
"_e]{!!~                                                                                                                   f<{^|=",
"-e{:!!>                                                                                                                   h<:-!=",
"^g{{!![                                                                                                                   0<{^!=",
"^g{-!!~                                                                                                                   8<]_|=",
"_g:{!!(                                                                                                                   <0:_||",
"_g:{||=                                                                                                                   00:_=!",
"^h{]!|~                                                                                                                   0<{_==",
"^h{]!|(                                                                                                                   f<{_|=",
"!h{{!|~                                                                                                                   <8{^!=",
"_g{]||~                                                                                                                   f8:^==",
"^g{]!=~                                                                                                                   h<{-==",
"_h{-_~2                                                                                                                   >:{-!=",
"_h{-_>5                                                                                                                   a:{^==",
"_g{^!>5                                                                                                                   a:-_==",
"!h{^_~5                                                                                                                   a:]_|=",
"_g]-!>5                                                                                                                   a{{_==",
"_h--!>5                                                                                                                   a{{_==",
"'h]]_~a                                                                                                                   a:{_==",
"!h{^_>5                                                                                                                   a:]_==",
"!g]__>5                                                                                                                   a:^_==",
"_g]-_>5                                                                                                                   a:-_|=",
"_h{^_~5                                                                                                                   a:]_|=",
"_h]__>5                                                                                                                   a:]_==",
"_h^_!>2                                                                                                                   3{-_==",
"!0]^!=1                                                                                                                   {:]_==",
"'0-^!=[                                                                                                                   ::]_==",
"_h^_/=~                                                                                                                   0{_!==",
"_h^_/=[                                                                                                                   8{^_==",
"_0-^_=~                                                                                                                   8:-_==",
"!h-!/=[                                                                                                                   8:__==",
"!8__|=>                                                                                                                   :-__;=",
"=8__/=>                                                                                                                   :]_!==",
"=0^_!=>                                                                                                                   :{__==",
"=8__|=(                                                                                                                   {{__;=",
"=8^_/=[                                                                                                                   {{__;=",
"=0__/=[                                                                                                                   :]^_;=",
"=:__|([                                                                                                                   ]]^!(=",
"!:_!|(~                                                                                                                   :]_!(=",
"={=!=[>                                                                                                                   -_!=[1",
"opqqor|                                                                                                                   ssqort"};
