/* XPM */
static char *_9413d5ebbd34f96b83c173fcb8c505a2axEVBeijH8KXgrY[] = {
/* columns rows colors chars-per-pixel */
"128 128 36 1 ",
"  c #6B1E47",
". c #532145",
"X c #5B2046",
"o c #181524",
"O c #2E1937",
"+ c #6B5556",
"@ c #642048",
"# c #701E49",
"$ c #725754",
"% c #3C2731",
"& c #30242E",
"* c #361C3C",
"= c #4B2345",
"- c #4F143A",
"; c #27222D",
": c #805F52",
"> c #27132E",
", c #544750",
"< c #795B53",
"1 c #442241",
"2 c #7D5D51",
"3 c #6B4C4C",
"4 c #231B28",
"5 c #641C43",
"6 c #150E1F",
"7 c #634B4E",
"8 c #46183B",
"9 c #311A18",
"0 c #5E464C",
"q c #5A163E",
"w c #311C2A",
"e c #3D1535",
"r c #332736",
"t c #402E36",
"y c #523541",
"u c #8A6D60",
/* pixels */
",,,,,,7+$<<+70yt966666666666666666666666666666666666666666666666666666666666666666666666666666666666666666666669ty000007+<<<<<+0",
",,,,,,,,,,70777yw6oo66oo6o6o6o6o6o6o6o6ooooooooooo6ooooooooooooooooooooooooooooooooooooooooooooooooooooooooooo6wy77777333+<::$33",
",,,,,,,7,7,,0,70w6oo4ooooooooooooooooooooooooooooooooooooooooooo4oooooooooooooooooooooooooooooooooooooooooo4oo6w0777777737737333",
",,,,,,,,,,,77070w6o4t%oooooooooooooooooooooooooooooooooooooooo4%t4oooooooooooooooooooooooooooooooooooooooo%t4o6w0777777733333333",
",,,,,,,7,77,0770w6o4t%ooooooooooooooooooooooooooooooooooooooooo%t4oooooooooooooooooooooooooooooooooooooooo%t4o6w0777777733333333",
",,,,,,,,,,,70,70w6oo4oooooooooooooooooooooooooooooooooooooooooo>4oooooooooooooooooooooooooooooooooooooooooo4oo6w0777773733333333",
",,,,,,,7,7,7,770w6oooooooooooooooooooooooooooooooooooooooooooooooooooooooooooooooooooooooooooooooooooooooooooo6w0777777733333333",
",,,,,,,,,,7,7070w6oooooo66666666666666666666666666666666666666666666666666666666666666666666666666666666oooooo6w0777773733333333",
",,,,,,,7,7,7,770w6oooooo66666666666666666666666666666666666666666666666666666666666666666666666666666666oooooo6w0777777733333333",
",,,,,,,,,7,07,70w6oooooo6>O>O>>O>O>O>O>O>O>O>>>>O>O>O>O>>>>>>O>O>O>O>O>>>>>O>O>O>>>>>O>O>O>O>O>>>>>>O>>6oooooo6w0777773733333333",
",,,,,,,,7,7,7070w6oooooo6>OOOOOOOOOOOOOOOOOOOOOOOOOOOOOOOOOOOOOOOOOOOOOOOOOOOOOOOOO>OOOOOOOOOOOOOO>OOO>6oooooo6w0777777733333333",
",,,,,,,,,,7,7070w6oooooo6>OOOO>OOOOOOOOOOOOO>O>OOOOOOOOO>O>OOOOOOOOOOOOO>OOOOOOOO>OOOOOOOOOOOOO>O>OOO>>6oooo4o6w0777773733333333",
",,,,,,,7,7,7,070w6o4oo466>OOOOOOOOOOOOOOOOOOOOOOOOOOOOOOOOOOOOOOOOOOOOOOOOOOOOOOOO>OOOOOOOOOOOOOOOOOOO>6ooooooow0777777733333333",
",,,,,,,,,,7,7070w6oooooo6>OOOOOOOOOOOOOOOOOOOOOOOOOOOOOOOO>OOOOOOOOOOOOO>OOOOOOO>OOOOOOOOOOOOOOO>O>OO>>6oooo4o6w0777773733333333",
",,,,,,,7,7,07,70w6o4oooo6>OOOOOOOOOOOOOOOOOO>OOOOOOOOOOOO>OOOOOOOOOOOOOOOOOOOOOOOO>OOOOOOOOOOOOOOOOOOO>6oo4oo46w0777777733333333",
",,,,,,,,,,+0,070w6ooo4oo6>OOOOOOOO*O*O*O*OOOOOOO*OO*O*OOOOOOOOO*O*O*OOOOOOOOO*OOOOOO*OO*O*O*O*OO>OOOOO>6ooooooow0777773733333333",
",,,,,,,7,7+70070w6o4oooo6>OOOOOO>>>>>>>>>>>>>>>>>>>>>>>>>>>>>>>>>>>>>>>>>>>O>>>>>>>>>>>>>>>>>>>>>OOOOO>6oo4o4o6w0777777733333333",
",,,,,,,,,,$00770w6ooo4oo6>O**OO>>O>O>>>>O>O>O>O>O>O>O>O>O>>>>>>O>>O>O>O>>>O>>O>O>>>O>O>O>O>>>O>>>OOO*O>6ooooo4ow0777773733333333",
",,,,,,,7,,+7y770w64o4ooo6>OOO*OO>O*OOOOOO*O*O*O*OOO*O*O*OOOOOO**OOO*O*O***O**O*OOOO*O*O*OOOOO*O>>OOO*O>6oo4o4oow0777777733333333",
",,,,,,,,,,+$ty70w64o4o4o6>O****>>O***OOOOO***O*O*OOO***O*OOOOOO*OO*O**O*O*O*O*O*OOOO**O**OOOO*O>>OO**O>6o4o4o4ow0777773733333333",
",,,,,,7,7,7<yt0yw644444o6>O****>>O***OOO*********OO*******OOO***OO**************OO*******OO****>>OO**O>6o44o4oowy777333333333333",
",,y,y,y,y,y,yttt9o4o4o4o6O*****O>******O*********O********OOO***O****************O*******OOO***>>OO***>6o4o444o9ty0000000000000y",
",yyyyyyyyyyyyyt946444o4o6O*****O>**************************************************************>>*****>6o444o4o99tyty=y=yy.y.yyy",
"7++++::uu:<$+$7y9o4o444o6O*****O>*****O**************************************************O*****>>*****>oo4o444o4y033333333$$:333",
"+++++++$+$$$<<<3wo44444o6O*****O>*1*1*****1*1*1****1*1*1ww4**1*1**1*1&w4*11*11*1***1*1*1****1**>O****O>6oo4444ow0<22::::::::u3::",
"++++++$+$$$$$$<$%o44444ooO**1**O>*1*1*8***11*****e******&;4O*********&;4O***********1*1******11>O***>wwwww4444o%$<<<<<222:::3<::",
"+++++$+$+$$$<$<$%o4444;ooO1**r**>*1111**11*1*>>>>>>>>>>>&t4>>>>>>>>>>&t;>>>>>>>>>>>*1111*81111*>O**O&t&&&w444;o%$<<<<<2222:3$:::",
"+++++++$$$$$$$<$%o;;4;44oO1*r*1*O11111*1*1111OO**r*r*r*r&t;;*r*r*r*r*&t;;*r*r*r*r*O11111*1*1111>O**Ot&;&&w4;4;o%$<<<<<2222:3$:::",
"+++++$+$+$$$<$<$%o;;;;;4o*1111r*O1=11=1111==1Orrrrrrrrrr%t;rrrrrrrrrr%t;rrrrrrrrrrO1=111111=1=1OO11*r&&&&&4;;;4%$<<<<<2222:3$:::",
"+++++$+$$$$$<$<$%o;;;;;4o*11r11*O1====1111===Orr*r*r*r*rrt;rr*r*r*r*r%t;r*r*r*r*r*O1===111====1O*11O&&&&&&4;;;o%$<<<<<2222:$<:::",
"++++++$+$$$$$$<$%o;;;;;4o*111r1*O1====1111===Or*r*OOOOOO%r;OOOOOOOOOO%t;4OOOOO*rrrO====11======OO11O;&&;&;4;;;4%$<<<<<2222:$$:::",
"+++++$+$$$$$<$<$%o;;;;;4oO11111*e======111===Orrr*49949w%r;w99494949w%r;w99494*rr*O====11=====1O*11O;;&t&;4;;;4%$<<<<<2222:23:::",
"++++++$+$$$$$<<$%o;;;;;4oO11111*e======111==1OrrrO4wwwww&&;4w49;w49;9&&;49494w;r*rO1===1======1OO11O;;y3t44;;;4%$<<<<<22222:32::",
"+++++$+$+$$$$$<$%o;;;;;4o*111r1*e======1=1=1&&;;;&&&&&&&r&rr&rr&rrrrrrrrrrtrtrrrrr;&1==1======1e*11O;;t0t44;;;4%$<<<<<2222::$$::",
"++++++$+$$$$<$<$%o;;;;;4o*1111=*e=======1==%&&&rrrrrrrrtrtrttttttttttttttttttttttt&&%=========1e*11O;;;;;;4;;;4%$<<<<<22222:<3::",
"+++++$+$$$$$<$<$%o;;;;;4o*1111=*e==.=.=.1==1%%%%%%%%%%%%%%%%%&%&%%&%%%%%%%&%&%%%%%%%1.===.=.==8e*11O;;;;;;4;;;4%$<<<<<22222u23::",
"++++++$+$$$$$$<$%o;;;;;;o*1111=*e==.==.====8e>OOwO999999w449999999999ww4999999>wOO>e8===.==.==1e*11O;;;;;44;;;4%$<<<<<2222::$:::",
"++++++$+$$$$<$<$%o;;;;;4o*1111=*e=.=....====8>***O999o99&;499o99o99o9&&4999o94****>8..=.....=.=e*1=O;;;;;44;;;4%$<<<<<222:<$::::",
"+++++$+$+$$$$<<$%o;;;;;;o*1111=*e...=.=.===..e111*999999tt;9999999999%t&999999*111e.=.=.=.=.===e*1=O4;;;;;4;;;4%$<<<<<222$$:::::",
"+++++++$$$$$$$<$%o;;;;;4o*1r11=*e.=......=..=e111*99999w%t;9999999999%t;9999991111e...=....=..8e*1=Oo;;;;44;;;4%$<<<<<2:3$::::::",
"+++++$+$+$$$<$<$%o;;;;;;o*11111*e......=.=...e11=*999999tt;999999999&%t;9999991111e..=......=.=e*=11oooooo4;;;4%$<<<<<23$:::::::",
"+++++$+$$$$$<$<$%o;;;;;4o*1111=*e............e11=1999999rt;9999999999%t;9999991=11e............e*=1=1*Oo44;;;;4%$<<<<23$:2::::::",
"++++++$+$$$$$$<$%o;;;;;;o*=1111*e..X.X.......e1==8999999tr;9999999999tr;9999991==1e....X.......e*==1==*44;;;;;4%$<<<23$:22::::::",
"+++++$$$$$<$<<<0&o;y0r;4o*=111=*e.X...X....X.e1==1999999%r;9999999999%r;9999991==1e.X..X.X.....e*====1*o4;tyr;4%3<2<3$:2::::::::",
"7+++++++++++++7y94;y3r;4o*=1111*e.X.X.X....X.e===8999999t&;9999999999tr;9999998===8XX..X.X.....e*==1=1*o4;y3t;49y3$33<$$$<<<<<<3",
",yyyyyyyyyyyyyt%94;&r;;4o*=1111*e.XXXXXX...X.e1==8999999r&;9999999999%&;9999998111e.X..XXXX...Xe*=1==1*o4;rt&;49%yyyyyyyyyyyyyy0",
"y,,,,,+++++$<7y%94;;;;;4o*==111*eXXX.XX.X.X1&;&&&&&&&%&&&&&&r&%r%&%rr&rrrr%%rrrrr&;&=X.XXXX..XXe*==1=1*o4;;;;;49%yy0y0y073333$0y",
",,,,,,,7+77++77yw4;;;;&4o*==111*eXXXXXXXX.X%&&&&&rrrr%rtrr%%tttttttttttttttttttttr&&%X.XXXXX.XXe*=====eo4;;;;&4wy7773333+$<:u:+3",
",,,,,,,,,,,00070wo;;;;;4o*==111*eXXXXXXX.XX1%%%t%%%%%%%%%%%%%%&%%%%%%%%%%%%%%t%%%%%%8XXXXXXX.XXe*====1*o4;;;;&4&0777777737773333",
",,,,,,,,7,707070&o;;;;&4o*===11*eXXXXXXXXXXqeee88e999999ww49999999999ww4999999e88ee8-XXXXXXXXXX8*=====eo4;;;;&4&0777777733333333",
",,,,,,,,,7,7,070&4;;;;;;>*===11*eXX@X@XXXXXX.e8--8999999w449999999999ww4999999----eqXXXXX@XX.XXe*=====O>4;;;;;4&0777777733333333",
",,,,,,,7,,7,7070&4;;;;;4>*===1=*eX@XXX@XXXX@X8XXXqeee9ew%t;wee9e9e9ew%t&we9e9e.XXX8X@XXX@XXXXXX-*====1e>4;;;;;4&0777773733333333",
",,,,,,,,,7,7,770&4;;;;;4>*===11*eXX@@X@XXX@XX8XXXXXXX5@.%t;.XX5X5X5XX%t;.X5X5XXXXX-XXXXX@X@X5XXe*====1e>4;;;;&4&0777777733333333",
",,,,,,,,,7,07,00&4&;;;&4o8====18eX@X@X@XX@X@X8XXXXX5XX5.%t;.@XXXXXXXX%t;.@XXXXXXXX-X@@XX@@X@XXX-*===11e>4&;;;&4&0777773733333333",
",,,,,,,7,,7,7070&4&;&;&4>8=====*eX@@@@@XX@@@X-X@@@@@@@@X%r;.@@@@@@@@X%r;.@@@@@@@@X-X@@XX@@@@@XX88====1e>4&;&;&4&0777777733333333",
",,,,,,,,,7,07,70&4&;;;&4>8=====*e5@@@X@X@@@@X---------q8%&;8q------q-%&;8q------q--X@@5X@@@@X5X88===11e>4&;;;&4&0777773733333333",
",,,,,,,7,,7,7070&4&;&;&4>8=====ee@@@@@@5@@@@X--------8-8%&;8----q-8-8%&;e------8---@@@@5@@@@@@qe8===11e>4&;&;&4&0777777733333333",
",,,,,,,,7,7,7070&4&;;;&4>8=====8e@@@@@X5@@@@X----------8&&48---ee---8&&;e----------@@@@5@@@@@@5e8==1=1e>4&;;;&4&0777773733333333",
",,,,,,,,,,7,7,70&4&;;;&4>8=====ee@@@@@55@@@@5qXXXXXqqqqqq..Xq>4444>-qXX.qqqXXXXXqqX@@@@55@@@@@5e8===11e>4&;;;&4&0777777733333333",
",,,,,,,7,7,07070&4&;;;&4>8=====e8@@@@@X5@@@@@@@@@ @X@X@@@5@@O;;;;;;O5@@@5X5@@@@@@@@@@@@X5@@@@@5e8==1.1e>4&;;;&4&0777773733333333",
",,,,,,,,,7,7,770&4&;;;&4>8=.===e8@@@@@5@@@@@@@@ @@5555@@@5 -;;;;t&;;8 @@555@@@@@@5@@@@@@5@@@@@@e8=====e>4&;;;&4&0777777733333333",
",,,,,,,7,,707,00&4&;;;&4>8===.=e8@@ @@5@ @ @@@@@ @555@@@@X e;4;&t%4;e @@555@@@ @@5@@@ @@5@@@ @588.=.1=e>4&;;;&4&0777773733333333",
",,,,,,,,,7,7,770&4&&&&&4>8=.===e8@@@@55@@@@@@5@ @ 55@@@@@@ *4o;;&%o4* @@555@@@@@@55@@@@@5@@@@@@-8===.8e>4&&&&&4&0777777733333333",
",,,,,,,7,,7,7070&4&&&&&;>8===.=885   55      5    55      X;;4o;&>4;;X  555      55     55     88==.1=e>4&&&&&4&0777773733333333",
",,,,,,,,,7,7,070&4&&&&&4>8.=...88    55      5    55      %&4ww4>ww4r%  555       5     55     -8.==.=e>4&&&&&4&0777777733333333",
",,,,,,,7,,7,7070&4&&&&&;>8...=.e8    5       5    5      Xt&e&%%%t%e&rX 555       5     55     88....=e>4&&&&&4&0777773733333333",
",,,,,,,,7,77,77yw4&&&&&4>8.=...88    5            5     #.t858ett%eq1t.#55               5     -8.=.==e>4&&&&&4wy777773333333333",
",,,,,,,,,,,,00ytw4&&&&r4>8..=.=e- #               5     #.t8#5q--q5 1t.#           5     5     88....=e>4&&&&&4wt000000000000000",
"ytyttttyttytttt%94&&&&&4>8.=...1- #  5                  #Xt1# #     =t.# 5         5     5   # -8.=.==e>4&&&&&49&ty=yty=yy=y=y.y",
"00077$+0773$$<0t94&&&&&;>8...=.e- #                     #5tt5# ##  5tt5#                       -8.....e>;&&&&&;9ty033$33$3$$$$33",
"++++$$u++<$<<:u3w4&&&&&;>8.....1- #   # ### #  ##   ### # 1t1 #@@  1t8 #    ######   ###    ## -8..=.=8>;&&&&&4&0$22:uuuuuuuuu::",
"+++++++:7$$$$$::%4&&&&&;>8.=.=.8- #   ## # ##  ##  ## ####q%%%*;r1%t%q##   # # # ##  # ##   ## -8.....e>;&&&&r4%32<<<<222222:2::",
"+++++++<$3$$<$<$%4&&&&&;>8.....1- #   #######  ##  ##### # -1w4ty&&%- ##   #######    ###   ## -8...=.8>;&&&&&4%$<<<<<2222::::::",
"++++++$+$3$$$$<$%4&&&&&w48.....8-###  ######## ##  ######## q-;;r%-q5####  ########  ####   ###-8.....8>;&&&&r4%$<<<<<2222::2:::",
"+++++$+$$+0$<$<$%4&&&&&;48.....1-555qq55555555q55qq555555555qqe4weqqq5555qq55555555qqq555qqq555-8.....8>;&&&&&4%$<<<<<2222::::::",
"+++++$+$$$30<$<$%4&&&&&w48.....88---8--------------------------eee-----------------------------88.....8>;&&&&&4%$<<<<<2222::::::",
"++++++$+$$<33$<$%4&&&&&;>8.X.XX8e888e8888888e888e88888888ee88ee888888ee8e888888888888e88888888888..X..8>;&&&&&4%$<<<<<2222::::::",
"+++++$+$$$+<+03$%4&&&&&w>8=%1%%%ewewewwewewwewew8888888888888888888888888888888888888888888888888...X.8>;&&&&&4%$<<<<<2222::::::",
"++++++$+$$$$<$0y%4&&&&&;>8=%%%t%tttttttttytytyt%=................X.............................X......8>;&&&&&4%$<<<<<2222::::::",
"+++++$+$$$$$$<<3%4&&&&&w>81;&&&&&&&&rrrrr&rrrr&;=..X.X.X.X......X..X......X.X.X.X.X.X...X.X...X......X8>;&&&&&4%$<<<<<2222::::::",
"++++++$+$$$$$$<$%4&&&&&;>88wwOwwO&ww;w&w;w;w;wwO.XXXXXXXXX...X.XXXXXX...X..XXXXXXXXXX..XXXX....XX....X8>;&&&&r4%$<<<<<2222::::::",
"+++++$+$$$$$<$<$%4&&&&&;>8X8888e8888e8888888e88888..........8.8.......8..8............8.....8.8..X....8>;&&&&r4%$<<<<<2222::::::",
"++++++$+$$$$$$<$%4&&&&&&>8XX...8eeeeeeeeeeeeeeeeeeeeeeeeeeeeeeeeeeeeeeeeeeeeeeeeeeeeeeeeeeeeeeee.X....8>;&&&&r4%$<<<<<2222::::::",
"+++++$+$$$$$<$<$%4&&&&&;>8XXXX.8e111==============11111=1===111===1181======11*111*11===181===1e.XX.X.8>;&&&&r4%$<<<<<2222::::::",
"++++++$+$$$$$$<$%4&&&&&w>8X.XXX8e==1===============1=========1=====11=========1==11======1=====e.XXX..8>w&&&&r4%$<<<<<2222::::::",
"+++++$+$$$$$<$<$%4r&&&r;>8XXX.X8e==1==============.1=========1====1=1=========1==11=======1====e.XXXX.8>;r&&&r4%$<<<<<2222::::::",
"++++++$+$$$$$$<$%4&tyrr;>8XXXX.8e=====.=.=.=.=.=.====.==.=.==.====.8=.=.=.=.==8====.=.=.=.1.=.=e.XXX.X8>;rrtrrw%$<<<<<2222::::::",
"+++++$+$$$$$<$<$%4&y3t&w>8XXXXX8e=.==...............=........==..====.........=..=......=.=...=e.XXXXX8>w&y3t&w%$<<<<<2222::::::",
"++++++$+$$$$$$<$%4&tyrrw>8XXXX.-e=....=.=.=.==.=.=..=.=.=.=..=....==..=.=.=.===..=..=.=..=.....e.XXXXX8>;&ty%rw%$<<<<<2222::::::",
"+++++$+$$$$$<$<$%4r&&&rw>-XXXXX-e...=..........................................................e.XXXXX8>;r&r&rw%$<<<<<2222::::::",
"++++++$+$$$$$$<$%4r&&&rw>-XXXX.88......X..X...=......X.X..X........1.X.X.X..........X..X.......e.XXXXX8>;r&&&rw%$<<<<<2222::::::",
"+++++$+$$$$$<$<$%4r&%&rw>-XXXXX-8.X...X..X.......X...X...X.....X.....X.....X.......X..X.....X.Xe.XXXXX->;r&%&rw%3<<<<<2222::::::",
"++++++$+$$$$$$<$%4r&&&%;>-XXXXX88.XX..XXXX.......XX..XXXXXXX...XX...XXXXXXXX...X..XXXXXXX...XX.8qXXXXX8>;r&&&rw%3<<<<<2222::::::",
"+++++$+$$$$$<$<$%4r&&&rw>-XXXXX-8.XXX.X.XXXX.XXX.XX..XXXX.XX..XXX.X.X.XXXXXXX.XX..X.XX.XX.X.XXX8qX@XX@->wr&&&rw%0<<<<<2222::::::",
"++++++$+$$$$$$<$%4%rrr%w>-X@XXX88XXXXXXXXX.XXXX.XXXXXXXXXXXXXXXXXX.XXXXXXXXXXXXXXXXXXXXXXX.XXX.8.XXX@X->w&&rr%w%0$<<<<2222::::::",
"+++++$+$$$$$<$<$%4%r%rrw>-XX@XX-8XXXXXXXXXXXXXXXXXXX.XXXXXXX.XXXX.XXXXXXXXXXXXXXXXXXXXXXXXXXXXX-.XX@*wwwwww%r%w%y32<<<2222::::::",
"++++++$+$$$$$$<$%4%r&%%w>-@X@XX.8XX@XXX@X@XXXXXXXXXXXX@X@X@XXXXXXXXXX@X@X@X@XXXXXXX@X@X@X@.XX@X8.XX.4ttrr&wrr%w%y32<<<2222::::::",
"+++++$+$$$$$<$<$%4%r%rrw>-@X@XX-8X@XXXXX@XXXX@@XXX@XXXX@X@X@XXX@X5XX@X@X@X@XXXX@XX@X@X@X@XXXX@X-XXX8&t&&&&wrr%w%y32<<<2222::::::",
"++++++$+$$$$$$<$%4%r&r%w>-@XXXX--X@@@XX@@@XX@@@@XX@@XX@@@@@XXXX@@XXX@@@X@@X@@X@@@X@@X@@@@@XX@@X-XXX8;&&&&&wrr%w%032<<<2222::::::",
"+++++$+$$$$$<$<$%4%%r%%&>-@XX@X--X@@@5X@@@5X@@@@5X@@XX@@@X@@5X@@@X5@@X@@@@@@@X@@@5@@@@X@X@5X@@X-X@@8;&&&&&w%%%w%0$2<<<2222::::::",
"++++++$+$$$$$$<$%w%r%&%&>-@X@XX--@@@@@5@@@5@@@@@@5@@55@@@@@@@5@@@@X@@@@@@@@@X5@@@@@@@@@@@@@5@@@-X@@8;&&&&&w%r%;%0$<<<<2222::::::",
"+++++$+$$$$$<$<$%w%&%%%&>-@@@@X--@@@@@5@@@55@@@@@5@@55@@@@@@@X5@@55@@@@@@@@@55@@@5@@@@@@@@X5@@X-X@@8;&;;;;w%%%w%0$<<<<2222::::::",
"++++++$+$$$$$$<$%w%%r%r&>-@@@@X--@@@@@5@@@55@@@@@5@@55@@@@@@@55@@@55@@@@@@@@55@@@5@@@@@@@@@5@@@-X@@8;;tyr;w%r%;%0<<<<<2222::::::",
"+++++$+$$$$$<$<$%w%%&%%&>-@@@@@--@@@@@5@@@5@@@@@@5@@55@@@@@@@55@@@55@@ @@ @@5@@@@5@ @ @@ @@5@@@-q@@84;y3t;4%%%w%0<<<<<2222::::::",
"++++++$+$$$$$$<$%w%%%%%&w-@@@@5--5   55   55     5  55       55   55  @  @# 55   5 @    @  55 @-q@@84;rt&;4%%%w%$<<<<<2222::::::",
"+++++$+$$$$$<$<$%w%&%&%wwq@@@X@--5    5   55     5  55       55    5      @ 5  @ @ #@#@    55  -X@@84;;;;;4%%%w%$<<<<<2222::::::",
"++++++$+$$$$$$<$%w%%%%%&wq@@@@@--5    5   5      5   5        5    5       55   5      #@# 5   -X@@84;;;;;4%&%&%$<<<<<2222::::::",
"+++++$+$$$$$<$<$%w%&%&%wwq@@@@@--     5          5            5    5   # # 5    5    #  #  5 # -X@@84;;;;;4%%%w%$<<<<<2222::::::",
"++++++$+$$$$$$<$%w%%%%%&wq@@@@@q-                    5                 #          ## # # # 5 # -q@@84;;;;44%%%w%$<<<<<2222::::::",
"+++++$+$$$$$<$<$%w%%%%%wwq@@@@Xq- ##    ##  ####   #  ####### 5  ## 5        ##  # ##@####   # -X@@84;;;;;4%%%&%$<<<<<2222::::::",
"++++++$+$$$$$$<$%w%%%%%&wq@@@@5q- ##   ###  ####  ##  #######    ###        ###  ####### #   # -X@@.oo44;o4%%%w%$<<<<<2222::::::",
"+++++$+$$$$$<$<$%w%%%%%wwq@@@@@q- ##   ###  ##### ##  #######    ###       ####  #########   # -X@@@8e>oo4w%%tw%$<<<<<2222::::::",
"++++++$+$$$$$$<$%w%%%%%&wq@ @@@-- ##   ### ###### ##  #######    ####     #####  #########  ## -X@ @  qw&%%%%%w%$<<<<<2222::::::",
"+++7+$+$$$$$<$<$%w%%%%%wwq@@@@@q- ###  ### ###### ##  ####### #  ####     #####  ##########  ##-X@@@@@qw&%%%%twt$<<<<<2222::::::",
"++<+y7$$$$$$$$<$%w%%%%%&wq@ @@@q-### # ### ###### ## ######### # ###### ####### ########## ####-q@ @ @qw&%%%%%wt$<<<<<2222::::::",
"++<uyy3$$$$$<$<$%w%%%%twwq @@@@q-#### #### ###### ## ########  # ############### ########## ###-q @ @ qw&%%%%twt$<<<<<2222::::::",
"++<u7y0$$$$$$$<$%w%%%%%&wq  @@@q-###   ### ###### ## #########  ############### ##########  ###-q @   qw&%%%%%wt<<<<<<2222:::2<:",
"+++:u+03$$$$<$<$tw%%%%twwq     q-#### ###  ###### ## ########  # ##############  ########## ###qq     qw&%%%%twt<<<<<<2222:2:$2:",
"+++++<$3$$$$$$<$tw%%%%%&wq  @  q-##  # ## ######  ## #########  # ############## #########  ###-q  @  qw&%%%%%wt<<<<<<22222:<3u:",
"++++++$$$$$$<$<$tw%%%%twwq @   q-############################ ################# ######### #####qq @#@ qw&%%%%twt<<<<<<2222::3$u2",
"+++++++$+$$$$$<$tw%%%%%&wq     q-qqqqqqqqqq5q5q5qqqqqqq5q5q5qqqqqqq5q55q5q5q5qqqqqq555q5qqqqq5qq5     qw&%%%%%&t<<<<<<222:<0yu::",
"++++++$+$$$$<$<$tw%%%%twwq     q-q-q----q---q-q---q-q-q-q-q----------q-q-q-q-q-q------q-q----q--5     qw&%%%%twt<<<<<<22233$:u::",
"+++++$+$$$$$$$<$tw%t%%t%wq#    q-----q----------------------------------------------------------q#   #qw&%t%%twt<<<<<<22$<::::::",
"++++++$+$$$$<$<$tw%%t%%wwq#    q-qqqqqqqqq-qqqqqqqqqqqqqqqqq-q-qqqq-qqqqqqqqqqqqqqqqqqqqq-q-qqqq5#   #qw&%%%%twt<<<<<<222:2:2:::",
"+++++$+$$$$$$$<$tw%%%%t%wq#      5        5               # 5   #  5 # ## # #### 5 # # #  5  # #   #  qw&%%%%twy<<<<<<2222::::::",
"++++++$+$$$$<$<$tw%%%%%wwq####    #######   ############# #     #    #             #   # 5       # # #qw&%t%%%wy<<<<<<2222::::::",
"+++++$+$$$$$$$<+tw%%%%t%wq555555q555555555555555555555555  55555  555           55      5555          qw&%%%%twt$<<<<<2222::::::",
"++++++$+$$$$$<30%w%t%t%wwqqqqq----qqqqqq----qqqqqqqqqqqqqqq-----qq----qqqqqqqqq---qqqqqq----qqqqqqqqqqqe&%t%t%%%3$<<<<2222::::::"
};
