/* XPM */
static char *c30e3b1710454608fdbd024de5f24030sxAEYkr3yRALvBv8[] = {
/* columns rows colors chars-per-pixel */
"32 32 81 1 ",
"  c #495495",
". c #4A5798",
"X c #675399",
"o c #665499",
"O c #615FA2",
"+ c #4F69AE",
"@ c #5261A6",
"# c #5B60A1",
"$ c #5D62A2",
"% c #5163A8",
"& c #5168AD",
"* c #456FB2",
"= c #4570B3",
"- c #4470B4",
"; c #6361A3",
": c #6461A3",
"> c #6E6AA7",
", c #6266AA",
"< c #6466AA",
"1 c #6E6AA8",
"2 c #6E6DA9",
"3 c #7271AE",
"4 c #7473AF",
"5 c #7572B0",
"6 c #7074B1",
"7 c #7675B1",
"8 c #8D78C2",
"9 c #8F79C4",
"0 c #4D8792",
"q c #4D8892",
"w c #4E8894",
"e c #55929D",
"r c #50959C",
"t c #56949F",
"y c #5497A0",
"u c #539AA0",
"i c #5799A3",
"p c #5B99A7",
"a c #5C99A7",
"s c #599CA6",
"d c #5B9BA8",
"f c #5E9AA9",
"g c #5A9EA8",
"h c #609BAB",
"j c #629BAC",
"k c #639EAE",
"l c #659EAF",
"z c #7987B7",
"x c #738BB7",
"c c #7488B6",
"v c #7989B7",
"b c #7987B8",
"n c #7F86BD",
"m c #788BB8",
"M c #7A8CBB",
"N c #7A8EBC",
"B c #6A95B2",
"V c #6C94B3",
"C c #6D94B4",
"Z c #679FB4",
"A c #6E9BB7",
"S c #689FB5",
"D c #6F9BB8",
"F c #6F9CB9",
"G c #7299B7",
"H c #7D90BF",
"J c #719BB9",
"K c #749BBA",
"L c #709CB9",
"P c #749CBA",
"I c #5EA2AE",
"U c #5FA3B0",
"Y c #64A0B1",
"T c #6DA0BA",
"R c #70A1BD",
"E c #7E8EC0",
"W c #7C91C0",
"Q c #7DA7CC",
"! c #7CA8CB",
"~ c #7DA9CD",
"^ c #8285BF",
/* pixels */
"@;7HSyyYYyyZW7:@@;7HSiyYYyyZW7;@",
"mJhydFM33mLdyhLmmLhydFM33mLdyhJm",
"rqI~9X -- X8~U0rr0I~9X -- X8~Uqr",
"GlspBx6<,6xBaslGGlspBx6<,6xBaslG",
",6cCfskGGksfVc6,,6cCfskGGksfVc6,",
"*.o8QIqrrqI!8o =- o8QIqrrqI!8o *",
"7MApukPzzPkupAN43MApukPzzPkupAM7",
"fegR^1#++#>^RgeffegR^1#&+#>^Rgef",
"htsTn2$&&$2nFgehhtgTn2$&&$2nFgth",
"3mJpukLvvLkupDN33mJpukLvvLkupDm3",
"= X8~U0rr0I~9X -- X8~U0rr0I~9X *",
"<6cBaslGGlspBx6<,6xBaslGGlspBx6<",
"GksfVc6,,6cCfskGGksfVc6,,6cCfskA",
"rqI!8o =- o8QIqrrqI!8o =- o8QIwr",
"vKkupAN43MApukPzzPkupAN43MApukKv",
"&#>^RgeffegR^1#&+#>^RgeffegR^1#&",
"&$2nFgehhtgTn2$&&$2nFgehhtsTn2$&",
"vLkupDN33mJpukLvvLkupDN33mJpukLm",
"rqI~9X -- X8~U0rr0I~9X -- X8~Uqr",
"GlspBx6<,6xBaslGGlspBx6<,6xBaslG",
",6cCfskGGksfVc6,,6cCfskGGksfVc6,",
"*.o8QIqrrqI!8o =- o8QIqrrqI!8o *",
"7MApukPzzPkupAN43MApukPzzPkupAM7",
"fegR^1#++#>^RgeffegR^1#++#>^Rgef",
"htgTn2$&&$2nFgehhtsTn2$&&$2nFgth",
"3mJpukLvvLkupDN33mJpukLvvLkupDm3",
"= X8~U0rr0I~9X -- X8~U0rr0I~9X *",
"<6cBaslGGlspBx6<,6xBaslGGlspBx6<",
"GksfVc6,,6cCfskGGksfVc6,,6cCfskA",
"rqI!8o =- o8~IqrrqI!8o =- o8~Iqr",
"mJjypFM33MFpijJmbJjypFM33MFpijJm",
"@;5ESitkktiSE5;%%O5ESitkktiSE5;@"
};
