/* XPM */
static char *b18a4ea0a68447a0efe70f665a9ecb15uODANtJPogrTMujL[] = {
/* columns rows colors chars-per-pixel */
"32 32 105 2 ",
"   c #965D55",
".  c #995F56",
"X  c #975C58",
"o  c #9A5D5D",
"O  c #9D6356",
"+  c #9E625B",
"@  c #A0684F",
"#  c #AF754E",
"$  c #B0764F",
"%  c #B77B4F",
"&  c #B97E4F",
"*  c #A26756",
"=  c #A56A54",
"-  c #A96E54",
";  c #A2665B",
":  c #A56959",
">  c #A96D5A",
",  c #AD7153",
"<  c #AD715C",
"1  c #B27652",
"2  c #B57952",
"3  c #B97D51",
"4  c #B17559",
"5  c #B57A5C",
"6  c #B97E5D",
"7  c #9B5D61",
"8  c #9E6162",
"9  c #A16463",
"0  c #A56A63",
"q  c #A96E63",
"w  c #AD7363",
"e  c #B17764",
"r  c #B47B63",
"t  c #B87F64",
"y  c #B47A68",
"u  c #BE824F",
"i  c #BE8251",
"p  c #BC815D",
"a  c #BC8365",
"s  c #BB8168",
"d  c #C28D41",
"f  c #C1854E",
"g  c #C68A4C",
"h  c #C98D4C",
"j  c #C69041",
"k  c #CB9442",
"l  c #CE924B",
"z  c #D39944",
"x  c #DA9E46",
"c  c #D2964A",
"v  c #D59949",
"b  c #DA9D4A",
"n  c #C18550",
"m  c #DDA146",
"M  c #DFA149",
"N  c #E2A646",
"B  c #E6A945",
"V  c #E5A846",
"C  c #E8AB45",
"Z  c #E0A348",
"A  c #E2A549",
"S  c #E4A648",
"D  c #E0A04D",
"F  c #EBAB4A",
"G  c #EDAE4A",
"H  c #EEAE4D",
"J  c #F1B14C",
"K  c #C18763",
"L  c #C08766",
"P  c #C68B65",
"I  c #C48A66",
"U  c #C98E67",
"Y  c #C18669",
"T  c #C38969",
"R  c #C78E68",
"E  c #C78C6B",
"W  c #C98F68",
"Q  c #CB9169",
"!  c #CC9269",
"~  c #CC916B",
"^  c #CD936A",
"/  c #CF956A",
"(  c #D1966B",
")  c #D2986B",
"_  c #D3986B",
"`  c #D59B6B",
"'  c #D69D6B",
"]  c #D59A6C",
"[  c #D4996F",
"{  c #D99F6D",
"}  c #D89E70",
"|  c #D7A06A",
" . c #D9A16A",
".. c #DBA36C",
"X. c #DEA36E",
"o. c #DEA46D",
"O. c #DEA370",
"+. c #E0A66E",
"@. c #E3A86F",
"#. c #E4AA6F",
"$. c #E6AC6F",
"%. c #E2A670",
"&. c #E5AB70",
"*. c #E4AA71",
"=. c #E9AE71",
/* pixels */
"2 f s X.e ; u x B b h % - O l m Z , o 0 t / +. .o.] r 9 + c N c ",
"; v : E #.T 9 ; 2 c B B M c b G m c X 8 0 e E X.o.o.( w 7 , N M ",
"o l h 7 Q $.' y 8 o , g m B N B j G u O o 8 0 a ] o.+.( w o h B ",
"o & B - 9 ! @.o.W w 8 o = u v N j d B v u = o 8 w W X.@./ 0 = m ",
"7 - N c o q / +.o.` a q 8 o O & G j m B B m g , o 8 y ` $./ 8 u ",
"8 O v B 2 7 w / o.o.X.W e 0 9 X g N F D v N C B c 2 + 8 Y *.! + ",
"9 . g B v O 8 w ( o. .o._ t 0 8 = M m v @ - & h b N m g > w ] ! ",
". X $ S N u o 9 r ( +. .o.] r 9 o u N A , . o o + - 3 h v g 3 I ",
"h u # D m M = 8 0 r ! o...o.` r 9 O v B u . 9 9 9 8 7 7 + > 2 1 ",
"B B M H N N g X 7 9 w L { o.o._ w 7 2 B l O 9 0 w w w w w w e a ",
"2 c N N z d G g - . 7 9 r / o.+.( q o c m * 8 0 r I E ! _ ..+.@.",
"7 + , h F k d N m l 1 + 7 0 a ..#.( 9 - B 1 7 q t ! ..%.+.o.X.o.",
"w 9 7 X % G z J N B B v u ; o q ! $.( 8 l h 7 w L ] %.o.| ' o.%.",
"/ t 0 9 . c m F g f c Z B N h , + y o.! > c + w / %.o.'  .o.%.] ",
"o.] t 0 7 , Z N g   O = 1 g v m v 3 < ! T n , y X.o...o.%.%...! ",
" .o.] r 9 . h N b * 8 7 7 o o : 2 g g & K 6 , E =.@.+..._ ! W I ",
"X.o.o.] r 8 = m N , o 9 0 0 0 9 8 8 9 > 4 4 3 K I s y e e e w w ",
"a ] o.o._ w 7 u C u o 9 q r t t a L E Q _ ] p 4 4 1 4 > + 7 7 8 ",
"8 w W X.@._ q + x c . 9 w a ! _ { o.+.+.#.X.w 3 Y I 3 h v g 2 = ",
"- o 8 y ` #._ 9 2 N * 8 w I { %.+.o. .X.%.W 9 f 3 ! _ q , h N N ",
"N l 1 + 9 T #._ + v 2 8 t / %.o.| ' X.%.] a 8 , v ; ] +.s 8 ; 3 ",
"l m B x u : w ] ! 2 g 8 a X.o. . .o.%.X.Q r 9 + m 3 9 ` #.( w 7 ",
". * , u c x g 2 U Y i > _ #.o.+.%.O.{ ( I w 9 o h m + q ` @...I ",
"9 8 7 7 o ; 4 3 % 6 4 5 } O.] ( Q I a a t w 9 o % C f o w ` +.o.",
"0 q w w w q q q e a p i 5 5 < 9 9 0 0 q q 0 9 o - M m - 7 r ] o.",
"0 w a I E Q _ ..o.*._ 4 5 p & f 3 - + o 7 7 8 8 O v B h . 9 t ] ",
"0 r E ] X.%.+.o.o.+.Y > n T W 4 f x x h 3 - O . X f N N , o 0 t ",
"0 t ( %.+. .'  .%.] y 8 l < / { w ; 2 v B B b h & & S m v O 9 0 ",
"q I X.+. .' ..%.X.E w 7 f l 8 ` #.E 0 o - g m B B M J x F % X 7 ",
"w _ +. .X.+.%.O._ a w 7 , B , 9 _ #.' t 9 o * & v N N d k F u = ",
"a *.@.+.X.{ _ ! E t q 8 O b v + q _ +.o.Q e 9 7 + 1 l F d k N x ",
"a _ ! I a t t r r w q 9 . h B 3 7 e ` o.o.] a q 9 7 X h B x J N "
};
