/* XPM */
static char *key21742571267[] = {
/* columns rows colors chars-per-pixel */
"10 27 110 2 ",
"   c #3B281C",
".  c #402B1E",
"X  c #402C1E",
"o  c #412C1F",
"O  c #473121",
"+  c #493223",
"@  c #4A3323",
"#  c #4B3323",
"$  c #4E3524",
"%  c #503727",
"&  c #523827",
"*  c #533928",
"=  c #573C29",
"-  c #5B3E2A",
";  c #5A3E2B",
":  c #5C3F2B",
">  c #5B3F2C",
",  c #5C3F2C",
"<  c #5F412D",
"1  c #61432E",
"2  c #62432E",
"3  c #5D7F72",
"4  c #8A4115",
"5  c #8F4315",
"6  c #964615",
"7  c #9E4B13",
"8  c #A04A15",
"9  c #A84A12",
"0  c #A94A12",
"q  c #AA4C12",
"w  c #AB4D12",
"e  c #A94E12",
"r  c #AB4F12",
"t  c #AD5412",
"y  c #AE5115",
"u  c #AD5416",
"i  c #B45112",
"p  c #BE5912",
"a  c #BF6018",
"s  c #BE6119",
"d  c #C25D13",
"f  c #C25E13",
"g  c #C15F15",
"h  c #C56716",
"j  c #CA6412",
"k  c #CB6513",
"l  c #C76917",
"z  c #CD6B1A",
"x  c #D07C18",
"c  c #D17E1C",
"v  c #D27924",
"b  c #E58616",
"n  c #EC8B17",
"m  c #EE9017",
"M  c #F39317",
"N  c #F3941E",
"B  c #DE9533",
"V  c #E18927",
"C  c #E48A24",
"Z  c #E58B25",
"A  c #EC8E20",
"S  c #E68D28",
"D  c #EF9120",
"F  c #ED9425",
"G  c #E5902E",
"H  c #EE952A",
"J  c #ED982F",
"K  c #EE992F",
"L  c #F29D27",
"P  c #F29E27",
"I  c #F59C25",
"U  c #E69230",
"Y  c #E59A32",
"T  c #EB9A37",
"R  c #EC9B35",
"E  c #EF9E3B",
"W  c #EE9F3D",
"Q  c #EAA333",
"!  c #EDA232",
"~  c #E9A437",
"^  c #E8A63E",
"/  c #F4A238",
"(  c #E6A844",
")  c #F9AF42",
"_  c #F5AB4C",
"`  c #F4AF54",
"'  c #F6B756",
"]  c #F6B661",
"[  c #F6BE66",
"{  c #F9BC62",
"}  c #FABC62",
"|  c #FABD64",
" . c #F7BF72",
".. c #F4C17B",
"X. c #F6C37C",
"o. c #F6C47C",
"O. c #F9C778",
"+. c #FBC97D",
"@. c #F9C97F",
"#. c #6EFFFD",
"$. c #FACB82",
"%. c #FACD87",
"&. c #F8CE8F",
"*. c #F9D59F",
"=. c #F9D6A0",
"-. c #F9D9A4",
";. c #FDDAA5",
":. c #FCDCA8",
">. c #FADFB2",
",. c None",
/* pixels */
",.=.o.` ` S S S ,.,.",
"=.=.` o.` ` S S 8 ,.",
"=.=.` 2 $ < S S 5 ,.",
"o.o.2 &   % < S 5 ,.",
"=.=.O     o O S 4 ,.",
"X.=.2 & o * < S 6 ,.",
"=.o.o.; # 2 A S 8 ,.",
"=.>.E A # A A u 6 ,.",
",.=.X.S @ A z 8 ,.,.",
",.,...U $ A y ,.,.,.",
",.,.*.U J A q ,.,.,.",
",.,.&.G R V r ,.,.,.",
",.,.@.W 2 V r ,.,.,.",
",.,.-.T ; V r ,.,.,.",
",.,.$.H * V r ,.,.,.",
",.,.} _ J V t ,.,.,.",
",.,.}  .T Z r ,.,.,.",
",.,.|  .= Z q ,.,.,.",
",.,.%.] : V 7 ,.,.,.",
",.,.:./ % D r ,.,.,.",
",.,.;.N J N p j n M ",
",.,.@.I / F d j d ,.",
",.,.O.! 3 Y l j M M ",
",.,.' ~ #.Q s j m b ",
",.,.[ ( #.^ s j d ,.",
",.,.) L B L d j M M ",
",.,.c x v h i ,.,.,."
};
