/* XPM */
static char *key31742571267[] = {
/* columns rows colors chars-per-pixel */
"10 27 112 2 ",
"   c #3B281C",
".  c #402B1E",
"X  c #402C1E",
"o  c #412C1F",
"O  c #473121",
"+  c #493223",
"@  c #4A3323",
"#  c #4B3323",
"$  c #4E3524",
"%  c #523827",
"&  c #533928",
"*  c #5B3E2A",
"=  c #5A3E2B",
"-  c #5B3F2C",
";  c #5C3F2C",
":  c #5F412D",
">  c #61432E",
",  c #62432E",
"<  c #8A4115",
"1  c #8F4315",
"2  c #964615",
"3  c #9C511A",
"4  c #A04A15",
"5  c #A74D16",
"6  c #A94B13",
"7  c #AA4C12",
"8  c #AB4D12",
"9  c #AB4F12",
"0  c #AD5412",
"q  c #AE5115",
"w  c #AD5416",
"e  c #A7551B",
"r  c #B45112",
"t  c #BC5E18",
"y  c #BE621B",
"u  c #BC6620",
"i  c #C25D13",
"p  c #C15F15",
"a  c #C56716",
"s  c #CA6412",
"d  c #CA6513",
"f  c #CB6513",
"g  c #C06118",
"h  c #C36F1F",
"j  c #CD6B1A",
"k  c #D07C18",
"l  c #D17E1C",
"z  c #D27924",
"x  c #5F8073",
"c  c #E58616",
"v  c #EC8B17",
"b  c #EE9017",
"n  c #F39317",
"m  c #DE9533",
"M  c #DC9435",
"N  c #D8963B",
"B  c #E18927",
"V  c #EC8E20",
"C  c #E68D28",
"Z  c #E48F2B",
"A  c #E5902E",
"S  c #EE952A",
"D  c #ED982F",
"F  c #F19E27",
"G  c #F19F28",
"H  c #E69230",
"J  c #E19D37",
"K  c #E29C36",
"L  c #E29D37",
"P  c #E69E34",
"I  c #EB9A37",
"U  c #EC9B35",
"Y  c #E99C35",
"T  c #EF9E3B",
"R  c #EE9F3D",
"E  c #DFA03D",
"W  c #EAA437",
"Q  c #E6A63A",
"!  c #E5A73D",
"~  c #E6A73D",
"^  c #F4A238",
"/  c #E5A842",
"(  c #E3A948",
")  c #E6AC4D",
"_  c #F9AF42",
"`  c #F5AB4C",
"'  c #F4AF54",
"]  c #F2B95B",
"[  c #F8BC63",
"{  c #FABC62",
"}  c #F8BE66",
"|  c #F5BF68",
" . c #E8BE72",
".. c #EDC47C",
"X. c #F5C074",
"o. c #F4C17B",
"O. c #F6C37C",
"+. c #F6C47C",
"@. c #F4C97D",
"#. c #F9C97F",
"$. c #6EFFFD",
"%. c #F8CA80",
"&. c #FACB82",
"*. c #F6CF8B",
"=. c #F8CE8F",
"-. c #F9D59F",
";. c #F9D6A0",
":. c #F9D9A4",
">. c #F9DBA7",
",. c #F6DDAB",
"<. c #FADFB2",
"1. c None",
/* pixels */
"1.;.+.' ' C C C 1.1.",
";.;.' +.' ' C C 4 1.",
";.;.' , # : C C 1 1.",
"+.+., %   % : C 1 1.",
";.;.O     o O C < 1.",
"O.;., % o & : C 2 1.",
";.+.+.= # , V C 4 1.",
";.<.T V # V V w 2 1.",
"1.;.+.C @ V j 4 1.1.",
"1.1.o.H # V q 1.1.1.",
"1.1.-.H D V 7 1.1.1.",
"1.1.=.A U B 9 1.1.1.",
"1.1.#.R > B 8 1.1.1.",
"1.1.:.I * B 8 1.1.1.",
"1.1.&.S % B 9 1.1.1.",
"1.1.{ ` U B 0 1.1.1.",
"1.1.{ X.I A 7 1.1.1.",
"1.1.} ..x M 5 1.1.1.",
"1.1.*. .$.N 3 1.1.1.",
"1.1.,.) $.J e 1.1.1.",
"1.1.:.P Y J t s v n ",
"1.1.&.W ^ J g f i 1.",
"1.1.@.! $.E h f n n ",
"1.1.] ! $.! y f b c ",
"1.1.X./ $./ y f i 1.",
"1.1._ F m G p f n n ",
"1.1.l k z a r 1.1.1."
};
